<svg width="415.109" height="242.725" viewBox="0 0 415.109 242.725" xmlns="http://www.w3.org/2000/svg" xmlns:xlink="http://www.w3.org/1999/xlink" id="Layer_1" xml:space="preserve" overflow="hidden"><path d="M342.885 231.834 346.649 81.167 313.579 80.322 284.015 79.567 293.693 231.834C298.708 234.237 337.663 234.631 342.885 231.834Z" stroke="#3C2415" stroke-miterlimit="10" fill="#CED4B7"/><line x1="293.061" y1="217.911" x2="343.21" y2="217.911" stroke="#3C2415" stroke-width="0.5" stroke-miterlimit="10" fill="#E8E5D1"/><path d="M293.061 217.911 342.914 217.911 293.061 217.911" stroke="#3C2415" stroke-width="0.5" stroke-miterlimit="10" fill="#E8E5D1"/><g><path d="M294.334 220.239C293.924 219.089 294.117 217.557 293.301 217.678 292.484 217.8 294.374 220.35 294.334 220.239Z" stroke="#3C2415" stroke-width="0.5" stroke-miterlimit="10" fill="#E8E5D1"/><path d="M295.521 220.239C295.111 219.089 295.303 217.557 294.488 217.678 293.671 217.8 295.561 220.35 295.521 220.239Z" stroke="#3C2415" stroke-width="0.5" stroke-miterlimit="10" fill="#E8E5D1"/><path d="M296.709 220.239C296.299 219.089 296.492 217.557 295.676 217.678 294.859 217.8 296.749 220.35 296.709 220.239Z" stroke="#3C2415" stroke-width="0.5" stroke-miterlimit="10" fill="#E8E5D1"/><path d="M297.896 220.239C297.484 219.089 297.678 217.557 296.863 217.678 296.046 217.8 297.936 220.35 297.896 220.239Z" stroke="#3C2415" stroke-width="0.5" stroke-miterlimit="10" fill="#E8E5D1"/><path d="M299.084 220.239C298.673 219.089 298.867 217.557 298.051 217.678 297.234 217.8 299.123 220.35 299.084 220.239Z" stroke="#3C2415" stroke-width="0.5" stroke-miterlimit="10" fill="#E8E5D1"/><path d="M300.27 220.239C299.86 219.089 300.054 217.557 299.239 217.678 298.421 217.8 300.311 220.35 300.27 220.239Z" stroke="#3C2415" stroke-width="0.5" stroke-miterlimit="10" fill="#E8E5D1"/><path d="M301.458 220.239C301.047 219.089 301.24 217.557 300.426 217.678 299.609 217.8 301.498 220.35 301.458 220.239Z" stroke="#3C2415" stroke-width="0.5" stroke-miterlimit="10" fill="#E8E5D1"/><path d="M302.645 220.239C302.235 219.089 302.428 217.557 301.612 217.678 300.796 217.8 302.686 220.35 302.645 220.239Z" stroke="#3C2415" stroke-width="0.5" stroke-miterlimit="10" fill="#E8E5D1"/><path d="M303.832 220.239C303.422 219.089 303.615 217.557 302.8 217.678 301.984 217.8 303.873 220.35 303.832 220.239Z" stroke="#3C2415" stroke-width="0.5" stroke-miterlimit="10" fill="#E8E5D1"/><path d="M305.02 220.239C304.61 219.089 304.803 217.557 303.987 217.678 303.171 217.8 305.061 220.35 305.02 220.239Z" stroke="#3C2415" stroke-width="0.5" stroke-miterlimit="10" fill="#E8E5D1"/><path d="M306.207 220.239C305.797 219.089 305.99 217.557 305.175 217.678 304.357 217.8 306.248 220.35 306.207 220.239Z" stroke="#3C2415" stroke-width="0.5" stroke-miterlimit="10" fill="#E8E5D1"/><path d="M307.395 220.239C306.985 219.089 307.177 217.557 306.362 217.678 305.546 217.8 307.436 220.35 307.395 220.239Z" stroke="#3C2415" stroke-width="0.5" stroke-miterlimit="10" fill="#E8E5D1"/><path d="M308.582 220.239C308.172 219.089 308.365 217.557 307.549 217.678 306.732 217.8 308.623 220.35 308.582 220.239Z" stroke="#3C2415" stroke-width="0.5" stroke-miterlimit="10" fill="#E8E5D1"/><path d="M309.77 220.239C309.36 219.089 309.552 217.557 308.737 217.678 307.921 217.8 309.809 220.35 309.77 220.239Z" stroke="#3C2415" stroke-width="0.5" stroke-miterlimit="10" fill="#E8E5D1"/><path d="M310.957 220.239C310.547 219.089 310.74 217.557 309.924 217.678 309.107 217.8 310.996 220.35 310.957 220.239Z" stroke="#3C2415" stroke-width="0.5" stroke-miterlimit="10" fill="#E8E5D1"/><path d="M312.145 220.239C311.735 219.089 311.927 217.557 311.112 217.678 310.295 217.8 312.184 220.35 312.145 220.239Z" stroke="#3C2415" stroke-width="0.5" stroke-miterlimit="10" fill="#E8E5D1"/><path d="M313.332 220.239C312.921 219.089 313.115 217.557 312.299 217.678 311.482 217.8 313.371 220.35 313.332 220.239Z" stroke="#3C2415" stroke-width="0.5" stroke-miterlimit="10" fill="#E8E5D1"/><path d="M314.52 220.239C314.108 219.089 314.302 217.557 313.487 217.678 312.67 217.8 314.559 220.35 314.52 220.239Z" stroke="#3C2415" stroke-width="0.5" stroke-miterlimit="10" fill="#E8E5D1"/><path d="M315.706 220.239C315.296 219.089 315.49 217.557 314.674 217.678 313.857 217.8 315.746 220.35 315.706 220.239Z" stroke="#3C2415" stroke-width="0.5" stroke-miterlimit="10" fill="#E8E5D1"/><path d="M316.893 220.239C316.483 219.089 316.676 217.557 315.862 217.678 315.045 217.8 316.934 220.35 316.893 220.239Z" stroke="#3C2415" stroke-width="0.5" stroke-miterlimit="10" fill="#E8E5D1"/><path d="M318.081 220.239C317.671 219.089 317.863 217.557 317.049 217.678 316.232 217.8 318.121 220.35 318.081 220.239Z" stroke="#3C2415" stroke-width="0.5" stroke-miterlimit="10" fill="#E8E5D1"/><path d="M319.268 220.239C318.858 219.089 319.05 217.557 318.237 217.678 317.42 217.8 319.309 220.35 319.268 220.239Z" stroke="#3C2415" stroke-width="0.5" stroke-miterlimit="10" fill="#E8E5D1"/><path d="M320.455 220.239C320.045 219.089 320.238 217.557 319.423 217.678 318.607 217.8 320.496 220.35 320.455 220.239Z" stroke="#3C2415" stroke-width="0.5" stroke-miterlimit="10" fill="#E8E5D1"/><path d="M321.643 220.239C321.233 219.089 321.425 217.557 320.61 217.678 319.795 217.8 321.684 220.35 321.643 220.239Z" stroke="#3C2415" stroke-width="0.5" stroke-miterlimit="10" fill="#E8E5D1"/><path d="M322.83 220.239C322.42 219.089 322.613 217.557 321.797 217.678 320.982 217.8 322.871 220.35 322.83 220.239Z" stroke="#3C2415" stroke-width="0.5" stroke-miterlimit="10" fill="#E8E5D1"/><path d="M324.018 220.239C323.608 219.089 323.8 217.557 322.985 217.678 322.168 217.8 324.057 220.35 324.018 220.239Z" stroke="#3C2415" stroke-width="0.5" stroke-miterlimit="10" fill="#E8E5D1"/><path d="M325.205 220.239C324.795 219.089 324.988 217.557 324.172 217.678 323.355 217.8 325.245 220.35 325.205 220.239Z" stroke="#3C2415" stroke-width="0.5" stroke-miterlimit="10" fill="#E8E5D1"/></g><path d="M326.576 220.239C326.166 219.089 326.359 217.557 325.545 217.678 324.729 217.8 326.617 220.35 326.576 220.239Z" stroke="#3C2415" stroke-width="0.5" stroke-miterlimit="10" fill="#E8E5D1"/><path d="M327.763 220.239C327.354 219.089 327.546 217.557 326.731 217.678 325.916 217.8 327.804 220.35 327.763 220.239Z" stroke="#2E368F" stroke-width="0.5" stroke-miterlimit="10" fill="#FFFFFF"/><path d="M328.951 220.239C328.541 219.089 328.734 217.557 327.918 217.678 327.104 217.8 328.992 220.35 328.951 220.239Z" stroke="#2E368F" stroke-width="0.5" stroke-miterlimit="10" fill="#FFFFFF"/><path d="M330.138 220.239C329.729 219.089 329.921 217.557 329.106 217.678 328.29 217.8 330.178 220.35 330.138 220.239Z" stroke="#2E368F" stroke-width="0.5" stroke-miterlimit="10" fill="#FFFFFF"/><path d="M331.326 220.239C330.916 219.089 331.109 217.557 330.293 217.678 329.477 217.8 331.365 220.35 331.326 220.239Z" stroke="#2E368F" stroke-width="0.5" stroke-miterlimit="10" fill="#FFFFFF"/><path d="M332.513 220.239C332.104 219.089 332.296 217.557 331.481 217.678 330.665 217.8 332.553 220.35 332.513 220.239Z" stroke="#2E368F" stroke-width="0.5" stroke-miterlimit="10" fill="#FFFFFF"/><path d="M333.701 220.239C333.291 219.089 333.484 217.557 332.668 217.678 331.852 217.8 333.74 220.35 333.701 220.239Z" stroke="#2E368F" stroke-width="0.5" stroke-miterlimit="10" fill="#FFFFFF"/><path d="M334.888 220.239C334.479 219.089 334.671 217.557 333.856 217.678 333.039 217.8 334.927 220.35 334.888 220.239Z" stroke="#2E368F" stroke-width="0.5" stroke-miterlimit="10" fill="#FFFFFF"/><path d="M336.076 220.239C335.666 219.089 335.859 217.557 335.043 217.678 334.227 217.8 336.115 220.35 336.076 220.239Z" stroke="#2E368F" stroke-width="0.5" stroke-miterlimit="10" fill="#FFFFFF"/><path d="M337.263 220.239C336.854 219.089 337.046 217.557 336.231 217.678 335.414 217.8 337.302 220.35 337.263 220.239Z" stroke="#2E368F" stroke-width="0.5" stroke-miterlimit="10" fill="#FFFFFF"/><path d="M338.451 220.239C338.04 219.089 338.232 217.557 337.418 217.678 336.602 217.8 338.49 220.35 338.451 220.239Z" stroke="#2E368F" stroke-width="0.5" stroke-miterlimit="10" fill="#FFFFFF"/><path d="M339.636 220.239C339.227 219.089 339.42 217.557 338.606 217.678 337.789 217.8 339.677 220.35 339.636 220.239Z" stroke="#2E368F" stroke-width="0.5" stroke-miterlimit="10" fill="#FFFFFF"/><path d="M340.824 220.239C340.414 219.089 340.607 217.557 339.792 217.678 338.977 217.8 340.865 220.35 340.824 220.239Z" stroke="#2E368F" stroke-width="0.5" stroke-miterlimit="10" fill="#FFFFFF"/><path d="M342.011 220.239C341.602 219.089 341.795 217.557 340.979 217.678 340.164 217.8 342.052 220.35 342.011 220.239Z" stroke="#2E368F" stroke-width="0.5" stroke-miterlimit="10" fill="#FFFFFF"/><path d="M343.199 220.239C342.789 219.089 342.982 217.557 342.167 217.678 341.352 217.8 343.24 220.35 343.199 220.239Z" stroke="#2E368F" stroke-width="0.5" stroke-miterlimit="10" fill="#FFFFFF"/><path d="M324.011 220.239C324.061 220.315 324.971 220.295 325.204 220.239" stroke="#3C2415" stroke-width="0.5" stroke-miterlimit="10" fill="#E8E5D1"/><path d="M324.011 220.239C323.78 220.295 322.865 220.315 322.819 220.239" stroke="#3C2415" stroke-width="0.5" stroke-miterlimit="10" fill="#E8E5D1"/><path d="M322.818 220.239C322.586 220.295 321.672 220.315 321.625 220.239" stroke="#3C2415" stroke-width="0.5" stroke-miterlimit="10" fill="#E8E5D1"/><path d="M321.625 220.239C321.393 220.295 320.48 220.315 320.432 220.239" stroke="#3C2415" stroke-width="0.5" stroke-miterlimit="10" fill="#E8E5D1"/><path d="M320.432 220.239C320.2 220.295 319.286 220.315 319.239 220.239" stroke="#3C2415" stroke-width="0.5" stroke-miterlimit="10" fill="#E8E5D1"/><path d="M319.238 220.239C319.006 220.295 318.092 220.315 318.046 220.239" stroke="#3C2415" stroke-width="0.5" stroke-miterlimit="10" fill="#E8E5D1"/><path d="M318.046 220.239C317.813 220.295 316.9 220.315 316.854 220.239" stroke="#3C2415" stroke-width="0.5" stroke-miterlimit="10" fill="#E8E5D1"/><path d="M316.854 220.239C316.62 220.295 315.708 220.315 315.659 220.239" stroke="#3C2415" stroke-width="0.5" stroke-miterlimit="10" fill="#E8E5D1"/><path d="M315.658 220.239C315.426 220.295 314.512 220.315 314.467 220.239" stroke="#3C2415" stroke-width="0.5" stroke-miterlimit="10" fill="#E8E5D1"/><path d="M314.466 220.239C314.233 220.295 313.32 220.315 313.274 220.239" stroke="#3C2415" stroke-width="0.5" stroke-miterlimit="10" fill="#E8E5D1"/><path d="M313.273 220.239C313.039 220.295 312.127 220.315 312.08 220.239" stroke="#3C2415" stroke-width="0.5" stroke-miterlimit="10" fill="#E8E5D1"/><path d="M310.886 220.239C310.934 220.315 312.143 220.469 312.079 220.239" stroke="#3C2415" stroke-width="0.5" stroke-miterlimit="10" fill="#E8E5D1"/><path d="M338.429 220.239C338.477 220.315 339.388 220.295 339.622 220.239" stroke="#2E368F" stroke-width="0.5" stroke-miterlimit="10" fill="#FFFFFF"/><path d="M338.429 220.239C338.196 220.295 337.283 220.315 337.237 220.239" stroke="#2E368F" stroke-width="0.5" stroke-miterlimit="10" fill="#FFFFFF"/><path d="M337.236 220.239C337.003 220.295 336.09 220.315 336.043 220.239" stroke="#2E368F" stroke-width="0.5" stroke-miterlimit="10" fill="#FFFFFF"/><path d="M336.043 220.239C335.811 220.295 334.897 220.315 334.85 220.239" stroke="#2E368F" stroke-width="0.5" stroke-miterlimit="10" fill="#FFFFFF"/><path d="M334.85 220.239C334.616 220.295 333.704 220.315 333.657 220.239" stroke="#2E368F" stroke-width="0.5" stroke-miterlimit="10" fill="#FFFFFF"/><path d="M333.656 220.239C333.424 220.295 332.51 220.315 332.463 220.239" stroke="#2E368F" stroke-width="0.5" stroke-miterlimit="10" fill="#FFFFFF"/><path d="M332.463 220.239C332.231 220.295 331.318 220.315 331.27 220.239" stroke="#2E368F" stroke-width="0.5" stroke-miterlimit="10" fill="#FFFFFF"/><path d="M331.27 220.239C331.038 220.295 330.124 220.315 330.077 220.239" stroke="#2E368F" stroke-width="0.5" stroke-miterlimit="10" fill="#FFFFFF"/><path d="M330.076 220.239C329.844 220.295 328.931 220.315 328.883 220.239" stroke="#2E368F" stroke-width="0.5" stroke-miterlimit="10" fill="#FFFFFF"/><path d="M328.882 220.239C328.651 220.295 327.736 220.315 327.69 220.239" stroke="#2E368F" stroke-width="0.5" stroke-miterlimit="10" fill="#FFFFFF"/><path d="M327.689 220.239C327.457 220.295 326.543 220.315 326.498 220.239" stroke="#3C2415" stroke-width="0.5" stroke-miterlimit="10" fill="#E8E5D1"/><path d="M326.498 220.239C326.264 220.295 325.352 220.315 325.305 220.239" stroke="#3C2415" stroke-width="0.5" stroke-miterlimit="10" fill="#E8E5D1"/><path d="M343.201 220.239C342.969 220.295 342.056 220.315 342.009 220.239" stroke="#2E368F" stroke-width="0.5" stroke-miterlimit="10" fill="#FFFFFF"/><path d="M342.008 220.239C341.776 220.295 340.862 220.315 340.815 220.239" stroke="#2E368F" stroke-width="0.5" stroke-miterlimit="10" fill="#FFFFFF"/><path d="M343.201 220.239C342.969 220.295 342.056 220.315 342.009 220.239" stroke="#2E368F" stroke-width="0.5" stroke-miterlimit="10" fill="#FFFFFF"/><path d="M340.814 220.239C340.582 220.295 339.668 220.315 339.623 220.239" stroke="#2E368F" stroke-width="0.5" stroke-miterlimit="10" fill="#FFFFFF"/><path d="M310.886 220.239C310.653 220.295 309.74 220.315 309.694 220.239" stroke="#3C2415" stroke-width="0.5" stroke-miterlimit="10" fill="#E8E5D1"/><path d="M309.693 220.239C309.46 220.295 308.547 220.315 308.5 220.239" stroke="#3C2415" stroke-width="0.5" stroke-miterlimit="10" fill="#E8E5D1"/><path d="M308.5 220.239C308.268 220.295 307.355 220.315 307.307 220.239" stroke="#3C2415" stroke-width="0.5" stroke-miterlimit="10" fill="#E8E5D1"/><path d="M307.307 220.239C307.075 220.295 306.161 220.315 306.114 220.239" stroke="#3C2415" stroke-width="0.5" stroke-miterlimit="10" fill="#E8E5D1"/><path d="M306.186 220.239C305.954 220.295 305.04 220.315 304.993 220.239" stroke="#3C2415" stroke-width="0.5" stroke-miterlimit="10" fill="#E8E5D1"/><path d="M304.992 220.239C304.76 220.295 303.846 220.315 303.799 220.239" stroke="#3C2415" stroke-width="0.5" stroke-miterlimit="10" fill="#E8E5D1"/><path d="M303.798 220.239C303.567 220.295 302.652 220.315 302.606 220.239" stroke="#3C2415" stroke-width="0.5" stroke-miterlimit="10" fill="#E8E5D1"/><path d="M302.605 220.239C302.373 220.295 301.459 220.315 301.413 220.239" stroke="#3C2415" stroke-width="0.5" stroke-miterlimit="10" fill="#E8E5D1"/><path d="M301.413 220.239C301.18 220.295 300.267 220.315 300.22 220.239" stroke="#3C2415" stroke-width="0.5" stroke-miterlimit="10" fill="#E8E5D1"/><path d="M300.219 220.239C299.987 220.295 299.073 220.315 299.026 220.239" stroke="#3C2415" stroke-width="0.5" stroke-miterlimit="10" fill="#E8E5D1"/><path d="M299.025 220.239C298.793 220.295 297.879 220.315 297.834 220.239" stroke="#3C2415" stroke-width="0.5" stroke-miterlimit="10" fill="#E8E5D1"/><path d="M297.834 220.239C297.6 220.295 296.688 220.315 296.641 220.239" stroke="#3C2415" stroke-width="0.5" stroke-miterlimit="10" fill="#E8E5D1"/><path d="M296.641 220.239C296.407 220.295 295.495 220.315 295.448 220.239" stroke="#3C2415" stroke-width="0.5" stroke-miterlimit="10" fill="#E8E5D1"/><path d="M295.447 220.239C295.214 220.295 294.301 220.315 294.254 220.239" stroke="#3C2415" stroke-width="0.5" stroke-miterlimit="10" fill="#E8E5D1"/><path d="M294.254 220.239C294.022 220.295 293.072 220.327 293.061 220.239" stroke="#3C2415" stroke-width="0.5" stroke-miterlimit="10" fill="#E8E5D1"/><line x1="292.787" y1="217.444" x2="343.007" y2="217.444" stroke="#3C2415" stroke-width="0.5" stroke-miterlimit="10" fill="#E8E5D1"/><line x1="294.059" y1="218.02" x2="293.845" y2="217.297" stroke="#3C2415" stroke-width="0.5" stroke-miterlimit="10" fill="#E8E5D1"/><line x1="295.268" y1="218.02" x2="295.054" y2="217.297" stroke="#3C2415" stroke-width="0.5" stroke-miterlimit="10" fill="#E8E5D1"/><line x1="296.488" y1="218.02" x2="296.275" y2="217.297" stroke="#3C2415" stroke-width="0.5" stroke-miterlimit="10" fill="#E8E5D1"/><line x1="297.613" y1="218.034" x2="297.402" y2="217.311" stroke="#3C2415" stroke-width="0.5" stroke-miterlimit="10" fill="#E8E5D1"/><line x1="298.828" y1="218.034" x2="298.615" y2="217.311" stroke="#3C2415" stroke-width="0.5" stroke-miterlimit="10" fill="#E8E5D1"/><line x1="300.005" y1="218.034" x2="299.793" y2="217.311" stroke="#3C2415" stroke-width="0.5" stroke-miterlimit="10" fill="#E8E5D1"/><line x1="301.164" y1="218.02" x2="300.953" y2="217.297" stroke="#3C2415" stroke-width="0.5" stroke-miterlimit="10" fill="#E8E5D1"/><line x1="302.375" y1="218.02" x2="302.162" y2="217.297" stroke="#3C2415" stroke-width="0.5" stroke-miterlimit="10" fill="#E8E5D1"/><line x1="303.595" y1="218.02" x2="303.382" y2="217.297" stroke="#3C2415" stroke-width="0.5" stroke-miterlimit="10" fill="#E8E5D1"/><line x1="304.72" y1="218.034" x2="304.507" y2="217.311" stroke="#3C2415" stroke-width="0.5" stroke-miterlimit="10" fill="#E8E5D1"/><line x1="305.936" y1="218.034" x2="305.722" y2="217.311" stroke="#3C2415" stroke-width="0.5" stroke-miterlimit="10" fill="#E8E5D1"/><line x1="307.111" y1="218.034" x2="306.9" y2="217.311" stroke="#3C2415" stroke-width="0.5" stroke-miterlimit="10" fill="#E8E5D1"/><line x1="308.313" y1="218.02" x2="308.1" y2="217.297" stroke="#3C2415" stroke-width="0.5" stroke-miterlimit="10" fill="#E8E5D1"/><line x1="309.521" y1="218.02" x2="309.309" y2="217.297" stroke="#3C2415" stroke-width="0.5" stroke-miterlimit="10" fill="#E8E5D1"/><line x1="311.867" y1="218.034" x2="311.656" y2="217.311" stroke="#3C2415" stroke-width="0.5" stroke-miterlimit="10" fill="#E8E5D1"/><line x1="313.082" y1="218.034" x2="312.87" y2="217.311" stroke="#3C2415" stroke-width="0.5" stroke-miterlimit="10" fill="#E8E5D1"/><line x1="314.259" y1="218.034" x2="314.046" y2="217.311" stroke="#3C2415" stroke-width="0.5" stroke-miterlimit="10" fill="#E8E5D1"/><line x1="315.425" y1="218.02" x2="315.213" y2="217.297" stroke="#3C2415" stroke-width="0.5" stroke-miterlimit="10" fill="#E8E5D1"/><line x1="316.634" y1="218.02" x2="316.422" y2="217.297" stroke="#3C2415" stroke-width="0.5" stroke-miterlimit="10" fill="#E8E5D1"/><line x1="317.855" y1="218.02" x2="317.645" y2="217.297" stroke="#3C2415" stroke-width="0.5" stroke-miterlimit="10" fill="#E8E5D1"/><line x1="318.982" y1="218.034" x2="318.77" y2="217.311" stroke="#3C2415" stroke-width="0.5" stroke-miterlimit="10" fill="#E8E5D1"/><line x1="320.195" y1="218.034" x2="319.982" y2="217.311" stroke="#3C2415" stroke-width="0.5" stroke-miterlimit="10" fill="#E8E5D1"/><line x1="321.373" y1="218.034" x2="321.16" y2="217.311" stroke="#3C2415" stroke-width="0.5" stroke-miterlimit="10" fill="#E8E5D1"/><line x1="322.564" y1="218.02" x2="322.352" y2="217.297" stroke="#3C2415" stroke-width="0.5" stroke-miterlimit="10" fill="#E8E5D1"/><line x1="323.773" y1="218.02" x2="323.561" y2="217.297" stroke="#3C2415" stroke-width="0.5" stroke-miterlimit="10" fill="#E8E5D1"/><line x1="326.339" y1="218.034" x2="326.127" y2="217.311" stroke="#2E368F" stroke-width="0.5" stroke-miterlimit="10" fill="none"/><line x1="327.439" y1="218.034" x2="327.229" y2="217.311" stroke="#2E368F" stroke-width="0.5" stroke-miterlimit="10" fill="none"/><line x1="328.722" y1="218.034" x2="328.511" y2="217.311" stroke="#2E368F" stroke-width="0.5" stroke-miterlimit="10" fill="none"/><line x1="329.879" y1="218.034" x2="329.667" y2="217.311" stroke="#2E368F" stroke-width="0.5" stroke-miterlimit="10" fill="none"/><line x1="330.98" y1="218.034" x2="330.768" y2="217.311" stroke="#2E368F" stroke-width="0.5" stroke-miterlimit="10" fill="none"/><line x1="332.263" y1="218.034" x2="332.05" y2="217.311" stroke="#2E368F" stroke-width="0.5" stroke-miterlimit="10" fill="none"/><line x1="333.455" y1="218.034" x2="333.242" y2="217.311" stroke="#2E368F" stroke-width="0.5" stroke-miterlimit="10" fill="none"/><line x1="334.554" y1="218.034" x2="334.342" y2="217.311" stroke="#2E368F" stroke-width="0.5" stroke-miterlimit="10" fill="none"/><line x1="335.838" y1="218.034" x2="335.625" y2="217.311" stroke="#2E368F" stroke-width="0.5" stroke-miterlimit="10" fill="none"/><line x1="336.977" y1="218.034" x2="336.764" y2="217.311" stroke="#2E368F" stroke-width="0.5" stroke-miterlimit="10" fill="none"/><line x1="338.184" y1="218.034" x2="337.971" y2="217.311" stroke="#2E368F" stroke-width="0.5" stroke-miterlimit="10" fill="none"/><line x1="339.361" y1="218.034" x2="339.148" y2="217.311" stroke="#2E368F" stroke-width="0.5" stroke-miterlimit="10" fill="none"/><line x1="340.529" y1="218.034" x2="340.318" y2="217.311" stroke="#2E368F" stroke-width="0.5" stroke-miterlimit="10" fill="none"/><line x1="341.736" y1="218.034" x2="341.525" y2="217.311" stroke="#2E368F" stroke-width="0.5" stroke-miterlimit="10" fill="none"/><line x1="342.914" y1="218.034" x2="342.701" y2="217.311" stroke="#2E368F" stroke-width="0.5" stroke-miterlimit="10" fill="none"/><path d="M342.586 230.925 346.346 80.258 313.313 79.413 283.782 78.658 293.448 230.925C296.341 217.438 300.041 204.837 317.541 215.637 335.039 226.438 342.586 230.925 342.586 230.925Z" stroke="#3C2415" stroke-miterlimit="10" fill="#E8E5D1"/><path d="M314.869 213.538 314.869 96.2 314.869 85.156" stroke="#3C2415" stroke-miterlimit="10" fill="#E8E5D1"/><g><line x1="324.584" y1="96.197" x2="316.41" y2="96.197" stroke="#F26724" stroke-width="0.7" stroke-miterlimit="10" stroke-dasharray="1 1" fill="none"/><g><circle cx="314.507" cy="96.198" r="2.114" fill="#F26724"/></g><g><rect x="324.021" y="92.541" width="1.125" height="7.314" fill="#F26724"/></g></g><g><g><g><path d="M304.145 209.386C301.803 209.382 299.905 207.485 299.907 205.143 299.911 202.8 301.807 200.901 304.147 200.901 306.491 200.901 308.387 202.807 308.388 205.149 308.386 207.491 306.486 209.386 304.145 209.386Z" stroke="#7D712D" stroke-width="0.3" stroke-dasharray="1.0234 1.0234" fill="none"/></g><circle cx="304.136" cy="205.141" r="2.799" stroke="#7D712D" stroke-width="0.3" fill="#B7C98F"/><g><path d="M303.361 200.302C303.255 200.684 303.148 200.698 302.882 201.237 302.455 202.026 300.933 201.509 300.91 200.772L300.905 200.444C300.563 200.638 299.375 200.129 299.571 199.153 298.912 199.257 298.526 198.684 298.711 198.059 298.864 197.511 298.933 197.196 298.787 196.235 298.606 195.044 298.284 193.667 299.149 192.29 299.225 192.171 299.153 192.024 299.078 191.987 298.927 191.911 298.469 191.95 298.474 191.563L298.521 190.138C298.538 189.628 299.295 189.242 301.668 189.328 304.133 189.413 305.099 189.472 305.073 190.492 305.05 191.494 305.03 191.773 305.03 191.773 305.012 192.089 304.798 192.135 304.657 192.181 304.578 192.206 304.539 192.326 304.571 192.408 304.625 192.54 305.133 193.824 305.213 194.925 305.287 195.938 305.578 196.346 305.453 197.026 305.306 197.831 305.306 200.45 305.289 201.231 305.272 202.001 304.985 203.218 304.972 204.854 304.957 206.409 303.156 206.358 303.281 204.958 303.383 203.855 303.251 203.812 303.31 203.434 303.413 202.766 303.361 202.026 303.336 201.501 303.332 201.262 303.41 201.004 303.361 200.302" stroke="#EB4324" stroke-width="0.5" stroke-miterlimit="10" fill="#FCD4CD"/><path d="M301.855 191.375C300.873 191.314 299.164 191.449 299.006 191.5 298.857 191.553 298.771 191.439 298.795 191.221 298.812 191.073 298.836 190.303 298.836 190.303 298.843 189.963 299.203 189.567 301.828 189.653 304.541 189.757 304.885 189.879 304.856 190.678L304.793 191.672C304.783 191.735 304.746 191.774 304.682 191.803 304.531 191.875 304.338 191.524 301.855 191.375Z" stroke="#EB4324" stroke-width="0.5" fill="#FCD4CD"/></g><line x1="302.097" y1="181.534" x2="302.229" y2="190.339" stroke="#F26724" stroke-width="0.7" stroke-miterlimit="10" stroke-dasharray="1 1" fill="none"/></g><g><rect x="300.472" y="181.282" width="3.251" height="0.502" fill="#F26724"/></g></g><path d="M274.415 233.967C275.513 233.524 276.612 233.079 277.71 232.635 278.627 232.264 279.376 231.653 279.769 230.772 280.439 229.266 281.095 227.74 281.56 226.161 281.872 225.108 281.914 223.954 281.955 222.839 282.023 220.921 281.193 218.957 282.314 217.107 282.474 216.841 282.628 216.578 282.788 216.314 283.033 216.548 283.331 216.755 283.512 217.033 283.641 217.234 283.608 217.537 283.658 217.792 283.913 219.066 284.126 220.352 284.455 221.609 284.557 221.987 284.976 222.283 285.353 222.748 285.462 222.273 285.5 222.014 285.582 221.769 286.079 220.288 285.746 218.642 286.571 217.201 287.012 216.431 286.842 215.308 288.11 215.103 288.458 215.041 289.024 214.984 289.248 215.396 289.424 215.72 289.825 216.16 289.06 216.398 288.894 216.45 288.789 216.877 288.759 217.142 288.638 218.206 288.537 219.273 288.458 220.343 288.414 220.939 288.431 221.544 288.418 222.2 288.937 219.925 289.397 217.731 289.963 215.569 290.083 215.115 290.612 214.77 290.958 214.366 291.778 215.005 292.142 215.714 292.054 216.682 291.933 217.99 291.814 219.305 291.832 220.615 291.851 221.583 292.09 222.55 292.231 223.516 292.323 223.512 292.416 223.51 292.504 223.508 294.018 220.248 295.531 216.988 297.063 213.69 297.26 213.861 297.418 213.998 297.477 214.045 297.248 213.354 297.729 212.958 298.207 212.539 298.93 213.223 298.953 213.367 298.557 214.284 298.637 214.26 298.735 214.232 298.996 214.156 297.5 219.646 295 224.683 294.295 230.185 295.494 229.269 296.488 227.946 298.252 227.739 298.932 227.659 299.285 227.881 299.623 228.33 299.769 228.523 299.865 228.752 300.004 228.997 299.805 229.139 299.627 229.309 299.42 229.398 297.391 230.327 296.123 232.011 294.94 233.806 294.53 234.431 293.955 234.952 293.424 235.494 292.82 236.11 292.154 236.67 291.57 237.305 290.873 238.061 290.052 238.529 289.074 238.861 286.865 239.613 284.588 240.274 282.541 241.354 281.689 241.803 280.842 242.262 279.996 242.725L274.415 233.967Z" stroke="#392726" stroke-width="0.5" stroke-miterlimit="10" fill="#BBA795"/><g><g><path d="M314.521 221.125 314.521 240.319 370.625 240.319 370.625 236.571" stroke="#C82257" stroke-width="0.5" stroke-miterlimit="10" fill="none"/><g><path d="M371.473 237.567 370.625 236.719 369.777 237.567 369.777 236.848 370.625 236 371.473 236.848Z" fill="#C82257"/></g></g></g><g><defs><circle cx="370.625" cy="193.813" r="40.929" id="SVGID_2_"/></defs><clipPath id="SVGID_6_"><use width="100%" height="100%" xlink:href="#SVGID_2_" overflow="visible"></use></clipPath><path d="M533.602 258.2 552.418-495.134 387.066-499.361 239.246-503.136 287.633 258.2C312.715 270.212 507.492 272.185 533.602 258.2Z" stroke="#3C2415" stroke-miterlimit="10" fill="#CED4B7" clip-path="url(#SVGID_6_)"/><line x1="284.48" y1="188.581" x2="535.227" y2="188.581" stroke="#3C2415" stroke-width="0.5" stroke-miterlimit="10" fill="none" clip-path="url(#SVGID_6_)"/><path d="M284.48 188.581 533.746 188.581 284.48 188.581" stroke="#3C2415" stroke-width="0.5" stroke-miterlimit="10" fill="none" clip-path="url(#SVGID_6_)"/><g clip-path="url(#SVGID_6_)"><path d="M290.848 200.222C288.797 194.47 289.762 186.814 285.68 187.419 281.598 188.03 291.047 200.778 290.848 200.222Z" stroke="#3C2415" stroke-width="0.5" stroke-miterlimit="10" fill="#E8E5D1"/><path d="M296.785 200.222C294.734 194.47 295.695 186.814 291.617 187.419 287.531 188.03 296.98 200.778 296.785 200.222Z" stroke="#3C2415" stroke-width="0.5" stroke-miterlimit="10" fill="#E8E5D1"/><path d="M302.723 200.222C300.672 194.47 301.637 186.814 297.555 187.419 293.473 188.03 302.922 200.778 302.723 200.222Z" stroke="#3C2415" stroke-width="0.5" stroke-miterlimit="10" fill="#E8E5D1"/><path d="M308.66 200.222C306.597 194.47 307.57 186.814 303.492 187.419 299.406 188.03 308.855 200.778 308.66 200.222Z" stroke="#3C2415" stroke-width="0.5" stroke-miterlimit="10" fill="#E8E5D1"/><path d="M314.598 200.222C312.539 194.47 313.512 186.814 309.43 187.419 305.348 188.03 314.793 200.778 314.598 200.222Z" stroke="#3C2415" stroke-width="0.5" stroke-miterlimit="10" fill="#E8E5D1"/><path d="M320.523 200.222C318.472 194.47 319.445 186.814 315.367 187.419 311.281 188.03 320.73 200.778 320.523 200.222Z" stroke="#3C2415" stroke-width="0.5" stroke-miterlimit="10" fill="#E8E5D1"/><path d="M326.465 200.222C324.41 194.47 325.379 186.814 321.305 187.419 317.223 188.03 326.668 200.778 326.465 200.222Z" stroke="#3C2415" stroke-width="0.5" stroke-miterlimit="10" fill="#E8E5D1"/><path d="M332.398 200.222C330.347 194.47 331.316 186.814 327.234 187.419 323.156 188.03 332.605 200.778 332.398 200.222Z" stroke="#3C2415" stroke-width="0.5" stroke-miterlimit="10" fill="#E8E5D1"/><path d="M338.336 200.222C336.285 194.47 337.254 186.814 333.176 187.419 329.098 188.03 338.543 200.778 338.336 200.222Z" stroke="#3C2415" stroke-width="0.5" stroke-miterlimit="10" fill="#E8E5D1"/><path d="M344.273 200.222C342.222 194.47 343.191 186.814 339.109 187.419 335.031 188.03 344.48 200.778 344.273 200.222Z" stroke="#3C2415" stroke-width="0.5" stroke-miterlimit="10" fill="#E8E5D1"/><path d="M350.211 200.222C348.16 194.47 349.129 186.814 345.051 187.419 340.965 188.03 350.418 200.778 350.211 200.222Z" stroke="#3C2415" stroke-width="0.5" stroke-miterlimit="10" fill="#E8E5D1"/><path d="M356.148 200.222C354.097 194.47 355.058 186.814 350.984 187.419 346.906 188.03 356.355 200.778 356.148 200.222Z" stroke="#3C2415" stroke-width="0.5" stroke-miterlimit="10" fill="#E8E5D1"/><path d="M362.086 200.222C360.035 194.47 361.004 186.814 356.922 187.419 352.84 188.03 362.293 200.778 362.086 200.222Z" stroke="#3C2415" stroke-width="0.5" stroke-miterlimit="10" fill="#E8E5D1"/><path d="M368.023 200.222C365.972 194.47 366.933 186.814 362.859 187.419 358.781 188.03 368.219 200.778 368.023 200.222Z" stroke="#3C2415" stroke-width="0.5" stroke-miterlimit="10" fill="#E8E5D1"/><path d="M373.961 200.222C371.91 194.47 372.879 186.814 368.797 187.419 364.715 188.03 374.156 200.778 373.961 200.222Z" stroke="#3C2415" stroke-width="0.5" stroke-miterlimit="10" fill="#E8E5D1"/><path d="M379.898 200.222C377.847 194.47 378.808 186.814 374.734 187.419 370.652 188.03 380.094 200.778 379.898 200.222Z" stroke="#3C2415" stroke-width="0.5" stroke-miterlimit="10" fill="#E8E5D1"/><path d="M385.836 200.222C383.781 194.47 384.754 186.814 380.672 187.419 376.59 188.03 386.031 200.778 385.836 200.222Z" stroke="#3C2415" stroke-width="0.5" stroke-miterlimit="10" fill="#E8E5D1"/><path d="M391.773 200.222C389.714 194.47 390.683 186.814 386.609 187.419 382.527 188.03 391.969 200.778 391.773 200.222Z" stroke="#3C2415" stroke-width="0.5" stroke-miterlimit="10" fill="#E8E5D1"/><path d="M397.707 200.222C395.656 194.47 396.629 186.814 392.547 187.419 388.465 188.03 397.906 200.778 397.707 200.222Z" stroke="#3C2415" stroke-width="0.5" stroke-miterlimit="10" fill="#E8E5D1"/><path d="M403.641 200.222C401.59 194.47 402.555 186.814 398.485 187.419 394.402 188.03 403.844 200.778 403.641 200.222Z" stroke="#3C2415" stroke-width="0.5" stroke-miterlimit="10" fill="#E8E5D1"/><path d="M409.582 200.222C407.531 194.47 408.492 186.814 404.422 187.419 400.34 188.03 409.781 200.778 409.582 200.222Z" stroke="#3C2415" stroke-width="0.5" stroke-miterlimit="10" fill="#E8E5D1"/><path d="M415.516 200.222C413.465 194.47 414.426 186.814 410.36 187.419 406.277 188.03 415.719 200.778 415.516 200.222Z" stroke="#3C2415" stroke-width="0.5" stroke-miterlimit="10" fill="#E8E5D1"/><path d="M421.453 200.222C419.402 194.47 420.367 186.814 416.289 187.419 412.215 188.03 421.656 200.778 421.453 200.222Z" stroke="#3C2415" stroke-width="0.5" stroke-miterlimit="10" fill="#E8E5D1"/></g><path d="M415.367 200.222C414.207 200.499 409.64 200.603 409.406 200.222" stroke="#3C2415" stroke-width="0.5" stroke-miterlimit="10" fill="#E8E5D1" clip-path="url(#SVGID_6_)"/><path d="M409.406 200.222C408.238 200.499 403.679 200.603 403.445 200.222" stroke="#3C2415" stroke-width="0.5" stroke-miterlimit="10" fill="#E8E5D1" clip-path="url(#SVGID_6_)"/><path d="M403.445 200.222C402.273 200.499 397.711 200.603 397.468 200.222" stroke="#3C2415" stroke-width="0.5" stroke-miterlimit="10" fill="#E8E5D1" clip-path="url(#SVGID_6_)"/><path d="M397.469 200.222C396.305 200.499 391.739 200.603 391.512 200.222" stroke="#3C2415" stroke-width="0.5" stroke-miterlimit="10" fill="#E8E5D1" clip-path="url(#SVGID_6_)"/><path d="M391.504 200.222C390.34 200.499 385.777 200.603 385.543 200.222" stroke="#3C2415" stroke-width="0.5" stroke-miterlimit="10" fill="#E8E5D1" clip-path="url(#SVGID_6_)"/><path d="M385.543 200.222C384.371 200.499 379.813 200.603 379.578 200.222" stroke="#3C2415" stroke-width="0.5" stroke-miterlimit="10" fill="#E8E5D1" clip-path="url(#SVGID_6_)"/><path d="M373.605 200.222C373.843 200.603 379.89 201.374 379.57 200.222" stroke="#3C2415" stroke-width="0.5" stroke-miterlimit="10" fill="#E8E5D1" clip-path="url(#SVGID_6_)"/><path d="M373.605 200.222C372.437 200.499 367.878 200.603 367.644 200.222" stroke="#3C2415" stroke-width="0.5" stroke-miterlimit="10" fill="#E8E5D1" clip-path="url(#SVGID_6_)"/><path d="M367.645 200.222C366.477 200.499 361.915 200.603 361.676 200.222" stroke="#3C2415" stroke-width="0.5" stroke-miterlimit="10" fill="#E8E5D1" clip-path="url(#SVGID_6_)"/><path d="M361.676 200.222C360.516 200.499 355.953 200.603 355.711 200.222" stroke="#3C2415" stroke-width="0.5" stroke-miterlimit="10" fill="#E8E5D1" clip-path="url(#SVGID_6_)"/><path d="M355.711 200.222C354.547 200.499 349.981 200.603 349.742 200.222" stroke="#3C2415" stroke-width="0.5" stroke-miterlimit="10" fill="#E8E5D1" clip-path="url(#SVGID_6_)"/><path d="M350.105 200.222C348.941 200.499 344.375 200.603 344.136 200.222" stroke="#3C2415" stroke-width="0.5" stroke-miterlimit="10" fill="#E8E5D1" clip-path="url(#SVGID_6_)"/><path d="M344.137 200.222C342.977 200.499 338.41 200.603 338.172 200.222" stroke="#3C2415" stroke-width="0.5" stroke-miterlimit="10" fill="#E8E5D1" clip-path="url(#SVGID_6_)"/><path d="M338.164 200.222C337.008 200.499 332.437 200.603 332.203 200.222" stroke="#3C2415" stroke-width="0.5" stroke-miterlimit="10" fill="#E8E5D1" clip-path="url(#SVGID_6_)"/><path d="M332.203 200.222C331.043 200.499 326.476 200.603 326.242 200.222" stroke="#3C2415" stroke-width="0.5" stroke-miterlimit="10" fill="#E8E5D1" clip-path="url(#SVGID_6_)"/><path d="M326.242 200.222C325.074 200.499 320.515 200.603 320.273 200.222" stroke="#3C2415" stroke-width="0.5" stroke-miterlimit="10" fill="#E8E5D1" clip-path="url(#SVGID_6_)"/><path d="M320.27 200.222C319.11 200.499 314.54 200.603 314.305 200.222" stroke="#3C2415" stroke-width="0.5" stroke-miterlimit="10" fill="#E8E5D1" clip-path="url(#SVGID_6_)"/><path d="M314.305 200.222C313.141 200.499 308.575 200.603 308.348 200.222" stroke="#3C2415" stroke-width="0.5" stroke-miterlimit="10" fill="#E8E5D1" clip-path="url(#SVGID_6_)"/><path d="M308.348 200.222C307.176 200.499 302.614 200.603 302.379 200.222" stroke="#3C2415" stroke-width="0.5" stroke-miterlimit="10" fill="#E8E5D1" clip-path="url(#SVGID_6_)"/><path d="M302.379 200.222C301.207 200.499 296.649 200.603 296.414 200.222" stroke="#3C2415" stroke-width="0.5" stroke-miterlimit="10" fill="#E8E5D1" clip-path="url(#SVGID_6_)"/><path d="M296.414 200.222C295.246 200.499 290.68 200.603 290.445 200.222" stroke="#3C2415" stroke-width="0.5" stroke-miterlimit="10" fill="#E8E5D1" clip-path="url(#SVGID_6_)"/><path d="M290.445 200.222C289.285 200.499 284.539 200.661 284.48 200.222" stroke="#3C2415" stroke-width="0.5" stroke-miterlimit="10" fill="#E8E5D1" clip-path="url(#SVGID_6_)"/><line x1="283.113" y1="186.247" x2="534.211" y2="186.247" stroke="#3C2415" stroke-width="0.5" stroke-miterlimit="10" fill="none" clip-path="url(#SVGID_6_)"/><line x1="289.469" y1="189.128" x2="288.398" y2="185.515" stroke="#3C2415" stroke-width="0.5" stroke-miterlimit="10" fill="none" clip-path="url(#SVGID_6_)"/><line x1="295.516" y1="189.128" x2="294.445" y2="185.515" stroke="#3C2415" stroke-width="0.5" stroke-miterlimit="10" fill="none" clip-path="url(#SVGID_6_)"/><line x1="301.617" y1="189.128" x2="300.555" y2="185.515" stroke="#3C2415" stroke-width="0.5" stroke-miterlimit="10" fill="none" clip-path="url(#SVGID_6_)"/><line x1="307.242" y1="189.196" x2="306.188" y2="185.583" stroke="#3C2415" stroke-width="0.5" stroke-miterlimit="10" fill="none" clip-path="url(#SVGID_6_)"/><line x1="313.316" y1="189.196" x2="312.254" y2="185.583" stroke="#3C2415" stroke-width="0.5" stroke-miterlimit="10" fill="none" clip-path="url(#SVGID_6_)"/><line x1="319.199" y1="189.196" x2="318.141" y2="185.583" stroke="#3C2415" stroke-width="0.5" stroke-miterlimit="10" fill="none" clip-path="url(#SVGID_6_)"/><line x1="324.996" y1="189.128" x2="323.941" y2="185.515" stroke="#3C2415" stroke-width="0.5" stroke-miterlimit="10" fill="none" clip-path="url(#SVGID_6_)"/><line x1="331.051" y1="189.128" x2="329.988" y2="185.515" stroke="#3C2415" stroke-width="0.5" stroke-miterlimit="10" fill="none" clip-path="url(#SVGID_6_)"/><line x1="337.148" y1="189.128" x2="336.086" y2="185.515" stroke="#3C2415" stroke-width="0.5" stroke-miterlimit="10" fill="none" clip-path="url(#SVGID_6_)"/><line x1="342.773" y1="189.196" x2="341.711" y2="185.583" stroke="#3C2415" stroke-width="0.5" stroke-miterlimit="10" fill="none" clip-path="url(#SVGID_6_)"/><line x1="348.855" y1="189.196" x2="347.785" y2="185.583" stroke="#3C2415" stroke-width="0.5" stroke-miterlimit="10" fill="none" clip-path="url(#SVGID_6_)"/><line x1="354.734" y1="189.196" x2="353.68" y2="185.583" stroke="#3C2415" stroke-width="0.5" stroke-miterlimit="10" fill="none" clip-path="url(#SVGID_6_)"/><line x1="360.738" y1="189.128" x2="359.676" y2="185.515" stroke="#3C2415" stroke-width="0.5" stroke-miterlimit="10" fill="none" clip-path="url(#SVGID_6_)"/><line x1="366.785" y1="189.128" x2="365.719" y2="185.515" stroke="#3C2415" stroke-width="0.5" stroke-miterlimit="10" fill="none" clip-path="url(#SVGID_6_)"/><line x1="378.512" y1="189.196" x2="377.457" y2="185.583" stroke="#3C2415" stroke-width="0.5" stroke-miterlimit="10" fill="none" clip-path="url(#SVGID_6_)"/><line x1="372.605" y1="189.196" x2="371.551" y2="185.583" stroke="#3C2415" stroke-width="0.5" stroke-miterlimit="10" fill="none" clip-path="url(#SVGID_6_)"/><line x1="384.586" y1="189.196" x2="383.527" y2="185.583" stroke="#3C2415" stroke-width="0.5" stroke-miterlimit="10" fill="none" clip-path="url(#SVGID_6_)"/><line x1="390.469" y1="189.196" x2="389.406" y2="185.583" stroke="#3C2415" stroke-width="0.5" stroke-miterlimit="10" fill="none" clip-path="url(#SVGID_6_)"/><line x1="396.301" y1="189.128" x2="395.242" y2="185.515" stroke="#3C2415" stroke-width="0.5" stroke-miterlimit="10" fill="none" clip-path="url(#SVGID_6_)"/><line x1="402.344" y1="189.128" x2="401.285" y2="185.515" stroke="#3C2415" stroke-width="0.5" stroke-miterlimit="10" fill="none" clip-path="url(#SVGID_6_)"/><line x1="408.453" y1="189.128" x2="407.398" y2="185.515" stroke="#3C2415" stroke-width="0.5" stroke-miterlimit="10" fill="none" clip-path="url(#SVGID_6_)"/><line x1="414.09" y1="189.196" x2="413.023" y2="185.583" stroke="#3C2415" stroke-width="0.5" stroke-miterlimit="10" fill="none" clip-path="url(#SVGID_6_)"/></g><g><circle cx="370.624" cy="193.813" r="40.929" id="SVGID_1_" stroke="#C82257" stroke-miterlimit="10" fill="none"/></g><g><line x1="372.667" y1="210.157" x2="372.667" y2="201.982" stroke="#F26724" stroke-width="0.7" stroke-miterlimit="10" stroke-dasharray="1 1" fill="none"/><g><circle cx="372.667" cy="200.08" r="2.114" fill="#F26724"/></g><g><rect x="369.009" y="209.593" width="7.314" height="1.125" fill="#F26724"/></g></g><g><line x1="353.168" y1="174.968" x2="353.168" y2="183.143" stroke="#F26724" stroke-width="0.7" stroke-miterlimit="10" stroke-dasharray="1 1" fill="none"/><g><circle cx="353.168" cy="185.044" r="2.114" fill="#F26724"/></g><g><rect x="349.512" y="174.406" width="7.314" height="1.125" fill="#F26724"/></g></g><g><defs><circle cx="-429.964" cy="-141.714" r="120.312" id="SVGID_8_"/></defs><clipPath id="SVGID_7_"><use width="100%" height="100%" xlink:href="#SVGID_8_" overflow="visible"></use></clipPath><path d="M-192.209 150.943C-200.232 100.248-213.25 65.375-216.002 53.705L-216.002-219.943-216.002-224.285 7.662-224.285 20.83-26.846 22.791-2.376 22.791 153.654-190.709 153.654-192.209 150.943Z" stroke="#3C2415" stroke-miterlimit="10" fill="#E8E5D1" clip-path="url(#SVGID_7_)"/><path d="M6.627-220.181-106.072-220.181-106.072 46.519C-75.271 50.02-6.674 48.619-0.373 25.519 5.928 2.419 2.428-46.581 16.428-50.781 20.627-56.381 6.627-220.181 6.627-220.181Z" stroke="#3C2415" stroke-width="0.7" stroke-miterlimit="10" stroke-dasharray="1 1" fill="none" clip-path="url(#SVGID_7_)"/></g><path d="M119.265 33.686C121.857 46.372 126.812 71.837 126.964 81.632L126.964 231.23C126.964 231.23 109.605 234.969 94.485 231.23 92.583 202.091 85.676 143.371 80.762 112.296 79.158 102.157 76.554 95.182 76.004 92.848L76.004 38.118 76.004 37.25 119.265 33.686Z" stroke="#3C2415" stroke-miterlimit="10" fill="#E8E5D1"/><path d="M85.8 37.073 85.8 73.397C84.964 80.465 76.005 81.397 76.005 81.397L76.005 37.797 85.8 37.073Z" stroke="#3C2415" stroke-miterlimit="10" fill="#E8E5D1"/><path d="" stroke="#2E368F" stroke-miterlimit="10" fill="#FFFFFF"/><path d="" stroke="#EC2227" stroke-width="1.5" stroke-miterlimit="10" fill="none"/><path d="" stroke="#EC2227" stroke-width="1.5" stroke-miterlimit="10" fill="none"/><path d="M32.746 33.686C30.154 46.372 25.198 71.837 25.047 81.632L25.047 231.23C25.047 231.23 42.406 234.969 57.526 231.23 59.428 202.091 66.334 143.371 71.248 112.296 72.852 102.157 75.456 95.182 76.007 92.848L76.007 38.118 76.007 37.25 32.746 33.686Z" stroke="#3C2415" stroke-miterlimit="10" fill="#E8E5D1"/><path d="M234.406 32.281C236.998 44.967 241.954 70.432 242.105 80.227L242.105 229.824C242.105 229.824 224.747 233.564 209.626 229.824 207.725 200.685 200.819 141.966 195.905 110.891 194.3 100.752 191.696 93.777 191.145 91.443L191.145 36.713 191.145 35.845 234.406 32.281Z" stroke="#3C2415" stroke-miterlimit="10" fill="#E8E5D1"/><path d="M147.886 32.281C145.294 44.967 140.339 70.432 140.189 80.227L140.189 229.824C140.189 229.824 157.546 233.564 172.668 229.824 174.57 200.685 181.475 141.966 186.389 110.891 187.993 100.752 190.598 93.777 191.147 91.443L191.147 36.713 191.147 35.845 147.886 32.281Z" stroke="#3C2415" stroke-miterlimit="10" fill="#E8E5D1"/><line x1="169.782" y1="34.211" x2="167.627" y2="52.79" stroke="#3C2415" stroke-miterlimit="10" fill="none"/><line x1="212.511" y1="34.211" x2="214.667" y2="52.79" stroke="#3C2415" stroke-miterlimit="10" fill="none"/><g><path d="M346.454 29.325C347.244 32.792 346.191 43.725 346.454 46.658 346.719 49.591 348.03 59.725 351.443 62.125 354.855 64.525 356.677 81.325 339.488 81.325 322.299 81.325 281.529 84.744 277.76 79.701 273.989 74.659 275.039 38.925 279.766 29.325 285.807 28.525 346.454 29.325 346.454 29.325Z" stroke="#3C2415" stroke-miterlimit="10" fill="#E8E5D1"/><line x1="346.683" y1="37.341" x2="277.461" y2="37.341" stroke="#3C2415" stroke-miterlimit="10" fill="#E8E5D1"/><rect x="338.054" y="29.279" width="4.727" height="10.712" stroke="#3C2415" stroke-miterlimit="10" fill="#E8E5D1"/></g><g><path d="M352.408 76.792 326.142 17.592 299.029 8.394 291.742 5.922C291.742 5.922 258.275 80.526 284.676 83.726 293.596 84.807 303.762 85.31 313.471 85.183 332.496 84.934 349.759 82.266 352.408 76.792Z" stroke="#3C2415" stroke-miterlimit="10" fill="#E8E5D1"/><line x1="314.975" y1="85.156" x2="301.175" y2="15.511" stroke="#3C2415" stroke-miterlimit="10" fill="#E8E5D1"/></g><path d="M292.341 66.439 325.143 17.591 292.341 5.591C279.143 7.591 271.143 25.991 271.143 25.991L256.341 55.591C256.341 55.591 290.091 69.792 292.341 66.439Z" stroke="#3C2415" stroke-miterlimit="10" fill="#E8E5D1"/><path d="M270.51 61.011C272.489 59.114 285.6 35.175 285.6 35.175 285.6 35.175 302.132 13.842 305.866 10.378L303.676 9.743C299.945 13.207 283.409 34.54 283.409 34.54 283.409 34.54 270.302 58.478 268.321 60.375" stroke="#3C2415" stroke-width="0.7" stroke-miterlimit="10" fill="#4F8260"/><rect x="31.273" y="29.599" width="89.039" height="8.369" stroke="#3C2415" stroke-miterlimit="10" fill="#E8E5D1"/><rect x="146.627" y="29.599" width="89.04" height="8.369" stroke="#3C2415" stroke-miterlimit="10" fill="#E8E5D1"/><line x1="46.347" y1="117.07" x2="41.005" y2="232.877" stroke="#C2B979" stroke-miterlimit="10" fill="#E8E5D1"/><line x1="105.664" y1="117.07" x2="111.005" y2="232.877" stroke="#C2B979" stroke-miterlimit="10" fill="#E8E5D1"/><line x1="163.132" y1="115.07" x2="157.791" y2="230.877" stroke="#C2B979" stroke-miterlimit="10" fill="#E8E5D1"/><line x1="222.449" y1="115.07" x2="227.791" y2="230.877" stroke="#C2B979" stroke-miterlimit="10" fill="#E8E5D1"/><g><g><g><path d="M49.779 74.037C49.775 76.378 47.878 78.278 45.535 78.275 43.193 78.271 41.293 76.374 41.294 74.034 41.294 71.691 43.2 69.793 45.541 69.792 47.882 69.795 49.779 71.695 49.779 74.037Z" stroke="#7D712D" stroke-width="0.3" stroke-dasharray="1.0235 1.0235" fill="none"/></g><circle cx="45.533" cy="74.045" r="2.799" stroke="#7D712D" stroke-width="0.3" fill="#B7C98F"/><g><path d="M40.695 74.819C41.076 74.926 41.09 75.033 41.63 75.298 42.418 75.725 41.902 77.249 41.164 77.27L40.836 77.274C41.031 77.616 40.521 78.804 39.545 78.607 39.649 79.268 39.076 79.652 38.451 79.468 37.904 79.315 37.588 79.248 36.628 79.392 35.436 79.571 34.059 79.893 32.682 79.029 32.563 78.952 32.416 79.025 32.379 79.1 32.303 79.252 32.342 79.71 31.955 79.705L30.531 79.659C30.021 79.642 29.635 78.883 29.722 76.511 29.806 74.046 29.865 73.081 30.886 73.105 31.888 73.129 32.166 73.148 32.166 73.148 32.483 73.165 32.529 73.381 32.575 73.521 32.6 73.601 32.72 73.64 32.802 73.606 32.933 73.553 34.218 73.046 35.318 72.966 36.331 72.892 36.739 72.6 37.418 72.725 38.223 72.873 40.842 72.874 41.623 72.889 42.393 72.904 43.611 73.191 45.246 73.207 46.801 73.221 46.75 75.024 45.351 74.898 44.249 74.798 44.206 74.929 43.826 74.87 43.159 74.767 42.418 74.819 41.894 74.842 41.655 74.85 41.396 74.771 40.695 74.819" stroke="#EB4324" stroke-width="0.5" stroke-miterlimit="10" fill="#FCD4CD"/><path d="M31.767 76.326C31.707 77.308 31.841 79.016 31.892 79.173 31.945 79.323 31.831 79.41 31.613 79.383 31.464 79.367 30.695 79.343 30.695 79.343 30.355 79.336 29.959 78.975 30.044 76.35 30.148 73.637 30.27 73.294 31.07 73.321L32.064 73.383C32.126 73.393 32.166 73.431 32.195 73.495 32.266 73.65 31.916 73.844 31.767 76.326Z" stroke="#EB4324" stroke-width="0.5" fill="#FCD4CD"/></g><line x1="21.925" y1="76.083" x2="30.732" y2="75.953" stroke="#F26724" stroke-width="0.7" stroke-miterlimit="10" stroke-dasharray="1 1" fill="none"/></g><g><rect x="21.674" y="74.458" width="0.502" height="3.251" fill="#F26724"/></g></g><g><g><g><path d="M39.099 144.405C39.095 146.747 37.198 148.647 34.855 148.643 32.513 148.639 30.613 146.743 30.614 144.403 30.614 142.059 32.52 140.161 34.861 140.161 37.203 140.165 39.099 142.065 39.099 144.405Z" stroke="#7D712D" stroke-width="0.3" stroke-dasharray="1.0235 1.0235" fill="none"/></g><circle cx="34.854" cy="144.413" r="2.799" stroke="#7D712D" stroke-width="0.3" fill="#B7C98F"/><g><path d="M30.015 145.188C30.396 145.295 30.41 145.403 30.95 145.667 31.738 146.094 31.222 147.617 30.484 147.639L30.156 147.643C30.351 147.985 29.841 149.173 28.865 148.977 28.969 149.637 28.396 150.022 27.771 149.837 27.224 149.684 26.908 149.617 25.948 149.761 24.756 149.94 23.379 150.262 22.002 149.399 21.883 149.321 21.736 149.395 21.699 149.469 21.623 149.621 21.662 150.078 21.275 150.074L19.851 150.027C19.341 150.01 18.955 149.252 19.042 146.88 19.126 144.415 19.185 143.449 20.206 143.474 21.208 143.498 21.486 143.518 21.486 143.518 21.803 143.534 21.849 143.75 21.895 143.89 21.92 143.97 22.04 144.009 22.122 143.975 22.253 143.922 23.538 143.415 24.638 143.335 25.651 143.261 26.059 142.969 26.738 143.094 27.543 143.242 30.162 143.242 30.943 143.258 31.713 143.274 32.931 143.561 34.566 143.576 36.121 143.59 36.07 145.392 34.671 145.267 33.569 145.166 33.526 145.297 33.146 145.238 32.479 145.135 31.738 145.187 31.214 145.211 30.975 145.217 30.716 145.141 30.015 145.188" stroke="#EB4324" stroke-width="0.5" stroke-miterlimit="10" fill="#FCD4CD"/><path d="M21.088 146.696C21.028 147.677 21.162 149.385 21.213 149.543 21.266 149.692 21.152 149.78 20.934 149.753 20.785 149.737 20.016 149.713 20.016 149.713 19.676 149.706 19.28 149.345 19.365 146.72 19.469 144.007 19.591 143.664 20.391 143.691L21.385 143.754C21.447 143.764 21.487 143.802 21.516 143.865 21.587 144.018 21.236 144.213 21.088 146.696Z" stroke="#EB4324" stroke-width="0.5" fill="#FCD4CD"/></g><line x1="11.246" y1="146.452" x2="20.052" y2="146.321" stroke="#F26724" stroke-width="0.7" stroke-miterlimit="10" stroke-dasharray="1 1" fill="none"/></g><g><rect x="10.995" y="144.827" width="0.502" height="3.25" fill="#F26724"/></g></g><g><line x1="86.717" y1="86.436" x2="78.544" y2="86.436" stroke="#F26724" stroke-width="0.7" stroke-miterlimit="10" stroke-dasharray="1 1" fill="none"/><g><circle cx="76.641" cy="86.435" r="2.114" fill="#F26724"/></g><g><rect x="86.155" y="82.778" width="1.125" height="7.314" fill="#F26724"/></g></g><g><g><g><path d="M177.185 77.027C177.181 79.368 175.285 81.268 172.941 81.265 170.599 81.261 168.699 79.364 168.701 77.024 168.701 74.681 170.607 72.783 172.947 72.782 175.289 72.786 177.185 74.687 177.185 77.027Z" stroke="#7D712D" stroke-width="0.3" stroke-dasharray="1.0235 1.0235" fill="none"/></g><circle cx="172.94" cy="77.035" r="2.799" stroke="#7D712D" stroke-width="0.3" fill="#B7C98F"/><g><path d="M168.101 77.811C168.482 77.918 168.497 78.025 169.037 78.29 169.824 78.717 169.308 80.241 168.57 80.262L168.242 80.266C168.437 80.608 167.928 81.796 166.951 81.599 167.055 82.26 166.482 82.644 165.857 82.46 165.31 82.307 164.994 82.24 164.035 82.384 162.843 82.563 161.466 82.885 160.089 82.021 159.97 81.944 159.822 82.017 159.785 82.092 159.71 82.244 159.749 82.702 159.361 82.697L157.937 82.651C157.427 82.634 157.041 81.875 157.128 79.503 157.212 77.038 157.271 76.073 158.292 76.097 159.294 76.121 159.571 76.14 159.571 76.14 159.889 76.157 159.934 76.373 159.981 76.513 160.005 76.593 160.126 76.632 160.208 76.598 160.339 76.545 161.624 76.038 162.724 75.958 163.738 75.884 164.146 75.592 164.824 75.717 165.63 75.865 168.249 75.866 169.029 75.881 169.8 75.896 171.017 76.183 172.652 76.199 174.208 76.213 174.156 78.016 172.757 77.89 171.655 77.79 171.612 77.921 171.232 77.862 170.566 77.759 169.824 77.811 169.3 77.834 169.062 77.839 168.802 77.762 168.101 77.811" stroke="#EB4324" stroke-width="0.5" stroke-miterlimit="10" fill="#FCD4CD"/><path d="M159.173 79.317C159.112 80.299 159.247 82.007 159.298 82.164 159.351 82.314 159.237 82.401 159.019 82.374 158.871 82.358 158.101 82.334 158.101 82.334 157.761 82.327 157.365 81.966 157.451 79.341 157.555 76.628 157.677 76.285 158.476 76.312L159.47 76.374C159.533 76.384 159.572 76.422 159.601 76.486 159.672 76.641 159.321 76.835 159.173 79.317Z" stroke="#EB4324" stroke-width="0.5" fill="#FCD4CD"/></g><line x1="149.332" y1="79.074" x2="158.138" y2="78.943" stroke="#F26724" stroke-width="0.7" stroke-miterlimit="10" stroke-dasharray="1 1" fill="none"/></g><g><rect x="149.081" y="77.448" width="0.502" height="3.251" fill="#F26724"/></g></g><g><g><g><path d="M220.548 162.28C220.544 164.622 218.647 166.522 216.304 166.518 213.962 166.514 212.063 164.618 212.063 162.278 212.063 159.934 213.969 158.036 216.311 158.036 218.652 158.038 220.548 159.938 220.548 162.28Z" stroke="#7D712D" stroke-width="0.3" stroke-dasharray="1.0235 1.0235" fill="none"/></g><circle cx="216.303" cy="162.288" r="2.799" stroke="#7D712D" stroke-width="0.3" fill="#B7C98F"/><g><path d="M211.464 163.063C211.845 163.169 211.86 163.276 212.399 163.542 213.188 163.969 212.671 165.493 211.934 165.514L211.606 165.519C211.8 165.861 211.291 167.048 210.315 166.851 210.419 167.512 209.845 167.896 209.22 167.712 208.673 167.56 208.358 167.491 207.398 167.636 206.206 167.816 204.828 168.137 203.451 167.273 203.333 167.197 203.185 167.269 203.148 167.344 203.072 167.495 203.111 167.954 202.724 167.948L201.3 167.903C200.79 167.885 200.404 167.127 200.491 164.755 200.575 162.29 200.634 161.325 201.655 161.349 202.657 161.372 202.934 161.392 202.934 161.392 203.251 161.41 203.297 161.625 203.343 161.765 203.367 161.845 203.489 161.884 203.571 161.851 203.702 161.797 204.987 161.29 206.087 161.21 207.101 161.136 207.508 160.844 208.188 160.969 208.993 161.116 211.612 161.118 212.393 161.133 213.163 161.148 214.38 161.435 216.016 161.45 217.571 161.465 217.52 163.268 216.12 163.141 215.017 163.041 214.974 163.172 214.595 163.114 213.928 163.01 213.188 163.063 212.663 163.086 212.424 163.092 212.166 163.014 211.464 163.063" stroke="#EB4324" stroke-width="0.5" stroke-miterlimit="10" fill="#FCD4CD"/><path d="M202.537 164.569C202.477 165.551 202.61 167.259 202.662 167.417 202.715 167.567 202.6 167.653 202.383 167.627 202.234 167.61 201.465 167.587 201.465 167.587 201.125 167.58 200.73 167.219 200.814 164.594 200.918 161.881 201.041 161.538 201.84 161.566L202.834 161.628C202.896 161.638 202.937 161.676 202.965 161.74 203.036 161.893 202.685 162.087 202.537 164.569Z" stroke="#EB4324" stroke-width="0.5" fill="#FCD4CD"/></g><line x1="192.694" y1="164.327" x2="201.502" y2="164.196" stroke="#F26724" stroke-width="0.7" stroke-miterlimit="10" stroke-dasharray="1 1" fill="none"/></g><g><rect x="192.444" y="162.702" width="0.502" height="3.25" fill="#F26724"/></g></g><g><line x1="180.755" y1="53.991" x2="188.928" y2="53.991" stroke="#F26724" stroke-width="0.7" stroke-miterlimit="10" stroke-dasharray="1 1" fill="none"/><g><circle cx="190.831" cy="53.991" r="2.114" fill="#F26724"/></g><g><rect x="180.192" y="50.334" width="1.125" height="7.314" fill="#F26724"/></g></g><g><g><line x1="222.704" y1="201.151" x2="199.909" y2="201.151" stroke="#F26724" stroke-width="0.7" stroke-miterlimit="10" stroke-dasharray="1 1" fill="none"/><g><path d="M219.208 198.822 221.969 201.151 219.208 203.479 227.227 201.151Z" fill="#F26724"/><path d="M220.344 199.497 226.344 201.151 222.391 201.151Z" fill="#FFFFFF"/></g></g></g><g><rect x="199.918" y="197.495" width="1.125" height="7.314" fill="#F26724"/></g><g><g><g><path d="M295.16 24.24C295.156 26.581 293.26 28.481 290.917 28.478 288.574 28.474 286.675 26.577 286.676 24.237 286.676 21.894 288.582 19.996 290.923 19.995 293.264 19.999 295.16 21.898 295.16 24.24Z" stroke="#7D712D" stroke-width="0.3" stroke-dasharray="1.0235 1.0235" fill="none"/></g><circle cx="290.915" cy="24.248" r="2.799" stroke="#7D712D" stroke-width="0.3" fill="#B7C98F"/><g><path d="M286.076 25.022C286.458 25.129 286.472 25.236 287.012 25.501 287.8 25.928 287.283 27.452 286.546 27.473L286.218 27.477C286.413 27.819 285.903 29.007 284.927 28.81 285.031 29.471 284.458 29.855 283.833 29.671 283.286 29.518 282.97 29.451 282.01 29.595 280.819 29.774 279.442 30.096 278.065 29.232 277.946 29.155 277.798 29.228 277.761 29.303 277.686 29.455 277.725 29.913 277.337 29.908L275.913 29.862C275.402 29.845 275.017 29.086 275.103 26.714 275.187 24.249 275.247 23.284 276.267 23.308 277.269 23.332 277.547 23.351 277.547 23.351 277.864 23.368 277.909 23.584 277.956 23.724 277.981 23.804 278.101 23.843 278.183 23.809 278.314 23.756 279.599 23.249 280.699 23.169 281.713 23.095 282.121 22.803 282.8 22.928 283.606 23.076 286.225 23.077 287.005 23.092 287.776 23.107 288.992 23.394 290.628 23.41 292.183 23.424 292.132 25.227 290.732 25.101 289.63 25.001 289.587 25.132 289.208 25.073 288.541 24.97 287.8 25.022 287.275 25.045 287.037 25.052 286.777 24.975 286.076 25.022" stroke="#EB4324" stroke-width="0.5" stroke-miterlimit="10" fill="#FCD4CD"/><path d="M277.148 26.529C277.088 27.511 277.222 29.219 277.273 29.376 277.326 29.526 277.212 29.613 276.995 29.586 276.846 29.57 276.076 29.546 276.076 29.546 275.736 29.539 275.341 29.178 275.426 26.553 275.53 23.84 275.653 23.497 276.451 23.524L277.445 23.586C277.508 23.596 277.548 23.634 277.576 23.698 277.648 23.854 277.297 24.047 277.148 26.529Z" stroke="#EB4324" stroke-width="0.5" fill="#FCD4CD"/></g><line x1="267.307" y1="26.286" x2="276.113" y2="26.156" stroke="#F26724" stroke-width="0.7" stroke-miterlimit="10" stroke-dasharray="1 1" fill="none"/></g><g><rect x="267.057" y="24.661" width="0.502" height="3.251" fill="#F26724"/></g></g><g><line x1="289.255" y1="49.084" x2="281.081" y2="49.084" stroke="#F26724" stroke-width="0.7" stroke-miterlimit="10" stroke-dasharray="1 1" fill="none"/><g><circle cx="279.178" cy="49.084" r="2.114" fill="#F26724"/></g><g><rect x="288.691" y="45.426" width="1.125" height="7.314" fill="#F26724"/></g></g><g><line x1="251.939" y1="127.044" x2="243.766" y2="127.044" stroke="#F26724" stroke-width="0.7" stroke-miterlimit="10" stroke-dasharray="1 1" fill="none"/><g><circle cx="241.863" cy="127.044" r="2.114" fill="#F26724"/></g><g><rect x="251.377" y="123.386" width="1.125" height="7.313" fill="#F26724"/></g></g><g><line x1="215.576" y1="61.712" x2="214.752" y2="53.581" stroke="#F26724" stroke-width="0.7" stroke-miterlimit="10" stroke-dasharray="1 1" fill="none"/><g><circle cx="214.559" cy="51.686" r="2.114" fill="#F26724"/></g><g><rect x="215.015" y="58.06" width="1.124" height="7.314" fill="#F26724" transform="matrix(0.1017 0.9948 -0.9948 0.1017 255.06 -159.017)"/></g></g></svg>