<svg width="490.225" height="195.516" viewBox="0 0 490.225 195.516" xmlns="http://www.w3.org/2000/svg" xmlns:xlink="http://www.w3.org/1999/xlink" id="Layer_1" xml:space="preserve" overflow="hidden"><g><defs><circle cx="101.614" cy="98.45" r="94.439" id="SVGID_4_"/></defs><clipPath id="SVGID_8_"><use width="100%" height="100%" xlink:href="#SVGID_4_" overflow="visible"></use></clipPath><g clip-path="url(#SVGID_8_)"></g><path d="M334.524 125.39 40.669 125.39 40.669 316.443 334.524 316.443 361.731 316.443C361.731 316.443 334.524 113.604 334.524 124.92" stroke="#3C2415" stroke-width="2" stroke-miterlimit="10" fill="#E8E5D1" clip-path="url(#SVGID_8_)"/><path d="M58.269 248.034 66.525 219.487 71.341 202.153C71.341 202.153 80.284 159.326 101.616 138.425L98.171 125.509 41.069 125.509 41.069 266.894 58.269 248.034Z" stroke="#3C2415" stroke-width="2" stroke-miterlimit="10" fill="#E8E5D1" clip-path="url(#SVGID_8_)"/><path d="M41.071 266.34 87.628 124.984 125.622 137.503 94.921 230.706C91.409 239.655 66.716 272.005 41.071 266.34Z" stroke="#3C2415" stroke-width="2" stroke-miterlimit="10" fill="#E8E5D1" clip-path="url(#SVGID_8_)"/><path d="M-189.329 125.39 41.071 125.39 41.071 316.443-189.329 316.443-210.663 316.443C-210.663 316.443-189.329 113.604-189.329 124.92" stroke="#3C2415" stroke-width="2" stroke-miterlimit="10" fill="#E8E5D1" clip-path="url(#SVGID_8_)"/><path d="M357.389 282.424 334.258 109.566 281.397 116.638Z" stroke="#3C2415" stroke-miterlimit="10" fill="#E8E5D1" clip-path="url(#SVGID_8_)"/><rect x="-192.528" y="71.112" width="234.677" height="54.4" stroke="#3C2415" stroke-width="2" stroke-miterlimit="10" fill="#E8E5D1" clip-path="url(#SVGID_8_)"/><line x1="41.071" y1="71.112" x2="41.071" y2="125.512" stroke="#2E368F" stroke-miterlimit="10" fill="none" clip-path="url(#SVGID_8_)"/><path d="M37.278 71.112 74.81 71.112 98.347 125.429 98.122 125.512 37.278 125.512" stroke="#3C2415" stroke-width="2" stroke-miterlimit="10" fill="#E8E5D1" clip-path="url(#SVGID_8_)"/><rect x="105.603" y="72.858" width="230.4" height="54.4" stroke="#3C2415" stroke-width="2" stroke-miterlimit="10" fill="#E8E5D1" clip-path="url(#SVGID_8_)"/><rect x="153.069" y="71.112" width="15.199" height="66.131" stroke="#3C2415" stroke-width="2" stroke-miterlimit="10" fill="#E8E5D1" clip-path="url(#SVGID_8_)"/><rect x="93.736" y="84.229" width="81.029" height="54.397" stroke="#3C2415" stroke-width="2" stroke-miterlimit="10" fill="#E8E5D1" clip-path="url(#SVGID_8_)" transform="matrix(-0.949 -0.3152 0.3152 -0.949 226.535 259.491)"/><rect x="93.193" y="87.591" width="81.027" height="50.956" stroke="#3C2415" stroke-miterlimit="10" fill="#E8E5D1" clip-path="url(#SVGID_8_)" transform="matrix(-0.949 -0.3152 0.3152 -0.949 224.957 262.519)"/><line x1="89.868" y1="125.432" x2="105.929" y2="77.073" stroke="#3C2415" stroke-miterlimit="10" stroke-dasharray="1 1" fill="none" clip-path="url(#SVGID_8_)"/><rect x="45.872" y="89.243" width="8" height="22.202" stroke="#262262" stroke-miterlimit="10" fill="#707E68" clip-path="url(#SVGID_8_)"/><path d="M107.497 114.458C103.122 113.075 100.821 108.03 102.352 103.187 103.881 98.339 108.668 95.533 113.038 96.916L124.19 100.439 118.653 117.984 107.497 114.458Z" stroke="#262262" stroke-miterlimit="10" fill="#707E68" clip-path="url(#SVGID_8_)"/><path d="M126.228 120.309C128.234 120.942 131.085 117.553 132.603 112.743 134.119 107.934 133.734 103.521 131.734 102.891L125.129 100.804 119.623 118.221 126.228 120.309Z" stroke="#262262" stroke-miterlimit="10" fill="#707E68" clip-path="url(#SVGID_8_)"/><g clip-path="url(#SVGID_8_)"><line x1="41.071" y1="71.996" x2="41.071" y2="126.949" stroke="#3C2415" stroke-miterlimit="10" stroke-dasharray="1 1" fill="none"/><g><line x1="41.071" y1="71.996" x2="41.071" y2="73.596" stroke="#3C2415" stroke-miterlimit="10" stroke-dasharray="1 1" fill="none"/><line x1="41.071" y1="76.64" x2="41.071" y2="123.826" stroke="#3C2415" stroke-miterlimit="10" stroke-dasharray="1 1" fill="none"/><line x1="41.071" y1="125.349" x2="41.071" y2="126.949" stroke="#3C2415" stroke-miterlimit="10" stroke-dasharray="1 1" fill="none"/></g></g><line x1="152.821" y1="76.379" x2="168.022" y2="76.379" stroke="#3C2415" stroke-width="4" stroke-miterlimit="10" fill="none" clip-path="url(#SVGID_8_)"/><g clip-path="url(#SVGID_8_)"><g><circle cx="71.907" cy="80.208" r="4.123" stroke="#7D712D" stroke-width="0.3" stroke-dasharray="0.958 0.958" fill="none"/></g><circle cx="71.898" cy="80.201" r="2.719" stroke="#7D712D" stroke-width="0.3" fill="#B7C98F"/><g><path d="M73.904 74.598C73.567 74.94 73.446 74.893 72.841 75.308 71.925 75.895 70.612 74.446 71.026 73.652L71.214 73.3C70.735 73.307 69.78 72.063 70.561 71.143 69.794 70.862 69.728 70.027 70.288 69.472 70.774 68.983 71.028 68.687 71.444 67.582 71.958 66.207 72.427 64.557 74.155 63.603 74.308 63.52 74.317 63.324 74.258 63.24 74.146 63.073 73.634 62.841 73.867 62.429L74.755 60.947C75.076 60.417 76.112 60.454 78.577 61.945 81.147 63.491 82.136 64.12 81.506 65.19 80.891 66.243 80.711 66.526 80.711 66.526 80.501 66.849 80.247 66.773 80.072 66.74 79.97 66.72 79.858 66.82 79.848 66.934 79.826 67.1 79.604 68.765 79.04 69.98 78.523 71.097 78.592 71.704 78.057 72.353 77.426 73.119 75.876 75.901 75.402 76.724 74.933 77.533 73.911 78.656 72.927 80.382 71.994 82.027 70.11 80.907 71.073 79.497 71.827 78.387 71.712 78.263 71.998 77.893 72.505 77.249 72.885 76.429 73.168 75.861 73.303 75.6 73.541 75.372 73.904 74.598" stroke="#EB4324" stroke-width="0.5" stroke-miterlimit="10" fill="#FCD4CD"/><path d="M77.569 64.225C76.56 63.581 74.669 62.717 74.469 62.679 74.282 62.649 74.254 62.476 74.414 62.261 74.518 62.11 74.997 61.308 74.997 61.308 75.205 60.954 75.822 60.744 78.558 62.38 81.375 64.092 81.672 64.422 81.17 65.26L80.522 66.28C80.469 66.339 80.406 66.357 80.323 66.352 80.117 66.334 80.12 65.848 77.569 64.225Z" stroke="#EB4324" stroke-width="0.5" fill="#FCD4CD"/></g><line x1="83.63" y1="53.915" x2="78.576" y2="63.347" stroke="#F26724" stroke-width="0.7" stroke-miterlimit="10" stroke-dasharray="1 1" fill="none"/><g><rect x="83.229" y="52.08" width="0.608" height="3.949" fill="#F26724" transform="matrix(-0.4954 0.8687 -0.8687 -0.4954 171.869 8.2668)"/></g></g><g clip-path="url(#SVGID_8_)"><line x1="41.073" y1="63.907" x2="41.073" y2="72.728" stroke="#F26724" stroke-width="0.7" stroke-miterlimit="10" stroke-dasharray="1 1" fill="none"/><g><rect x="37.122" y="63.294" width="7.895" height="1.214" fill="#F26724"/></g><g><path d="M38.79 74.785C38.79 76.052 39.813 77.073 41.073 77.073 42.333 77.073 43.354 76.051 43.354 74.785 43.354 73.525 42.333 72.506 41.073 72.506 39.812 72.506 38.79 73.528 38.79 74.785Z" fill="#F26724"/></g></g><g clip-path="url(#SVGID_8_)"><g><circle cx="155.326" cy="124.59" r="4.123" stroke="#7D712D" stroke-width="0.3" stroke-dasharray="0.958 0.958" fill="none"/></g><circle cx="155.315" cy="124.59" r="2.72" stroke="#7D712D" stroke-width="0.3" fill="#B7C98F"/><g><path d="M152.276 129.705C152.639 128.932 152.665 128.603 152.782 128.334 153.04 127.753 153.428 126.938 153.602 126.137 153.704 125.68 153.873 125.691 154.248 124.401 154.723 122.763 156.785 123.502 156.113 125.269 155.406 127.126 155.193 128.632 154.869 129.506 154.537 130.397 153.379 133.361 153.191 134.337 153.031 135.162 152.521 135.497 151.99 136.608 151.412 137.815 150.272 139.047 150.157 139.171 150.077 139.25 150.069 139.401 150.149 139.466 150.286 139.578 150.508 139.726 150.391 140.095 150.391 140.095 150.289 140.413 149.87 141.561 149.446 142.727 148.331 142.366 145.501 141.371 142.78 140.421 142.093 139.646 142.296 139.061L142.874 137.43C143.044 136.989 143.548 137.235 143.747 137.215 143.851 137.206 143.997 137.074 143.962 136.904 143.595 134.965 144.569 133.55 145.3 132.28 145.886 131.254 145.954 130.871 146.021 130.183 146.093 129.399 146.779 128.916 147.482 129.329 147.693 128.14 149.261 128.087 149.562 128.459L149.712 128.09C150.06 127.265 152.014 127.354 152.145 128.433 152.209 129.164 152.321 129.229 152.276 129.705" stroke="#EB4324" stroke-width="0.5" stroke-miterlimit="10" fill="#FCD4CD"/><path d="M150.009 139.906C150.068 139.968 150.093 140.029 150.081 140.106L149.708 141.255C149.382 142.176 148.938 142.157 145.825 141.077 142.819 140.01 142.589 139.402 142.731 139.014 142.731 139.014 143.042 138.133 143.09 137.956 143.156 137.698 143.307 137.608 143.447 137.734 143.605 137.861 145.476 138.771 146.617 139.136 149.491 140.071 149.864 139.759 150.009 139.906Z" stroke="#EB4324" stroke-width="0.5" fill="#FCD4CD"/></g><line x1="146.581" y1="140.476" x2="142.532" y2="150.382" stroke="#F26724" stroke-width="0.7" stroke-miterlimit="10" stroke-dasharray="1 1" fill="none"/><g><rect x="142.274" y="148.242" width="0.609" height="3.948" fill="#F26724" transform="matrix(0.3531 -0.9356 0.9356 0.3531 -48.3027 230.578)"/></g></g><g clip-path="url(#SVGID_8_)"><line x1="105.771" y1="142.714" x2="108.909" y2="134.47" stroke="#F26724" stroke-width="0.7" stroke-miterlimit="10" stroke-dasharray="1 1" fill="none"/><g><rect x="105.166" y="138.773" width="1.214" height="7.895" fill="#F26724" transform="matrix(-0.3555 0.9347 -0.9347 -0.3555 276.774 94.5983)"/></g><g><path d="M111.774 133.359C112.223 132.175 111.631 130.856 110.454 130.409 109.276 129.961 107.958 130.554 107.509 131.736 107.06 132.913 107.652 134.229 108.829 134.677 110.009 135.126 111.327 134.534 111.774 133.359Z" fill="#F26724"/></g></g><g clip-path="url(#SVGID_8_)"><line x1="93.431" y1="83.146" x2="102.243" y2="83.593" stroke="#F26724" stroke-width="0.7" stroke-miterlimit="10" stroke-dasharray="1 1" fill="none"/><g><rect x="92.82" y="79.203" width="1.213" height="7.895" fill="#F26724" transform="matrix(-0.9987 -0.0515 0.0515 -0.9987 182.443 171.006)"/></g><g><path d="M104.179 85.978C105.447 86.043 106.517 85.072 106.581 83.813 106.645 82.555 105.675 81.483 104.411 81.419 103.153 81.355 102.083 82.324 102.018 83.582 101.956 84.843 102.925 85.914 104.179 85.978Z" fill="#F26724"/></g></g><line x1="129.736" y1="63.417" x2="124.108" y2="80.353" stroke="#F26724" stroke-width="0.7" stroke-miterlimit="10" stroke-dasharray="1 1" fill="none" clip-path="url(#SVGID_8_)"/><g clip-path="url(#SVGID_8_)"><rect x="130.253" y="58.352" width="1.212" height="7.894" fill="#F26724" transform="matrix(0.3157 -0.9488 0.9488 0.3157 30.4291 166.794)"/></g><g clip-path="url(#SVGID_8_)"><path d="M121.294 81.582C120.894 82.786 121.544 84.077 122.739 84.476 123.934 84.872 125.225 84.224 125.624 83.022 126.022 81.828 125.374 80.538 124.179 80.14 122.979 79.742 121.688 80.39 121.294 81.582Z" fill="#F26724"/></g><line x1="71.269" y1="98.45" x2="57.081" y2="98.763" stroke="#F26724" stroke-width="0.7" stroke-miterlimit="10" stroke-dasharray="1 1" fill="none" clip-path="url(#SVGID_8_)"/><g clip-path="url(#SVGID_8_)"><path d="M57.45 101.384C56.782 100.286 55.751 99.429 54.653 98.767 55.741 98.088 56.706 97.171 57.378 96.074L58.036 96.068C57.36 97.128 56.544 98.052 55.532 98.756 56.561 99.44 57.434 100.356 58.116 101.377L57.45 101.384Z" fill="#F26724"/><path d="M59.032 101.363C58.358 100.264 57.327 99.408 56.231 98.745 57.319 98.064 58.284 97.149 58.96 96.054L59.614 96.044C58.942 97.108 58.126 98.032 57.112 98.733 58.143 99.417 59.016 100.333 59.692 101.352L59.032 101.363Z" fill="#F26724"/></g><g clip-path="url(#SVGID_8_)"><rect x="70.734" y="94.365" width="1.215" height="7.894" fill="#F26724" transform="matrix(-0.9999 0.0137 -0.0137 -0.9999 144.02 195.641)"/></g><line x1="108.325" y1="106.063" x2="73.53" y2="98.605" stroke="#F26724" stroke-width="0.7" stroke-miterlimit="10" stroke-dasharray="1 1" fill="none" clip-path="url(#SVGID_8_)"/><g clip-path="url(#SVGID_8_)"><rect x="72.924" y="94.365" width="1.215" height="7.894" fill="#F26724" transform="matrix(-0.9999 0.0137 -0.0137 -0.9999 148.399 195.611)"/></g><g clip-path="url(#SVGID_8_)"><path d="M107.636 108.506C108.575 107.714 109.669 107.078 110.849 106.708 110.074 105.751 109.546 104.635 109.191 103.43L109.824 103.618C110.162 104.859 110.834 106.009 111.689 106.963 110.451 107.294 109.222 107.83 108.275 108.699L107.636 108.506Z" fill="#F26724"/><path d="M106.13 108.044C107.062 107.253 108.157 106.616 109.337 106.247 108.558 105.291 108.03 104.177 107.683 102.968L108.308 103.159C108.652 104.399 109.324 105.547 110.179 106.503 108.943 106.836 107.714 107.371 106.761 108.238L106.13 108.044Z" fill="#F26724"/></g><g clip-path="url(#SVGID_8_)"><circle cx="108.94" cy="79.101" r="94.439" id="SVGID_3_" fill="none"/></g></g><g><defs><circle cx="325.614" cy="618.813" r="40.929" id="SVGID_2_"/></defs><clipPath id="SVGID_9_"><use width="100%" height="100%" xlink:href="#SVGID_2_" overflow="visible"></use></clipPath><path d="M488.59 683.2 507.406-70.134 342.055-74.36 194.235-78.135 242.622 683.2C267.704 695.212 462.481 697.185 488.59 683.2Z" stroke="#3C2415" stroke-miterlimit="10" fill="#CED4B7" clip-path="url(#SVGID_9_)"/></g><g><defs><circle cx="-474.976" cy="283.286" r="120.312" id="SVGID_10_"/></defs><clipPath id="SVGID_11_"><use width="100%" height="100%" xlink:href="#SVGID_10_" overflow="visible"></use></clipPath></g><path d="M306.961 129.685 215.131 129.685 215.131 189.389 306.961 189.389 315.463 189.389C315.463 189.389 306.961 126.002 306.961 129.538" stroke="#3C2415" stroke-miterlimit="10" fill="#E8E5D1"/><path d="M220.631 168.011 223.211 159.09 224.717 153.673C224.717 153.673 227.512 140.29 234.178 133.758L233.102 129.722 215.256 129.722 215.256 173.905 220.631 168.011Z" stroke="#3C2415" stroke-miterlimit="10" fill="#E8E5D1"/><path d="M215.258 173.732 229.807 129.558 241.68 133.47 232.086 162.596C230.989 165.393 223.272 175.502 215.258 173.732Z" stroke="#3C2415" stroke-miterlimit="10" fill="#E8E5D1"/><path d="M314.108 178.758 306.879 124.74 290.359 126.95Z" stroke="#3C2415" stroke-miterlimit="10" fill="#E8E5D1"/><rect x="201.656" y="112.723" width="13.938" height="17" stroke="#3C2415" stroke-miterlimit="10" fill="#E8E5D1"/><line x1="215.258" y1="112.723" x2="215.258" y2="129.723" stroke="#2E368F" stroke-miterlimit="10" fill="none"/><path d="M214.072 112.723 225.801 112.723 233.157 129.697 233.086 129.723 214.072 129.723" stroke="#3C2415" stroke-miterlimit="10" fill="#E8E5D1"/><rect x="235.424" y="113.269" width="72" height="17" stroke="#3C2415" stroke-miterlimit="10" fill="#E8E5D1"/><rect x="250.256" y="112.723" width="4.75" height="20.666" stroke="#3C2415" stroke-miterlimit="10" fill="#E8E5D1"/><rect x="231.715" y="116.822" width="25.322" height="16.999" stroke="#3C2415" stroke-miterlimit="10" fill="#E8E5D1" transform="matrix(-0.949 -0.3152 0.3152 -0.949 436.794 321.282)"/><rect x="231.546" y="117.873" width="25.321" height="15.924" stroke="#3C2415" stroke-width="0.7" stroke-miterlimit="10" fill="#E8E5D1" transform="matrix(-0.949 -0.3152 0.3152 -0.949 436.299 322.231)"/><line x1="230.506" y1="129.698" x2="235.526" y2="114.586" stroke="#3C2415" stroke-width="0.7" stroke-miterlimit="10" stroke-dasharray="1 1" fill="none"/><rect x="216.758" y="118.389" width="2.5" height="6.938" stroke="#262262" stroke-width="0.7" stroke-miterlimit="10" fill="#707E68"/><path d="M236.015 126.269C234.649 125.837 233.93 124.26 234.409 122.747 234.886 121.232 236.382 120.355 237.747 120.787L241.233 121.888 239.503 127.371 236.015 126.269Z" stroke="#262262" stroke-width="0.7" stroke-miterlimit="10" fill="#707E68"/><path d="M241.87 128.097C242.497 128.295 243.388 127.236 243.861 125.733 244.334 124.23 244.215 122.851 243.59 122.654L241.526 122.002 239.805 127.445 241.87 128.097Z" stroke="#262262" stroke-width="0.7" stroke-miterlimit="10" fill="#707E68"/><rect x="334.676" y="113.358" width="73" height="17" stroke="#3C2415" stroke-miterlimit="10" fill="#E8E5D1"/><path d="M334.989 130.185 407.677 130.185 407.677 189.889 334.989 189.889 328.259 189.889C328.259 189.889 334.989 126.502 334.989 130.038" stroke="#3C2415" stroke-miterlimit="10" fill="#E8E5D1"/><rect x="407.676" y="113.358" width="73" height="17" stroke="#3C2415" stroke-miterlimit="10" fill="#E8E5D1"/><path d="M480.362 130.185 407.674 130.185 407.674 189.889 480.362 189.889 487.091 189.889C487.091 189.889 480.362 126.502 480.362 130.038" stroke="#3C2415" stroke-miterlimit="10" fill="#E8E5D1"/><rect x="346.174" y="113.69" width="4.75" height="20.667" stroke="#3C2415" stroke-miterlimit="10" fill="#E8E5D1"/><rect x="390.592" y="113.69" width="4.75" height="20.667" stroke="#3C2415" stroke-miterlimit="10" fill="#E8E5D1"/><line x1="390.592" y1="115.471" x2="395.342" y2="115.471" stroke="#3C2415" stroke-miterlimit="10" fill="#E8E5D1"/><rect x="464.426" y="113.69" width="4.75" height="20.667" stroke="#3C2415" stroke-miterlimit="10" fill="#E8E5D1"/><rect x="420.01" y="113.69" width="4.75" height="20.667" stroke="#3C2415" stroke-miterlimit="10" fill="#E8E5D1"/><line x1="371.176" y1="130.185" x2="371.176" y2="147.389" stroke="#3C2415" stroke-miterlimit="10" fill="#E8E5D1"/><rect x="354.03" y="147.389" width="34.291" height="3.834" stroke="#3C2415" stroke-miterlimit="10" fill="#E8E5D1"/><line x1="444.176" y1="130.185" x2="444.176" y2="147.389" stroke="#3C2415" stroke-miterlimit="10" fill="#E8E5D1"/><rect x="427.03" y="147.389" width="34.291" height="3.834" stroke="#3C2415" stroke-miterlimit="10" fill="#E8E5D1"/><g><g><circle cx="280.206" cy="120.985" r="2.749" stroke="#7D712D" stroke-width="0.3" stroke-dasharray="0.958 0.958" fill="none"/></g><circle cx="280.198" cy="120.983" r="1.813" stroke="#7D712D" stroke-width="0.3" fill="#B7C98F"/><g><path d="M279.62 117.057C279.528 117.364 279.442 117.374 279.218 117.808 278.863 118.442 277.636 118.001 277.63 117.405L277.63 117.138C277.351 117.292 276.398 116.862 276.567 116.075 276.03 116.151 275.729 115.679 275.883 115.178 276.016 114.738 276.072 114.484 275.97 113.702 275.841 112.733 275.598 111.616 276.317 110.513 276.381 110.416 276.325 110.298 276.263 110.267 276.143 110.204 275.772 110.228 275.778 109.913L275.836 108.762C275.858 108.349 276.48 108.046 278.398 108.15 280.394 108.253 281.174 108.312 281.138 109.14 281.107 109.951 281.089 110.175 281.089 110.175 281.069 110.431 280.894 110.466 280.78 110.501 280.715 110.521 280.682 110.616 280.711 110.685 280.75 110.79 281.142 111.839 281.192 112.73 281.237 113.55 281.469 113.885 281.358 114.434 281.227 115.083 281.19 117.206 281.169 117.839 281.148 118.461 280.898 119.443 280.862 120.767 280.829 122.027 279.37 121.96 279.493 120.83 279.589 119.939 279.481 119.902 279.534 119.596 279.629 119.058 279.597 118.456 279.584 118.033 279.581 117.835 279.649 117.626 279.62 117.057" stroke="#EB4324" stroke-width="0.5" stroke-miterlimit="10" fill="#FCD4CD"/><path d="M278.52 109.806C277.727 109.744 276.34 109.829 276.212 109.869 276.091 109.91 276.022 109.816 276.047 109.64 276.061 109.52 276.091 108.897 276.091 108.897 276.102 108.624 276.399 108.306 278.522 108.411 280.717 108.534 280.995 108.636 280.963 109.284L280.9 110.089C280.888 110.14 280.857 110.171 280.806 110.194 280.682 110.248 280.53 109.96 278.52 109.806Z" stroke="#EB4324" stroke-width="0.5" fill="#FCD4CD"/></g><line x1="278.852" y1="101.839" x2="278.836" y2="108.973" stroke="#F26724" stroke-width="0.7" stroke-miterlimit="10" stroke-dasharray="1 1" fill="none"/><g><rect x="278.635" y="100.638" width="0.405" height="2.632" fill="#F26724" transform="matrix(-0.0289 0.9996 -0.9996 -0.0289 388.808 -173.82)"/></g></g><line x1="381.485" y1="104.487" x2="381.485" y2="129.416" stroke="#F26724" stroke-width="0.7" stroke-miterlimit="10" stroke-dasharray="1 1" fill="none"/><g><rect x="378.852" y="104.082" width="5.262" height="0.809" fill="#F26724"/></g><g><path d="M379.961 130.788C379.961 131.632 380.645 132.313 381.484 132.313 382.322 132.313 383.004 131.631 383.004 130.788 383.004 129.948 382.322 129.268 381.484 129.268 380.645 129.268 379.961 129.948 379.961 130.788Z" fill="#F26724"/></g><g><line x1="215.258" y1="113" x2="215.258" y2="130.172" stroke="#3C2415" stroke-width="0.7" stroke-miterlimit="10" stroke-dasharray="1 1" fill="none"/><g><line x1="215.258" y1="113" x2="215.258" y2="113.5" stroke="#3C2415" stroke-width="0.7" stroke-miterlimit="10" stroke-dasharray="1 1" fill="none"/><line x1="215.258" y1="114.451" x2="215.258" y2="129.196" stroke="#3C2415" stroke-width="0.7" stroke-miterlimit="10" stroke-dasharray="1 1" fill="none"/><line x1="215.258" y1="129.672" x2="215.258" y2="130.172" stroke="#3C2415" stroke-width="0.7" stroke-miterlimit="10" stroke-dasharray="1 1" fill="none"/></g></g><line x1="390.592" y1="132.846" x2="395.342" y2="132.846" stroke="#3C2415" stroke-width="0.7" stroke-miterlimit="10" stroke-dasharray="1 1" fill="none"/><line x1="420.01" y1="115.471" x2="424.76" y2="115.471" stroke="#3C2415" stroke-miterlimit="10" fill="#E8E5D1"/><line x1="420.01" y1="132.846" x2="424.76" y2="132.846" stroke="#3C2415" stroke-width="0.7" stroke-miterlimit="10" stroke-dasharray="1 1" fill="none"/><line x1="464.426" y1="115.471" x2="469.176" y2="115.471" stroke="#3C2415" stroke-miterlimit="10" fill="#E8E5D1"/><line x1="464.426" y1="132.846" x2="469.176" y2="132.846" stroke="#3C2415" stroke-miterlimit="10" fill="#E8E5D1"/><line x1="345.801" y1="115.471" x2="350.551" y2="115.471" stroke="#3C2415" stroke-miterlimit="10" fill="#E8E5D1"/><line x1="345.801" y1="132.846" x2="350.551" y2="132.846" stroke="#3C2415" stroke-width="0.7" stroke-miterlimit="10" stroke-dasharray="1 1" fill="none"/><line x1="249.929" y1="114.369" x2="254.679" y2="114.369" stroke="#3C2415" stroke-width="1.5" stroke-miterlimit="10" fill="none"/><g><line x1="407.678" y1="109.031" x2="407.678" y2="114.914" stroke="#F26724" stroke-width="0.7" stroke-miterlimit="10" stroke-dasharray="1 1" fill="none"/><g><rect x="405.045" y="108.625" width="5.264" height="0.809" fill="#F26724"/></g><g><path d="M406.157 116.285C406.157 117.129 406.839 117.81 407.678 117.81 408.517 117.81 409.199 117.128 409.199 116.285 409.199 115.445 408.517 114.765 407.678 114.765 406.838 114.766 406.157 115.445 406.157 116.285Z" fill="#F26724"/></g></g><g><line x1="466.803" y1="107.786" x2="466.803" y2="113.669" stroke="#F26724" stroke-width="0.7" stroke-miterlimit="10" stroke-dasharray="1 1" fill="none"/><g><rect x="464.17" y="107.38" width="5.264" height="0.809" fill="#F26724"/></g><g><path d="M465.282 115.04C465.282 115.884 465.964 116.565 466.803 116.565 467.642 116.565 468.324 115.883 468.324 115.04 468.324 114.2 467.642 113.52 466.803 113.52 465.964 113.52 465.282 114.2 465.282 115.04Z" fill="#F26724"/></g></g><g><g><circle cx="466.776" cy="123.047" r="2.749" stroke="#7D712D" stroke-width="0.3" stroke-dasharray="0.9579 0.9579" fill="none"/></g><circle cx="466.778" cy="123.053" r="1.813" stroke="#7D712D" stroke-width="0.3" fill="#B7C98F"/><g><path d="M470.698 123.654C470.391 123.744 470.38 123.83 469.946 124.051 469.311 124.404 469.743 125.632 470.341 125.642L470.609 125.643C470.453 125.922 470.879 126.877 471.668 126.71 471.588 127.248 472.059 127.552 472.563 127.398 473.002 127.268 473.256 127.213 474.038 127.32 475.007 127.454 476.124 127.703 477.231 126.992 477.327 126.927 477.446 126.985 477.475 127.046 477.538 127.166 477.512 127.538 477.827 127.533L478.979 127.482C479.391 127.461 479.698 126.843 479.604 124.924 479.514 122.927 479.458 122.146 478.629 122.177 477.818 122.204 477.594 122.221 477.594 122.221 477.338 122.24 477.301 122.414 477.266 122.527 477.246 122.593 477.151 122.625 477.082 122.596 476.977 122.556 475.93 122.158 475.039 122.104 474.219 122.053 473.885 121.82 473.336 121.928 472.688 122.056 470.563 122.081 469.93 122.099 469.309 122.119 468.326 122.362 467 122.39 465.74 122.416 465.799 123.875 466.932 123.758 467.823 123.667 467.86 123.776 468.166 123.724 468.703 123.632 469.307 123.668 469.729 123.683 469.92 123.688 470.129 123.621 470.698 123.654" stroke="#EB4324" stroke-width="0.5" stroke-miterlimit="10" fill="#FCD4CD"/><path d="M477.944 124.793C478.001 125.587 477.909 126.973 477.868 127.1 477.827 127.22 477.919 127.291 478.097 127.267 478.218 127.252 478.839 127.226 478.839 127.226 479.114 127.216 479.433 126.921 479.341 124.798 479.232 122.602 479.13 122.323 478.482 122.353L477.677 122.409C477.626 122.422 477.593 122.454 477.572 122.503 477.514 122.629 477.799 122.783 477.944 124.793Z" stroke="#EB4324" stroke-width="0.5" fill="#FCD4CD"/></g><line x1="485.913" y1="124.506" x2="478.778" y2="124.481" stroke="#F26724" stroke-width="0.7" stroke-miterlimit="10" stroke-dasharray="1 1" fill="none"/><g><rect x="485.607" y="123.199" width="0.406" height="2.632" fill="#F26724" transform="matrix(-0.9998 0.0216 -0.0216 -0.9998 974.2 238.494)"/></g></g><g><line x1="466.801" y1="139.137" x2="466.801" y2="133.254" stroke="#F26724" stroke-width="0.7" stroke-miterlimit="10" stroke-dasharray="1 1" fill="none"/><g><rect x="464.172" y="138.735" width="5.264" height="0.809" fill="#F26724"/></g><g><path d="M468.325 131.883C468.325 131.039 467.643 130.358 466.802 130.358 465.964 130.358 465.282 131.04 465.282 131.883 465.282 132.723 465.964 133.403 466.802 133.403 467.643 133.403 468.325 132.723 468.325 131.883Z" fill="#F26724"/></g></g><rect x="201.656" y="129.685" width="13.603" height="59.704" stroke="#3C2415" stroke-miterlimit="10" fill="#E8E5D1"/><g><circle cx="101.614" cy="98.45" r="94.439" id="SVGID_5_" stroke="#C82257" stroke-miterlimit="10" fill="none"/></g><g><g><path d="M230.506 115.042 230.506 83.5 200.131 83.5" stroke="#C82257" stroke-miterlimit="10" fill="none"/><g><path d="M202.124 81.805 200.427 83.5 202.124 85.195 200.684 85.195 198.989 83.5 200.684 81.805Z" fill="#C82257"/></g></g></g></svg>