<svg width="128" height="206.5" viewBox="0 0 128 206.5" xmlns="http://www.w3.org/2000/svg" xmlns:xlink="http://www.w3.org/1999/xlink" id="Layer_1" xml:space="preserve" overflow="hidden"><path d="M53.972 199.748C53.972 199.748 92.255 38.571 106.044 29.536 109.288 19.043 108.206 17.654 108.206 17.654L14.955 14.5 44.045 164.873 52.604 198.301" stroke="#3C2415" stroke-miterlimit="10" fill="#5C7782"/><path d="M10.186 24.215C17.772 22.985 30.72 22.204 37.601 21.895L68.88 21.895C75.751 22.205 88.699 22.985 96.285 24.215 99.86 24.795 102.237 25.475 102.237 26.245L102.237 25.474C106.19 27.185 112.557 29.405 112.954 29.535 111.436 28.175 110.334 26.925 109.069 25.305 107.794 23.675 106.325 21.655 104.073 18.745 103.292 17.724 102.575 16.855 101.928 16.095L101.928 16.085C99.879 13.655 98.535 12.465 97.444 11.675 97.087 11.415 96.758 11.204 96.45 10.995 96.45 10.995 85.837 9.306 68.88 9.036L37.601 9.036C20.632 9.306 10.021 10.995 10.021 10.995 9.712 11.204 9.383 11.415 9.025 11.675 8.283 12.212 7.43 12.934 6.313 14.104L10.186 24.215Z" stroke="#3C2415" stroke-miterlimit="10" fill="#E8E5D1"/><path d="M8.929 17.952C16.628 16.722 29.77 15.943 36.753 15.632L68.499 15.632C75.473 15.943 88.614 16.722 96.313 17.952 99.942 18.533 102.354 19.212 102.354 19.982L102.354 19.212C106.366 20.921 112.829 23.143 113.231 23.272 111.691 21.912 110.572 20.662 109.288 19.043 107.994 17.413 106.504 15.393 104.218 12.482 103.425 11.462 102.698 10.592 102.042 9.833L102.042 9.821C99.962 7.391 98.599 6.201 97.49 5.411 97.127 5.151 96.794 4.942 96.48 4.731 96.48 4.731 85.709 3.042 68.499 2.771L36.753 2.771C19.531 3.042 8.762 4.731 8.762 4.731 8.449 4.942 8.115 5.151 7.751 5.411 6.997 5.948 6.132 6.67 4.998 7.841L8.929 17.952Z" stroke="#3C2415" stroke-miterlimit="10" fill="#E8E5D1"/><path d="M4.9 7.738C8.802 9.155 11.836 9.628 21.148 10.204L41.445 43.859 31.465 54.877 14.667 53.225C13.836 45.035 4.9 7.737 4.9 7.738" stroke="#3C2415" stroke-miterlimit="10" fill="#E8E5D1"/><path d="M52.182 198.471C52.182 198.471 50.636 190.579 50.675 180.063L47.688 58.009 14.667 53.224C19.523 77.534 43.17 179.503 52.182 198.471Z" stroke="#3C2415" stroke-miterlimit="10" fill="#E8E5D1"/><path d="M53.182 198.471C53.182 198.471 55.547 190.784 60.547 181.533L115.547 72.533 88.697 52.722C81.501 76.446 54.195 177.497 53.182 198.471Z" stroke="#3C2415" stroke-miterlimit="10" fill="#E8E5D1"/><path d="M101.567 8.016C104.338 11.107 106.789 12.957 114.725 17.862L116.725 57.111 102.725 62.111 88.697 52.723C91.834 45.111 101.568 8.015 101.567 8.016" stroke="#3C2415" stroke-miterlimit="10" fill="#E8E5D1"/><g><g><path d="M107.319 80.255C107.186 80.24 107.055 80.193 106.94 80.11L95.876 72.191C95.517 71.934 95.435 71.434 95.69 71.075 95.948 70.716 96.446 70.633 96.806 70.89L107.871 78.809C108.23 79.066 108.312 79.565 108.055 79.925 107.882 80.168 107.597 80.285 107.319 80.255Z" stroke="#3C2415" stroke-width="0.75" stroke-miterlimit="10" fill="#FFFFFF"/></g></g><g><g><path d="M100.042 71.2C99.514 71.2 99.09 71.625 99.09 72.152 99.09 72.365 99.16 72.561 99.279 72.719L101.588 75.026C101.532 75.074 101.493 75.137 101.478 75.207L98.57 74.436 98.334 74.373C97.965 74.326 97.586 74.5 97.389 74.846 97.122 75.303 97.28 75.886 97.737 76.145 97.919 76.248 98.107 76.288 98.303 76.271L98.312 76.271 98.602 76.193 98.62 76.186 98.636 76.177 98.651 76.169 101.48 75.421C101.496 75.492 101.535 75.563 101.59 75.61L99.288 77.91C99.265 77.949 99.241 77.98 99.218 78.019 98.958 78.476 99.115 79.059 99.572 79.319 100.029 79.579 100.611 79.429 100.873 78.972 100.896 78.934 100.912 78.894 100.928 78.854L100.928 78.846 100.998 78.587 100.998 78.563 101.007 78.548 101.772 75.72C101.811 75.729 101.842 75.737 101.882 75.737 101.922 75.737 101.952 75.729 101.991 75.72L102.763 78.619 102.826 78.853C102.842 78.893 102.857 78.933 102.881 78.971 103.15 79.429 103.733 79.578 104.189 79.318 104.645 79.058 104.803 78.475 104.536 78.018 104.513 77.979 104.489 77.948 104.466 77.909L104.378 77.815 102.174 75.609C102.228 75.562 102.269 75.5 102.283 75.428L105.174 76.2 105.419 76.27 105.434 76.27C105.465 76.278 105.505 76.278 105.544 76.278 106.071 76.278 106.497 75.845 106.497 75.318 106.497 74.797 106.071 74.365 105.544 74.365 105.497 74.365 105.456 74.365 105.419 74.373L105.403 74.373 105.385 74.382 105.221 74.428 105.173 74.444 102.282 75.208C102.267 75.138 102.226 75.075 102.173 75.027L104.322 72.877 104.441 72.759C104.693 72.46 104.739 72.027 104.535 71.673 104.274 71.216 103.691 71.059 103.236 71.326 103.047 71.436 102.904 71.595 102.826 71.783L102.826 71.792 102.763 72.028 101.991 74.918C101.952 74.911 101.922 74.902 101.882 74.902 101.842 74.902 101.811 74.911 101.772 74.918L100.984 72.012 100.984 71.98 100.928 71.783C100.775 71.436 100.437 71.2 100.042 71.2Z" stroke="#262262" stroke-width="0.75" stroke-miterlimit="10" fill="#FFFFFF"/></g></g><g><line x1="98.708" y1="51.172" x2="96.075" y2="55.944" stroke="#F26522" stroke-width="0.7" stroke-miterlimit="10" stroke-dasharray="1 1" fill="none"/><g><rect x="98.332" y="48.735" width="0.752" height="4.876" fill="#F26522" transform="matrix(0.4832 -0.8755 0.8755 0.4832 6.2094 112.864)"/></g><g><path d="M94.229 56.374C93.854 57.056 94.1 57.913 94.781 58.29 95.466 58.666 96.321 58.418 96.697 57.736 97.072 57.053 96.828 56.197 96.145 55.821 95.462 55.446 94.604 55.692 94.229 56.374Z" fill="#F26522"/></g></g><g><line x1="115.192" y1="63.691" x2="112.56" y2="68.463" stroke="#F26522" stroke-width="0.7" stroke-miterlimit="10" stroke-dasharray="1 1" fill="none"/><g><rect x="114.816" y="61.254" width="0.752" height="4.875" fill="#F26522" transform="matrix(0.4829 -0.8757 0.8757 0.4829 3.7896 133.801)"/></g><g><path d="M110.713 68.894C110.338 69.576 110.584 70.434 111.265 70.81 111.95 71.186 112.805 70.938 113.181 70.255 113.556 69.573 113.312 68.717 112.629 68.341 111.946 67.965 111.089 68.211 110.713 68.894Z" fill="#F26522"/></g></g><g><line x1="82.947" y1="161.009" x2="73.768" y2="156.237" stroke="#F26522" stroke-width="0.7" stroke-miterlimit="10" stroke-dasharray="1 1" fill="none"/><g><rect x="82.697" y="159.551" width="0.501" height="3.249" fill="#F26522" transform="matrix(0.8719 0.4896 -0.4896 0.8719 89.5361 -19.9718)"/></g><g><path d="M74.228 155.366C73.775 155.115 73.203 155.274 72.949 155.726 72.694 156.181 72.856 156.752 73.309 157.006 73.761 157.259 74.333 157.1 74.587 156.647 74.842 156.193 74.681 155.621 74.228 155.366Z" fill="#F26522"/></g></g><g><line x1="60.729" y1="198.535" x2="55.281" y2="198.376" stroke="#F26522" stroke-width="0.7" stroke-miterlimit="10" stroke-dasharray="1 1" fill="none"/><g><rect x="60.353" y="196.098" width="0.75" height="4.876" fill="#F26522" transform="matrix(0.9995 0.0312 -0.0312 0.9995 6.2308 -1.8)"/></g><g><circle cx="54.013" cy="198.339" r="1.409" fill="#F26522"/></g></g><g><line x1="123.24" y1="92.423" x2="106.655" y2="79.25" stroke="#F26522" stroke-width="0.7" stroke-miterlimit="10" stroke-dasharray="1 1" fill="none"/><g><rect x="122.865" y="89.985" width="0.75" height="4.876" fill="#F26522" transform="matrix(0.783 0.6221 -0.6221 0.783 84.2414 -56.6044)"/></g><g><circle cx="107.455" cy="79.286" r="1.41" fill="#F26522"/></g></g><g><line x1="88.18" y1="89.419" x2="96.633" y2="79.166" stroke="#F26522" stroke-width="0.7" stroke-miterlimit="10" stroke-dasharray="1 1" fill="none"/><g><rect x="87.804" y="86.982" width="0.751" height="4.875" fill="#F26522" transform="matrix(-0.6359 0.7718 -0.7718 -0.6359 213.264 78.2266)"/></g><g><path d="M95.822 76.97C96.729 77.113 97.674 76.946 98.54 76.655 98.41 77.561 98.463 78.51 98.748 79.383L98.451 79.744C98.182 78.888 98.054 78.017 98.141 77.14 97.29 77.386 96.39 77.439 95.519 77.337L95.822 76.97Z" fill="#F26522"/><path d="M95.104 77.841C96.012 77.983 96.958 77.815 97.823 77.525 97.694 78.431 97.747 79.38 98.031 80.253L97.733 80.615C97.465 79.758 97.337 78.887 97.422 78.011 96.572 78.257 95.672 78.31 94.802 78.208L95.104 77.841Z" fill="#F26522"/></g></g><line x1="74.482" y1="133.803" x2="82.305" y2="118.7" stroke="#F26522" stroke-width="0.7" stroke-miterlimit="10" stroke-dasharray="1 1" fill="none"/><g><circle cx="84.619" cy="110.869" r="3.534" stroke="#7C702D" stroke-width="0.3" stroke-dasharray="1.0078 1.0078" fill="none"/></g><circle cx="84.619" cy="110.869" r="1.867" stroke="#7C702D" stroke-width="0.3" fill="#B7C98F"/><g><path d="M83.597 113.971C83.777 113.778 83.845 113.802 84.167 113.563 84.66 113.229 85.404 114.001 85.19 114.444L85.093 114.638C85.357 114.629 85.903 115.295 85.487 115.811 85.911 115.952 85.964 116.408 85.663 116.724 85.404 117 85.269 117.167 85.059 117.781 84.8 118.543 84.569 119.455 83.635 120.007 83.555 120.054 83.552 120.161 83.586 120.207 83.651 120.299 83.933 120.417 83.813 120.644L83.35 121.475C83.183 121.77 82.616 121.766 81.238 120.99 79.805 120.184 79.252 119.854 79.579 119.257 79.899 118.67 79.996 118.511 79.996 118.511 80.104 118.329 80.245 118.367 80.342 118.384 80.398 118.394 80.456 118.335 80.462 118.275 80.471 118.182 80.565 117.268 80.853 116.592 81.122 115.968 81.072 115.637 81.355 115.273 81.69 114.843 82.492 113.292 82.739 112.833 82.985 112.382 83.527 111.749 84.037 110.786 84.521 109.869 85.575 110.452 85.071 111.24 84.674 111.862 84.74 111.928 84.588 112.136 84.322 112.497 84.127 112.955 83.979 113.271 83.91 113.411 83.784 113.54 83.597 113.971" stroke="#EB4024" stroke-width="0.5" stroke-miterlimit="10" fill="#FCD4CD"/><path d="M81.755 119.719C82.319 120.056 83.371 120.498 83.483 120.516 83.586 120.533 83.603 120.625 83.518 120.746 83.462 120.831 83.214 121.278 83.214 121.278 83.107 121.476 82.771 121.601 81.243 120.747 79.668 119.853 79.501 119.678 79.764 119.21L80.104 118.641C80.127 118.608 80.163 118.595 80.209 118.597 80.324 118.604 80.33 118.872 81.755 119.719Z" stroke="#EB4024" stroke-width="0.5" fill="#FCD4CD"/></g><g><rect x="74.017" y="131.538" width="0.751" height="4.874" fill="#F26522" transform="matrix(-0.4604 0.8877 -0.8877 -0.4604 227.574 129.623)"/></g><g><line x1="41.552" y1="134.995" x2="36.385" y2="118.79" stroke="#F26522" stroke-width="0.7" stroke-miterlimit="10" stroke-dasharray="1 1" fill="none"/><g><circle cx="35.423" cy="110.681" r="3.535" stroke="#7C702D" stroke-width="0.3" stroke-dasharray="1.0078 1.0078" fill="none"/></g><circle cx="35.424" cy="110.68" r="1.866" stroke="#7C702D" stroke-width="0.3" fill="#B7C98F"/><g><path d="M35.908 113.911C35.762 113.689 35.693 113.703 35.416 113.412 34.985 113 34.121 113.634 34.258 114.107L34.32 114.315C34.063 114.262 33.412 114.827 33.733 115.405 33.295 115.473 33.166 115.914 33.408 116.275 33.617 116.591 33.721 116.778 33.824 117.418 33.952 118.213 34.027 119.152 34.854 119.852 34.924 119.913 34.91 120.018 34.869 120.058 34.789 120.137 34.492 120.206 34.571 120.451L34.888 121.347C35.002 121.667 35.562 121.758 37.051 121.226 38.599 120.672 39.201 120.44 38.98 119.797 38.762 119.164 38.693 118.992 38.693 118.992 38.618 118.793 38.471 118.808 38.375 118.807 38.318 118.807 38.271 118.739 38.275 118.679 38.282 118.586 38.343 117.668 38.172 116.954 38.013 116.294 38.118 115.975 37.901 115.569 37.641 115.089 37.114 113.425 36.947 112.931 36.78 112.445 36.351 111.729 36.011 110.694 35.689 109.708 34.552 110.105 34.916 110.966 35.201 111.647 35.126 111.701 35.24 111.93 35.442 112.332 35.559 112.816 35.65 113.152 35.694 113.305 35.797 113.454 35.908 113.911" stroke="#EB4024" stroke-width="0.5" stroke-miterlimit="10" fill="#FCD4CD"/><path d="M36.756 119.887C36.142 120.124 35.03 120.383 34.918 120.382 34.814 120.382 34.781 120.469 34.846 120.603 34.886 120.695 35.055 121.178 35.055 121.178 35.13 121.392 35.437 121.571 37.088 120.987 38.791 120.372 38.985 120.227 38.804 119.721L38.564 119.102C38.546 119.067 38.514 119.048 38.467 119.041 38.354 119.028 38.304 119.291 36.756 119.887Z" stroke="#EB4024" stroke-width="0.5" fill="#FCD4CD"/></g><g><rect x="41.236" y="132.742" width="0.751" height="4.875" fill="#F26522" transform="matrix(0.3031 0.953 -0.953 0.3031 157.817 54.5503)"/></g></g><path d="M57.532 22.591C56.307 25.356 54.781 28.289 55.311 42.954 55.84 57.62 55.78 45.771 57.532 75.56L57.532 78.827 56.367 149.327C56.367 149.327 53.692 197.771 52.603 195.907" stroke="#3C2415" stroke-width="0.5" stroke-miterlimit="10" fill="#5C7782" fill-rule="evenodd" clip-rule="evenodd"/></svg>