<svg width="125.5" height="231" viewBox="0 0 125.5 231" xmlns="http://www.w3.org/2000/svg" xmlns:xlink="http://www.w3.org/1999/xlink" id="Layer_1" xml:space="preserve" overflow="hidden"><path d="" stroke="#262262" stroke-miterlimit="10" fill="#FFFFFF"/><path d="M16.104 113.214C16.104 113.214 15.549 103.814 15.003 95.998L15.094 97.625C15.071 97.108 15.039 96.565 15.003 95.998 14.225 83.962 10.739 61.325 10.739 61.325 14.949 67.468 25.349 103.011 25.082 117.906 24.815 132.801 25.708 198.152 20.328 225.076 16.015 225.868 5.615 220.267 5.615 220.267L13.685 152.357C13.685 152.357 16.172 126.752 16.103 112.213 16.1 111.735 16.095 111.27 16.087 110.817" stroke="#262262" stroke-width="1.5" stroke-miterlimit="10" fill="#FFFFFF"/><path d="M20.597 225.48C20.417 225.512 20.225 225.536 20.021 225.544 28.313 227.085 38.843 228.047 48.156 228.09 51.756 228.329 64.557 228.729 64.557 228.729L64.557 226.752C64.557 216.088 64.557 13.688 64.557 13.688L38.421 15.82C27.488 19.82 3.488 29.42 3.488 29.42 3.488 29.42 9.089 48.704 11.324 62.224 15.708 69.568 25.608 103.772 25.348 118.312 25.19 127.208 25.445 154.095 24.53 180.047" stroke="#262262" stroke-width="1.5" stroke-miterlimit="10" fill="#FFFFFF"/><g><path d="M20.643 225.509 23.498 202.87 24.345 180.059" fill="#FFFFFF"/><path d="M20.643 225.509 23.498 202.87 24.345 180.059" stroke="#262262" stroke-miterlimit="10" fill="none"/></g><g><path d="M25.239 225.415 24.64 224.175C24.394 223.699 24.241 223.391 24.096 223.068L24.079 223.067C23.905 223.367 23.732 223.643 23.418 224.093L22.685 225.227 21.887 225.168 23.731 222.567 22.347 219.794 23.153 219.853 23.77 221.166C23.944 221.532 24.076 221.814 24.198 222.112L24.222 222.114C24.397 221.806 24.551 221.569 24.776 221.24L25.603 220.033 26.401 220.092 24.573 222.589 26.045 225.473 25.239 225.415Z" stroke="#262262" stroke-width="0.3" stroke-miterlimit="10" fill="#FFFFFF"/></g><path d="" stroke="#262262" stroke-miterlimit="10" fill="#FFFFFF"/><path d="" stroke="#262262" stroke-miterlimit="10" fill="#FFFFFF"/><path d="M110.611 113.214C110.611 113.214 111.166 103.814 111.712 95.998L111.621 97.625C111.644 97.108 111.676 96.565 111.712 95.998 112.491 83.962 115.976 61.325 115.976 61.325 111.766 67.468 101.367 103.011 101.633 117.906 101.9 132.801 101.007 198.152 106.387 225.076 110.7 225.868 121.1 220.267 121.1 220.267L113.03 152.357C113.03 152.357 110.543 126.752 110.613 112.213 110.615 111.735 110.62 111.27 110.629 110.817" stroke="#262262" stroke-width="1.5" stroke-miterlimit="10" fill="#FFFFFF"/><path d="M106.12 225.499C106.3 225.531 106.491 225.555 106.695 225.563 98.403 227.104 87.874 228.066 78.561 228.109 74.96 228.348 62.159 228.749 62.159 228.749L62.159 226.771C62.159 216.107 62.159 13.707 62.159 13.707L88.296 15.839C99.228 19.839 123.228 29.439 123.228 29.439 123.228 29.439 117.628 48.723 115.392 62.243 111.008 69.587 101.108 103.791 101.368 118.331 101.526 127.227 101.271 154.114 102.186 180.066" stroke="#262262" stroke-width="1.5" stroke-miterlimit="10" fill="#FFFFFF"/><g><path d="M106.166 225.488 103.547 202.845 101.999 180.072" fill="#FFFFFF"/><path d="M106.166 225.488 103.547 202.845 101.999 180.072" stroke="#262262" stroke-miterlimit="10" fill="none"/></g><g><path d="M100.671 225.474 102.143 222.59 100.315 220.093 101.113 220.034 101.94 221.241C102.166 221.57 102.319 221.807 102.494 222.115L102.518 222.113C102.64 221.815 102.772 221.533 102.946 221.167L103.563 219.854 104.369 219.795 102.985 222.568 104.829 225.169 104.031 225.228 103.298 224.094C102.984 223.644 102.811 223.368 102.637 223.068L102.621 223.069C102.475 223.393 102.322 223.701 102.076 224.176L101.477 225.416 100.671 225.474Z" stroke="#262262" stroke-width="0.3" stroke-miterlimit="10" fill="#FFFFFF"/></g><path d="" stroke="#262262" stroke-miterlimit="10" fill="#FFFFFF"/><path d="M63.224 2.473C78.076 2.473 80.39 5.073 80.39 5.073 80.39 5.073 85.212 13.873 88.427 15.94 85.984 15.673 71.582 14.34 63.224 14.873L63.494 14.873C55.135 14.34 40.734 15.673 38.291 15.94 41.505 13.873 46.327 5.073 46.327 5.073 46.327 5.073 48.641 2.473 63.494 2.473" stroke="#262262" stroke-width="1.5" stroke-miterlimit="10" fill="#FFFFFF"/><path d="M43.853 9.207C47.489 9.548 82.864 9.207 82.864 9.207" stroke="#262262" stroke-width="0.5" stroke-miterlimit="10" stroke-dasharray="2 2" fill="#FFFFFF"/><g><path d="M38.164 14.321 39.326 15.894 40.117 14.111 41.215 15.727 42.042 13.958 43.12 15.586 43.963 13.825 45.027 15.462 45.881 13.706 46.937 15.349 47.799 13.598 48.844 15.245 49.715 13.499 50.754 15.152 51.632 13.408 52.666 15.064 53.553 13.324 54.581 14.984 55.476 13.248 56.492 14.912 57.39 13.179 58.402 14.848 59.31 13.119 60.316 14.792 61.233 13.066 62.235 14.744 63.162 13.022 64.159 14.704 65.096 12.988 66.082 14.675 67.029 12.963 68.008 14.656 68.964 12.95 69.933 14.65 70.899 12.95 71.855 14.656 72.834 12.964 73.775 14.678 74.771 12.995 75.692 14.718 76.703 13.046 77.603 14.781 78.639 13.125 79.51 14.874 80.578 13.237 81.409 15.005 82.518 13.398 83.29 15.193 84.474 13.637 85.129 15.475 86.446 14.033 86.777 15.938" stroke="#262262" stroke-width="0.2" stroke-miterlimit="10" fill="none"/></g><g><g><circle cx="28.569" cy="27.229" r="4.242" stroke="#7C702D" stroke-width="0.3" stroke-dasharray="1.0235 1.0235" fill="none"/></g><circle cx="28.56" cy="27.233" r="2.799" stroke="#7C702D" stroke-width="0.3" fill="#B7C98F"/><g><path d="M28.495 32.133C28.335 31.772 28.226 31.773 27.886 31.278 27.349 30.561 25.916 31.292 26.003 32.025L26.047 32.35C25.679 32.206 24.578 32.886 24.915 33.823 24.245 33.815 23.948 34.437 24.22 35.03 24.452 35.547 24.564 35.851 24.561 36.822 24.557 38.028 24.437 39.437 25.493 40.674 25.586 40.781 25.536 40.934 25.466 40.983 25.327 41.081 24.868 41.109 24.929 41.491L25.181 42.893C25.273 43.395 26.08 43.667 28.414 43.237 30.84 42.797 31.786 42.598 31.614 41.59 31.445 40.602 31.386 40.329 31.386 40.329 31.322 40.019 31.103 40.004 30.957 39.98 30.874 39.966 30.818 39.854 30.84 39.767 30.872 39.63 31.188 38.285 31.109 37.186 31.035 36.173 31.266 35.727 31.042 35.073 30.777 34.299 30.397 31.706 30.27 30.935 30.144 30.177 29.684 29.013 29.43 27.398 29.19 25.861 27.414 26.174 27.742 27.539 28.001 28.615 27.876 28.676 27.99 29.044 28.189 29.689 28.244 30.43 28.299 30.95 28.325 31.187 28.44 31.432 28.495 32.133" stroke="#EB4024" stroke-width="0.5" stroke-miterlimit="10" fill="#FCD4CD"/><path d="M28.299 41.185C27.335 41.387 25.626 41.502 25.463 41.474 25.309 41.445 25.238 41.569 25.297 41.782 25.335 41.927 25.469 42.684 25.469 42.684 25.527 43.018 25.941 43.358 28.525 42.894 31.194 42.396 31.516 42.228 31.373 41.438L31.17 40.463C31.149 40.404 31.107 40.369 31.039 40.349 30.875 40.303 30.734 40.678 28.299 41.185Z" stroke="#EB4024" stroke-width="0.5" fill="#FCD4CD"/></g><line x1="29.968" y1="50.887" x2="28.818" y2="42.155" stroke="#F26522" stroke-width="0.7" stroke-miterlimit="10" stroke-dasharray="1 1" fill="none"/></g><g><g><circle cx="14.789" cy="49.549" r="4.242" stroke="#7C702D" stroke-width="0.3" stroke-dasharray="1.0235 1.0235" fill="none"/></g><circle cx="14.784" cy="49.558" r="2.798" stroke="#7C702D" stroke-width="0.3" fill="#B7C98F"/><g><path d="M17.512 53.629C17.175 53.423 17.086 53.485 16.525 53.271 15.676 52.985 14.911 54.4 15.399 54.954L15.62 55.196C15.234 55.286 14.714 56.471 15.523 57.051 14.967 57.425 15.075 58.106 15.635 58.44 16.119 58.734 16.384 58.921 16.933 59.722 17.614 60.718 18.315 61.946 19.887 62.365 20.024 62.4 20.069 62.554 20.039 62.635 19.98 62.794 19.619 63.078 19.885 63.358L20.889 64.369C21.249 64.731 22.069 64.496 23.745 62.817 25.492 61.078 26.158 60.377 25.445 59.645 24.746 58.928 24.542 58.736 24.542 58.736 24.313 58.518 24.125 58.629 23.991 58.692 23.916 58.728 23.805 58.667 23.773 58.583 23.722 58.452 23.218 57.166 22.531 56.306 21.894 55.514 21.832 55.015 21.275 54.604 20.618 54.117 18.834 52.198 18.291 51.635 17.757 51.083 16.718 50.385 15.592 49.199 14.522 48.07 13.238 49.336 14.283 50.273 15.106 51.012 15.039 51.133 15.342 51.372 15.871 51.79 16.337 52.37 16.678 52.767 16.834 52.946 17.068 53.082 17.512 53.629" stroke="#EB4024" stroke-width="0.5" stroke-miterlimit="10" fill="#FCD4CD"/><path d="M22.487 61.193C21.808 61.906 20.466 62.971 20.316 63.041 20.173 63.105 20.185 63.246 20.354 63.388 20.468 63.486 21.007 64.034 21.007 64.034 21.244 64.277 21.778 64.321 23.643 62.473 25.558 60.548 25.727 60.227 25.161 59.658L24.441 58.97C24.39 58.934 24.336 58.928 24.268 58.95 24.107 59.004 24.205 59.393 22.487 61.193Z" stroke="#EB4024" stroke-width="0.5" fill="#FCD4CD"/></g><line x1="29.368" y1="68.234" x2="23.465" y2="61.696" stroke="#F26522" stroke-width="0.7" stroke-miterlimit="10" stroke-dasharray="1 1" fill="none"/></g><g><g><g><circle cx="46.878" cy="20.501" r="4.242" stroke="#7C702D" stroke-width="0.3" stroke-dasharray="1.0235 1.0235" fill="none"/></g><circle cx="46.869" cy="20.505" r="2.799" stroke="#7C702D" stroke-width="0.3" fill="#B7C98F"/><g><path d="M46.805 25.405C46.645 25.044 46.536 25.045 46.196 24.55 45.659 23.833 44.226 24.564 44.313 25.297L44.357 25.622C43.989 25.478 42.888 26.158 43.225 27.095 42.555 27.087 42.258 27.709 42.53 28.302 42.762 28.819 42.874 29.123 42.871 30.094 42.867 31.3 42.747 32.709 43.803 33.946 43.896 34.053 43.846 34.206 43.776 34.255 43.637 34.353 43.178 34.381 43.239 34.763L43.491 36.165C43.583 36.667 44.39 36.939 46.724 36.509 49.15 36.069 50.096 35.87 49.924 34.862 49.755 33.874 49.696 33.601 49.696 33.601 49.632 33.291 49.413 33.276 49.267 33.252 49.184 33.238 49.128 33.126 49.15 33.039 49.182 32.902 49.498 31.557 49.419 30.458 49.345 29.445 49.576 28.999 49.352 28.345 49.087 27.571 48.707 24.978 48.58 24.207 48.454 23.449 47.994 22.285 47.74 20.67 47.5 19.133 45.724 19.446 46.052 20.811 46.311 21.887 46.186 21.948 46.3 22.316 46.499 22.961 46.554 23.702 46.609 24.222 46.635 24.458 46.75 24.704 46.805 25.405" stroke="#EB4024" stroke-width="0.5" stroke-miterlimit="10" fill="#FCD4CD"/><path d="M46.608 34.457C45.644 34.659 43.935 34.774 43.772 34.746 43.618 34.717 43.547 34.841 43.606 35.054 43.644 35.199 43.778 35.956 43.778 35.956 43.836 36.29 44.25 36.63 46.834 36.166 49.503 35.668 49.825 35.5 49.682 34.71L49.479 33.735C49.458 33.676 49.416 33.641 49.348 33.621 49.185 33.575 49.044 33.95 46.608 34.457Z" stroke="#EB4024" stroke-width="0.5" fill="#FCD4CD"/></g><line x1="48.277" y1="44.159" x2="47.128" y2="35.427" stroke="#F26522" stroke-width="0.7" stroke-miterlimit="10" stroke-dasharray="1 1" fill="none"/></g><g><rect x="48.027" y="42.534" width="0.501" height="3.25" fill="#F26522" transform="matrix(0.1463 0.9892 -0.9892 0.1463 84.896 -10.0601)"/></g></g><g><rect x="29.717" y="49.262" width="0.501" height="3.25" fill="#F26522" transform="matrix(0.1463 0.9892 -0.9892 0.1463 75.9214 13.7959)"/></g><g><rect x="29.118" y="66.61" width="0.5" height="3.249" fill="#F26522" transform="matrix(0.6268 0.7792 -0.7792 0.6268 64.1239 2.5808)"/></g><g><g><g><circle cx="19.133" cy="159.815" r="4.242" stroke="#7C702D" stroke-width="0.3" stroke-dasharray="1.0235 1.0235" fill="none"/></g><circle cx="19.123" cy="159.818" r="2.799" stroke="#7C702D" stroke-width="0.3" fill="#B7C98F"/><g><path d="M18.431 164.669C18.319 164.291 18.21 164.277 17.935 163.742 17.496 162.962 15.981 163.503 15.973 164.241L15.975 164.569C15.628 164.379 14.45 164.912 14.663 165.884 13.999 165.79 13.626 166.369 13.818 166.991 13.982 167.534 14.053 167.849 13.925 168.812 13.766 170.007 13.467 171.389 14.354 172.751 14.434 172.869 14.364 173.015 14.288 173.054 14.139 173.133 13.679 173.102 13.69 173.489L13.76 174.911C13.785 175.421 14.553 175.795 16.922 175.667 19.384 175.542 20.348 175.466 20.307 174.445 20.267 173.444 20.244 173.166 20.244 173.166 20.219 172.85 20.005 172.807 19.864 172.764 19.783 172.74 19.743 172.621 19.775 172.538 19.824 172.406 20.31 171.113 20.372 170.014 20.429 169 20.716 168.587 20.576 167.91 20.414 167.108 20.37 164.488 20.343 163.707 20.316 162.938 20.009 161.726 19.964 160.091 19.923 158.536 18.122 158.619 18.272 160.014 18.392 161.114 18.259 161.159 18.326 161.538 18.44 162.204 18.399 162.945 18.387 163.468 18.384 163.708 18.466 163.966 18.431 164.669" stroke="#EB4024" stroke-width="0.5" stroke-miterlimit="10" fill="#FCD4CD"/><path d="M17.073 173.621C16.092 173.697 14.382 173.592 14.222 173.543 14.073 173.494 13.987 173.608 14.019 173.827 14.038 173.976 14.073 174.744 14.073 174.744 14.088 175.083 14.455 175.473 17.078 175.345 19.788 175.194 20.129 175.069 20.088 174.267L20.012 173.274C19.999 173.213 19.96 173.173 19.897 173.144 19.741 173.077 19.554 173.43 17.073 173.621Z" stroke="#EB4024" stroke-width="0.5" fill="#FCD4CD"/></g><line x1="17.481" y1="183.457" x2="17.463" y2="174.649" stroke="#F26522" stroke-width="0.7" stroke-miterlimit="10" stroke-dasharray="1 1" fill="none"/></g><g><rect x="17.214" y="181.693" width="0.501" height="3.248" fill="#F26522" transform="matrix(0.0312 0.9995 -0.9995 0.0312 200.146 160.141)"/></g></g><g><g><circle cx="28.773" cy="200.548" r="4.243" stroke="#7C702D" stroke-width="0.3" stroke-dasharray="1.0235 1.0235" fill="none"/></g><circle cx="28.776" cy="200.558" r="2.799" stroke="#7C702D" stroke-width="0.3" fill="#B7C98F"/><g><path d="M33.628 201.25C33.249 201.362 33.235 201.471 32.7 201.746 31.921 202.185 32.461 203.7 33.199 203.708L33.527 203.706C33.337 204.053 33.87 205.231 34.841 205.018 34.747 205.682 35.326 206.055 35.949 205.863 36.491 205.699 36.806 205.628 37.769 205.756 38.965 205.915 40.347 206.214 41.708 205.327 41.826 205.247 41.972 205.317 42.012 205.393 42.091 205.542 42.061 206.002 42.447 205.991L43.87 205.921C44.38 205.896 44.753 205.128 44.626 202.759 44.501 200.297 44.426 199.333 43.403 199.374 42.402 199.414 42.124 199.437 42.124 199.437 41.809 199.462 41.766 199.676 41.723 199.817 41.699 199.898 41.58 199.938 41.497 199.906 41.365 199.857 40.072 199.371 38.972 199.309 37.958 199.252 37.545 198.965 36.868 199.105 36.066 199.267 33.446 199.311 32.665 199.338 31.897 199.365 30.685 199.672 29.05 199.717 27.494 199.758 27.577 201.559 28.973 201.409 30.074 201.289 30.119 201.422 30.498 201.355 31.163 201.241 31.905 201.282 32.428 201.294 32.667 201.297 32.925 201.215 33.628 201.25" stroke="#EB4024" stroke-width="0.5" stroke-miterlimit="10" fill="#FCD4CD"/><path d="M42.579 202.607C42.655 203.588 42.55 205.298 42.501 205.458 42.453 205.607 42.566 205.693 42.785 205.661 42.933 205.642 43.702 205.607 43.702 205.607 44.041 205.592 44.431 205.225 44.303 202.602 44.153 199.892 44.027 199.551 43.225 199.592L42.232 199.668C42.171 199.681 42.131 199.72 42.102 199.783 42.035 199.939 42.389 200.127 42.579 202.607Z" stroke="#EB4024" stroke-width="0.5" fill="#FCD4CD"/></g><line x1="53.46" y1="202.612" x2="44.652" y2="202.631" stroke="#F26522" stroke-width="0.7" stroke-miterlimit="10" stroke-dasharray="1 1" fill="none"/><g><rect x="53.069" y="201.006" width="0.501" height="3.248" fill="#F26522" transform="matrix(0.9995 -0.0312 0.0312 0.9995 -6.2909 1.7607)"/></g></g><g><line x1="28.986" y1="222.634" x2="25.354" y2="222.634" stroke="#F26522" stroke-width="0.7" stroke-miterlimit="10" stroke-dasharray="1 1" fill="none"/><g><rect x="28.736" y="221.009" width="0.5" height="3.25" fill="#F26522"/></g><g><circle cx="24.508" cy="222.634" r="0.939" fill="#F26522"/></g></g><g><g><g><circle cx="44.776" cy="101.292" r="4.242" stroke="#7C702D" stroke-width="0.3" stroke-dasharray="1.0235 1.0235" fill="none"/></g><circle cx="44.766" cy="101.296" r="2.799" stroke="#7C702D" stroke-width="0.3" fill="#B7C98F"/><g><path d="M44.074 106.146C43.962 105.768 43.853 105.754 43.578 105.219 43.139 104.439 41.624 104.98 41.616 105.718L41.618 106.046C41.271 105.856 40.093 106.388 40.306 107.361 39.642 107.267 39.269 107.846 39.461 108.468 39.625 109.011 39.696 109.326 39.568 110.289 39.409 111.484 39.11 112.867 39.997 114.228 40.077 114.346 40.007 114.492 39.931 114.531 39.782 114.61 39.322 114.579 39.333 114.966L39.403 116.389C39.428 116.899 40.196 117.272 42.565 117.145 45.027 117.02 45.991 116.944 45.95 115.923 45.91 114.922 45.887 114.644 45.887 114.644 45.862 114.328 45.648 114.285 45.507 114.243 45.426 114.219 45.386 114.1 45.418 114.017 45.467 113.885 45.953 112.592 46.015 111.492 46.072 110.478 46.359 110.065 46.219 109.388 46.057 108.586 46.013 105.966 45.986 105.185 45.959 104.417 45.652 103.204 45.607 101.569 45.566 100.014 43.765 100.097 43.915 101.492 44.035 102.593 43.902 102.637 43.969 103.016 44.083 103.682 44.042 104.424 44.03 104.946 44.027 105.186 44.109 105.444 44.074 106.146" stroke="#EB4024" stroke-width="0.5" stroke-miterlimit="10" fill="#FCD4CD"/><path d="M42.717 115.098C41.736 115.174 40.026 115.069 39.866 115.02 39.717 114.972 39.631 115.085 39.663 115.304 39.682 115.453 39.717 116.221 39.717 116.221 39.732 116.56 40.099 116.95 42.722 116.822 45.432 116.671 45.773 116.546 45.732 115.743L45.656 114.75C45.643 114.689 45.604 114.649 45.541 114.62 45.385 114.555 45.197 114.908 42.717 115.098Z" stroke="#EB4024" stroke-width="0.5" fill="#FCD4CD"/></g><line x1="43.125" y1="124.934" x2="43.106" y2="116.126" stroke="#F26522" stroke-width="0.7" stroke-miterlimit="10" stroke-dasharray="1 1" fill="none"/></g><g><rect x="42.857" y="123.17" width="0.501" height="3.248" fill="#F26522" transform="matrix(0.0312 0.9995 -0.9995 0.0312 166.495 77.8134)"/></g></g><g><g><g><circle cx="81.939" cy="222.814" r="4.242" stroke="#7C702D" stroke-width="0.3" stroke-dasharray="1.0235 1.0235" fill="none"/></g><circle cx="81.95" cy="222.811" r="2.799" stroke="#7C702D" stroke-width="0.3" fill="#B7C98F"/><g><path d="M82.642 217.96C82.754 218.338 82.863 218.352 83.138 218.887 83.577 219.667 85.092 219.126 85.1 218.388L85.098 218.061C85.445 218.25 86.623 217.718 86.41 216.746 87.074 216.84 87.447 216.261 87.255 215.639 87.091 215.096 87.02 214.781 87.148 213.818 87.307 212.623 87.606 211.241 86.719 209.879 86.639 209.761 86.709 209.615 86.785 209.576 86.934 209.497 87.394 209.527 87.383 209.14L87.313 207.718C87.288 207.207 86.52 206.834 84.151 206.961 81.689 207.087 80.725 207.162 80.766 208.184 80.806 209.185 80.829 209.463 80.829 209.463 80.854 209.779 81.068 209.822 81.209 209.864 81.29 209.888 81.33 210.007 81.298 210.091 81.249 210.223 80.763 211.516 80.701 212.615 80.644 213.629 80.357 214.042 80.497 214.719 80.659 215.521 80.703 218.141 80.73 218.922 80.757 219.691 81.064 220.903 81.109 222.537 81.15 224.093 82.951 224.01 82.801 222.614 82.681 221.513 82.814 221.469 82.747 221.09 82.633 220.424 82.674 219.683 82.686 219.159 82.688 218.921 82.606 218.663 82.642 217.96" stroke="#EB4024" stroke-width="0.5" stroke-miterlimit="10" fill="#FCD4CD"/><path d="M83.999 209.008C84.98 208.932 86.69 209.037 86.85 209.086 86.999 209.135 87.085 209.021 87.053 208.802 87.034 208.654 86.999 207.885 86.999 207.885 86.984 207.546 86.617 207.156 83.994 207.284 81.284 207.435 80.943 207.56 80.984 208.362L81.06 209.355C81.073 209.416 81.112 209.457 81.175 209.485 81.331 209.552 81.519 209.198 83.999 209.008Z" stroke="#EB4024" stroke-width="0.5" fill="#FCD4CD"/></g><line x1="83.591" y1="199.172" x2="83.609" y2="207.979" stroke="#F26522" stroke-width="0.7" stroke-miterlimit="10" stroke-dasharray="1 1" fill="none"/></g><g><rect x="83.358" y="197.689" width="0.5" height="3.248" fill="#F26522" transform="matrix(-0.0312 -0.9995 0.9995 -0.0312 -112.996 289.106)"/></g></g><g><line x1="67.141" y1="72.887" x2="63.508" y2="72.887" stroke="#F26522" stroke-width="0.7" stroke-miterlimit="10" stroke-dasharray="1 1" fill="none"/><g><rect x="66.891" y="71.262" width="0.5" height="3.25" fill="#F26522"/></g><g><circle cx="62.662" cy="72.887" r="0.939" fill="#F26522"/></g></g><g><line x1="29.754" y1="136.513" x2="26.121" y2="136.513" stroke="#F26522" stroke-width="0.7" stroke-miterlimit="10" stroke-dasharray="1 1" fill="none"/><g><rect x="29.504" y="134.887" width="0.5" height="3.25" fill="#F26522"/></g><g><circle cx="25.275" cy="136.513" r="0.939" fill="#F26522"/></g></g></svg>