<svg width="326.956" height="194.139" viewBox="0 0 326.956 194.139" xmlns="http://www.w3.org/2000/svg" xmlns:xlink="http://www.w3.org/1999/xlink" id="Layer_1" xml:space="preserve" overflow="hidden"><path d="M92.611 31.8C90.651 32.639 89.385 33.179 89.385 33.179 87.559 38.498 87.437 42.222 86.684 46.275 85.85 50.776 84.444 55.673 83.446 63.42 82.104 73.816 78.475 88.234 76.425 112.02 74.829 130.55 74.896 155.087 73.185 185.73 80.206 189.511 93.45 186.7 93.45 186.7L98.297 124.441 102.766 91.119C102.765 91.118 98.655 40.384 92.611 31.8" stroke="#3C2415" stroke-miterlimit="10" fill="#E8E5D1"/><path d="M168.645 23.345C168.645 23.345 154.74 20.872 148.395 21.783L148.395 22.406 148.395 23.562 148.395 26.598 148.395 27.467 148.395 189.66C148.395 189.66 187.275 190.961 191.865 183.023 190.082 173.36 188.929 142.094 189.211 119.085 189.352 107.533 190.74 98.453 190.808 94.445 190.813 94.157 194.067 109.73 195.916 128.364 198.53 154.711 200.01 186.928 200.01 186.928 200.01 186.928 207.68 187.661 214.024 187.121 216.95 186.873 219.592 186.353 221.07 185.367 221.07 185.367 219.95 146.526 216.032 108.844 212.563 75.499 206.421 43.17 203.969 37.875 203.969 37.875 202.658 37.348 200.545 36.49 200.446 36.449 200.346 36.409 200.244 36.369 196.518 34.857 190.444 33.491 184.732 31.107 177.152 27.942 170.138 23.802 169.41 23.126L168.645 23.345Z" stroke="#3C2415" stroke-miterlimit="10" fill="#E8E5D1"/><path d="" stroke="#262262" stroke-width="1.5" stroke-miterlimit="10" fill="#FFFFFF"/><path d="M200.544 37.009C199.493 39.325 195.716 56.91 193.35 72.117 191.474 84.167 190.807 94.767 190.807 94.767" stroke="#3C2415" stroke-miterlimit="10" fill="#FFFFFF"/><path d="" stroke="#3C2415" stroke-miterlimit="10" fill="#E8E5D1"/><path d="" stroke="#3C2415" stroke-miterlimit="10" fill="#E8E5D1"/><path d="M102.767 91.115C104.22 95.052 104.204 126.102 104.204 126.204 104.204 130.664 104.276 135.131 104.195 139.59 104.14 139.16 104.013 138.732 103.952 138.303 102.954 152.397 102.957 166.59 102.241 180.702 102.187 181.751 102.134 182.801 102.076 183.849 109.814 191.765 130.156 189.426 130.156 189.426 141.135 189.426 143.926 167.286 143.926 167.286L143.926 168.685C145.145 163.985 145.074 159.1 145.299 154.285 145.705 145.573 145.809 136.84 145.556 128.121 145.387 122.285 145.788 115.484 143.926 109.857L114.226 51 120.501 46.37 120.435 46.275 112.876 43.575 113.956 22.379C113.028 23.028 99.064 29.037 92.611 31.8 92.611 31.8 101.523 78.83 103.102 92.652" stroke="#3C2415" stroke-miterlimit="10" fill="#E8E5D1"/><path d="M74.543 186.044 74.543 162.554 73.008 186.044C73.942 186.122 74.543 186.044 74.543 186.044Z" stroke="#3C2415" stroke-miterlimit="10" fill="#E8E5D1"/><g><g><path d="M78.476 170.482C78.445 170.5 78.408 170.51 78.369 170.51L74.668 170.51C74.547 170.511 74.449 170.414 74.449 170.293 74.449 170.173 74.547 170.075 74.667 170.075L78.369 170.075C78.49 170.075 78.588 170.173 78.588 170.293 78.586 170.374 78.542 170.444 78.476 170.482Z" stroke="#3C2415" stroke-width="0.5" stroke-miterlimit="10" fill="#FFFFFF"/></g></g><g><ellipse cx="76.455" cy="170.213" rx="1.497" ry="1.53" stroke="#262262" stroke-width="0.5" stroke-miterlimit="10" fill="#FFFFFF"/></g><g><g><path d="M78.476 173.781C78.445 173.8 78.408 173.809 78.369 173.809L74.668 173.809C74.547 173.809 74.449 173.713 74.449 173.592 74.449 173.472 74.547 173.375 74.667 173.375L78.369 173.374C78.49 173.374 78.588 173.471 78.588 173.592 78.586 173.673 78.542 173.743 78.476 173.781Z" stroke="#3C2415" stroke-width="0.5" stroke-miterlimit="10" fill="#FFFFFF"/></g></g><g><ellipse cx="76.455" cy="173.513" rx="1.497" ry="1.53" stroke="#262262" stroke-width="0.5" stroke-miterlimit="10" fill="#FFFFFF"/></g><g><g><path d="M78.476 176.841C78.445 176.86 78.408 176.868 78.369 176.868L74.668 176.869C74.547 176.869 74.449 176.772 74.449 176.651 74.449 176.531 74.547 176.434 74.667 176.434L78.369 176.433C78.49 176.433 78.588 176.531 78.588 176.651 78.586 176.733 78.542 176.803 78.476 176.841Z" stroke="#3C2415" stroke-width="0.5" stroke-miterlimit="10" fill="#FFFFFF"/></g></g><g><ellipse cx="76.455" cy="176.573" rx="1.497" ry="1.53" stroke="#262262" stroke-width="0.5" stroke-miterlimit="10" fill="#FFFFFF"/></g><g><g><path d="M78.476 179.901C78.445 179.919 78.408 179.929 78.369 179.929L74.668 179.929C74.547 179.929 74.449 179.831 74.449 179.711 74.449 179.591 74.547 179.493 74.667 179.493L78.369 179.492C78.49 179.492 78.588 179.591 78.588 179.71 78.586 179.793 78.542 179.863 78.476 179.901Z" stroke="#3C2415" stroke-width="0.5" stroke-miterlimit="10" fill="#FFFFFF"/></g></g><g><ellipse cx="76.455" cy="179.632" rx="1.497" ry="1.53" stroke="#262262" stroke-width="0.5" stroke-miterlimit="10" fill="#FFFFFF"/></g><g><line x1="92.551" y1="24.751" x2="92.551" y2="30.2" stroke="#F26522" stroke-width="0.7" stroke-miterlimit="10" stroke-dasharray="1 1" fill="none"/><g><rect x="90.113" y="24.376" width="4.875" height="0.75" fill="#F26522"/></g><g><circle cx="92.55" cy="31.469" r="1.409" fill="#F26522"/></g></g><g><line x1="106.823" y1="64.109" x2="101.374" y2="64.109" stroke="#F26522" stroke-width="0.7" stroke-miterlimit="10" stroke-dasharray="1 1" fill="none"/><g><rect x="106.448" y="61.672" width="0.75" height="4.875" fill="#F26522"/></g><g><circle cx="100.105" cy="64.11" r="1.409" fill="#F26522"/></g></g><g><path d="M87.845 95.15C90.764 95.355 92.966 97.888 92.76 100.809 92.555 103.728 90.02 105.935 87.101 105.729 84.18 105.524 81.979 102.984 82.184 100.064 82.389 97.144 84.924 94.943 87.845 95.15Z" stroke="#7C702D" stroke-width="0.3" stroke-dasharray="0.9783 0.9783" fill="none"/></g><circle cx="87.473" cy="100.438" r="2.8" stroke="#7C702D" stroke-width="0.3" fill="#B7C98F"/><g><path d="M87.909 105.319C88.041 104.947 88.149 104.938 88.451 104.419 88.932 103.664 90.417 104.283 90.386 105.02L90.366 105.348C90.722 105.177 91.872 105.771 91.607 106.731 92.274 106.671 92.618 107.269 92.392 107.881 92.199 108.414 92.111 108.725 92.188 109.694 92.284 110.896 92.51 112.292 91.552 113.605 91.467 113.719 91.528 113.869 91.603 113.911 91.749 113.998 92.207 113.993 92.176 114.378L92.031 115.794C91.978 116.303 91.193 116.635 88.834 116.383 86.381 116.128 85.423 116.002 85.518 114.984 85.612 113.986 85.649 113.71 85.649 113.71 85.69 113.396 85.907 113.364 86.049 113.329 86.132 113.309 86.179 113.192 86.151 113.107 86.108 112.972 85.691 111.656 85.687 110.554 85.684 109.538 85.418 109.112 85.593 108.444 85.799 107.651 85.98 105.036 86.049 104.259 86.116 103.492 86.487 102.298 86.617 100.668 86.739 99.118 88.534 99.294 88.31 100.679 88.133 101.773 88.263 101.824 88.177 102.2 88.028 102.858 88.029 103.602 88.014 104.123 88.007 104.361 87.91 104.615 87.909 105.319" stroke="#EB4024" stroke-width="0.5" stroke-miterlimit="10" fill="#FCD4CD"/><path d="M88.792 114.329C89.769 114.457 91.481 114.441 91.643 114.401 91.794 114.361 91.874 114.478 91.831 114.696 91.804 114.843 91.728 115.609 91.728 115.609 91.696 115.947 91.309 116.316 88.697 116.049 85.999 115.757 85.664 115.612 85.747 114.814L85.876 113.827C85.893 113.766 85.933 113.728 85.998 113.703 86.157 113.646 86.325 114.01 88.792 114.329Z" stroke="#EB4024" stroke-width="0.5" fill="#FCD4CD"/></g><line x1="88.462" y1="123.743" x2="89.04" y2="115.525" stroke="#F26522" stroke-width="0.7" stroke-miterlimit="10" stroke-dasharray="1 1" fill="none"/><g><rect x="88.212" y="122.481" width="0.5" height="3.25" fill="#F26522" transform="matrix(-0.0703 0.9975 -0.9975 -0.0703 218.478 44.5849)"/></g><g><g><path d="M203.585 102.435C200.689 102.846 198.687 105.434 199.113 108.215 199.54 110.998 202.235 112.926 205.13 112.516 208.027 112.107 210.028 109.512 209.603 106.73 209.176 103.949 206.481 102.025 203.585 102.435Z" stroke="#7C702D" stroke-width="0.3" stroke-dasharray="1.0192 1.0192" fill="none"/></g><path d="M203.949 104.814C202.421 105.029 201.362 106.394 201.588 107.864 201.815 109.334 203.236 110.351 204.766 110.134 206.294 109.917 207.353 108.55 207.127 107.079 206.902 105.611 205.479 104.596 203.949 104.814Z" stroke="#7C702D" stroke-width="0.3" fill="#B7C98F"/><g><path d="M204.293 112.182C204.133 111.835 204.024 111.835 203.684 111.36 203.147 110.672 201.714 111.374 201.801 112.078L201.845 112.391C201.477 112.251 200.376 112.905 200.713 113.805 200.043 113.798 199.746 114.395 200.018 114.964 200.25 115.462 200.362 115.753 200.359 116.686 200.355 117.845 200.235 119.199 201.291 120.387 201.384 120.49 201.334 120.637 201.264 120.684 201.125 120.777 200.666 120.805 200.727 121.172L200.979 122.519C201.071 123.001 201.878 123.263 204.212 122.849 206.638 122.426 207.584 122.235 207.412 121.267 207.243 120.318 207.184 120.055 207.184 120.055 207.12 119.758 206.901 119.742 206.755 119.72 206.672 119.707 206.616 119.599 206.638 119.515 206.67 119.384 206.986 118.092 206.907 117.036 206.833 116.063 207.064 115.634 206.84 115.006 206.575 114.262 206.195 111.771 206.068 111.03 205.942 110.301 205.482 109.184 205.228 107.632 204.988 106.156 203.212 106.457 203.54 107.768 203.799 108.801 203.674 108.86 203.788 109.214 203.987 109.833 204.042 110.545 204.097 111.045 204.123 111.272 204.238 111.508 204.293 112.182" stroke="#EB4024" stroke-width="0.5" stroke-miterlimit="10" fill="#FCD4CD"/><path d="M204.097 120.878C203.133 121.071 201.424 121.183 201.261 121.155 201.107 121.128 201.036 121.246 201.095 121.45 201.133 121.59 201.267 122.318 201.267 122.318 201.325 122.639 201.739 122.966 204.323 122.519 206.992 122.041 207.314 121.88 207.171 121.121L206.968 120.184C206.947 120.127 206.905 120.094 206.837 120.074 206.673 120.031 206.532 120.391 204.097 120.878Z" stroke="#EB4024" stroke-width="0.5" fill="#FCD4CD"/></g><line x1="205.766" y1="130.199" x2="204.616" y2="121.81" stroke="#F26522" stroke-width="0.7" stroke-miterlimit="10" stroke-dasharray="1 1" fill="none"/></g><g><path d="M204.21 130.664 204.137 130.188 207.352 129.733 207.425 130.21Z" fill="#F26522"/></g><g><line x1="220.134" y1="83.407" x2="214.685" y2="83.407" stroke="#F26522" stroke-width="0.7" stroke-miterlimit="10" stroke-dasharray="1 1" fill="none"/><g><rect x="219.759" y="81.063" width="0.75" height="4.684" fill="#F26522"/></g><g><path d="M213.415 82.052C212.636 82.052 212.005 82.656 212.005 83.407 212.005 84.154 212.636 84.759 213.415 84.759 214.194 84.759 214.825 84.154 214.825 83.407 214.825 82.655 214.194 82.052 213.415 82.052Z" fill="#F26522"/></g></g><g><line x1="188.291" y1="62.177" x2="193.74" y2="62.177" stroke="#F26522" stroke-width="0.7" stroke-miterlimit="10" stroke-dasharray="1 1" fill="none"/><g><rect x="187.916" y="59.835" width="0.75" height="4.686" fill="#F26522"/></g><g><ellipse cx="195.009" cy="62.178" rx="1.411" ry="1.355" fill="#F26522"/></g></g><g><line x1="203.659" y1="157.832" x2="200.026" y2="157.832" stroke="#F26522" stroke-width="0.7" stroke-miterlimit="10" stroke-dasharray="1 1" fill="none"/><g><rect x="203.409" y="156.271" width="0.5" height="3.122" fill="#F26522"/></g><g><ellipse cx="199.181" cy="157.832" rx="0.94" ry="0.902" fill="#F26522"/></g></g><g><line x1="209.405" y1="191.464" x2="209.405" y2="187.974" stroke="#F26522" stroke-width="0.7" stroke-miterlimit="10" stroke-dasharray="1 1" fill="none"/><g><rect x="207.78" y="191.225" width="3.25" height="0.481" fill="#F26522"/></g><g><ellipse cx="209.405" cy="187.162" rx="0.939" ry="0.903" fill="#F26522"/></g></g><g><path d="M322.956 135.172C304.617 135.566 286.313 137.171 267.975 137.566 267.976 129.565 267.975 125.566 267.975 117.566 286.311 117.43 304.621 116.086 322.956 115.95 322.956 123.642 322.956 127.48 322.956 135.172Z" stroke="#3C2415" stroke-miterlimit="10" fill="#DDBF9A"/><path d="M267.975 137.566C271.746 129.535 273.628 125.509 277.399 117.472" stroke="#3C2415" stroke-miterlimit="10" fill="#DDBF9A"/></g><g><path d="M279.051 129.895C262.3 129.19 245.679 130.894 228.928 130.191 228.928 124.972 228.93 122.358 228.929 117.14 245.673 118.014 262.308 116.478 279.052 117.353 279.054 122.372 279.051 124.879 279.051 129.895Z" stroke="#3C2415" stroke-miterlimit="10" fill="#DDBF9A"/></g><line x1="277.508" y1="117.073" x2="277.508" y2="130.283" stroke="#3C2415" stroke-width="0.5" stroke-miterlimit="10" stroke-dasharray="1 1" fill="#FFFFFF"/><path d="M238.621 115.386C238.997 115.125 239.499 114.995 240.154 114.979 243.894 114.885 247.633 114.614 251.361 114.284 252.108 114.218 252.966 113.743 253.494 113.204 256.551 110.081 260.073 107.606 264.164 105.911 265.012 105.557 265.989 105.387 266.915 105.359 267.474 105.343 268.37 105.639 268.525 106.019 268.692 106.427 268.173 107.094 268.01 107.506 269.274 107.56 270.818 107.532 272.325 107.742 272.779 107.806 273.462 108.533 273.446 108.934 273.429 109.359 272.77 109.993 272.275 110.119 271.16 110.407 269.972 110.439 268.837 110.902 269.737 110.963 270.657 110.932 271.531 111.108 272.492 111.304 273.473 111.585 274.317 112.046 274.713 112.263 275.098 113.081 274.966 113.457 274.802 113.924 274.143 114.418 273.613 114.53 272.916 114.674 272.133 114.382 271.392 114.416 270.237 114.466 269.087 114.632 267.83 115.037 270.348 115.224 271.393 116.771 271.715 118.725 272.008 120.497 271.971 122.329 271.938 124.132 271.931 124.472 271.108 125.145 270.918 125.07 270.403 124.864 269.796 124.409 269.643 123.928 269.279 122.789 269.128 121.586 268.947 120.402 268.79 119.37 268.116 119.095 267.156 119.077 265.309 119.044 263.607 120.199 262.607 122.351" stroke="#392726" stroke-width="0.5" stroke-miterlimit="10" fill="#BBA795"/><g><path d="M226.564 123.86C243.405 125.673 259.736 122.352 276.598 123.349 277.57 126.075 278.057 127.447 279.029 130.224 262.179 128.494 245.861 131.896 228.995 130.983 228.022 128.169 227.536 126.745 226.564 123.86Z" stroke="#3C2415" stroke-miterlimit="10" fill="#DDBF9A"/></g><path d="M262.61 122.352C263.316 122.458 264.019 122.449 264.619 122.684 265.842 123.16 267.077 123.669 268.16 124.373 268.515 124.605 268.581 125.519 268.451 126.049 268.391 126.289 267.533 126.481 267.043 126.469 264.958 126.417 262.846 126.448 260.798 126.127 258.958 125.84 257.076 125.347 255.423 124.545 254.209 123.956 253.217 123.93 252.027 124.263 248.429 125.266 244.807 126.192 241.223 127.241 239.954 127.61 239.16 127.213 238.629 126.2 236.975 123.047 236.749 119.764 237.889 116.421 238.045 115.963 238.283 115.622 238.62 115.386" stroke="#392726" stroke-width="0.5" stroke-miterlimit="10" fill="#BBA795"/><g><line x1="277.508" y1="114.126" x2="277.508" y2="117.618" stroke="#F26522" stroke-width="0.7" stroke-miterlimit="10" stroke-dasharray="1 1" fill="none"/><g><rect x="275.883" y="113.887" width="3.25" height="0.48" fill="#F26522"/></g><g><ellipse cx="277.508" cy="118.43" rx="0.939" ry="0.903" fill="#F26522"/></g></g><g><line x1="281.973" y1="125.3" x2="278.34" y2="125.3" stroke="#F26522" stroke-width="0.7" stroke-miterlimit="10" stroke-dasharray="1 1" fill="none"/><g><rect x="281.723" y="123.737" width="0.5" height="3.122" fill="#F26522"/></g><g><ellipse cx="277.494" cy="125.299" rx="0.94" ry="0.902" fill="#F26522"/></g></g><line x1="270.087" y1="142.086" x2="270.087" y2="134.52" stroke="#F26522" stroke-width="0.7" stroke-miterlimit="10" stroke-dasharray="1 1" fill="none"/><g><rect x="268.462" y="142.086" width="3.25" height="0.48" fill="#F26522"/></g><g><ellipse cx="270.087" cy="133.708" rx="0.939" ry="0.903" fill="#F26522"/></g><path d="" stroke="#262262" stroke-miterlimit="10" fill="#FFFFFF"/><path d="M219.533 185.778 219.533 163.212 221.068 185.778C220.134 185.853 219.533 185.778 219.533 185.778Z" stroke="#3C2415" stroke-miterlimit="10" fill="#E8E5D1"/><g><g><path d="M219.422 169.388C219.391 169.406 219.354 169.416 219.315 169.416L215.614 169.416C215.493 169.416 215.395 169.323 215.395 169.208 215.395 169.091 215.493 168.998 215.613 168.998L219.315 168.998C219.436 168.998 219.534 169.091 219.534 169.208 219.532 169.284 219.488 169.353 219.422 169.388Z" stroke="#3C2415" stroke-width="0.5" stroke-miterlimit="10" fill="#FFFFFF"/></g></g><g><ellipse cx="217.401" cy="169.13" rx="1.497" ry="1.47" stroke="#262262" stroke-width="0.5" stroke-miterlimit="10" fill="#FFFFFF"/></g><g><g><path d="M219.422 172.558C219.391 172.575 219.354 172.585 219.315 172.585L215.614 172.585C215.493 172.585 215.395 172.492 215.395 172.376 215.395 172.261 215.493 172.168 215.613 172.168L219.315 172.167C219.436 172.166 219.534 172.26 219.534 172.376 219.532 172.454 219.488 172.522 219.422 172.558Z" stroke="#3C2415" stroke-width="0.5" stroke-miterlimit="10" fill="#FFFFFF"/></g></g><g><ellipse cx="217.401" cy="172.301" rx="1.497" ry="1.469" stroke="#262262" stroke-width="0.5" stroke-miterlimit="10" fill="#FFFFFF"/></g><g><g><path d="M219.422 175.498C219.391 175.516 219.354 175.524 219.315 175.524L215.614 175.524C215.493 175.524 215.395 175.431 215.395 175.316 215.395 175.199 215.493 175.106 215.613 175.106L219.315 175.106C219.436 175.106 219.534 175.2 219.534 175.316 219.532 175.394 219.488 175.461 219.422 175.498Z" stroke="#3C2415" stroke-width="0.5" stroke-miterlimit="10" fill="#FFFFFF"/></g></g><g><ellipse cx="217.401" cy="175.241" rx="1.497" ry="1.468" stroke="#262262" stroke-width="0.5" stroke-miterlimit="10" fill="#FFFFFF"/></g><g><g><path d="M219.422 178.438C219.391 178.455 219.354 178.465 219.315 178.465L215.614 178.465C215.493 178.465 215.395 178.372 215.395 178.257 215.395 178.142 215.493 178.047 215.613 178.047L219.315 178.047C219.436 178.047 219.534 178.142 219.534 178.256 219.532 178.333 219.488 178.401 219.422 178.438Z" stroke="#3C2415" stroke-width="0.5" stroke-miterlimit="10" fill="#FFFFFF"/></g></g><g><ellipse cx="217.401" cy="178.18" rx="1.497" ry="1.469" stroke="#262262" stroke-width="0.5" stroke-miterlimit="10" fill="#FFFFFF"/></g><g><path d="M35.906 189.05C35.618 188.719 35.449 188.345 35.451 187.945L35.29 149.846C35.283 148.608 36.855 147.627 38.791 147.647 40.732 147.673 42.307 148.692 42.312 149.932L42.478 188.035C42.485 189.272 40.912 190.254 38.969 190.229 37.66 190.209 36.509 189.737 35.906 189.05Z" stroke="#3C2415" stroke-miterlimit="10" fill="#FFFFFF"/></g><circle cx="39.424" cy="169.048" r="19.139" stroke="#262262" stroke-width="1.5" stroke-miterlimit="10" fill="#636B62"/><circle cx="39.42" cy="169.048" r="14.242" stroke="#262262" stroke-miterlimit="10" fill="#707E68"/><circle cx="36.497" cy="166.307" r="2.126" stroke="#262262" stroke-width="0.5" stroke-miterlimit="10" fill="#FFFFFF"/><path d="M40.219 166.307C40.219 165.132 41.168 164.18 42.35 164.18 43.522 164.18 44.471 165.133 44.471 166.307 44.471 167.482 43.522 168.433 42.35 168.433 41.168 168.433 40.219 167.482 40.219 166.307Z" stroke="#262262" stroke-width="0.5" stroke-miterlimit="10" fill="#FFFFFF"/><circle cx="36.497" cy="171.788" r="2.126" stroke="#262262" stroke-width="0.5" stroke-miterlimit="10" fill="#FFFFFF"/><path d="M40.219 171.788C40.219 170.613 41.168 169.662 42.35 169.662 43.522 169.662 44.471 170.613 44.471 171.788 44.471 172.964 43.522 173.914 42.35 173.914 41.168 173.914 40.219 172.964 40.219 171.788Z" stroke="#262262" stroke-width="0.5" stroke-miterlimit="10" fill="#FFFFFF"/><line x1="42.35" y1="166.307" x2="36.497" y2="171.788" stroke="#2B3990" stroke-width="1.5" stroke-miterlimit="10" fill="#FFFFFF"/><line x1="36.497" y1="166.307" x2="42.35" y2="171.788" stroke="#2B3990" stroke-width="1.5" stroke-miterlimit="10" fill="#FFFFFF"/><g><line x1="38.885" y1="139.918" x2="38.885" y2="145.367" stroke="#F26522" stroke-width="0.7" stroke-miterlimit="10" stroke-dasharray="1 1" fill="none"/><g><rect x="36.447" y="139.543" width="4.875" height="0.75" fill="#F26522"/></g><g><circle cx="38.885" cy="146.636" r="1.409" fill="#F26522"/></g></g><line x1="13.332" y1="168.867" x2="38.438" y2="168.867" stroke="#F26522" stroke-width="0.7" stroke-miterlimit="10" stroke-dasharray="1 1" fill="none"/><g><rect x="13.082" y="167.239" width="0.5" height="3.25" fill="#F26522"/></g><g><circle cx="39.285" cy="168.865" r="0.939" fill="#F26522"/></g><g><line x1="1.965" y1="156.905" x2="21.807" y2="156.905" stroke="#F26522" stroke-miterlimit="10" stroke-dasharray="1 1" fill="none"/><g><rect x="1.625" y="155.279" width="0.5" height="3.252" fill="#F26522"/></g><g><path d="M21.337 154.924C21.805 155.716 22.534 156.337 23.31 156.82 22.527 157.297 21.829 157.943 21.337 158.716L20.868 158.716C21.359 157.966 21.95 157.31 22.681 156.82 21.951 156.321 21.337 155.662 20.862 154.924L21.337 154.924Z" fill="#F26522"/><path d="M20.208 154.924C20.677 155.716 21.406 156.337 22.181 156.82 21.4 157.297 20.701 157.943 20.208 158.716L19.741 158.716C20.231 157.966 20.821 157.31 21.552 156.82 20.822 156.321 20.208 155.662 19.732 154.924L20.208 154.924Z" fill="#F26522"/></g></g><g><g><path d="M220.301 186.259 241.691 186.259 241.691 132.805 266.453 132.805" stroke="#C82257" stroke-width="0.5" stroke-miterlimit="10" fill="none"/><g><path d="M265.457 133.652 266.305 132.805 265.457 131.958 266.177 131.958 267.024 132.805 266.177 133.652Z" fill="#C82257"/></g></g></g><g><g><path d="M76.454 179.632 65.359 179.632 65.359 168.865 60.765 168.865" stroke="#C82257" stroke-width="0.5" stroke-miterlimit="10" fill="none"/><g><path d="M61.761 168.017 60.913 168.865 61.761 169.712 61.041 169.712 60.193 168.865 61.041 168.017Z" fill="#C82257"/></g></g></g><g><line x1="78.542" y1="184.916" x2="74.909" y2="184.916" stroke="#F26522" stroke-width="0.7" stroke-miterlimit="10" stroke-dasharray="1 1" fill="none"/><g><rect x="78.292" y="183.292" width="0.5" height="3.25" fill="#F26522"/></g><g><circle cx="74.063" cy="184.916" r="0.94" fill="#F26522"/></g></g><path d="" stroke="#262262" stroke-width="1.5" stroke-miterlimit="10" fill="#FFFFFF"/></svg>