<svg width="197.862" height="223.5" viewBox="0 0 197.862 223.5" xmlns="http://www.w3.org/2000/svg" xmlns:xlink="http://www.w3.org/1999/xlink" id="Layer_1" xml:space="preserve" overflow="hidden"><path d="M34.063 21.693C42.681 17.656 56.124 9.003 64.062 9.002 72 9 93.396 16.706 96.824 25.597 100.252 34.488 65.058 152.004 65.058 152.004L34.063 21.693Z" stroke="#3C2415" stroke-width="0.5" stroke-miterlimit="10" fill="#5C7782" fill-rule="evenodd" clip-rule="evenodd"/><path d="M85.916 10.159 85.916 10.153C84.047 7.729 83.041 6.949 82.152 6.335 82.152 6.335 74.879 2.064 63.247 1.861 51.615 2.064 44.338 6.334 44.338 6.334 44.338 6.334 40.551 8.036 38.819 10.626L43.884 14.557C47.947 13.788 76.489 11.073 87.426 14.557 87.325 13.415 85.916 10.159 85.916 10.159Z" stroke="#3C2415" stroke-miterlimit="10" fill="#E8E5D1"/><path d="M86.253 18.709C86.253 18.703 86.253 18.696 86.253 18.69 86.253 17.159 70.175 16.232 63.189 15.949L63.125 15.949C57.885 16.162 47.53 16.736 42.682 17.655L39.965 14.09C39.965 14.09 52.949 11.676 63.125 11.211 73.299 11.676 86.283 14.09 86.283 14.09" stroke="#3C2415" stroke-miterlimit="10" fill="#E8E5D1"/><path d="" stroke="#21409A" stroke-width="1.5" stroke-miterlimit="10" fill="none"/><path d="M61.577 45.25 69.799 46.966 66.919 123.832 66.106 122.868 61.551 192.005C61.551 192.005 58.294 217.835 45.487 217.835 45.487 217.835 21.755 220.563 12.727 211.328 12.727 211.328 14.168 184.918 14.899 158.049L14.421 143.912 15.209 144.075C15.209 143.956 15.215 143.837 15.215 143.717 15.511 124.61 15.228 107.731 13.532 103.138L13.526 103.138C13.526 103.138 8.732 43.95 1.681 33.932 6.699 27.573 41.141 13.558 41.141 13.558" stroke="#3C2415" stroke-miterlimit="10" fill="#E8E5D1"/><path d="" stroke="#21409A" stroke-width="1.5" stroke-miterlimit="10" fill="none"/><path d="M26.899 92.767C28.579 102.953 26.899 145.431 26.899 145.431" stroke="#3C2415" stroke-miterlimit="10" fill="none"/><path d="" stroke="#21409A" stroke-width="1.5" stroke-miterlimit="10" fill="none"/><path d="" stroke="#21409A" stroke-width="1.5" stroke-miterlimit="10" fill="none"/><path d="" stroke="#21409A" stroke-width="1.5" stroke-miterlimit="10" fill="none"/><path d="M13.773 143.911 33.724 146.221 32.884 157.141C32.043 165.961 12.724 157.141 12.724 157.141L13.773 143.911Z" stroke="#3C2415" stroke-miterlimit="10" fill="#E8E5D1"/><line x1="13.529" y1="146.981" x2="33.724" y2="149.73" stroke="#3C2415" stroke-miterlimit="10" fill="#E8E5D1"/><path d="M60.058 135.673C57.487 162.937 57.919 214.031 79.189 217.694 79.699 217.789 80.222 217.833 80.763 217.833 80.763 217.833 104.495 220.562 113.524 211.325 113.524 211.325 112.082 184.915 111.349 158.045L111.035 143.712 111.041 144.071C111.041 143.952 111.035 143.831 111.035 143.712 110.739 124.604 111.023 107.727 112.718 103.134L112.72 103.138C112.72 103.138 117.514 43.945 124.566 33.931 117.038 30.709 100.943 22.604 99.665 22.941 94.638 24.268 60.336 132.725 60.058 135.673Z" stroke="#3C2415" stroke-miterlimit="10" fill="#E8E5D1"/><path d="M99.349 92.767C97.668 102.953 99.349 145.431 99.349 145.431" stroke="#3C2415" stroke-miterlimit="10" fill="none"/><path d="M112.473 143.911 92.523 146.221 93.364 157.141C94.205 165.961 113.524 157.141 113.524 157.141L112.473 143.911Z" stroke="#3C2415" stroke-miterlimit="10" fill="#E8E5D1"/><path d="M112.717 146.981 92.523 149.731 112.717 146.981Z" stroke="#3C2415" stroke-miterlimit="10" fill="#E8E5D1"/><path d="M82.433 43.852C78.62 65.717 75.076 88.4 67.183 109.238 64.685 115.837 61.806 122.412 60.808 129.451 60.53 131.414 60.637 133.792 60.058 135.673 60.058 135.673 61.549 130.831 64.699 125.003L99.349 56.334 92.025 50.93 82.433 43.852Z" stroke="#3C2415" stroke-miterlimit="10" fill="#E8E5D1"/><path d="M82.355 44.112 92.025 50.929 92.103 50.82 100.924 47.671 99.663 22.943C91.782 18.073 92.487 17.984 87.454 12.076 86.912 11.433 86.42 10.885 85.974 10.406L85.974 10.401C85.97 10.395 85.98 10.406 85.98 10.413 86.132 10.791 86.238 11.396 86.283 12.202 86.352 13.349 86.32 14.906 86.189 16.802 86.189 16.809 86.189 16.814 86.189 16.821 85.767 22.981 84.373 32.747 82.433 43.855" stroke="#3C2415" stroke-miterlimit="10" fill="#E8E5D1"/><g><line x1="17.886" y1="18.651" x2="19.875" y2="21.693" stroke="#F26522" stroke-width="0.7" stroke-miterlimit="10" stroke-dasharray="1 1" fill="none"/><g><rect x="17.637" y="17.026" width="0.499" height="3.25" fill="#F26522" transform="matrix(-0.5461 -0.8377 0.8377 -0.5461 12.0299 43.8205)"/></g><g><circle cx="20.336" cy="22.4" r="0.939" fill="#F26522"/></g></g><g><g><path d="M44.039 66.725C43.017 68.832 40.479 69.709 38.373 68.686 36.268 67.663 35.385 65.124 36.408 63.018 37.432 60.91 39.974 60.034 42.08 61.057 44.185 62.08 45.064 64.617 44.039 66.725Z" stroke="#7C702D" stroke-width="0.3" stroke-dasharray="1.0235 1.0235" fill="none"/></g><circle cx="40.224" cy="64.872" r="2.239" stroke="#7C702D" stroke-width="0.3" fill="#B7C98F"/><g><path d="M36.471 63.741C36.708 63.949 36.681 64.032 36.976 64.411 37.395 64.993 36.494 65.911 35.955 65.668L35.717 65.555C35.738 65.872 34.953 66.548 34.321 66.065 34.167 66.576 33.62 66.655 33.233 66.305 32.895 66.003 32.691 65.845 31.949 65.612 31.028 65.326 29.925 65.075 29.235 63.974 29.175 63.878 29.047 63.877 28.993 63.92 28.885 64.003 28.753 64.344 28.475 64.207L27.466 63.677C27.106 63.488 27.093 62.804 27.983 61.13 28.903 59.383 29.284 58.709 30.01 59.083 30.723 59.451 30.917 59.562 30.917 59.562 31.137 59.686 31.098 59.855 31.08 59.972 31.07 60.039 31.144 60.108 31.215 60.114 31.328 60.122 32.428 60.206 33.247 60.53 34.004 60.831 34.398 60.762 34.844 61.091 35.371 61.48 37.257 62.395 37.815 62.677 38.362 62.956 39.139 63.589 40.311 64.17 41.425 64.723 40.758 66.004 39.798 65.424 39.037 64.966 38.961 65.048 38.707 64.871 38.263 64.564 37.711 64.344 37.328 64.177 37.152 64.098 36.995 63.951 36.471 63.741" stroke="#EB4024" stroke-width="0.5" stroke-miterlimit="10" fill="#FCD4CD"/><path d="M29.519 61.708C29.132 62.396 28.634 63.669 28.615 63.803 28.599 63.928 28.489 63.951 28.341 63.855 28.24 63.791 27.695 63.508 27.695 63.508 27.453 63.383 27.294 62.985 28.271 61.127 29.293 59.209 29.499 59.005 30.069 59.304L30.762 59.694C30.802 59.725 30.818 59.766 30.817 59.821 30.812 59.957 30.492 59.974 29.519 61.708Z" stroke="#EB4024" stroke-width="0.5" fill="#FCD4CD"/></g><line x1="10.267" y1="52.265" x2="28.115" y2="60.936" stroke="#F26522" stroke-width="0.7" stroke-miterlimit="10" stroke-dasharray="1 1" fill="none"/><g><rect x="10.016" y="50.64" width="0.5" height="3.25" fill="#F26522" transform="matrix(-0.8998 -0.4362 0.4362 -0.8998 -3.2957 103.772)"/></g></g><g><line x1="10.427" y1="116.113" x2="14.06" y2="116.113" stroke="#F26522" stroke-width="0.7" stroke-miterlimit="10" stroke-dasharray="1 1" fill="none"/><g><rect x="10.177" y="114.488" width="0.5" height="3.25" fill="#F26522"/></g><g><circle cx="14.906" cy="116.114" r="0.939" fill="#F26522"/></g></g><g><line x1="33.197" y1="120.354" x2="29.564" y2="120.354" stroke="#F26522" stroke-width="0.7" stroke-miterlimit="10" stroke-dasharray="1 1" fill="none"/><g><rect x="32.947" y="118.728" width="0.5" height="3.251" fill="#F26522"/></g><g><circle cx="28.718" cy="120.353" r="0.94" fill="#F26522"/></g></g><g><line x1="54.411" y1="149.73" x2="58.043" y2="149.73" stroke="#F26522" stroke-width="0.7" stroke-miterlimit="10" stroke-dasharray="1 1" fill="none"/><g><rect x="54.161" y="148.105" width="0.5" height="3.25" fill="#F26522"/></g><g><circle cx="58.889" cy="149.73" r="0.939" fill="#F26522"/></g></g><g><line x1="88.089" y1="213.274" x2="88.089" y2="216.907" stroke="#F26522" stroke-width="0.7" stroke-miterlimit="10" stroke-dasharray="1 1" fill="none"/><g><rect x="86.464" y="213.025" width="3.25" height="0.5" fill="#F26522"/></g><g><circle cx="88.089" cy="217.753" r="0.939" fill="#F26522"/></g></g><g><g><path d="M70.028 140.475C69.96 140.516 69.878 140.538 69.794 140.537L61.63 140.538C61.364 140.537 61.151 140.321 61.15 140.058 61.15 139.792 61.363 139.578 61.63 139.578L69.794 139.577C70.059 139.578 70.273 139.793 70.273 140.058 70.272 140.237 70.174 140.394 70.028 140.475Z" stroke="#3C2415" stroke-width="0.5" stroke-miterlimit="10" fill="#FFFFFF"/></g></g><circle cx="65.71" cy="140.057" r="3.781" stroke="#262262" stroke-width="0.5" stroke-miterlimit="10" fill="#707E68"/><circle cx="65.71" cy="140.057" r="3.122" stroke="#262262" stroke-width="0.3" stroke-miterlimit="10" fill="#707E68"/><circle cx="65.084" cy="139.431" r="0.396" stroke="#262262" stroke-width="0.3" stroke-miterlimit="10" fill="#FFFFFF"/><circle cx="66.284" cy="139.431" r="0.397" stroke="#262262" stroke-width="0.3" stroke-miterlimit="10" fill="#FFFFFF"/><circle cx="65.084" cy="140.538" r="0.396" stroke="#262262" stroke-width="0.3" stroke-miterlimit="10" fill="#FFFFFF"/><circle cx="66.284" cy="140.537" r="0.397" stroke="#262262" stroke-width="0.3" stroke-miterlimit="10" fill="#FFFFFF"/><line x1="65.084" y1="139.431" x2="66.284" y2="140.537" stroke="#2B3990" stroke-width="0.5" stroke-miterlimit="10" fill="#FFFFFF"/><line x1="66.284" y1="139.431" x2="65.084" y2="140.538" stroke="#2B3990" stroke-width="0.5" stroke-miterlimit="10" fill="#FFFFFF"/><g><g><path d="M69.402 171.06C69.334 171.1 69.252 171.122 69.168 171.122L61.004 171.122C60.738 171.122 60.525 170.907 60.524 170.642 60.524 170.376 60.737 170.163 61.004 170.162L69.168 170.161C69.433 170.162 69.647 170.377 69.647 170.642 69.646 170.821 69.548 170.978 69.402 171.06Z" stroke="#3C2415" stroke-width="0.5" stroke-miterlimit="10" fill="#FFFFFF"/></g></g><circle cx="65.084" cy="170.642" r="3.781" stroke="#262262" stroke-width="0.5" stroke-miterlimit="10" fill="#707E68"/><circle cx="65.084" cy="170.642" r="3.122" stroke="#262262" stroke-width="0.3" stroke-miterlimit="10" fill="#707E68"/><circle cx="64.458" cy="170.016" r="0.396" stroke="#262262" stroke-width="0.3" stroke-miterlimit="10" fill="#FFFFFF"/><circle cx="65.658" cy="170.016" r="0.397" stroke="#262262" stroke-width="0.3" stroke-miterlimit="10" fill="#FFFFFF"/><circle cx="64.458" cy="171.122" r="0.396" stroke="#262262" stroke-width="0.3" stroke-miterlimit="10" fill="#FFFFFF"/><circle cx="65.658" cy="171.122" r="0.397" stroke="#262262" stroke-width="0.3" stroke-miterlimit="10" fill="#FFFFFF"/><line x1="64.458" y1="170.016" x2="65.658" y2="171.122" stroke="#2B3990" stroke-width="0.5" stroke-miterlimit="10" fill="#FFFFFF"/><line x1="65.658" y1="170.016" x2="64.458" y2="171.122" stroke="#2B3990" stroke-width="0.5" stroke-miterlimit="10" fill="#FFFFFF"/><path d="M54.929 43.797C49.87 37.183 39.827 16.392 38.492 10.786 39.255 10.672 40.073 11.069 40.93 11.875 47.557 14.981 47.148 15.359 56.162 16.486L67.617 38.435 60.906 44.975 54.929 43.797C54.936 43.822 54.943 43.841 54.949 43.866L61.577 45.25" stroke="#3C2415" stroke-miterlimit="10" fill="#E8E5D1"/><g><path d="M31.217 28.112C32.201 30.236 31.278 32.757 29.153 33.741 27.029 34.724 24.505 33.804 23.52 31.679 22.534 29.552 23.462 27.029 25.586 26.045 27.711 25.061 30.232 25.985 31.217 28.112Z" stroke="#7C702D" stroke-width="0.3" stroke-dasharray="1.0235 1.0235" fill="none"/></g><path d="M29.401 28.955C29.921 30.073 29.434 31.404 28.311 31.925 27.189 32.446 25.857 31.956 25.338 30.837 24.817 29.713 25.306 28.383 26.428 27.863 27.553 27.342 28.881 27.831 29.401 28.955Z" stroke="#7C702D" stroke-width="0.3" fill="#B7C98F"/><g><path d="M24.12 32.087C24.433 32.036 24.478 32.108 24.959 32.12 25.675 32.162 25.815 33.441 25.286 33.705L25.048 33.819C25.308 34.003 25.335 35.038 24.561 35.223 24.859 35.666 24.575 36.14 24.058 36.218 23.611 36.288 23.359 36.347 22.71 36.775 21.905 37.308 21.014 38.004 19.724 37.841 19.613 37.827 19.531 37.925 19.53 37.995 19.525 38.13 19.707 38.449 19.426 38.578L18.377 39.023C18.002 39.183 17.465 38.76 16.731 37.013 15.96 35.196 15.678 34.475 16.428 34.149 17.162 33.829 17.371 33.748 17.371 33.748 17.605 33.656 17.713 33.794 17.791 33.881 17.838 33.932 17.937 33.918 17.986 33.866 18.064 33.783 18.824 32.986 19.594 32.555 20.305 32.159 20.501 31.81 21.036 31.672 21.672 31.509 23.573 30.627 24.145 30.375 24.706 30.127 25.688 29.924 26.879 29.384 28.012 28.871 28.582 30.197 27.525 30.574 26.69 30.875 26.705 30.985 26.408 31.071 25.888 31.221 25.369 31.509 24.998 31.7 24.827 31.786 24.614 31.814 24.12 32.087" stroke="#EB4024" stroke-width="0.5" stroke-miterlimit="10" fill="#FCD4CD"/><path d="M18.149 36.187C18.437 36.922 19.109 38.113 19.2 38.213 19.286 38.303 19.235 38.404 19.067 38.458 18.954 38.496 18.389 38.739 18.389 38.739 18.137 38.847 17.729 38.719 16.908 36.787 16.069 34.782 16.041 34.495 16.634 34.242L17.374 33.951C17.423 33.939 17.464 33.953 17.507 33.988 17.61 34.079 17.42 34.337 18.149 36.187Z" stroke="#EB4024" stroke-width="0.5" fill="#FCD4CD"/></g><line x1="7.881" y1="40.856" x2="16.663" y2="36.787" stroke="#F26522" stroke-width="0.7" stroke-miterlimit="10" stroke-dasharray="1 1" fill="none"/><g><rect x="7.631" y="39.231" width="0.5" height="3.25" fill="#F26522" transform="matrix(-0.9077 0.4197 -0.4197 -0.9077 32.1814 74.6327)"/></g><g><g><path d="M14.509 78.018C14.974 75.722 17.211 74.238 19.506 74.705 21.801 75.17 23.291 77.407 22.825 79.702 22.358 81.999 20.116 83.482 17.823 83.018 15.529 82.551 14.044 80.315 14.509 78.018Z" stroke="#7C702D" stroke-width="0.3" stroke-dasharray="1.0235 1.0235" fill="none"/></g><path d="M16.472 78.414C16.717 77.206 17.897 76.42 19.109 76.666 20.321 76.911 21.106 78.094 20.86 79.303 20.616 80.516 19.433 81.299 18.221 81.053 17.008 80.808 16.227 79.627 16.472 78.414Z" stroke="#7C702D" stroke-width="0.3" fill="#B7C98F"/><g><path d="M22.429 79.862C22.114 79.885 22.086 79.967 21.622 80.093 20.936 80.307 21.105 81.582 21.683 81.711L21.942 81.765C21.733 82.006 21.953 83.017 22.75 83.012 22.567 83.513 22.956 83.905 23.475 83.858 23.928 83.819 24.187 83.816 24.919 84.077 25.827 84.402 26.859 84.865 28.071 84.399 28.177 84.359 28.28 84.435 28.298 84.502 28.335 84.633 28.235 84.986 28.539 85.044L29.666 85.226C30.066 85.291 30.487 84.753 30.782 82.881 31.097 80.932 31.198 80.164 30.392 80.027 29.6 79.89 29.381 79.863 29.381 79.863 29.131 79.829 29.059 79.988 29.003 80.092 28.97 80.152 28.869 80.163 28.811 80.125 28.715 80.062 27.789 79.468 26.936 79.235 26.151 79.018 25.877 78.727 25.324 78.723 24.67 78.717 22.609 78.311 21.997 78.204 21.393 78.1 20.389 78.135 19.103 77.896 17.881 77.668 17.643 79.093 18.76 79.207 19.642 79.298 19.654 79.41 19.962 79.421 20.504 79.443 21.077 79.598 21.483 79.694 21.67 79.738 21.884 79.715 22.429 79.862" stroke="#EB4024" stroke-width="0.5" stroke-miterlimit="10" fill="#FCD4CD"/><path d="M29.207 82.418C29.101 83.2 28.735 84.517 28.67 84.636 28.607 84.744 28.681 84.828 28.857 84.841 28.977 84.851 29.586 84.953 29.586 84.953 29.852 84.997 30.219 84.776 30.555 82.703 30.892 80.556 30.85 80.269 30.215 80.167L29.426 80.06C29.375 80.06 29.337 80.084 29.307 80.129 29.226 80.243 29.472 80.448 29.207 82.418Z" stroke="#EB4024" stroke-width="0.5" fill="#FCD4CD"/></g><line x1="49.92" y1="86.168" x2="30.474" y2="82.23" stroke="#F26522" stroke-width="0.7" stroke-miterlimit="10" stroke-dasharray="1 1" fill="none"/><g><rect x="49.908" y="84.644" width="0.5" height="3.251" fill="#F26522" transform="matrix(0.9798 0.2001 -0.2001 0.9798 18.2727 -8.2904)"/></g></g><g><circle cx="42.991" cy="167.827" r="4.241" stroke="#7C702D" stroke-width="0.3" stroke-dasharray="1.0235 1.0235" fill="none"/></g><path d="M45.23 167.827C45.231 169.06 44.234 170.065 42.995 170.065 41.758 170.066 40.754 169.064 40.754 167.829 40.753 166.591 41.755 165.588 42.991 165.587 44.229 165.587 45.229 166.589 45.23 167.827Z" stroke="#7C702D" stroke-width="0.3" fill="#B7C98F"/><g><path d="M39.123 168.454C39.429 168.538 39.439 168.623 39.869 168.836 40.503 169.176 40.094 170.395 39.502 170.412L39.238 170.417C39.396 170.692 38.986 171.644 38.206 171.486 38.291 172.013 37.834 172.323 37.334 172.178 36.897 172.053 36.646 172.001 35.875 172.118 34.921 172.263 33.819 172.521 32.718 171.832 32.622 171.772 32.506 171.828 32.477 171.89 32.415 172.013 32.446 172.377 32.136 172.375L30.995 172.338C30.591 172.326 30.28 171.717 30.347 169.824 30.41 167.85 30.457 167.078 31.274 167.096 32.076 167.113 32.299 167.129 32.299 167.129 32.551 167.144 32.591 167.313 32.625 167.426 32.647 167.49 32.742 167.52 32.81 167.495 32.913 167.452 33.938 167.046 34.819 166.979 35.631 166.917 35.954 166.685 36.499 166.784 37.145 166.904 39.24 166.899 39.864 166.91 40.478 166.923 41.456 167.149 42.761 167.16 44.006 167.17 43.968 168.613 42.85 168.512 41.966 168.434 41.934 168.541 41.627 168.493 41.092 168.411 40.499 168.454 40.082 168.472 39.89 168.476 39.685 168.413 39.123 168.454" stroke="#EB4024" stroke-width="0.5" stroke-miterlimit="10" fill="#FCD4CD"/><path d="M31.981 169.669C31.936 170.458 32.044 171.82 32.085 171.95 32.126 172.068 32.038 172.137 31.86 172.117 31.743 172.103 31.127 172.087 31.127 172.087 30.856 172.08 30.538 171.793 30.604 169.693 30.683 167.521 30.78 167.248 31.422 167.268L32.217 167.314C32.267 167.324 32.298 167.354 32.321 167.403 32.376 167.53 32.097 167.686 31.981 169.669Z" stroke="#EB4024" stroke-width="0.5" fill="#FCD4CD"/></g><line x1="17.34" y1="169.602" x2="30.38" y2="169.591" stroke="#F26522" stroke-width="0.7" stroke-miterlimit="10" stroke-dasharray="1 1" fill="none"/><g><rect x="17.089" y="167.983" width="0.501" height="3.25" fill="#F26522"/></g><g><path d="M147.221 212.594C147.509 212.263 147.678 211.889 147.676 211.489L147.837 173.39C147.844 172.152 146.272 171.171 144.336 171.191 142.395 171.217 140.82 172.236 140.815 173.476L140.649 211.579C140.642 212.815 142.215 213.798 144.158 213.772 145.467 213.753 146.619 213.282 147.221 212.594Z" stroke="#3C2415" stroke-miterlimit="10" fill="#FFFFFF"/></g><circle cx="143.704" cy="192.593" r="19.139" stroke="#262262" stroke-width="1.5" stroke-miterlimit="10" fill="#636B62"/><circle cx="143.707" cy="192.593" r="14.242" stroke="#262262" stroke-miterlimit="10" fill="#707E68"/><circle cx="146.63" cy="189.852" r="2.126" stroke="#262262" stroke-width="0.5" stroke-miterlimit="10" fill="#FFFFFF"/><path d="M142.909 189.852C142.909 188.677 141.96 187.725 140.778 187.725 139.606 187.725 138.657 188.678 138.657 189.852 138.657 191.027 139.606 191.978 140.778 191.978 141.959 191.978 142.909 191.027 142.909 189.852Z" stroke="#262262" stroke-width="0.5" stroke-miterlimit="10" fill="#FFFFFF"/><circle cx="146.63" cy="195.333" r="2.126" stroke="#262262" stroke-width="0.5" stroke-miterlimit="10" fill="#FFFFFF"/><path d="M142.909 195.333C142.909 194.158 141.96 193.207 140.778 193.207 139.606 193.207 138.657 194.158 138.657 195.333 138.657 196.509 139.606 197.459 140.778 197.459 141.959 197.458 142.909 196.509 142.909 195.333Z" stroke="#262262" stroke-width="0.5" stroke-miterlimit="10" fill="#FFFFFF"/><line x1="140.778" y1="189.852" x2="146.63" y2="195.333" stroke="#2B3990" stroke-width="1.5" stroke-miterlimit="10" fill="#FFFFFF"/><line x1="146.63" y1="189.852" x2="140.778" y2="195.333" stroke="#2B3990" stroke-width="1.5" stroke-miterlimit="10" fill="#FFFFFF"/><g><line x1="144.243" y1="163.462" x2="144.243" y2="168.912" stroke="#F26522" stroke-width="0.7" stroke-miterlimit="10" stroke-dasharray="1 1" fill="none"/><g><rect x="141.805" y="163.087" width="4.875" height="0.75" fill="#F26522"/></g><g><circle cx="144.243" cy="170.18" r="1.409" fill="#F26522"/></g></g><line x1="169.795" y1="192.411" x2="144.689" y2="192.411" stroke="#F26522" stroke-width="0.7" stroke-miterlimit="10" stroke-dasharray="1 1" fill="none"/><g><rect x="169.545" y="190.784" width="0.5" height="3.25" fill="#F26522"/></g><g><circle cx="143.842" cy="192.409" r="0.939" fill="#F26522"/></g><g><line x1="181.163" y1="180.449" x2="161.321" y2="180.449" stroke="#F26522" stroke-miterlimit="10" stroke-dasharray="1 1" fill="none"/><g><rect x="181.002" y="178.824" width="0.5" height="3.252" fill="#F26522"/></g><g><path d="M161.791 178.469C161.323 179.261 160.594 179.882 159.818 180.365 160.601 180.842 161.299 181.488 161.791 182.261L162.26 182.261C161.769 181.511 161.178 180.855 160.447 180.365 161.177 179.866 161.791 179.207 162.266 178.469L161.791 178.469Z" fill="#F26522"/><path d="M162.919 178.469C162.45 179.261 161.721 179.882 160.946 180.365 161.727 180.842 162.426 181.488 162.919 182.261L163.386 182.261C162.896 181.511 162.306 180.855 161.575 180.365 162.305 179.866 162.919 179.207 163.395 178.469L162.919 178.469Z" fill="#F26522"/></g></g><g><g><path d="M71.094 170.161 117.395 170.161 117.395 192.481 121.983 192.581" stroke="#C82257" stroke-width="0.5" stroke-miterlimit="10" fill="none"/><g><path d="M120.969 193.406 121.835 192.577 121.005 191.711 121.725 191.728 122.554 192.593 121.688 193.422Z" fill="#C82257"/></g></g></g></svg>