<svg width="153" height="205.739" viewBox="0 0 153 205.739" xmlns="http://www.w3.org/2000/svg" xmlns:xlink="http://www.w3.org/1999/xlink" id="Layer_1" xml:space="preserve" overflow="hidden"><g><path d="M29.094 138.377 29.094 193.586 109.139 193.586 109.139 128.692" fill="#FFFFFF"/><g><line x1="29.094" y1="138.377" x2="29.094" y2="139.877" stroke="#262262" stroke-miterlimit="10" fill="none"/><line x1="29.094" y1="142.949" x2="29.094" y2="190.551" stroke="#262262" stroke-miterlimit="10" stroke-dasharray="3.0711 3.0711" fill="none"/><path d="M29.094 192.086 29.094 193.586 30.594 193.586" stroke="#262262" stroke-miterlimit="10" fill="none"/><line x1="33.676" y1="193.586" x2="106.098" y2="193.586" stroke="#262262" stroke-miterlimit="10" stroke-dasharray="3.0818 3.0818" fill="none"/><path d="M107.639 193.586 109.139 193.586 109.139 192.086" stroke="#262262" stroke-miterlimit="10" fill="none"/><line x1="109.139" y1="189.139" x2="109.139" y2="131.666" stroke="#262262" stroke-miterlimit="10" stroke-dasharray="2.9474 2.9474" fill="none"/><line x1="109.139" y1="130.192" x2="109.139" y2="128.692" stroke="#262262" stroke-miterlimit="10" fill="none"/></g></g><path d="" stroke="#262262" stroke-miterlimit="10" fill="#FFFFFF"/><path d="M93.221 18.582C80.271 10.576 77.34 8.153 72.557 2.525" stroke="#262262" stroke-width="1.5" stroke-miterlimit="10" fill="#FFFFFF"/><path d="M55.227 73.579 47.625 53.285 93.221 18.582" stroke="#262262" stroke-width="1.5" stroke-miterlimit="10" fill="#FFFFFF"/><path d="" stroke="#262262" stroke-width="1.5" stroke-miterlimit="10" fill="#FFFFFF"/><path d="M55.35 73.579 7.534 82.558C7.709 94.164 7.72 144.216 7.682 194.244" stroke="#262262" stroke-width="1.5" stroke-miterlimit="10" fill="#FFFFFF"/><path d="M150.854 44.017C137.217 63.382 127.229 162.212 124.313 194.184" stroke="#262262" stroke-width="1.5" stroke-miterlimit="10" fill="#FFFFFF"/><path d="M93.221 18.582C95.727 20.335 133.43 36.557 150.854 44.017" stroke="#262262" stroke-width="1.5" stroke-miterlimit="10" fill="#FFFFFF"/><line x1="29.918" y1="125.284" x2="109.137" y2="108.594" stroke="#262262" stroke-width="1.5" stroke-miterlimit="10" fill="#FFFFFF"/><line x1="45.084" y1="128.057" x2="92.274" y2="120.771" stroke="#262262" stroke-miterlimit="10" stroke-dasharray="1 1" fill="none"/><path d="" stroke="#262262" stroke-width="1.5" stroke-miterlimit="10" fill="#FFFFFF"/><line x1="46.399" y1="107.094" x2="46.399" y2="126.871" stroke="#F26522" stroke-width="0.7" stroke-miterlimit="10" stroke-dasharray="1 1" fill="none"/><g><rect x="45.085" y="106.892" width="2.632" height="0.404" fill="#F26522"/></g><g><circle cx="46.4" cy="127.551" r="0.761" fill="#F26522"/></g><g><g><g><circle cx="60.005" cy="122.408" r="2.749" stroke="#7C702D" stroke-width="0.3" stroke-dasharray="0.9581 0.9581" fill="none"/></g><path d="M60.043 124.22C61.045 124.203 61.842 123.379 61.824 122.377 61.804 121.375 60.98 120.576 59.98 120.594 58.976 120.611 58.179 121.438 58.197 122.44 58.215 123.441 59.041 124.238 60.043 124.22Z" stroke="#7C702D" stroke-width="0.3" fill="#B7C98F"/><g><path d="M60.461 119.263C60.533 119.508 60.604 119.517 60.781 119.864 61.065 120.369 62.047 120.019 62.052 119.541L62.05 119.329C62.277 119.452 63.038 119.107 62.9 118.477 63.332 118.538 63.573 118.162 63.449 117.759 63.342 117.407 63.297 117.203 63.379 116.579 63.483 115.805 63.676 114.91 63.102 114.026 63.05 113.949 63.096 113.855 63.145 113.83 63.241 113.779 63.54 113.798 63.532 113.547L63.487 112.626C63.471 112.294 62.973 112.053 61.438 112.135 59.842 112.217 59.217 112.265 59.245 112.927 59.268 113.576 59.285 113.756 59.285 113.756 59.302 113.961 59.44 113.989 59.532 114.016 59.583 114.032 59.61 114.108 59.59 114.162 59.558 114.247 59.243 115.085 59.203 115.798 59.165 116.455 58.98 116.722 59.069 117.161 59.174 117.681 59.204 119.379 59.221 119.885 59.241 120.384 59.437 121.169 59.467 122.228 59.492 123.236 60.66 123.182 60.563 122.278 60.487 121.565 60.571 121.536 60.53 121.29 60.454 120.858 60.481 120.378 60.489 120.039 60.49 119.886 60.438 119.719 60.461 119.263" stroke="#EB4024" stroke-width="0.5" stroke-miterlimit="10" fill="#FCD4CD"/><path d="M61.34 113.462C61.975 113.412 63.084 113.481 63.187 113.512 63.285 113.544 63.339 113.47 63.319 113.328 63.307 113.231 63.285 112.734 63.285 112.734 63.274 112.514 63.038 112.261 61.336 112.344 59.582 112.442 59.36 112.523 59.386 113.042L59.437 113.686C59.445 113.726 59.47 113.752 59.511 113.77 59.609 113.815 59.732 113.586 61.34 113.462Z" stroke="#EB4024" stroke-width="0.5" fill="#FCD4CD"/></g><line x1="61.074" y1="107.089" x2="61.086" y2="112.796" stroke="#F26522" stroke-width="0.7" stroke-miterlimit="10" stroke-dasharray="1 1" fill="none"/></g><g><rect x="60.923" y="106.127" width="0.325" height="2.106" fill="#F26522" transform="matrix(-0.0331 -0.9995 0.9995 -0.0331 -44.0154 171.776)"/></g></g><path d="M109.139 104.635C83.754 110.356 63.457 127.868 39.303 136.438 32.893 138.945 30.433 120.44 29.094 118.749L29.094 142.806 109.139 128.692 109.139 104.635" stroke="#262262" stroke-width="1.5" stroke-miterlimit="10" fill="#FFFFFF"/><g><g><g><circle cx="94.776" cy="125.686" r="3.437" stroke="#7C702D" stroke-width="0.3" stroke-dasharray="0.9798 0.9798" fill="none"/></g><circle cx="94.774" cy="125.677" r="2.266" stroke="#7C702D" stroke-width="0.3" fill="#B7C98F"/><g><path d="M90.844 125.117C91.152 125.026 91.163 124.938 91.594 124.715 92.227 124.359 91.79 123.132 91.193 123.126L90.926 123.127C91.08 122.846 90.648 121.892 89.86 122.065 89.936 121.527 89.467 121.225 88.964 121.381 88.525 121.514 88.27 121.571 87.489 121.467 86.52 121.339 85.401 121.096 84.298 121.815 84.203 121.879 84.086 121.822 84.054 121.761 83.99 121.639 84.015 121.267 83.7 121.277L82.551 121.334C82.136 121.355 81.834 121.977 81.937 123.895 82.04 125.889 82.1 126.67 82.927 126.637 83.739 126.605 83.964 126.586 83.964 126.586 84.219 126.565 84.254 126.393 84.287 126.278 84.309 126.213 84.403 126.18 84.473 126.206 84.578 126.245 85.625 126.639 86.516 126.689 87.339 126.734 87.673 126.967 88.221 126.854 88.871 126.723 90.992 126.687 91.625 126.665 92.249 126.643 93.23 126.394 94.555 126.358 95.815 126.325 95.747 124.867 94.617 124.987 93.726 125.085 93.691 124.976 93.384 125.031 92.843 125.123 92.244 125.091 91.82 125.08 91.623 125.078 91.415 125.145 90.844 125.117" stroke="#EB4024" stroke-width="0.5" stroke-miterlimit="10" fill="#FCD4CD"/><path d="M83.593 124.017C83.531 123.222 83.617 121.837 83.657 121.708 83.697 121.587 83.603 121.518 83.426 121.543 83.306 121.559 82.685 121.586 82.685 121.586 82.41 121.598 82.093 121.896 82.199 124.021 82.321 126.216 82.422 126.492 83.072 126.459L83.875 126.397C83.925 126.386 83.958 126.355 83.98 126.304 84.033 126.178 83.748 126.026 83.593 124.017Z" stroke="#EB4024" stroke-width="0.5" fill="#FCD4CD"/></g><line x1="75.627" y1="124.348" x2="82.761" y2="124.333" stroke="#F26522" stroke-width="0.7" stroke-miterlimit="10" stroke-dasharray="1 1" fill="none"/></g><g><rect x="75.538" y="123.018" width="0.404" height="2.63" fill="#F26522" transform="matrix(-0.9995 0.0302 -0.0302 -0.9995 155.198 246.324)"/></g></g><g><path d="M38.443 203.265C38.082 203.316 37.808 203.354 37.873 203.345 34.559 194.187 31.463 185.077 27.936 176.137 26.414 172.284 24.088 168.734 21.964 165.141 21.022 163.546 20.452 161.959 20.384 160.12 20.331 158.578 20.078 157.044 19.978 155.502 19.888 154.15 19.711 152.773 19.882 151.445 20.367 147.626 20.605 143.863 18.929 140.238 18.755 139.867 18.712 139.437 18.607 139.015 19.082 138.84 19.476 138.642 19.898 138.55 20.881 138.334 21.623 138.444 22.451 139.343 24.603 141.678 24.415 144.632 24.977 147.278 30.429 138.982 32.898 129.223 37.261 120.027 37.529 120.432 37.626 120.584 37.711 120.71 38.239 119.003 38.44 118.836 40.217 118.748 40.38 119.876 40.574 120.973 39.454 121.644 39.59 121.644 39.966 121.644 40.433 121.644 38.669 127.909 36.929 134.099 35.188 140.289 35.309 140.399 35.429 140.509 35.55 140.619 36.867 139.47 38.321 138.441 39.474 137.144 41.027 135.39 42.396 133.463 43.753 131.548 44.763 130.131 46.081 129.589 47.94 129.675 47.94 130.627 48.256 131.713 47.889 132.469 46.142 136.069 44.212 139.579 42.264 143.278 43.013 142.366 43.739 141.566 44.376 140.703 45.513 139.161 46.62 137.596 47.694 136.007 47.96 135.611 48.316 134.91 48.152 134.649 47.389 133.431 48.446 133.301 49.063 133.064 49.845 132.764 50.547 133.504 50.95 133.988 52.429 135.745 50.891 137.078 50.596 138.635 50.037 141.558 47.669 143.399 46.617 145.99 46.445 146.419 46.191 146.815 45.789 147.587 46.848 147.399 47.762 147.488 48.338 147.087 50.248 145.764 52.034 144.266 53.867 142.83 54.231 142.542 54.54 142.091 54.951 141.969 55.516 141.8 56.16 141.869 56.767 141.837 56.676 142.379 56.579 142.92 56.486 143.463 55.856 147.285 52.437 148.991 50.298 151.673 49.055 153.232 47.771 154.849 46.964 156.646 45.76 159.328 44.87 162.165 44.025 164.989 43.534 166.647 43.837 168.35 44.65 169.918 48.302 176.969 51.956 184.019 55.602 191.071 56.331 192.48 57.034 193.903 57.824 195.461 55.299 196.307 52.914 197.104 50.533 197.906 46.482 199.27 42.428 200.63 38.385 202.016 38.082 202.121 37.848 202.423 37.58 202.634 37.838 202.822 38.094 203.009 38.443 203.265Z" stroke="#262262" stroke-width="0.5" stroke-miterlimit="10" fill="#FFFFFF"/></g><g><g><g><circle cx="72.107" cy="159.376" r="3.437" stroke="#7C702D" stroke-width="0.3" stroke-dasharray="0.9798 0.9798" fill="none"/></g><circle cx="72.098" cy="159.38" r="2.267" stroke="#7C702D" stroke-width="0.3" fill="#B7C98F"/><g><path d="M71.536 163.309C71.445 163.003 71.358 162.992 71.135 162.559 70.779 161.927 69.553 162.365 69.547 162.963L69.547 163.228C69.267 163.074 68.314 163.505 68.485 164.293 67.947 164.217 67.645 164.687 67.801 165.189 67.934 165.629 67.99 165.884 67.888 166.665 67.759 167.633 67.516 168.752 68.234 169.856 68.299 169.952 68.243 170.069 68.181 170.101 68.061 170.165 67.689 170.141 67.696 170.455L67.754 171.606C67.776 172.02 68.398 172.322 70.315 172.219 72.312 172.117 73.092 172.056 73.057 171.229 73.025 170.418 73.007 170.193 73.007 170.193 72.986 169.937 72.812 169.902 72.699 169.868 72.632 169.848 72.6 169.752 72.628 169.684 72.667 169.577 73.06 168.53 73.109 167.639 73.155 166.818 73.387 166.484 73.276 165.935 73.144 165.286 73.106 163.163 73.086 162.53 73.064 161.907 72.814 160.926 72.778 159.602 72.746 158.342 71.287 158.409 71.41 159.54 71.505 160.431 71.398 160.467 71.451 160.774 71.545 161.314 71.513 161.914 71.501 162.337 71.498 162.53 71.565 162.739 71.536 163.309" stroke="#EB4024" stroke-width="0.5" stroke-miterlimit="10" fill="#FCD4CD"/><path d="M70.438 170.56C69.644 170.622 68.258 170.537 68.129 170.497 68.009 170.457 67.939 170.55 67.965 170.727 67.98 170.848 68.009 171.47 68.009 171.47 68.021 171.745 68.318 172.06 70.441 171.957 72.636 171.834 72.914 171.733 72.881 171.084L72.819 170.279C72.807 170.23 72.775 170.197 72.725 170.174 72.599 170.119 72.447 170.405 70.438 170.56Z" stroke="#EB4024" stroke-width="0.5" fill="#FCD4CD"/></g><line x1="70.769" y1="178.526" x2="70.754" y2="171.393" stroke="#F26522" stroke-width="0.7" stroke-miterlimit="10" stroke-dasharray="1 1" fill="none"/></g><g><rect x="70.551" y="177.096" width="0.405" height="2.632" fill="#F26522" transform="matrix(0.0289 0.9996 -0.9996 0.0289 247.046 102.531)"/></g></g><g><line x1="105.507" y1="152.042" x2="108.451" y2="152.042" stroke="#F26522" stroke-width="0.7" stroke-miterlimit="10" stroke-dasharray="1 1" fill="none"/><g><rect x="105.307" y="150.725" width="0.404" height="2.633" fill="#F26522"/></g><g><path d="M109.137 151.281C109.556 151.281 109.896 151.62 109.896 152.042 109.896 152.463 109.556 152.803 109.137 152.803 108.715 152.803 108.375 152.463 108.375 152.042 108.375 151.62 108.715 151.281 109.137 151.281Z" fill="#F26522"/></g></g><g><line x1="75.496" y1="111.768" x2="75.496" y2="114.71" stroke="#F26522" stroke-width="0.7" stroke-miterlimit="10" stroke-dasharray="1 1" fill="none"/><g><rect x="74.181" y="111.565" width="2.631" height="0.405" fill="#F26522"/></g><g><circle cx="75.496" cy="115.396" r="0.761" fill="#F26522"/></g></g><g><line x1="70.248" y1="139.482" x2="70.248" y2="136.54" stroke="#F26522" stroke-width="0.7" stroke-miterlimit="10" stroke-dasharray="1 1" fill="none"/><g><rect x="68.933" y="139.279" width="2.631" height="0.405" fill="#F26522"/></g><g><circle cx="70.249" cy="135.854" r="0.761" fill="#F26522"/></g></g><g><line x1="113.486" y1="106.87" x2="110.545" y2="106.87" stroke="#F26522" stroke-width="0.7" stroke-miterlimit="10" stroke-dasharray="1 1" fill="none"/><g><rect x="113.285" y="105.555" width="0.404" height="2.632" fill="#F26522"/></g><g><circle cx="109.859" cy="106.87" r="0.761" fill="#F26522"/></g></g></svg>