<svg width="538.901" height="280" viewBox="0 0 538.901 280" xmlns="http://www.w3.org/2000/svg" xmlns:xlink="http://www.w3.org/1999/xlink" id="Layer_1" xml:space="preserve" overflow="hidden"><pattern x="-851.5" y="1782.5" width="72" height="74.8" patternUnits="userSpaceOnUse" viewBox="72.15 -74.8 72 74.8" id="USGS_8_Sewage_Disposal" overflow="visible"><g><path d="M72.15-74.8 144.15-74.8 144.15 0 72.15 0Z" fill="none"/><g><line x1="144.15" y1="-0.85" x2="216.15" y2="-0.85" stroke="#000000" stroke-width="0.3" stroke-linecap="square" fill="none"/><line x1="144.15" y1="-2.55" x2="216.15" y2="-2.55" stroke="#000000" stroke-width="0.3" stroke-linecap="square" fill="none"/><line x1="144.15" y1="-4.25" x2="216.15" y2="-4.25" stroke="#000000" stroke-width="0.3" stroke-linecap="square" fill="none"/><line x1="144.15" y1="-5.95" x2="216.15" y2="-5.95" stroke="#000000" stroke-width="0.3" stroke-linecap="square" fill="none"/><line x1="144.15" y1="-7.65" x2="216.15" y2="-7.65" stroke="#000000" stroke-width="0.3" stroke-linecap="square" fill="none"/><line x1="144.15" y1="-9.35" x2="216.15" y2="-9.35" stroke="#000000" stroke-width="0.3" stroke-linecap="square" fill="none"/><line x1="144.15" y1="-11.05" x2="216.15" y2="-11.05" stroke="#000000" stroke-width="0.3" stroke-linecap="square" fill="none"/><line x1="144.15" y1="-12.75" x2="216.15" y2="-12.75" stroke="#000000" stroke-width="0.3" stroke-linecap="square" fill="none"/><line x1="144.15" y1="-14.45" x2="216.15" y2="-14.45" stroke="#000000" stroke-width="0.3" stroke-linecap="square" fill="none"/><line x1="144.15" y1="-16.15" x2="216.15" y2="-16.15" stroke="#000000" stroke-width="0.3" stroke-linecap="square" fill="none"/><line x1="144.15" y1="-17.85" x2="216.15" y2="-17.85" stroke="#000000" stroke-width="0.3" stroke-linecap="square" fill="none"/><line x1="144.15" y1="-19.55" x2="216.15" y2="-19.55" stroke="#000000" stroke-width="0.3" stroke-linecap="square" fill="none"/><line x1="144.15" y1="-21.25" x2="216.15" y2="-21.25" stroke="#000000" stroke-width="0.3" stroke-linecap="square" fill="none"/><line x1="144.15" y1="-22.949" x2="216.15" y2="-22.949" stroke="#000000" stroke-width="0.3" stroke-linecap="square" fill="none"/><line x1="144.15" y1="-24.649" x2="216.15" y2="-24.649" stroke="#000000" stroke-width="0.3" stroke-linecap="square" fill="none"/><line x1="144.15" y1="-26.349" x2="216.15" y2="-26.349" stroke="#000000" stroke-width="0.3" stroke-linecap="square" fill="none"/><line x1="144.15" y1="-28.049" x2="216.15" y2="-28.049" stroke="#000000" stroke-width="0.3" stroke-linecap="square" fill="none"/><line x1="144.15" y1="-29.749" x2="216.15" y2="-29.749" stroke="#000000" stroke-width="0.3" stroke-linecap="square" fill="none"/><line x1="144.15" y1="-31.449" x2="216.15" y2="-31.449" stroke="#000000" stroke-width="0.3" stroke-linecap="square" fill="none"/><line x1="144.15" y1="-33.149" x2="216.15" y2="-33.149" stroke="#000000" stroke-width="0.3" stroke-linecap="square" fill="none"/><line x1="144.15" y1="-34.849" x2="216.15" y2="-34.849" stroke="#000000" stroke-width="0.3" stroke-linecap="square" fill="none"/><line x1="144.15" y1="-36.549" x2="216.15" y2="-36.549" stroke="#000000" stroke-width="0.3" stroke-linecap="square" fill="none"/><line x1="144.15" y1="-38.249" x2="216.15" y2="-38.249" stroke="#000000" stroke-width="0.3" stroke-linecap="square" fill="none"/><line x1="144.15" y1="-39.949" x2="216.15" y2="-39.949" stroke="#000000" stroke-width="0.3" stroke-linecap="square" fill="none"/><line x1="144.15" y1="-41.649" x2="216.15" y2="-41.649" stroke="#000000" stroke-width="0.3" stroke-linecap="square" fill="none"/><line x1="144.15" y1="-43.349" x2="216.15" y2="-43.349" stroke="#000000" stroke-width="0.3" stroke-linecap="square" fill="none"/><line x1="144.15" y1="-45.049" x2="216.15" y2="-45.049" stroke="#000000" stroke-width="0.3" stroke-linecap="square" fill="none"/><line x1="144.15" y1="-46.749" x2="216.15" y2="-46.749" stroke="#000000" stroke-width="0.3" stroke-linecap="square" fill="none"/><line x1="144.15" y1="-48.449" x2="216.15" y2="-48.449" stroke="#000000" stroke-width="0.3" stroke-linecap="square" fill="none"/><line x1="144.15" y1="-50.149" x2="216.15" y2="-50.149" stroke="#000000" stroke-width="0.3" stroke-linecap="square" fill="none"/><line x1="144.15" y1="-51.849" x2="216.15" y2="-51.849" stroke="#000000" stroke-width="0.3" stroke-linecap="square" fill="none"/><line x1="144.15" y1="-53.549" x2="216.15" y2="-53.549" stroke="#000000" stroke-width="0.3" stroke-linecap="square" fill="none"/><line x1="144.15" y1="-55.249" x2="216.15" y2="-55.249" stroke="#000000" stroke-width="0.3" stroke-linecap="square" fill="none"/><line x1="144.15" y1="-56.949" x2="216.15" y2="-56.949" stroke="#000000" stroke-width="0.3" stroke-linecap="square" fill="none"/><line x1="144.15" y1="-58.649" x2="216.15" y2="-58.649" stroke="#000000" stroke-width="0.3" stroke-linecap="square" fill="none"/><line x1="144.15" y1="-60.349" x2="216.15" y2="-60.349" stroke="#000000" stroke-width="0.3" stroke-linecap="square" fill="none"/><line x1="144.15" y1="-62.049" x2="216.15" y2="-62.049" stroke="#000000" stroke-width="0.3" stroke-linecap="square" fill="none"/><line x1="144.15" y1="-63.749" x2="216.15" y2="-63.749" stroke="#000000" stroke-width="0.3" stroke-linecap="square" fill="none"/><line x1="144.15" y1="-65.449" x2="216.15" y2="-65.449" stroke="#000000" stroke-width="0.3" stroke-linecap="square" fill="none"/><line x1="144.15" y1="-67.149" x2="216.15" y2="-67.149" stroke="#000000" stroke-width="0.3" stroke-linecap="square" fill="none"/><line x1="144.15" y1="-68.849" x2="216.15" y2="-68.849" stroke="#000000" stroke-width="0.3" stroke-linecap="square" fill="none"/><line x1="144.15" y1="-70.549" x2="216.15" y2="-70.549" stroke="#000000" stroke-width="0.3" stroke-linecap="square" fill="none"/><line x1="144.15" y1="-72.249" x2="216.15" y2="-72.249" stroke="#000000" stroke-width="0.3" stroke-linecap="square" fill="none"/><line x1="144.15" y1="-73.949" x2="216.15" y2="-73.949" stroke="#000000" stroke-width="0.3" stroke-linecap="square" fill="none"/></g><g><line x1="72.15" y1="-0.85" x2="144.15" y2="-0.85" stroke="#000000" stroke-width="0.3" stroke-linecap="square" fill="none"/><line x1="72.15" y1="-2.55" x2="144.15" y2="-2.55" stroke="#000000" stroke-width="0.3" stroke-linecap="square" fill="none"/><line x1="72.15" y1="-4.25" x2="144.15" y2="-4.25" stroke="#000000" stroke-width="0.3" stroke-linecap="square" fill="none"/><line x1="72.15" y1="-5.95" x2="144.15" y2="-5.95" stroke="#000000" stroke-width="0.3" stroke-linecap="square" fill="none"/><line x1="72.15" y1="-7.65" x2="144.15" y2="-7.65" stroke="#000000" stroke-width="0.3" stroke-linecap="square" fill="none"/><line x1="72.15" y1="-9.35" x2="144.15" y2="-9.35" stroke="#000000" stroke-width="0.3" stroke-linecap="square" fill="none"/><line x1="72.15" y1="-11.05" x2="144.15" y2="-11.05" stroke="#000000" stroke-width="0.3" stroke-linecap="square" fill="none"/><line x1="72.15" y1="-12.75" x2="144.15" y2="-12.75" stroke="#000000" stroke-width="0.3" stroke-linecap="square" fill="none"/><line x1="72.15" y1="-14.45" x2="144.15" y2="-14.45" stroke="#000000" stroke-width="0.3" stroke-linecap="square" fill="none"/><line x1="72.15" y1="-16.15" x2="144.15" y2="-16.15" stroke="#000000" stroke-width="0.3" stroke-linecap="square" fill="none"/><line x1="72.15" y1="-17.85" x2="144.15" y2="-17.85" stroke="#000000" stroke-width="0.3" stroke-linecap="square" fill="none"/><line x1="72.15" y1="-19.55" x2="144.15" y2="-19.55" stroke="#000000" stroke-width="0.3" stroke-linecap="square" fill="none"/><line x1="72.15" y1="-21.25" x2="144.15" y2="-21.25" stroke="#000000" stroke-width="0.3" stroke-linecap="square" fill="none"/><line x1="72.15" y1="-22.949" x2="144.15" y2="-22.949" stroke="#000000" stroke-width="0.3" stroke-linecap="square" fill="none"/><line x1="72.15" y1="-24.649" x2="144.15" y2="-24.649" stroke="#000000" stroke-width="0.3" stroke-linecap="square" fill="none"/><line x1="72.15" y1="-26.349" x2="144.15" y2="-26.349" stroke="#000000" stroke-width="0.3" stroke-linecap="square" fill="none"/><line x1="72.15" y1="-28.049" x2="144.15" y2="-28.049" stroke="#000000" stroke-width="0.3" stroke-linecap="square" fill="none"/><line x1="72.15" y1="-29.749" x2="144.15" y2="-29.749" stroke="#000000" stroke-width="0.3" stroke-linecap="square" fill="none"/><line x1="72.15" y1="-31.449" x2="144.15" y2="-31.449" stroke="#000000" stroke-width="0.3" stroke-linecap="square" fill="none"/><line x1="72.15" y1="-33.149" x2="144.15" y2="-33.149" stroke="#000000" stroke-width="0.3" stroke-linecap="square" fill="none"/><line x1="72.15" y1="-34.849" x2="144.15" y2="-34.849" stroke="#000000" stroke-width="0.3" stroke-linecap="square" fill="none"/><line x1="72.15" y1="-36.549" x2="144.15" y2="-36.549" stroke="#000000" stroke-width="0.3" stroke-linecap="square" fill="none"/><line x1="72.15" y1="-38.249" x2="144.15" y2="-38.249" stroke="#000000" stroke-width="0.3" stroke-linecap="square" fill="none"/><line x1="72.15" y1="-39.949" x2="144.15" y2="-39.949" stroke="#000000" stroke-width="0.3" stroke-linecap="square" fill="none"/><line x1="72.15" y1="-41.649" x2="144.15" y2="-41.649" stroke="#000000" stroke-width="0.3" stroke-linecap="square" fill="none"/><line x1="72.15" y1="-43.349" x2="144.15" y2="-43.349" stroke="#000000" stroke-width="0.3" stroke-linecap="square" fill="none"/><line x1="72.15" y1="-45.049" x2="144.15" y2="-45.049" stroke="#000000" stroke-width="0.3" stroke-linecap="square" fill="none"/><line x1="72.15" y1="-46.749" x2="144.15" y2="-46.749" stroke="#000000" stroke-width="0.3" stroke-linecap="square" fill="none"/><line x1="72.15" y1="-48.449" x2="144.15" y2="-48.449" stroke="#000000" stroke-width="0.3" stroke-linecap="square" fill="none"/><line x1="72.15" y1="-50.149" x2="144.15" y2="-50.149" stroke="#000000" stroke-width="0.3" stroke-linecap="square" fill="none"/><line x1="72.15" y1="-51.849" x2="144.15" y2="-51.849" stroke="#000000" stroke-width="0.3" stroke-linecap="square" fill="none"/><line x1="72.15" y1="-53.549" x2="144.15" y2="-53.549" stroke="#000000" stroke-width="0.3" stroke-linecap="square" fill="none"/><line x1="72.15" y1="-55.249" x2="144.15" y2="-55.249" stroke="#000000" stroke-width="0.3" stroke-linecap="square" fill="none"/><line x1="72.15" y1="-56.949" x2="144.15" y2="-56.949" stroke="#000000" stroke-width="0.3" stroke-linecap="square" fill="none"/><line x1="72.15" y1="-58.649" x2="144.15" y2="-58.649" stroke="#000000" stroke-width="0.3" stroke-linecap="square" fill="none"/><line x1="72.15" y1="-60.349" x2="144.15" y2="-60.349" stroke="#000000" stroke-width="0.3" stroke-linecap="square" fill="none"/><line x1="72.15" y1="-62.049" x2="144.15" y2="-62.049" stroke="#000000" stroke-width="0.3" stroke-linecap="square" fill="none"/><line x1="72.15" y1="-63.749" x2="144.15" y2="-63.749" stroke="#000000" stroke-width="0.3" stroke-linecap="square" fill="none"/><line x1="72.15" y1="-65.449" x2="144.15" y2="-65.449" stroke="#000000" stroke-width="0.3" stroke-linecap="square" fill="none"/><line x1="72.15" y1="-67.149" x2="144.15" y2="-67.149" stroke="#000000" stroke-width="0.3" stroke-linecap="square" fill="none"/><line x1="72.15" y1="-68.849" x2="144.15" y2="-68.849" stroke="#000000" stroke-width="0.3" stroke-linecap="square" fill="none"/><line x1="72.15" y1="-70.549" x2="144.15" y2="-70.549" stroke="#000000" stroke-width="0.3" stroke-linecap="square" fill="none"/><line x1="72.15" y1="-72.249" x2="144.15" y2="-72.249" stroke="#000000" stroke-width="0.3" stroke-linecap="square" fill="none"/><line x1="72.15" y1="-73.949" x2="144.15" y2="-73.949" stroke="#000000" stroke-width="0.3" stroke-linecap="square" fill="none"/></g><g><line x1="0.15" y1="-0.85" x2="72.15" y2="-0.85" stroke="#000000" stroke-width="0.3" stroke-linecap="square" fill="none"/><line x1="0.15" y1="-2.55" x2="72.15" y2="-2.55" stroke="#000000" stroke-width="0.3" stroke-linecap="square" fill="none"/><line x1="0.15" y1="-4.25" x2="72.15" y2="-4.25" stroke="#000000" stroke-width="0.3" stroke-linecap="square" fill="none"/><line x1="0.15" y1="-5.95" x2="72.15" y2="-5.95" stroke="#000000" stroke-width="0.3" stroke-linecap="square" fill="none"/><line x1="0.15" y1="-7.65" x2="72.15" y2="-7.65" stroke="#000000" stroke-width="0.3" stroke-linecap="square" fill="none"/><line x1="0.15" y1="-9.35" x2="72.15" y2="-9.35" stroke="#000000" stroke-width="0.3" stroke-linecap="square" fill="none"/><line x1="0.15" y1="-11.05" x2="72.15" y2="-11.05" stroke="#000000" stroke-width="0.3" stroke-linecap="square" fill="none"/><line x1="0.15" y1="-12.75" x2="72.15" y2="-12.75" stroke="#000000" stroke-width="0.3" stroke-linecap="square" fill="none"/><line x1="0.15" y1="-14.45" x2="72.15" y2="-14.45" stroke="#000000" stroke-width="0.3" stroke-linecap="square" fill="none"/><line x1="0.15" y1="-16.15" x2="72.15" y2="-16.15" stroke="#000000" stroke-width="0.3" stroke-linecap="square" fill="none"/><line x1="0.15" y1="-17.85" x2="72.15" y2="-17.85" stroke="#000000" stroke-width="0.3" stroke-linecap="square" fill="none"/><line x1="0.15" y1="-19.55" x2="72.15" y2="-19.55" stroke="#000000" stroke-width="0.3" stroke-linecap="square" fill="none"/><line x1="0.15" y1="-21.25" x2="72.15" y2="-21.25" stroke="#000000" stroke-width="0.3" stroke-linecap="square" fill="none"/><line x1="0.15" y1="-22.949" x2="72.15" y2="-22.949" stroke="#000000" stroke-width="0.3" stroke-linecap="square" fill="none"/><line x1="0.15" y1="-24.649" x2="72.15" y2="-24.649" stroke="#000000" stroke-width="0.3" stroke-linecap="square" fill="none"/><line x1="0.15" y1="-26.349" x2="72.15" y2="-26.349" stroke="#000000" stroke-width="0.3" stroke-linecap="square" fill="none"/><line x1="0.15" y1="-28.049" x2="72.15" y2="-28.049" stroke="#000000" stroke-width="0.3" stroke-linecap="square" fill="none"/><line x1="0.15" y1="-29.749" x2="72.15" y2="-29.749" stroke="#000000" stroke-width="0.3" stroke-linecap="square" fill="none"/><line x1="0.15" y1="-31.449" x2="72.15" y2="-31.449" stroke="#000000" stroke-width="0.3" stroke-linecap="square" fill="none"/><line x1="0.15" y1="-33.149" x2="72.15" y2="-33.149" stroke="#000000" stroke-width="0.3" stroke-linecap="square" fill="none"/><line x1="0.15" y1="-34.849" x2="72.15" y2="-34.849" stroke="#000000" stroke-width="0.3" stroke-linecap="square" fill="none"/><line x1="0.15" y1="-36.549" x2="72.15" y2="-36.549" stroke="#000000" stroke-width="0.3" stroke-linecap="square" fill="none"/><line x1="0.15" y1="-38.249" x2="72.15" y2="-38.249" stroke="#000000" stroke-width="0.3" stroke-linecap="square" fill="none"/><line x1="0.15" y1="-39.949" x2="72.15" y2="-39.949" stroke="#000000" stroke-width="0.3" stroke-linecap="square" fill="none"/><line x1="0.15" y1="-41.649" x2="72.15" y2="-41.649" stroke="#000000" stroke-width="0.3" stroke-linecap="square" fill="none"/><line x1="0.15" y1="-43.349" x2="72.15" y2="-43.349" stroke="#000000" stroke-width="0.3" stroke-linecap="square" fill="none"/><line x1="0.15" y1="-45.049" x2="72.15" y2="-45.049" stroke="#000000" stroke-width="0.3" stroke-linecap="square" fill="none"/><line x1="0.15" y1="-46.749" x2="72.15" y2="-46.749" stroke="#000000" stroke-width="0.3" stroke-linecap="square" fill="none"/><line x1="0.15" y1="-48.449" x2="72.15" y2="-48.449" stroke="#000000" stroke-width="0.3" stroke-linecap="square" fill="none"/><line x1="0.15" y1="-50.149" x2="72.15" y2="-50.149" stroke="#000000" stroke-width="0.3" stroke-linecap="square" fill="none"/><line x1="0.15" y1="-51.849" x2="72.15" y2="-51.849" stroke="#000000" stroke-width="0.3" stroke-linecap="square" fill="none"/><line x1="0.15" y1="-53.549" x2="72.15" y2="-53.549" stroke="#000000" stroke-width="0.3" stroke-linecap="square" fill="none"/><line x1="0.15" y1="-55.249" x2="72.15" y2="-55.249" stroke="#000000" stroke-width="0.3" stroke-linecap="square" fill="none"/><line x1="0.15" y1="-56.949" x2="72.15" y2="-56.949" stroke="#000000" stroke-width="0.3" stroke-linecap="square" fill="none"/><line x1="0.15" y1="-58.649" x2="72.15" y2="-58.649" stroke="#000000" stroke-width="0.3" stroke-linecap="square" fill="none"/><line x1="0.15" y1="-60.349" x2="72.15" y2="-60.349" stroke="#000000" stroke-width="0.3" stroke-linecap="square" fill="none"/><line x1="0.15" y1="-62.049" x2="72.15" y2="-62.049" stroke="#000000" stroke-width="0.3" stroke-linecap="square" fill="none"/><line x1="0.15" y1="-63.749" x2="72.15" y2="-63.749" stroke="#000000" stroke-width="0.3" stroke-linecap="square" fill="none"/><line x1="0.15" y1="-65.449" x2="72.15" y2="-65.449" stroke="#000000" stroke-width="0.3" stroke-linecap="square" fill="none"/><line x1="0.15" y1="-67.149" x2="72.15" y2="-67.149" stroke="#000000" stroke-width="0.3" stroke-linecap="square" fill="none"/><line x1="0.15" y1="-68.849" x2="72.15" y2="-68.849" stroke="#000000" stroke-width="0.3" stroke-linecap="square" fill="none"/><line x1="0.15" y1="-70.549" x2="72.15" y2="-70.549" stroke="#000000" stroke-width="0.3" stroke-linecap="square" fill="none"/><line x1="0.15" y1="-72.249" x2="72.15" y2="-72.249" stroke="#000000" stroke-width="0.3" stroke-linecap="square" fill="none"/><line x1="0.15" y1="-73.949" x2="72.15" y2="-73.949" stroke="#000000" stroke-width="0.3" stroke-linecap="square" fill="none"/></g></g></pattern><g><defs><circle cx="703.125" cy="-29.05" r="94.439" id="SVGID_4_"/></defs><clipPath id="SVGID_6_"><use width="100%" height="100%" xlink:href="#SVGID_4_" overflow="visible"></use></clipPath><path d="M412.183-2.11 642.583-2.11 642.583 188.943 412.183 188.943 390.849 188.943C390.849 188.943 412.183-13.896 412.183-2.58" stroke="#3C2415" stroke-width="2" stroke-miterlimit="10" fill="#E8E5D1" clip-path="url(#SVGID_6_)"/><rect x="537.784" y="-56.388" width="15.199" height="66.131" stroke="#3C2415" stroke-miterlimit="10" fill="#E8E5D1" clip-path="url(#SVGID_6_)"/><line x1="537.784" y1="4.479" x2="552.983" y2="4.479" stroke="#3C2415" stroke-width="0.7" stroke-miterlimit="10" stroke-dasharray="1 1" fill="none" clip-path="url(#SVGID_6_)"/></g><path d="" stroke="#2E3192" stroke-miterlimit="10" fill="#FFFFFF"/><path d="" stroke="#2E3192" stroke-miterlimit="10" fill="#FFFFFF"/><path d="M391.46 234.59C395.472 209.242 401.981 191.806 403.356 185.971L403.356 49.146 403.356 46.975 291.524 46.975 284.94 145.695 283.96 157.93 283.96 235.945 390.71 235.945 391.46 234.59Z" stroke="#3C2415" stroke-miterlimit="10" fill="#E8E5D1"/><path d="M291.648 49.028 309.542 49.028 287.177 116.063Z" stroke="#3C2415" stroke-miterlimit="10" fill="#E8E5D1"/><path d="M287.177 116.063 287.269 114.295C289.796 110.739 295.287 103.011 295.689 102.421 296.214 101.652 303.652 86.389 303.915 77.464 304.178 68.539 308.203 54.364 308.377 49.026L309.543 49.026 310.796 49.026C310.621 54.363 306.596 68.538 306.334 77.464 306.07 86.388 298.633 101.652 298.108 102.421 297.584 103.19 288.431 116.063 288.431 116.063L287.177 116.063Z" stroke="#3C2415" stroke-miterlimit="10" fill="#E8E5D1"/><path d="" stroke="#2E3192" stroke-miterlimit="10" fill="#FFFFFF"/><path d="M415.253 234.59C411.241 209.242 404.732 191.806 403.357 185.971L403.357 49.146 403.357 46.975 515.189 46.975 521.773 145.695 522.753 157.93 522.753 235.945 416.003 235.945 415.253 234.59Z" stroke="#3C2415" stroke-miterlimit="10" fill="#E8E5D1"/><path d="M514.671 49.028 458.321 49.028 458.321 182.378C473.721 184.128 508.02 183.428 511.171 171.878 514.321 160.328 512.571 135.828 519.571 133.728 521.671 130.928 514.671 49.028 514.671 49.028Z" stroke="#3C2415" stroke-width="0.7" stroke-miterlimit="10" stroke-dasharray="1 1" fill="none"/><path d="M515.064 49.028 487.415 49.028 493.462 116.928 519.964 119.728Z" stroke="#3C2415" stroke-width="0.7" stroke-miterlimit="10" stroke-dasharray="1 1" fill="none"/><path d="M515.064 49.028 497.171 49.028 519.536 116.063Z" stroke="#3C2415" stroke-miterlimit="10" fill="#E8E5D1"/><line x1="506.272" y1="85.299" x2="507.261" y2="88.261" stroke="#2E3192" stroke-miterlimit="10" fill="#FFFFFF"/><path d="" stroke="#2E3192" stroke-miterlimit="10" fill="#FFFFFF"/><path d="M518.211 121.084 520.61 128.276 518.211 121.084Z" stroke="#3C2415" stroke-miterlimit="10" fill="#FFFFFF"/><path d="M518.211 121.084 516.536 116.063 507.261 88.261 506.272 85.299 505.071 81.7 494.171 49.028Z" stroke="#3C2415" stroke-miterlimit="10" fill="#FFFFFF"/><line x1="310.042" y1="56.028" x2="307.042" y2="56.028" stroke="#3C2415" stroke-width="2" stroke-miterlimit="10" fill="none"/><line x1="496.671" y1="56.028" x2="499.671" y2="56.028" stroke="#3C2415" stroke-width="2" stroke-miterlimit="10" fill="none"/><path d="M427.843 46.977 427.843 137.786C425.753 155.456 403.357 157.786 403.357 157.786L403.357 48.786 427.843 46.977Z" stroke="#3C2415" stroke-miterlimit="10" fill="#E8E5D1"/><rect x="291.524" y="28.105" width="223.686" height="20.923" stroke="#3C2415" stroke-miterlimit="10" fill="#E8E5D1"/><g><g><g><path d="M506.372 66.558C506.495 68.894 508.487 70.696 510.826 70.574 513.165 70.452 514.967 68.457 514.847 66.119 514.726 63.78 512.725 61.982 510.388 62.102 508.049 62.225 506.251 64.219 506.372 66.558Z" stroke="#7C702D" stroke-width="0.3" stroke-dasharray="1.0235 1.0235" fill="none"/></g><circle cx="510.612" cy="66.348" r="2.8" stroke="#7C702D" stroke-width="0.3" fill="#B7C98F"/><g><path d="M515.484 66.875C515.108 67 515.1 67.108 514.574 67.399 513.809 67.866 514.401 69.361 515.14 69.345L515.468 69.332C515.291 69.685 515.862 70.844 516.825 70.598 516.756 71.263 517.346 71.618 517.962 71.403 518.499 71.222 518.813 71.138 519.777 71.234 520.978 71.353 522.369 71.605 523.701 70.67 523.816 70.588 523.966 70.652 524.007 70.727 524.091 70.873 524.075 71.334 524.462 71.31L525.88 71.19C526.389 71.148 526.736 70.367 526.526 68.005 526.316 65.547 526.21 64.587 525.19 64.661 524.191 64.736 523.914 64.77 523.914 64.77 523.599 64.803 523.563 65.021 523.524 65.165 523.502 65.244 523.386 65.289 523.302 65.26 523.169 65.216 521.859 64.774 520.757 64.75 519.742 64.728 519.319 64.458 518.648 64.618 517.851 64.806 515.236 64.942 514.457 64.995 513.689 65.049 512.486 65.398 510.855 65.499 509.304 65.592 509.446 67.391 510.836 67.193 511.931 67.035 511.98 67.165 512.357 67.087 513.018 66.949 513.761 66.964 514.284 66.96 514.527 66.955 514.78 66.863 515.484 66.875" stroke="#EB4024" stroke-width="0.5" stroke-miterlimit="10" fill="#FCD4CD"/><path d="M524.477 67.923C524.586 68.902 524.54 70.613 524.498 70.774 524.452 70.925 524.569 71.006 524.786 70.967 524.935 70.945 525.702 70.883 525.702 70.883 526.041 70.857 526.418 70.477 526.199 67.86 525.956 65.156 525.817 64.82 525.02 64.888L524.03 64.999C523.968 65.014 523.93 65.052 523.904 65.118 523.841 65.277 524.202 65.45 524.477 67.923Z" stroke="#EB4024" stroke-width="0.5" fill="#FCD4CD"/></g><line x1="534.293" y1="67.178" x2="525.491" y2="67.497" stroke="#F26522" stroke-width="0.7" stroke-miterlimit="10" stroke-dasharray="1 1" fill="none"/></g><g><rect x="533.73" y="63.52" width="1.124" height="7.315" fill="#F26522"/></g></g><g><line x1="482.328" y1="106.761" x2="490.502" y2="106.761" stroke="#F26522" stroke-width="0.7" stroke-miterlimit="10" stroke-dasharray="1 1" fill="none"/><g><rect x="481.766" y="103.104" width="1.125" height="7.316" fill="#F26522"/></g><g><circle cx="492.403" cy="106.762" r="2.115" fill="#F26522"/></g></g><g><g><g><path d="M476.079 132.797C475.956 135.134 473.964 136.935 471.625 136.813 469.286 136.69 467.484 134.696 467.604 132.359 467.725 130.02 469.726 128.222 472.063 128.341 474.401 128.464 476.2 130.458 476.079 132.797Z" stroke="#7C702D" stroke-width="0.3" stroke-dasharray="1.0235 1.0235" fill="none"/></g><circle cx="471.839" cy="132.588" r="2.8" stroke="#7C702D" stroke-width="0.3" fill="#B7C98F"/><g><path d="M466.967 133.115C467.343 133.24 467.351 133.348 467.877 133.639 468.642 134.107 468.049 135.601 467.311 135.585L466.983 135.572C467.16 135.925 466.589 137.084 465.626 136.838 465.695 137.503 465.105 137.858 464.489 137.643 463.951 137.462 463.638 137.378 462.674 137.474 461.473 137.593 460.081 137.844 458.75 136.909 458.635 136.827 458.485 136.891 458.444 136.966 458.36 137.113 458.376 137.573 457.989 137.549L456.57 137.429C456.062 137.387 455.715 136.607 455.924 134.244 456.133 131.786 456.24 130.826 457.26 130.901 458.259 130.975 458.536 131.009 458.536 131.009 458.851 131.042 458.887 131.26 458.926 131.404 458.947 131.484 459.064 131.529 459.148 131.499 459.281 131.455 460.591 131.013 461.693 130.989 462.708 130.967 463.131 130.697 463.802 130.857 464.598 131.046 467.214 131.182 467.993 131.235 468.761 131.288 469.964 131.637 471.595 131.738 473.147 131.831 473.003 133.63 471.614 133.431 470.519 133.274 470.47 133.404 470.093 133.326 469.431 133.188 468.689 133.203 468.165 133.199 467.924 133.194 467.671 133.102 466.967 133.115" stroke="#EB4024" stroke-width="0.5" stroke-miterlimit="10" fill="#FCD4CD"/><path d="M457.975 134.162C457.866 135.141 457.912 136.853 457.954 137.014 458 137.165 457.882 137.245 457.665 137.207 457.517 137.185 456.75 137.123 456.75 137.123 456.411 137.097 456.034 136.717 456.252 134.1 456.496 131.396 456.634 131.06 457.432 131.128L458.422 131.24C458.484 131.255 458.522 131.292 458.548 131.359 458.61 131.517 458.249 131.689 457.975 134.162Z" stroke="#EB4024" stroke-width="0.5" fill="#FCD4CD"/></g><line x1="448.158" y1="133.417" x2="456.96" y2="133.736" stroke="#F26522" stroke-width="0.7" stroke-miterlimit="10" stroke-dasharray="1 1" fill="none"/></g><g><rect x="447.596" y="129.759" width="1.125" height="7.315" fill="#F26522"/></g></g><g><line x1="447.601" y1="175.642" x2="455.774" y2="175.642" stroke="#F26522" stroke-width="0.7" stroke-miterlimit="10" stroke-dasharray="1 1" fill="none"/><g><rect x="447.038" y="171.985" width="1.125" height="7.316" fill="#F26522"/></g><g><circle cx="457.676" cy="175.643" r="2.114" fill="#F26522"/></g></g><g><g><path d="M306.833 56.526C305.604 62.664 304.056 70.024 303.897 75.444 303.633 84.369 296.196 99.632 295.671 100.401 295.381 100.826 292.447 104.959 289.885 108.566L290.228 108.082 305.938 61.002" fill="#CC6666"/><g><path d="M306.833 56.526C306.8 56.689 306.768 56.852 306.735 57.016" stroke="#3C2415" stroke-width="0.5" stroke-miterlimit="10" fill="none"/><path d="M306.54 57.988C305.371 63.803 304.044 70.447 303.898 75.444 303.634 84.369 296.197 99.632 295.672 100.401 295.403 100.794 292.871 104.363 290.463 107.753" stroke="#3C2415" stroke-width="0.5" stroke-miterlimit="10" stroke-dasharray="0.9928 0.9928" fill="none"/><path d="M290.175 108.158C290.078 108.295 289.982 108.43 289.886 108.565L290.175 108.158" stroke="#3C2415" stroke-width="0.5" stroke-miterlimit="10" fill="none"/><line x1="290.517" y1="107.217" x2="305.621" y2="61.952" stroke="#3C2415" stroke-width="0.5" stroke-miterlimit="10" stroke-dasharray="1.0046 1.0046" fill="none"/><line x1="305.78" y1="61.476" x2="305.938" y2="61.001" stroke="#3C2415" stroke-width="0.5" stroke-miterlimit="10" fill="none"/></g></g></g><g><g><pattern xlink:href="#USGS_8_Sewage_Disposal" id="SVGID_7_" overflow="hidden" patternTransform="translate(46.2441 12.9375)"></pattern><path d="M306.833 56.526C305.604 62.664 304.056 70.024 303.897 75.444 303.633 84.369 296.196 99.632 295.671 100.401 295.381 100.826 292.447 104.959 289.885 108.566L290.228 108.082 305.938 61.002" fill="url(#SVGID_7_)"/><g><path d="M306.833 56.526C306.8 56.689 306.768 56.852 306.735 57.016" stroke="#3C2415" stroke-width="0.5" stroke-miterlimit="10" fill="none"/><path d="M306.54 57.988C305.371 63.803 304.044 70.447 303.898 75.444 303.634 84.369 296.197 99.632 295.672 100.401 295.403 100.794 292.871 104.363 290.463 107.753" stroke="#3C2415" stroke-width="0.5" stroke-miterlimit="10" stroke-dasharray="0.9928 0.9928" fill="none"/><path d="M290.175 108.158C290.078 108.295 289.982 108.43 289.886 108.565L290.175 108.158" stroke="#3C2415" stroke-width="0.5" stroke-miterlimit="10" fill="none"/><line x1="290.517" y1="107.217" x2="305.621" y2="61.952" stroke="#3C2415" stroke-width="0.5" stroke-miterlimit="10" stroke-dasharray="1.0046 1.0046" fill="none"/><line x1="305.78" y1="61.476" x2="305.938" y2="61.001" stroke="#3C2415" stroke-width="0.5" stroke-miterlimit="10" fill="none"/></g></g></g><path d="M256.181 132.422C258.104 131.645 260.027 130.868 261.949 130.091 263.553 129.443 264.863 128.369 265.551 126.829 266.725 124.192 267.869 121.522 268.685 118.76 269.229 116.916 269.303 114.898 269.374 112.947 269.494 109.59 268.041 106.154 270.004 102.912 270.285 102.45 270.555 101.987 270.832 101.526 271.264 101.936 271.783 102.297 272.098 102.783 272.323 103.137 272.266 103.666 272.356 104.112 272.801 106.344 273.174 108.591 273.75 110.792 273.925 111.453 274.659 111.971 275.323 112.785 275.516 111.955 275.581 111.499 275.724 111.072 276.593 108.479 276.011 105.6 277.454 103.077 278.226 101.732 277.932 99.764 280.148 99.405 280.755 99.299 281.748 99.198 282.138 99.918 282.445 100.486 283.148 101.255 281.806 101.674 281.517 101.764 281.335 102.513 281.281 102.973 281.068 104.838 280.895 106.703 280.756 108.575 280.68 109.62 280.708 110.679 280.686 111.827 281.594 107.845 282.397 104.009 283.391 100.222 283.6 99.429 284.526 98.823 285.131 98.118 286.567 99.236 287.201 100.475 287.047 102.173 286.834 104.461 286.626 106.761 286.658 109.054 286.691 110.748 287.112 112.439 287.359 114.132 287.521 114.125 287.681 114.121 287.839 114.118 290.485 108.412 293.136 102.708 295.814 96.936 296.162 97.233 296.439 97.474 296.543 97.557 296.138 96.346 296.981 95.656 297.82 94.923 299.082 96.118 299.125 96.372 298.429 97.976 298.572 97.935 298.742 97.885 299.2 97.753 296.582 107.363 292.207 116.174 290.972 125.806 293.072 124.201 294.813 121.886 297.898 121.524 299.087 121.386 299.706 121.773 300.297 122.558 300.553 122.895 300.72 123.297 300.962 123.724 300.616 123.972 300.306 124.268 299.942 124.426 296.389 126.052 294.171 129.001 292.1 132.14 291.382 133.236 290.373 134.145 289.448 135.094 288.391 136.172 287.227 137.153 286.206 138.263 284.985 139.584 283.549 140.403 281.835 140.983 277.971 142.299 273.985 143.455 270.403 145.347 268.913 146.136 267.428 146.935 265.95 147.747L256.181 132.422Z" stroke="#392726" stroke-width="0.5" stroke-miterlimit="10" fill="#BBA795"/><g><defs><circle cx="126.536" cy="155.786" r="120.312" id="SVGID_8_"/></defs><clipPath id="SVGID_9_"><use width="100%" height="100%" xlink:href="#SVGID_8_" overflow="visible"></use></clipPath><path d="" stroke="#2E3192" stroke-miterlimit="10" fill="#FFFFFF" clip-path="url(#SVGID_9_)"/><path d="" stroke="#2E3192" stroke-miterlimit="10" fill="#FFFFFF" clip-path="url(#SVGID_9_)"/><path d="M316.705 448.443C324.728 397.748 337.746 362.875 340.498 351.205L340.498 77.557 340.498 73.215 116.834 73.215 103.666 270.654 101.705 295.124 101.705 451.154 315.205 451.154 316.705 448.443Z" stroke="#3C2415" stroke-miterlimit="10" fill="#E8E5D1" clip-path="url(#SVGID_9_)"/><path d="M117.082 77.319 152.869 77.319 108.139 211.391Z" stroke="#3C2415" stroke-miterlimit="10" fill="#E8E5D1" clip-path="url(#SVGID_9_)"/><path d="M108.139 211.391 108.323 207.855C113.378 200.744 124.358 185.288 125.163 184.108 126.214 182.57 141.089 152.044 141.614 134.195 142.139 116.344 150.19 87.995 150.538 77.32L152.87 77.32 155.376 77.32C155.026 87.995 146.976 116.344 146.452 134.195 145.925 152.044 131.05 182.57 130.001 184.108 128.952 185.645 110.647 211.391 110.647 211.391L108.139 211.391Z" stroke="#3C2415" stroke-miterlimit="10" fill="#E8E5D1" clip-path="url(#SVGID_9_)"/><path d="" stroke="#2E3192" stroke-miterlimit="10" fill="#FFFFFF" clip-path="url(#SVGID_9_)"/><path d="M364.291 448.443C356.268 397.748 343.25 362.875 340.498 351.205L340.498 77.557 340.498 73.215 564.162 73.215 577.33 270.654 579.291 295.124 579.291 451.154 365.791 451.154 364.291 448.443Z" stroke="#3C2415" stroke-miterlimit="10" fill="#E8E5D1" clip-path="url(#SVGID_9_)"/><path d="M563.127 77.319 450.428 77.319 450.428 344.019C481.229 347.52 549.826 346.119 556.127 323.019 562.428 299.918 558.928 250.918 572.928 246.718 577.127 241.119 563.127 77.319 563.127 77.319Z" stroke="#3C2415" stroke-width="0.7" stroke-miterlimit="10" stroke-dasharray="1 1" fill="none" clip-path="url(#SVGID_9_)"/><path d="M563.914 77.319 508.615 77.319 520.709 213.119 573.713 218.719Z" stroke="#3C2415" stroke-width="0.7" stroke-miterlimit="10" stroke-dasharray="1 1" fill="none" clip-path="url(#SVGID_9_)"/><path d="M563.914 77.319 528.127 77.319 572.857 211.391Z" stroke="#3C2415" stroke-miterlimit="10" fill="#E8E5D1" clip-path="url(#SVGID_9_)"/><path d="M572.857 211.391 551.127 146.262 528.127 77.319Z" stroke="#2E3192" stroke-width="0.5" stroke-miterlimit="10" fill="#FFFFFF" clip-path="url(#SVGID_9_)"/><path d="M570.207 221.433 566.857 211.391 548.307 155.786 546.33 149.862 543.928 142.664 522.127 77.319Z" stroke="#3C2415" stroke-miterlimit="10" fill="#FFFFFF" clip-path="url(#SVGID_9_)"/><line x1="153.869" y1="91.32" x2="147.869" y2="91.32" stroke="#3C2415" stroke-width="2" stroke-miterlimit="10" fill="none" clip-path="url(#SVGID_9_)"/><line x1="527.127" y1="91.32" x2="533.127" y2="91.32" stroke="#2E3192" stroke-width="2" stroke-miterlimit="10" fill="none" clip-path="url(#SVGID_9_)"/><path d="M389.471 73.217 389.471 254.835C385.291 290.176 340.498 294.835 340.498 294.835L340.498 76.835 389.471 73.217Z" stroke="#3C2415" stroke-miterlimit="10" fill="#E8E5D1" clip-path="url(#SVGID_9_)"/><rect x="116.834" y="35.474" width="447.371" height="41.846" stroke="#3C2415" stroke-miterlimit="10" fill="#E8E5D1" clip-path="url(#SVGID_9_)"/><g clip-path="url(#SVGID_9_)"><line x1="498.441" y1="192.786" x2="514.789" y2="192.786" stroke="#F26522" stroke-width="0.7" stroke-miterlimit="10" stroke-dasharray="1 1" fill="none"/><g><rect x="497.316" y="185.473" width="2.25" height="14.632" fill="#F26522"/></g><g><path d="M518.592 197.017C520.928 197.017 522.824 195.125 522.824 192.787 522.824 190.451 520.928 188.559 518.592 188.559 516.252 188.559 514.367 190.451 514.367 192.787 514.367 195.125 516.252 197.017 518.592 197.017Z" fill="#F26522"/></g></g><g clip-path="url(#SVGID_9_)"><g><g><path d="M485.943 244.857C485.697 249.531 481.713 253.133 477.035 252.889 472.357 252.644 468.754 248.655 468.994 243.981 469.236 239.302 473.238 235.707 477.912 235.945 482.588 236.192 486.186 240.18 485.943 244.857Z" stroke="#7C702D" stroke-width="0.3" stroke-dasharray="0.9865 0.9865" fill="none"/></g><path d="M483.057 244.73C482.897 247.816 480.266 250.189 477.176 250.029 474.088 249.868 471.713 247.235 471.871 244.149 472.029 241.059 474.666 238.689 477.754 238.845 480.844 239.003 483.219 241.637 483.057 244.73Z" stroke="#7C702D" stroke-width="0.3" fill="#B7C98F"/><g><path d="M467.719 245.493C468.471 245.742 468.487 245.959 469.539 246.541 471.068 247.477 469.883 250.465 468.406 250.433L467.75 250.407C468.104 251.113 466.963 253.43 465.035 252.939 465.174 254.268 463.992 254.979 462.762 254.548 461.686 254.187 461.061 254.019 459.131 254.21 456.729 254.447 453.945 254.95 451.283 253.08 451.053 252.917 450.754 253.045 450.672 253.193 450.504 253.487 450.535 254.408 449.762 254.359L446.924 254.12C445.908 254.036 445.213 252.475 445.633 247.751 446.051 242.835 446.266 240.915 448.305 241.065 450.303 241.212 450.858 241.282 450.858 241.282 451.489 241.348 451.559 241.784 451.637 242.071 451.68 242.23 451.912 242.32 452.08 242.26 452.346 242.171 454.967 241.287 457.17 241.239 459.199 241.194 460.045 240.654 461.389 240.975 462.981 241.353 468.213 241.624 469.772 241.732 471.307 241.838 473.713 242.537 476.975 242.738 480.079 242.925 479.791 246.522 477.012 246.124 474.823 245.811 474.725 246.07 473.969 245.914 472.645 245.638 471.16 245.668 470.114 245.659 469.633 245.651 469.127 245.468 467.719 245.493" stroke="#EB4024" stroke-width="0.5" stroke-miterlimit="10" fill="#FCD4CD"/><path d="M449.734 247.587C449.515 249.545 449.607 252.969 449.691 253.29 449.783 253.592 449.546 253.753 449.113 253.676 448.816 253.632 447.283 253.508 447.283 253.508 446.605 253.456 445.851 252.695 446.287 247.461 446.775 242.053 447.051 241.381 448.646 241.517L450.626 241.742C450.749 241.771 450.825 241.846 450.878 241.979 451.006 242.297 450.283 242.643 449.734 247.587Z" stroke="#EB4024" stroke-width="0.5" fill="#FCD4CD"/></g><line x1="430.102" y1="246.098" x2="447.705" y2="246.736" stroke="#F26522" stroke-width="0.7" stroke-miterlimit="10" stroke-dasharray="1 1" fill="none"/></g><g><rect x="428.977" y="238.782" width="2.25" height="14.631" fill="#F26522"/></g></g><g clip-path="url(#SVGID_9_)"><g><path d="M147.451 92.315C144.994 104.59 141.896 119.31 141.58 130.152 141.053 148.001 126.178 178.527 125.129 180.065 124.549 180.915 118.682 189.18 113.557 196.394L114.243 195.426 145.663 101.266" fill="#CC6666"/><g><path d="M147.451 92.315C147.418 92.478 147.386 92.641 147.353 92.805" stroke="#3C2415" stroke-width="0.5" stroke-miterlimit="10" fill="none"/><path d="M147.158 93.779C144.754 105.746 141.884 119.738 141.58 130.152 141.053 148.001 126.178 178.527 125.129 180.065 124.57 180.883 119.112 188.573 114.133 195.582" stroke="#3C2415" stroke-width="0.5" stroke-miterlimit="10" stroke-dasharray="0.9929 0.9929" fill="none"/><path d="M113.846 195.987C113.749 196.123 113.653 196.259 113.556 196.394L113.846 195.987" stroke="#3C2415" stroke-width="0.5" stroke-miterlimit="10" fill="none"/><line x1="114.343" y1="195.125" x2="145.345" y2="102.217" stroke="#3C2415" stroke-width="0.5" stroke-miterlimit="10" stroke-dasharray="1.0045 1.0045" fill="none"/><line x1="145.504" y1="101.741" x2="145.662" y2="101.267" stroke="#3C2415" stroke-width="0.5" stroke-miterlimit="10" fill="none"/></g></g></g><circle cx="126.536" cy="155.786" r="120.312" fill="none" clip-path="url(#SVGID_9_)"/><g clip-path="url(#SVGID_9_)"><g><pattern xlink:href="#USGS_8_Sewage_Disposal" id="SVGID_10_" overflow="hidden" patternTransform="matrix(2 0 0 2 5627.12 8750.52)"></pattern><path d="M147.451 92.315C144.994 104.59 141.896 119.31 141.58 130.152 141.053 148.001 126.178 178.527 125.129 180.065 124.549 180.915 118.682 189.18 113.557 196.394L114.243 195.426 145.663 101.266" fill="url(#SVGID_10_)"/><g><path d="M147.451 92.315C147.418 92.478 147.386 92.641 147.353 92.805" stroke="#3C2415" stroke-width="0.5" stroke-miterlimit="10" fill="none"/><path d="M147.158 93.779C144.754 105.746 141.884 119.738 141.58 130.152 141.053 148.001 126.178 178.527 125.129 180.065 124.57 180.883 119.112 188.573 114.133 195.582" stroke="#3C2415" stroke-width="0.5" stroke-miterlimit="10" stroke-dasharray="0.9929 0.9929" fill="none"/><path d="M113.846 195.987C113.749 196.123 113.653 196.259 113.556 196.394L113.846 195.987" stroke="#3C2415" stroke-width="0.5" stroke-miterlimit="10" fill="none"/><line x1="114.343" y1="195.125" x2="145.345" y2="102.217" stroke="#3C2415" stroke-width="0.5" stroke-miterlimit="10" stroke-dasharray="1.0045 1.0045" fill="none"/><line x1="145.504" y1="101.741" x2="145.662" y2="101.267" stroke="#3C2415" stroke-width="0.5" stroke-miterlimit="10" fill="none"/></g></g></g><path d="M46.146 244.107C49.992 242.552 53.837 241 57.681 239.446 60.888 238.149 63.509 236.003 64.884 232.923 67.232 227.65 69.521 222.309 71.152 216.784 72.24 213.096 72.388 209.059 72.531 205.158 72.771 198.443 69.865 191.571 73.791 185.089 74.354 184.164 74.893 183.238 75.447 182.318 76.31 183.137 77.349 183.86 77.978 184.832 78.427 185.54 78.314 186.598 78.494 187.489 79.385 191.953 80.131 196.448 81.281 200.849 81.631 202.171 83.099 203.207 84.427 204.835 84.814 203.176 84.943 202.263 85.23 201.408 86.968 196.222 85.804 190.465 88.691 185.419 90.236 182.73 89.646 178.793 94.08 178.075 95.295 177.863 97.279 177.661 98.06 179.101 98.673 180.238 100.08 181.776 97.396 182.613 96.818 182.793 96.455 184.291 96.345 185.211 95.919 188.941 95.574 192.672 95.294 196.415 95.142 198.505 95.198 200.623 95.153 202.919 96.969 194.955 98.575 187.282 100.563 179.709 100.981 178.123 102.833 176.911 104.043 175.5 106.914 177.735 108.184 180.215 107.875 183.609 107.449 188.184 107.033 192.786 107.098 197.371 107.164 200.76 108.006 204.141 108.5 207.527 108.824 207.513 109.145 207.505 109.461 207.5 114.754 196.089 120.055 184.681 125.41 173.136 126.105 173.731 126.66 174.211 126.867 174.377 126.056 171.955 127.742 170.574 129.422 169.109 131.945 171.499 132.031 172.006 130.641 175.214 130.926 175.132 131.266 175.031 132.182 174.768 126.946 193.989 118.196 211.611 115.727 230.874 119.926 227.663 123.409 223.034 129.579 222.31 131.958 222.034 133.194 222.808 134.378 224.378 134.89 225.053 135.224 225.857 135.708 226.71 135.017 227.206 134.395 227.799 133.669 228.114 126.564 231.366 122.126 237.264 117.985 243.542 116.549 245.733 114.532 247.552 112.68 249.449 110.567 251.605 108.239 253.566 106.196 255.787 103.755 258.43 100.882 260.066 97.454 261.227 89.725 263.86 81.755 266.171 74.591 269.955 71.611 271.532 68.642 273.132 65.685 274.755L46.146 244.107Z" stroke="#392726" stroke-width="0.5" stroke-miterlimit="10" fill="#BBA795" clip-path="url(#SVGID_9_)"/></g><g><g><path d="M300.962 71.466 300.962 7.167 118.833 7.167 118.833 32.69" stroke="#C82257" stroke-miterlimit="10" fill="none"/><g><path d="M117.138 30.699 118.833 32.395 120.529 30.699 120.529 32.138 118.833 33.833 117.138 32.138Z" fill="#C82257"/></g></g></g><circle cx="126.535" cy="155.786" r="120.312" stroke="#2E3192" stroke-miterlimit="10" fill="none"/><g><g><path d="M140.773 137.201C140.63 139.916 138.315 142.009 135.598 141.867 132.881 141.724 130.787 139.407 130.927 136.692 131.068 133.974 133.392 131.885 136.108 132.024 138.824 132.168 140.914 134.484 140.773 137.201Z" stroke="#7C702D" stroke-width="0.3" stroke-dasharray="1.0305 1.0305" fill="none"/></g><circle cx="135.848" cy="136.959" r="3.253" stroke="#7C702D" stroke-width="0.3" fill="#B7C98F"/><g><path d="M130.187 137.57C130.624 137.715 130.633 137.841 131.245 138.179 132.133 138.722 131.444 140.458 130.587 140.44L130.206 140.424C130.412 140.834 129.749 142.18 128.629 141.895 128.71 142.667 128.024 143.08 127.309 142.83 126.684 142.62 126.321 142.523 125.2 142.634 123.804 142.772 122.188 143.064 120.641 141.978 120.507 141.883 120.334 141.957 120.286 142.044 120.188 142.215 120.206 142.75 119.757 142.721L118.109 142.582C117.519 142.533 117.115 141.626 117.359 138.882 117.602 136.027 117.727 134.911 118.911 134.999 120.072 135.084 120.394 135.125 120.394 135.125 120.76 135.164 120.801 135.417 120.847 135.583 120.872 135.675 121.007 135.728 121.104 135.693 121.258 135.641 122.781 135.128 124.061 135.1 125.24 135.074 125.731 134.76 126.512 134.947 127.437 135.167 130.476 135.324 131.382 135.387 132.274 135.449 133.672 135.854 135.566 135.971 137.369 136.079 137.202 138.169 135.587 137.938 134.316 137.756 134.259 137.907 133.819 137.816 133.05 137.656 132.188 137.673 131.58 137.668 131.299 137.663 131.005 137.556 130.187 137.57" stroke="#EB4024" stroke-width="0.5" stroke-miterlimit="10" fill="#FCD4CD"/><path d="M119.74 138.787C119.613 139.925 119.666 141.913 119.715 142.1 119.768 142.275 119.631 142.369 119.379 142.324 119.207 142.299 118.316 142.226 118.316 142.226 117.922 142.196 117.484 141.754 117.737 138.714 118.021 135.572 118.18 135.182 119.108 135.261L120.258 135.391C120.329 135.408 120.374 135.452 120.404 135.529 120.479 135.714 120.059 135.915 119.74 138.787Z" stroke="#EB4024" stroke-width="0.5" fill="#FCD4CD"/></g><line x1="108.335" y1="137.922" x2="118.562" y2="138.293" stroke="#F26522" stroke-width="0.7" stroke-miterlimit="10" stroke-dasharray="1 1" fill="none"/></g><g><rect x="107.5" y="134.2" width="1.125" height="7.315" fill="#F26522"/></g><line x1="107.5" y1="161.385" x2="122.916" y2="161.385" stroke="#F26522" stroke-width="0.7" stroke-miterlimit="10" stroke-dasharray="1 1" fill="none"/><g><rect x="106.938" y="157.728" width="1.125" height="7.316" fill="#F26522"/></g><g><circle cx="124.817" cy="161.385" r="2.115" fill="#F26522"/></g><g><g><g><path d="M137.409 157.504C137.532 159.841 139.524 161.642 141.863 161.52 144.202 161.397 146.004 159.403 145.884 157.066 145.763 154.727 143.762 152.929 141.425 153.048 139.086 153.172 137.288 155.166 137.409 157.504Z" stroke="#7C702D" stroke-width="0.3" stroke-dasharray="1.0235 1.0235" fill="none"/></g><circle cx="141.648" cy="157.296" r="2.8" stroke="#7C702D" stroke-width="0.3" fill="#B7C98F"/><g><path d="M146.521 157.822C146.145 157.947 146.137 158.055 145.611 158.346 144.846 158.814 145.439 160.308 146.177 160.292L146.505 160.279C146.328 160.632 146.899 161.791 147.862 161.545 147.793 162.21 148.383 162.565 148.999 162.35 149.537 162.169 149.85 162.085 150.814 162.181 152.015 162.3 153.407 162.551 154.738 161.616 154.853 161.534 155.003 161.598 155.044 161.673 155.128 161.82 155.112 162.28 155.499 162.256L156.918 162.136C157.426 162.094 157.773 161.314 157.564 158.951 157.355 156.493 157.248 155.533 156.228 155.608 155.229 155.682 154.952 155.716 154.952 155.716 154.637 155.749 154.601 155.967 154.562 156.111 154.541 156.191 154.424 156.236 154.34 156.206 154.207 156.162 152.897 155.72 151.795 155.696 150.78 155.674 150.357 155.404 149.686 155.564 148.89 155.753 146.274 155.889 145.495 155.942 144.727 155.995 143.524 156.344 141.893 156.445 140.341 156.538 140.485 158.337 141.874 158.138 142.969 157.981 143.018 158.111 143.395 158.033 144.057 157.895 144.799 157.91 145.323 157.906 145.564 157.901 145.817 157.81 146.521 157.822" stroke="#EB4024" stroke-width="0.5" stroke-miterlimit="10" fill="#FCD4CD"/><path d="M155.513 158.869C155.622 159.848 155.576 161.56 155.534 161.721 155.488 161.872 155.606 161.952 155.823 161.914 155.971 161.892 156.738 161.83 156.738 161.83 157.077 161.804 157.454 161.424 157.236 158.807 156.992 156.103 156.854 155.767 156.056 155.835L155.066 155.947C155.004 155.962 154.966 155.999 154.94 156.066 154.877 156.224 155.239 156.397 155.513 158.869Z" stroke="#EB4024" stroke-width="0.5" fill="#FCD4CD"/></g><line x1="165.33" y1="158.125" x2="156.528" y2="158.444" stroke="#F26522" stroke-width="0.7" stroke-miterlimit="10" stroke-dasharray="1 1" fill="none"/></g><g><rect x="164.767" y="154.467" width="1.125" height="7.315" fill="#F26522"/></g></g><g><line x1="152.551" y1="124.5" x2="144.377" y2="124.5" stroke="#F26522" stroke-width="0.7" stroke-miterlimit="10" stroke-dasharray="1 1" fill="none"/><g><rect x="151.988" y="120.841" width="1.125" height="7.316" fill="#F26522"/></g><g><circle cx="142.476" cy="124.499" r="2.115" fill="#F26522"/></g></g><g><line x1="163.116" y1="91.5" x2="154.942" y2="91.5" stroke="#F26522" stroke-width="0.7" stroke-miterlimit="10" stroke-dasharray="1 1" fill="none"/><g><rect x="162.553" y="87.841" width="1.125" height="7.316" fill="#F26522"/></g><g><circle cx="153.041" cy="91.499" r="2.115" fill="#F26522"/></g></g></svg>