<svg width="396.667" height="274" viewBox="0 0 396.667 274" xmlns="http://www.w3.org/2000/svg" xmlns:xlink="http://www.w3.org/1999/xlink" id="Layer_1" xml:space="preserve" overflow="hidden"><path d="M178.416 131.278C178.335 134.194 178.417 139.767 178.417 139.767 178.566 140.15 178.425 225.539 178.514 267.77 178.519 270.159 177.682 270.534 175.607 270.526 167.24 270.495 158.871 270.612 150.501 270.644 143.833 270.669 137.165 270.653 130.497 270.647 129.786 270.646 129.076 270.589 128.43 270.559 128.43 265.698 128.363 261.092 128.44 256.491 128.949 226.133 129.5 195.776 130.011 165.417 130.235 152.25 130.372 139.081 130.651 125.915 130.67 125.027 131.315 123.844 132.05 123.333 134.807 121.416 136.8 118.972 138.127 115.946 140.257 111.085 140.833 105.94 140.9 100.723 141.06 88.274 138.813 76.125 135.972 64.073 135.517 62.146 135.686 61.075 137.667 60.153 141.012 58.598 144.185 56.688 147.438 54.941 149.034 54.083 150.646 53.254 152.216 52.432L180.307 39.419 187.536 47.963 190.108 97.3C188.649 87.232 188.751 65.192 188.433 59.553L189.318 91.76C190.697 101.893 192.543 112.014 193.058 122.198 194.195 144.608 194.854 167.05 195.269 189.487 195.589 206.815 195.276 224.156 195.17 241.49 195.114 250.41 194.826 259.329 194.801 268.248 194.794 270.32 193.958 270.652 192.173 270.61 188.176 270.515 184.171 270.479 180.177 270.622 179.03 270.664 178.283 270.53 177.837 270.05" stroke="#262262" stroke-miterlimit="10" fill="#FFFFFF" fill-rule="evenodd" clip-rule="evenodd"/><path d="M177.725 131.338 177.787 137.522C177.787 138.37 177.787 139.168 177.787 139.965 177.784 182.701 177.802 225.437 177.721 268.173 177.716 270.52 178.453 271.069 180.617 270.99 184.611 270.844 188.616 270.881 192.613 270.977 194.398 271.02 195.234 270.684 195.241 268.586 195.266 259.555 195.554 250.524 195.61 241.494 195.715 223.944 196.029 206.387 195.709 188.843 195.294 166.126 194.635 143.405 193.498 120.716 192.982 110.407 191.137 100.158 189.758 89.9" stroke="#262262" stroke-miterlimit="10" fill="#FFFFFF" fill-rule="evenodd" clip-rule="evenodd"/><path d="M214.039 36.758 211.009 30.412C208.272 24.585 191.079 25.239 184.857 28.412L180.746 36.906C184.166 35.728 197.913 33.239 214.746 36.906" stroke="#262262" stroke-miterlimit="10" fill="#FFFFFF"/><path d="M212.602 32.87 209.839 29.05C207.343 25.541 191.667 25.936 185.993 27.846L182.245 32.959C185.362 32.251 197.897 30.751 213.245 32.959" stroke="#262262" stroke-width="0.3" stroke-miterlimit="10" fill="#FFFFFF"/><rect x="11.357" y="149.765" width="101.762" height="37.741" stroke="#262262" stroke-miterlimit="10" fill="#FFFFFF"/><rect x="13.342" y="151.75" width="97.793" height="33.772" stroke="#262262" stroke-width="0.5" stroke-miterlimit="10" stroke-dasharray="1 1" fill="#FFFFFF"/><rect x="21.533" y="199.697" width="81.41" height="18.87" stroke="#262262" stroke-miterlimit="10" fill="#FFFFFF"/><rect x="23.122" y="200.688" width="78.233" height="16.886" stroke="#262262" stroke-width="0.5" stroke-miterlimit="10" stroke-dasharray="1 1" fill="#FFFFFF"/><rect x="212.196" y="3.196" width="116.3" height="12.94" stroke="#262262" stroke-miterlimit="10" fill="#FFFFFF"/><line x1="326.228" y1="3.877" x2="326.228" y2="15.456" stroke="#262262" stroke-width="0.5" stroke-miterlimit="10" stroke-dasharray="1 1" fill="#FFFFFF"/><line x1="214.465" y1="15.456" x2="214.465" y2="3.877" stroke="#262262" stroke-width="0.5" stroke-miterlimit="10" stroke-dasharray="1 1" fill="#FFFFFF"/><rect x="13.341" y="99.481" width="103.359" height="6.054" stroke="#262262" stroke-width="1.5" stroke-miterlimit="10" fill="#FFFFFF" fill-rule="evenodd" clip-rule="evenodd"/><path d="M83.642 94.825 83.642 143.343 47.891 143.343 47.891 96.455 47.891 94.825" stroke="#262262" stroke-miterlimit="10" fill="#FFFFFF"/><rect x="13.342" y="93.428" width="103.359" height="6.053" stroke="#262262" stroke-width="1.5" stroke-miterlimit="10" fill="#FFFFFF" fill-rule="evenodd" clip-rule="evenodd"/><line x1="47.891" y1="96.325" x2="83.642" y2="96.325" stroke="#262262" stroke-width="0.5" stroke-miterlimit="10" stroke-dasharray="1 1" fill="#FFFFFF"/><path d="" stroke="#262262" stroke-miterlimit="10" fill="#FFFFFF" fill-rule="evenodd" clip-rule="evenodd"/><path d="" stroke="#262262" stroke-miterlimit="10" fill="#FFFFFF" fill-rule="evenodd" clip-rule="evenodd"/><rect x="192.157" y="32.854" width="11.176" height="1.291" stroke="#262262" stroke-width="0.3" stroke-miterlimit="10" fill="#FFFFFF"/><path d="" stroke="#262262" stroke-miterlimit="10" fill="#FFFFFF" fill-rule="evenodd" clip-rule="evenodd"/><path d="" stroke="#262262" stroke-miterlimit="10" fill="#FFFFFF" fill-rule="evenodd" clip-rule="evenodd"/><path d="M179.203 269.555C179.148 269.498 178.977 269.229 178.979 268.174 179.046 232.903 179.045 197.042 179.045 162.362L179.045 137.521 178.984 131.373C179.264 124.999 176.024 45.197 174.644 40.765" stroke="#262262" stroke-width="0.5" stroke-miterlimit="10" stroke-dasharray="3 5" fill="#FFFFFF" fill-rule="evenodd" clip-rule="evenodd"/><path d="M177.823 270.419C177.428 269.985 177.27 269.28 177.276 268.178 177.526 225.444 177.677 182.707 177.849 139.972 177.852 139.175 177.856 138.377 177.859 137.529L177.822 131.344C177.822 131.344 174.608 40.99 173.285 41.605" stroke="#262262" stroke-miterlimit="10" fill="#FFFFFF" fill-rule="evenodd" clip-rule="evenodd"/><rect x="142.959" y="226.99" width="24.51" height="1.594" stroke="#262262" stroke-miterlimit="10" fill="#FFFFFF" fill-rule="evenodd" clip-rule="evenodd"/><rect x="142.959" y="228.584" width="24.51" height="1.595" stroke="#262262" stroke-miterlimit="10" fill="#FFFFFF" fill-rule="evenodd" clip-rule="evenodd"/><path d="M185.192 28.361C183.323 30.911 183.546 40.625 187.172 46.07 190.798 51.515 179.943 38.392 179.943 38.392L185.192 28.361Z" stroke="#262262" stroke-miterlimit="10" fill="#FFFFFF" fill-rule="evenodd" clip-rule="evenodd"/><rect x="150.018" y="136.371" width="31.008" height="1.58" stroke="#262262" stroke-miterlimit="10" fill="#FFFFFF" fill-rule="evenodd" clip-rule="evenodd"/><path d="M171.108 135.21 171.108 149.765 160.383 149.765 160.383 135.699 160.383 135.21" stroke="#262262" stroke-miterlimit="10" fill="#FFFFFF"/><rect x="150.018" y="134.791" width="31.008" height="1.58" stroke="#262262" stroke-miterlimit="10" fill="#FFFFFF" fill-rule="evenodd" clip-rule="evenodd"/><line x1="160.383" y1="135.581" x2="171.108" y2="135.581" stroke="#262262" stroke-width="0.3" stroke-miterlimit="10" fill="#FFFFFF"/><rect x="153.748" y="152.435" width="21.806" height="8.087" stroke="#262262" stroke-width="0.5" stroke-miterlimit="10" fill="#FFFFFF"/><rect x="154.745" y="153.587" width="19.9" height="5.783" stroke="#262262" stroke-width="0.3" stroke-miterlimit="10" stroke-dasharray="1 1" fill="#FFFFFF"/><rect x="155.929" y="163.134" width="17.445" height="4.043" stroke="#262262" stroke-width="0.5" stroke-miterlimit="10" fill="#FFFFFF"/><rect x="156.688" y="163.891" width="15.927" height="2.531" stroke="#262262" stroke-width="0.3" stroke-miterlimit="10" stroke-dasharray="1 1" fill="#FFFFFF"/><path d="M257.663 57.39C257.537 61.572 253.263 130.771 253.263 130.771L252.054 147.916C252.054 147.916 254.264 185.771 253.864 193.771 253.464 201.771 252.276 266.178 252.276 266.178L252.267 268.127C252.267 268.127 252.976 270.544 248.32 270.559 243.664 270.572 212.17 270.559 212.17 270.559 212.17 270.559 205.314 270.602 202.387 263.911 199.459 257.219 195.778 248 195.838 241.491 195.9 234.982 195.914 149.537 195.914 149.537L218.91 37.877 257.663 57.39Z" stroke="#262262" stroke-miterlimit="10" fill="#FFFFFF" fill-rule="evenodd" clip-rule="evenodd"/><path d="M217.017 34.995C215.201 33.49 213.384 31.986 211.197 30.174 211.468 33.158 211.902 35.761 211.907 38.364 211.918 45.031 211.695 51.698 211.688 58.364 211.687 59.164 212.345 60.027 212.858 60.746 213.347 61.432 214.045 61.969 214.65 62.571 216.144 63.317 217.636 64.063 219.129 64.809 221.018 63.308 222.906 61.808 224.795 60.306 225.045 59.229 225.587 58.123 225.481 57.083 225.3 55.322 224.79 53.578 224.276 51.87 222.891 47.253 221.43 42.66 220.001 38.056 219.005 37.036 218.011 36.015 217.017 34.995Z" stroke="#262262" stroke-miterlimit="10" fill="#FFFFFF" fill-rule="evenodd" clip-rule="evenodd"/><path d="M219.128 62.611C217.636 61.864 216.144 61.119 214.649 60.372 213.659 59.919 212.669 59.466 211.508 58.936 208.485 89.758 201.195 119.718 195.661 149.971 195.98 150.052 196.3 150.135 196.619 150.216 197.404 149.035 198.19 147.856 198.983 146.664 201.992 139.939 204.996 133.227 208 126.515 210.918 118.989 213.837 111.461 216.756 103.935 216.836 103.464 216.916 102.992 216.995 102.519 220.596 91.057 224.195 79.593 227.724 68.353 226.759 67.489 226.185 66.972 225.61 66.456 223.45 65.175 221.289 63.894 219.128 62.611Z" stroke="#262262" stroke-miterlimit="10" fill="#FFFFFF" fill-rule="evenodd" clip-rule="evenodd"/><rect x="228.056" y="189.876" width="24.697" height="2.037" stroke="#262262" stroke-miterlimit="10" fill="#FFFFFF" fill-rule="evenodd" clip-rule="evenodd"/><g><path d="M252.753 191.914C252.753 191.914 252.753 194.028 252.753 196.613 252.753 199.197 250.202 201.312 247.084 201.312L233.725 201.312C230.607 201.312 228.056 199.197 228.056 196.613 228.056 194.029 228.056 191.914 228.056 191.914" fill="#FFFFFF" fill-rule="evenodd" clip-rule="evenodd"/><path d="M252.753 191.914C252.753 191.914 252.753 194.028 252.753 196.613 252.753 199.197 250.202 201.312 247.084 201.312L233.725 201.312C230.607 201.312 228.056 199.197 228.056 196.613 228.056 194.029 228.056 191.914 228.056 191.914" stroke="#262262" stroke-miterlimit="10" fill="none"/></g><path d="M249.542 258.387C252.748 259.994 255.953 261.602 259.158 263.209 259.816 263.375 260.474 263.541 261.549 263.812 263.781 256.668 266.088 249.513 268.256 242.314 273.057 226.371 277.197 210.251 279.461 193.742 281.617 178.004 283.811 162.1 281.315 146.297 279.099 132.265 275.88 118.329 272.142 104.613 268.037 89.548 262.836 74.782 258.102 59.89 257.816 58.99 257.433 58.119 256.609 57.291 256.574 58.027 256.543 58.762 256.504 59.497 255.481 78.447 254.481 97.398 253.416 116.347 253.07 122.529 252.275 128.698 252.207 134.877 252.154 139.623 252.578 144.436 253.387 149.116 255.403 160.777 254.184 172.136 251.227 183.47 245.12 206.872 239.149 230.31 233.192 253.454 237.637 254.482 242.305 255.498 246.93 256.683 247.883 256.926 248.676 257.802 249.542 258.387Z" stroke="#262262" stroke-miterlimit="10" fill="#FFFFFF" fill-rule="evenodd" clip-rule="evenodd"/><ellipse cx="247.148" cy="258.512" rx="15.056" ry="4.726" stroke="#262262" stroke-miterlimit="10" fill="#FFFFFF" fill-rule="evenodd" clip-rule="evenodd" transform="matrix(0.9401 0.3408 -0.3408 0.9401 102.891 -68.75)"/><line x1="233.897" y1="189.617" x2="233.897" y2="136.71" stroke="#262262" stroke-miterlimit="10" fill="#FFFFFF" fill-rule="evenodd" clip-rule="evenodd"/><rect x="247.986" y="233.44" width="8.087" height="21.807" stroke="#262262" stroke-miterlimit="10" fill="#FFFFFF" transform="matrix(-0.3265 0.9452 -0.9452 -0.3265 565.273 85.9086)"/><line x1="260.671" y1="249.092" x2="261.727" y2="246.035" stroke="#262262" stroke-width="0.5" stroke-miterlimit="10" fill="#FFFFFF"/><line x1="243.629" y1="239.786" x2="242.573" y2="242.843" stroke="#262262" stroke-width="0.5" stroke-miterlimit="10" fill="#FFFFFF"/><rect x="290.857" y="225.473" width="101.762" height="37.741" stroke="#262262" stroke-miterlimit="10" fill="#FFFFFF"/><line x1="296.667" y1="236.962" x2="296.667" y2="253.833" stroke="#262262" stroke-miterlimit="10" fill="#FFFFFF"/><line x1="387.001" y1="234.907" x2="387.001" y2="251.779" stroke="#262262" stroke-miterlimit="10" fill="#FFFFFF"/><g><line x1="13.545" y1="210.46" x2="21.719" y2="210.46" stroke="#F26522" stroke-width="0.7" stroke-miterlimit="10" stroke-dasharray="1 1" fill="none"/><g><rect x="12.982" y="206.804" width="1.125" height="7.314" fill="#F26522"/></g><g><circle cx="23.621" cy="210.46" r="2.114" fill="#F26522"/></g></g><g><line x1="3.922" y1="177.833" x2="12.096" y2="177.833" stroke="#F26522" stroke-width="0.7" stroke-miterlimit="10" stroke-dasharray="1 1" fill="none"/><g><rect x="3.359" y="174.177" width="1.125" height="7.315" fill="#F26522"/></g><g><circle cx="13.998" cy="177.834" r="2.114" fill="#F26522"/></g></g><g><line x1="64.631" y1="85.801" x2="64.631" y2="93.975" stroke="#F26522" stroke-width="0.7" stroke-miterlimit="10" stroke-dasharray="1 1" fill="none"/><g><rect x="60.972" y="85.238" width="7.315" height="1.125" fill="#F26522"/></g><g><circle cx="64.63" cy="95.876" r="2.114" fill="#F26522"/></g></g><g><line x1="335.963" y1="9.668" x2="327.789" y2="9.668" stroke="#F26522" stroke-width="0.7" stroke-miterlimit="10" stroke-dasharray="1 1" fill="none"/><g><rect x="335.4" y="6.01" width="1.125" height="7.314" fill="#F26522"/></g><g><circle cx="325.887" cy="9.667" r="2.114" fill="#F26522"/></g></g><g><line x1="386.916" y1="212.981" x2="386.916" y2="232.823" stroke="#F26522" stroke-miterlimit="10" stroke-dasharray="1 1" fill="none"/><g><rect x="385.289" y="212.641" width="3.252" height="0.5" fill="#F26522"/></g><g><path d="M388.896 232.353C388.104 232.821 387.484 233.55 387 234.326 386.523 233.542 385.878 232.845 385.104 232.353L385.104 231.884C385.854 232.375 386.509 232.966 387 233.697 387.499 232.967 388.158 232.353 388.896 231.878L388.896 232.353Z" fill="#F26522"/><path d="M388.896 231.224C388.104 231.693 387.484 232.422 387 233.197 386.523 232.415 385.878 231.717 385.104 231.224L385.104 230.758C385.854 231.248 386.509 231.838 387 232.568 387.499 231.838 388.158 231.224 388.896 230.748L388.896 231.224Z" fill="#F26522"/></g></g><g><g><path d="M150.018 136.371 145.667 136.371 145.667 99.481 118.904 99.481" stroke="#262262" stroke-width="0.5" stroke-miterlimit="10" fill="none"/><g><path d="M119.9 98.634 119.053 99.481 119.9 100.329 119.181 100.329 118.333 99.481 119.181 98.634Z" fill="#262262"/></g></g></g><g><g><path d="M155.929 164.978 141.75 164.978 141.75 209.131 104.821 209.131" stroke="#262262" stroke-width="0.5" stroke-miterlimit="10" fill="none"/><g><path d="M105.817 208.283 104.969 209.131 105.817 209.978 105.098 209.978 104.25 209.131 105.098 208.283Z" fill="#262262"/></g></g></g><g><g><path d="M197 33.499 197 9.376 210.625 9.376" stroke="#262262" stroke-width="0.5" stroke-miterlimit="10" fill="none"/><g><path d="M209.629 10.224 210.477 9.376 209.629 8.529 210.349 8.529 211.196 9.376 210.349 10.224Z" fill="#262262"/></g></g></g><g><g><path d="M262.371 247.8 276 247.8 276 236.962 288.429 236.962" stroke="#262262" stroke-width="0.5" stroke-miterlimit="10" fill="none"/><g><path d="M287.433 237.81 288.281 236.962 287.433 236.114 288.152 236.114 289 236.962 288.152 237.81Z" fill="#262262"/></g></g></g><g><g><path d="M153.748 156.478 124.333 156.478 124.333 169.796 115.57 169.796" stroke="#262262" stroke-width="0.5" stroke-miterlimit="10" fill="none"/><g><path d="M116.566 168.948 115.719 169.796 116.566 170.644 115.847 170.644 114.999 169.796 115.847 168.948Z" fill="#262262"/></g></g></g><g><path d="M231.281 197.103C231.281 197.438 231.552 197.707 231.886 197.707 232.021 197.707 232.146 197.663 232.245 197.588L233.71 196.122C233.74 196.157 233.78 196.182 233.825 196.192L233.335 198.038 233.295 198.188C233.266 198.422 233.375 198.663 233.596 198.788 233.886 198.957 234.255 198.858 234.42 198.568 234.485 198.453 234.511 198.332 234.5 198.207L234.5 198.203 234.45 198.019 234.445 198.008 234.44 197.998 234.435 197.989 233.959 196.193C234.004 196.182 234.05 196.158 234.079 196.123L235.539 197.583C235.564 197.6 235.584 197.614 235.609 197.628 235.899 197.793 236.269 197.693 236.434 197.403 236.599 197.113 236.503 196.743 236.213 196.577 236.189 196.562 236.163 196.552 236.139 196.542L236.134 196.542 235.969 196.497 235.953 196.497 235.943 196.493 234.148 196.007C234.153 195.983 234.158 195.962 234.158 195.938 234.158 195.912 234.153 195.892 234.148 195.867L235.988 195.376 236.138 195.336C236.162 195.326 236.188 195.316 236.212 195.302 236.502 195.132 236.598 194.761 236.433 194.472 236.268 194.181 235.898 194.081 235.608 194.251 235.583 194.267 235.563 194.282 235.538 194.296L235.478 194.352 234.078 195.751C234.049 195.717 234.009 195.692 233.963 195.682L234.453 193.847 234.498 193.692 234.498 193.682C234.503 193.662 234.503 193.637 234.503 193.613 234.503 193.278 234.229 193.007 233.894 193.007 233.564 193.007 233.289 193.278 233.289 193.613 233.289 193.642 233.289 193.667 233.294 193.693L233.294 193.703 233.3 193.713 233.329 193.818 233.339 193.848 233.824 195.683C233.779 195.693 233.739 195.718 233.709 195.752L232.345 194.388 232.27 194.313C232.08 194.153 231.805 194.123 231.58 194.252 231.29 194.417 231.19 194.788 231.36 195.078 231.43 195.198 231.53 195.288 231.65 195.338L231.655 195.338 231.805 195.378 233.64 195.869C233.635 195.894 233.629 195.914 233.629 195.94 233.629 195.964 233.635 195.984 233.64 196.009L231.794 196.509 231.774 196.509 231.649 196.544C231.432 196.637 231.281 196.853 231.281 197.103Z" fill="#262262"/></g><g><path d="M148.522 234.903C148.517 234.866 148.512 234.829 148.507 234.792 148.574 234.755 148.624 234.717 148.669 234.671 148.578 234.296 148.512 233.859 148.506 233.414 148.504 233.059 148.535 232.736 148.591 232.428 148.633 232.219 148.661 232.101 148.654 232.067 148.656 232.05 148.642 232.034 148.629 232.028 148.615 232.023 148.527 232.008 148.378 232.004 148.378 231.942 148.378 231.882 148.378 231.819 148.649 231.822 148.9 231.819 149.132 231.821 149.358 231.813 149.578 231.819 149.79 231.807 149.732 231.852 149.678 231.902 149.627 231.952 149.432 231.966 149.319 231.992 149.277 232.009 149.254 232.016 149.221 232.045 149.192 232.083 149.169 232.121 148.99 232.332 148.875 232.798 148.782 233.18 148.784 233.589 148.877 233.968 148.93 234.179 149.025 234.424 149.195 234.663 149.359 234.676 149.49 234.687 149.572 234.695 149.817 234.7 150.013 234.698 150.15 234.665 150.066 234.551 149.983 234.406 149.912 234.211 149.971 234.214 150.029 234.217 150.09 234.219 150.179 234.446 150.352 234.713 150.695 234.91 150.567 234.917 150.449 234.917 150.333 234.916 150.066 234.913 149.803 234.908 149.542 234.903 149.425 234.899 149.308 234.897 149.193 234.895 149.037 234.895 148.812 234.9 148.522 234.903Z"/><path d="M152.826 234.946C152.299 234.937 151.696 234.913 151.138 234.673 150.59 234.438 150.178 233.999 150.168 233.389 150.164 232.964 150.357 232.614 150.657 232.362 150.955 232.106 151.34 231.963 151.726 231.877 152.114 231.793 152.505 231.778 152.893 231.776 153.265 231.778 153.512 231.789 153.699 231.85 153.883 231.91 154.031 232.025 154.141 232.244 154.254 232.47 154.308 232.795 154.305 233.237 154.298 233.707 154.226 234.11 154.099 234.379 153.973 234.65 153.811 234.789 153.617 234.859 153.423 234.933 153.181 234.946 152.826 234.946ZM152.698 234.833C153.011 234.837 153.175 234.782 153.282 234.594 153.391 234.403 153.403 234.017 153.395 233.399 153.392 232.76 153.365 232.318 153.249 232.107 153.152 231.934 152.966 231.891 152.606 231.891 152.274 231.898 151.909 231.958 151.555 232.152 151.209 232.348 150.897 232.705 150.871 233.278 150.856 233.68 151.005 234.017 151.23 234.261 151.454 234.503 151.719 234.645 151.958 234.72 152.201 234.798 152.447 234.822 152.698 234.833Z"/><path d="M157.472 233.969C157.486 233.895 157.496 233.816 157.503 233.739 157.847 233.744 158.147 233.756 158.403 233.747 158.642 233.747 158.89 233.744 159.148 233.725 159.139 233.785 159.127 233.842 159.112 233.902 159.033 233.928 158.955 233.961 158.876 233.995 158.805 234.172 158.726 234.321 158.665 234.423 158.619 234.502 158.539 234.652 158.352 234.805 157.951 234.884 157.63 234.903 157.399 234.927 157.168 234.94 156.949 234.953 156.742 234.947 156.181 234.934 155.817 234.94 155.45 234.711 155.09 234.486 154.828 234.02 154.828 233.366 154.824 232.698 155.094 232.225 155.461 232.008 155.832 231.786 156.227 231.786 156.83 231.779 157.045 231.777 157.267 231.787 157.497 231.798 157.726 231.816 157.975 231.833 158.226 231.88 158.244 231.887 158.261 231.892 158.278 231.901 158.411 232.016 158.55 232.22 158.654 232.541 158.582 232.541 158.51 232.538 158.438 232.537 158.379 232.373 158.293 232.251 158.203 232.149 158.028 232.046 157.831 231.979 157.629 231.945 157.429 231.908 157.224 231.888 157.005 231.886 156.597 231.886 156.335 231.933 156.107 232.138 155.886 232.342 155.752 232.723 155.757 233.276 155.758 233.866 155.902 234.306 156.138 234.55 156.375 234.795 156.618 234.849 156.99 234.845 157.189 234.847 157.433 234.815 157.723 234.747 157.814 234.66 157.887 234.566 157.943 234.462 158.06 234.232 158.07 234.063 158.049 234.04 158.022 234.004 157.836 233.987 157.472 233.969Z"/><path d="M160.323 234.946C159.774 234.939 159.56 234.877 159.532 234.665 159.494 234.45 159.601 234.021 159.614 233.39 159.618 232.955 159.573 232.595 159.56 232.354 159.55 232.11 159.55 231.977 159.66 231.895 159.766 231.815 160.001 231.777 160.391 231.777 160.76 231.781 161.134 231.824 161.409 231.936 161.688 232.055 161.86 232.232 161.95 232.458 162.038 232.679 162.047 232.96 162.048 233.271 162.046 233.613 162.04 233.915 161.95 234.173 161.857 234.434 161.671 234.647 161.364 234.768 161.064 234.901 160.677 234.944 160.323 234.946ZM160.636 234.768C160.909 234.757 161.215 234.663 161.442 234.439 161.67 234.22 161.801 233.865 161.807 233.391 161.81 232.89 161.671 232.512 161.402 232.258 161.185 232.05 160.873 231.967 160.556 231.953 160.257 231.94 160.136 232.01 160.145 232.198 160.144 232.381 160.286 232.736 160.309 233.282 160.328 233.673 160.271 233.998 160.238 234.227 160.2 234.458 160.179 234.594 160.232 234.668 160.282 234.739 160.413 234.777 160.636 234.768Z"/></g><g><line x1="218.595" y1="195.936" x2="228.66" y2="195.936" stroke="#F26522" stroke-width="0.7" stroke-miterlimit="10" stroke-dasharray="1 1" fill="none"/><g><rect x="226.234" y="193.625" width="4.621" height="4.622" fill="#F26522"/></g><g><rect x="218.032" y="192.28" width="1.125" height="7.314" fill="#F26522"/></g></g><g><line x1="154.234" y1="247.951" x2="154.234" y2="237.886" stroke="#F26522" stroke-width="0.7" stroke-miterlimit="10" stroke-dasharray="1 1" fill="none"/><g><rect x="151.924" y="235.69" width="4.621" height="4.621" fill="#F26522"/></g><g><rect x="150.578" y="247.388" width="7.314" height="1.125" fill="#F26522"/></g></g><g><line x1="277.665" y1="38.547" x2="277.665" y2="18.706" stroke="#F26522" stroke-miterlimit="10" stroke-dasharray="1 1" fill="none"/><g><rect x="276.04" y="38.387" width="3.252" height="0.5" fill="#F26522"/></g><g><path d="M275.685 19.175C276.477 18.707 277.097 17.978 277.581 17.202 278.058 17.986 278.703 18.683 279.477 19.175L279.477 19.644C278.727 19.153 278.072 18.562 277.581 17.831 277.082 18.561 276.423 19.175 275.685 19.65L275.685 19.175Z" fill="#F26522"/><path d="M275.685 20.304C276.477 19.835 277.097 19.106 277.581 18.331 278.058 19.113 278.703 19.811 279.477 20.304L279.477 20.77C278.727 20.28 278.072 19.69 277.581 18.96 277.082 19.69 276.423 20.304 275.685 20.78L275.685 20.304Z" fill="#F26522"/></g></g><g><line x1="106.336" y1="118.999" x2="86.494" y2="118.999" stroke="#F26522" stroke-miterlimit="10" stroke-dasharray="1 1" fill="none"/><g><rect x="106.176" y="117.372" width="0.5" height="3.252" fill="#F26522"/></g><g><path d="M86.964 120.979C86.496 120.187 85.767 119.567 84.991 119.083 85.775 118.606 86.472 117.961 86.964 117.187L87.433 117.187C86.942 117.937 86.351 118.592 85.62 119.083 86.35 119.582 86.964 120.241 87.439 120.979L86.964 120.979Z" fill="#F26522"/><path d="M88.093 120.979C87.624 120.187 86.895 119.567 86.12 119.083 86.902 118.606 87.6 117.961 88.093 117.187L88.559 117.187C88.07 117.937 87.479 118.592 86.749 119.083 87.478 119.582 88.093 120.241 88.569 120.979L88.093 120.979Z" fill="#F26522"/></g></g><g><line x1="23.081" y1="127.448" x2="23.081" y2="147.29" stroke="#F26522" stroke-miterlimit="10" stroke-dasharray="1 1" fill="none"/><g><rect x="21.454" y="127.108" width="3.252" height="0.5" fill="#F26522"/></g><g><path d="M25.062 146.82C24.27 147.288 23.65 148.017 23.166 148.793 22.689 148.009 22.044 147.312 21.27 146.82L21.27 146.351C22.02 146.842 22.675 147.433 23.166 148.164 23.665 147.434 24.324 146.82 25.062 146.345L25.062 146.82Z" fill="#F26522"/><path d="M25.062 145.691C24.27 146.16 23.65 146.889 23.166 147.664 22.689 146.882 22.044 146.184 21.27 145.691L21.27 145.225C22.02 145.714 22.675 146.305 23.166 147.035 23.665 146.306 24.324 145.691 25.062 145.215L25.062 145.691Z" fill="#F26522"/></g></g><g><line x1="62.322" y1="240.942" x2="62.322" y2="221.101" stroke="#F26522" stroke-miterlimit="10" stroke-dasharray="1 1" fill="none"/><g><rect x="60.697" y="240.782" width="3.252" height="0.5" fill="#F26522"/></g><g><path d="M60.342 221.57C61.135 221.102 61.754 220.373 62.238 219.597 62.715 220.381 63.361 221.078 64.134 221.57L64.134 222.039C63.384 221.548 62.728 220.957 62.238 220.226 61.74 220.956 61.08 221.57 60.342 222.045L60.342 221.57Z" fill="#F26522"/><path d="M60.342 222.699C61.135 222.23 61.754 221.501 62.238 220.726 62.715 221.508 63.361 222.206 64.134 222.699L64.134 223.165C63.384 222.676 62.728 222.085 62.238 221.355 61.74 222.084 61.08 222.699 60.342 223.175L60.342 222.699Z" fill="#F26522"/></g></g><g><line x1="323.686" y1="202.479" x2="323.686" y2="222.321" stroke="#F26522" stroke-miterlimit="10" stroke-dasharray="1 1" fill="none"/><g><rect x="322.059" y="202.139" width="3.252" height="0.5" fill="#F26522"/></g><g><path d="M325.666 221.851C324.874 222.319 324.254 223.048 323.77 223.824 323.293 223.04 322.648 222.343 321.874 221.851L321.874 221.382C322.624 221.873 323.279 222.464 323.77 223.195 324.269 222.465 324.928 221.851 325.666 221.376L325.666 221.851Z" fill="#F26522"/><path d="M325.666 220.722C324.874 221.191 324.254 221.92 323.77 222.695 323.293 221.913 322.648 221.215 321.874 220.722L321.874 220.256C322.624 220.746 323.279 221.336 323.77 222.066 324.269 221.336 324.928 220.722 325.666 220.246L325.666 220.722Z" fill="#F26522"/></g></g></svg>