<svg width="207.84" height="103.5" viewBox="0 0 207.84 103.5" xmlns="http://www.w3.org/2000/svg" xmlns:xlink="http://www.w3.org/1999/xlink" id="Layer_1" xml:space="preserve" overflow="hidden"><path d="M104.207 8.426C104.207 8.426 181.893 5.294 194.916 1.797L203.42 16.526 183.577 50.894 104.207 50.894 24.837 50.894 4.994 16.525 13.498 1.796C26.522 5.294 104.207 8.426 104.207 8.426Z" stroke="#262262" stroke-width="0.75" stroke-miterlimit="10" fill="#FFFFFF"/><path d="M103.991 50.638 183.361 50.638 187.623 43.302C176.477 41.838 162.04 39.832 103.991 38.569 45.943 39.832 31.506 41.839 20.359 43.302L24.621 50.638 103.991 50.638Z" stroke="#262262" stroke-width="0.5" stroke-miterlimit="10" fill="#FFFFFF"/><path d="M187.399 44.218C176.296 42.766 161.917 40.776 104.089 39.548 46.263 40.835 31.879 42.839 20.775 44.302" stroke="#262262" stroke-width="0.5" stroke-miterlimit="10" fill="#FFFFFF"/><rect x="87.199" y="42.438" width="34.016" height="5.67" stroke="#262262" stroke-width="0.5" stroke-miterlimit="10" fill="#FFFFFF"/><line x1="88.05" y1="47.966" x2="88.05" y2="42.58" stroke="#262262" stroke-width="0.4" stroke-miterlimit="10" fill="#E6DBCF"/><path d="" stroke="#2F6475" stroke-width="0.75" stroke-miterlimit="10" fill="#E6DBCF"/><line x1="120.365" y1="42.58" x2="120.365" y2="47.966" stroke="#262262" stroke-width="0.4" stroke-miterlimit="10" fill="#E6DBCF"/><line x1="43.367" y1="35.984" x2="43.367" y2="39.617" stroke="#F26522" stroke-width="0.7" stroke-miterlimit="10" stroke-dasharray="1 1" fill="none"/><g><rect x="41.742" y="35.734" width="3.25" height="0.5" fill="#F26522"/></g><g><circle cx="43.367" cy="40.463" r="0.94" fill="#F26522"/></g><g><line x1="36.003" y1="47.188" x2="36.003" y2="43.554" stroke="#F26522" stroke-width="0.7" stroke-miterlimit="10" stroke-dasharray="1 1" fill="none"/><g><rect x="34.378" y="46.938" width="3.25" height="0.5" fill="#F26522"/></g><g><circle cx="36.003" cy="42.708" r="0.939" fill="#F26522"/></g></g><line x1="126.034" y1="45.042" x2="120.365" y2="45.042" stroke="#F26522" stroke-width="0.7" stroke-miterlimit="10" stroke-dasharray="1 1" fill="none"/><g><rect x="125.884" y="44.067" width="0.3" height="1.95" fill="#F26522"/></g><g><circle cx="120.053" cy="45.042" r="0.79" fill="#F26522"/></g><line x1="159.659" y1="45.901" x2="159.659" y2="49.534" stroke="#F26522" stroke-width="0.7" stroke-miterlimit="10" stroke-dasharray="1 1" fill="none"/><g><rect x="158.034" y="45.651" width="3.25" height="0.5" fill="#F26522"/></g><g><circle cx="159.659" cy="50.38" r="0.939" fill="#F26522"/></g><line x1="72.935" y1="46.375" x2="87.108" y2="46.375" stroke="#F26522" stroke-width="0.7" stroke-miterlimit="10" stroke-dasharray="1 1" fill="none"/><g><rect x="72.685" y="44.75" width="0.5" height="3.25" fill="#F26522"/></g><g><path d="M85.237 45.026C85.549 45.553 86.035 45.968 86.551 46.29 86.03 46.607 85.564 47.037 85.237 47.554L84.924 47.554C85.251 47.053 85.645 46.617 86.132 46.29 85.645 45.957 85.236 45.517 84.919 45.026L85.237 45.026Z" fill="#F26522"/><path d="M84.484 45.026C84.797 45.553 85.283 45.968 85.799 46.29 85.278 46.607 84.812 47.037 84.484 47.554L84.172 47.554C84.499 47.053 84.893 46.617 85.379 46.29 84.893 45.957 84.483 45.517 84.166 45.026L84.484 45.026Z" fill="#F26522"/></g><path d="" stroke="#000000" stroke-width="0.5" stroke-miterlimit="10" fill="none"/><path d="" stroke="#000000" stroke-width="0.5" stroke-miterlimit="10" fill="none"/><path d="M205.896 68.328 197.701 53.62C194.804 54.362 142.347 59.162 106.575 60.062 70.804 59.162 18.346 54.362 15.449 53.62L7.254 68.328C60.674 75.44 174.729 72.016 205.896 68.328Z" stroke="#262262" stroke-width="0.75" stroke-miterlimit="10" fill="#E6DBCF"/><path d="M7.362 68.256 15.866 54.264C28.889 57.586 106.575 60.562 106.575 60.562 106.575 60.562 184.26 57.586 197.284 54.264L205.788 68.256 185.945 100.906 106.575 100.906 27.205 100.906 7.362 68.256" stroke="#262262" stroke-miterlimit="10" fill="#FFFFFF"/><g><path d="M16.215 54.139 16.446 57.102 17.883 54.497 18.274 57.445 19.613 54.789 20.087 57.725 21.369 55.042 21.892 57.969 23.133 55.268 23.687 58.188 24.899 55.474 25.482 58.39 26.673 55.665 27.274 58.577 28.449 55.845 29.069 58.752 30.23 56.015 30.862 58.92 32.013 56.178 32.658 59.081 33.797 56.334 34.455 59.234 35.585 56.483 36.25 59.382 37.372 56.627 38.049 59.523 39.162 56.766 39.846 59.66 40.956 56.899 41.645 59.793 42.74 57.03 43.435 59.921 44.526 57.155 45.225 60.046 46.313 57.279 47.02 60.167 48.105 57.399 48.813 60.287 49.897 57.518 50.61 60.405 51.69 57.633 52.41 60.519 53.486 57.747 54.206 60.632 55.279 57.858 56.005 60.742 57.075 57.968 57.805 60.851 58.875 58.075 59.608 60.958 60.677 58.181 61.415 61.063 62.479 58.284 63.224 61.165 64.288 58.386 65.033 61.267 66.095 58.486 66.846 61.366 67.903 58.584 68.655 61.464 69.709 58.681 70.462 61.561 71.513 58.776 72.268 61.655 73.317 58.871 74.074 61.749 75.123 58.964 75.88 61.841 76.927 59.056 77.687 61.933 78.732 59.146 79.493 62.022 80.536 59.235 81.3 62.11 82.341 59.323 83.106 62.197 84.142 59.409 84.911 62.283 85.946 59.494 86.715 62.368 87.745 59.578 88.517 62.452 89.547 59.662 90.317 62.534 91.346 59.743 92.117 62.615 93.145 59.824 93.921 62.695 94.947 59.903 95.724 62.774 96.751 59.981 97.534 62.852 98.556 60.059 99.334 62.929 100.353 60.135 101.135 63.005 102.155 60.21 102.937 63.08 103.95 60.284 104.73 63.152 105.747 60.357 106.626 63.228 107.419 60.359 108.428 63.156 109.215 60.288 110.229 63.083 111.01 60.214 112.024 63.009 112.806 60.14 113.825 62.934 114.602 60.063 115.624 62.855 116.397 59.985 117.421 62.777 118.194 59.905 119.218 62.698 119.988 59.826 121.014 62.618 121.785 59.746 122.81 62.538 123.579 59.665 124.608 62.455 125.375 59.582 126.404 62.372 127.171 59.499 128.204 62.287 128.968 59.413 130.001 62.202 130.765 59.328 131.795 62.116 132.551 59.242 133.584 62.029 134.34 59.154 135.376 61.94 136.13 59.065 137.169 61.851 137.923 58.974 138.966 61.759 139.715 58.881 140.762 61.665 141.509 58.787 142.559 61.57 143.309 58.691 144.354 61.474 145.099 58.596 146.148 61.377 146.893 58.498 147.948 61.277 148.688 58.397 149.749 61.176 150.49 58.294 151.55 61.074 152.29 58.191 153.355 60.969 154.092 58.086 155.162 60.862 155.894 57.979 156.969 60.754 157.701 57.87 158.776 60.644 159.506 57.758 160.587 60.53 161.312 57.644 162.396 60.416 163.118 57.528 164.207 60.298 164.924 57.41 166.021 60.177 166.731 57.287 167.831 60.054 168.537 57.162 169.643 59.924 170.345 57.032 171.452 59.794 172.149 56.901 173.264 59.66 173.953 56.765 175.074 59.521 175.755 56.625 176.882 59.379 177.556 56.481 178.689 59.231 179.351 56.331 180.495 59.077 181.146 56.174 182.297 58.917 182.937 56.012 184.098 58.75 184.72 55.842 185.896 58.573 186.499 55.662 187.689 58.386 188.271 55.47 189.485 58.185 190.042 55.264 191.283 57.965 191.806 55.038 193.085 57.722 193.555 54.787 194.892 57.442 195.279 54.496 196.712 57.101 196.934 54.14" stroke="#262262" stroke-width="0.3" stroke-miterlimit="10" fill="none"/></g><path d="M185.946 100.706 184.897 98.44 183.859 100.711 182.811 98.446 181.772 100.716 180.723 98.451 179.684 100.721 178.634 98.456 177.596 100.727 176.546 98.461 175.509 100.732 174.458 98.467 173.421 100.737 172.37 98.473 171.332 100.743 170.282 98.478 169.244 100.748 168.194 98.482 167.156 100.753 166.106 98.488 165.067 100.759 164.018 98.493 162.979 100.764 161.93 98.499 160.892 100.77 159.841 98.504 158.803 100.775 157.753 98.51 156.715 100.78 155.664 98.515 154.626 100.786 153.576 98.521 152.538 100.791 151.487 98.526 150.449 100.796 149.399 98.531 148.36 100.802 147.311 98.536 146.271 100.807 145.223 98.542 144.185 100.812 143.136 98.547 142.098 100.817 141.048 98.552 140.009 100.822 138.96 98.558 137.922 100.828 136.871 98.563 135.833 100.833 134.783 98.567 133.745 100.838 132.694 98.573 131.656 100.843 130.606 98.578 129.567 100.849 128.518 98.583 127.479 100.854 126.428 98.589 125.389 100.859 124.339 98.594 123.3 100.864 122.249 98.599 121.21 100.869 120.159 98.604 119.12 100.875 118.07 98.609 117.031 100.88 115.981 98.615 114.942 100.885 113.891 98.62 112.852 100.891 111.801 98.625 110.761 100.896 109.71 98.63 108.67 100.901 107.617 98.636 106.575 100.906 105.53 98.639 104.486 100.906 103.442 98.639 102.399 100.906 101.355 98.639 100.311 100.906 99.267 98.639 98.223 100.906 97.179 98.639 96.136 100.906 95.092 98.639 94.048 100.906 93.003 98.639 91.959 100.906 90.915 98.639 89.871 100.906 88.827 98.639 87.783 100.906 86.739 98.639 85.694 100.906 84.65 98.639 83.606 100.906 82.563 98.639 81.519 100.906 80.475 98.639 79.43 100.906 78.386 98.639 77.342 100.906 76.298 98.639 75.253 100.906 74.209 98.639 73.165 100.906 72.12 98.639 71.076 100.906 70.032 98.639 68.987 100.906 67.943 98.639 66.898 100.906 65.855 98.639 64.813 100.906 63.769 98.639 62.725 100.906 61.681 98.639 60.637 100.906 59.593 98.639 58.549 100.906 57.504 98.639 56.46 100.906 55.416 98.639 54.372 100.906 53.327 98.639 52.283 100.906 51.239 98.639 50.194 100.906 49.15 98.639 48.105 100.906 47.061 98.639 46.017 100.906 44.972 98.639 43.927 100.906 42.882 98.639 41.837 100.906 40.792 98.639 39.747 100.906 38.703 98.639 37.658 100.906 36.614 98.639 35.569 100.906 34.523 98.639 33.479 100.906 32.434 98.639 31.388 100.906 30.343 98.639 29.297 100.906 28.25 98.639 27.204 100.906" stroke="#262262" stroke-width="0.3" stroke-miterlimit="10" fill="none"/><path d="M13.966 79.138 16.413 78.795 14.987 80.813 17.434 80.47 16.008 82.487 18.455 82.145 17.029 84.163 19.477 83.819 18.051 85.838 20.497 85.495 19.072 87.513 21.519 87.17 20.094 89.188 22.54 88.846 21.115 90.864 23.562 90.521 22.136 92.539 24.583 92.195 23.157 94.214 25.604 93.871 24.179 95.89 26.626 95.547 25.201 97.565 27.647 97.224 26.223 99.242 28.671 98.901 27.246 100.921" stroke="#262262" stroke-width="0.3" stroke-miterlimit="10" fill="none"/><path d="M199.02 79.042 196.569 78.716 198.007 80.728 195.558 80.4 196.995 82.41 194.546 82.082 195.983 84.092 193.534 83.765 194.972 85.774 192.522 85.446 193.961 87.456 191.512 87.128 192.95 89.136 190.501 88.809 191.938 90.818 189.489 90.491 190.928 92.5 188.479 92.172 189.916 94.182 187.468 93.854 188.905 95.863 186.456 95.535 187.895 97.544 185.445 97.216 186.884 99.225 184.435 98.896 185.873 100.906" stroke="#262262" stroke-width="0.3" stroke-miterlimit="10" fill="none"/><path d="M190.458 94.125C179.312 92.661 164.875 90.655 106.826 89.391 48.778 90.655 34.342 92.661 23.194 94.125" stroke="#262262" stroke-width="0.5" stroke-miterlimit="10" fill="none"/><path d="M193.057 89.188C184.938 86.728 106.576 86.461 106.576 86.461 106.576 86.461 28.214 86.728 20.095 89.188" stroke="#262262" stroke-width="0.5" stroke-miterlimit="10" fill="none"/><g><line x1="130.281" y1="66.473" x2="130.281" y2="62.84" stroke="#F26522" stroke-width="0.7" stroke-miterlimit="10" stroke-dasharray="1 1" fill="none"/><g><rect x="128.656" y="66.223" width="3.25" height="0.5" fill="#F26522"/></g><g><circle cx="130.281" cy="61.994" r="0.939" fill="#F26522"/></g></g><g><line x1="15.563" y1="64.549" x2="12.261" y2="63.033" stroke="#F26522" stroke-width="0.7" stroke-miterlimit="10" stroke-dasharray="1 1" fill="none"/><g><rect x="15.313" y="62.924" width="0.5" height="3.25" fill="#F26522" transform="matrix(0.9086 0.4177 -0.4177 0.9086 28.3845 -0.6002)"/></g><g><circle cx="11.493" cy="62.68" r="0.94" fill="#F26522"/></g></g><g><line x1="7.914" y1="78.384" x2="10.677" y2="76.024" stroke="#F26522" stroke-width="0.7" stroke-miterlimit="10" stroke-dasharray="1 1" fill="none"/><g><rect x="7.664" y="76.759" width="0.501" height="3.249" fill="#F26522" transform="matrix(-0.7614 0.6483 -0.6483 -0.7614 64.7563 132.933)"/></g><g><circle cx="11.321" cy="75.476" r="0.94" fill="#F26522"/></g></g><g><line x1="57.896" y1="81.984" x2="57.896" y2="85.617" stroke="#F26522" stroke-width="0.7" stroke-miterlimit="10" stroke-dasharray="1 1" fill="none"/><g><rect x="56.271" y="81.734" width="3.25" height="0.5" fill="#F26522"/></g><g><circle cx="57.896" cy="86.463" r="0.939" fill="#F26522"/></g></g><g><line x1="157.835" y1="94.375" x2="157.835" y2="98.009" stroke="#F26522" stroke-width="0.7" stroke-miterlimit="10" stroke-dasharray="1 1" fill="none"/><g><rect x="156.21" y="94.125" width="3.25" height="0.5" fill="#F26522"/></g><g><circle cx="157.835" cy="98.854" r="0.939" fill="#F26522"/></g></g><g><g><circle cx="105.367" cy="21.158" r="3.535" stroke="#7C702D" stroke-width="0.3" stroke-dasharray="1.0079 1.0079" fill="none"/></g><circle cx="105.368" cy="21.158" r="1.866" stroke="#7C702D" stroke-width="0.3" fill="#B7C98F"/><g><path d="M102.143 21.677C102.396 21.747 102.407 21.818 102.765 21.995 103.291 22.279 102.949 23.296 102.456 23.309L102.237 23.312C102.368 23.541 102.026 24.333 101.376 24.202 101.446 24.642 101.065 24.9 100.647 24.778 100.285 24.674 100.074 24.631 99.432 24.727 98.637 24.847 97.719 25.062 96.801 24.487 96.722 24.437 96.625 24.483 96.6 24.535 96.549 24.636 96.575 24.941 96.318 24.938L95.368 24.908C95.028 24.897 94.771 24.39 94.827 22.811 94.883 21.167 94.921 20.523 95.602 20.539 96.271 20.555 96.456 20.566 96.456 20.566 96.667 20.579 96.698 20.721 96.728 20.814 96.746 20.869 96.825 20.894 96.88 20.872 96.967 20.837 97.822 20.499 98.555 20.444 99.231 20.394 99.502 20.198 99.956 20.282 100.492 20.382 102.238 20.38 102.76 20.39 103.272 20.399 104.084 20.59 105.174 20.6 106.212 20.609 106.179 21.811 105.246 21.727 104.51 21.661 104.482 21.749 104.228 21.709 103.783 21.641 103.29 21.676 102.941 21.69 102.783 21.697 102.611 21.645 102.143 21.677" stroke="#EB4024" stroke-width="0.5" stroke-miterlimit="10" fill="#FCD4CD"/><path d="M96.191 22.686C96.152 23.342 96.243 24.479 96.278 24.585 96.31 24.684 96.237 24.742 96.09 24.724 95.989 24.713 95.478 24.699 95.478 24.699 95.252 24.693 94.988 24.453 95.042 22.704 95.111 20.895 95.19 20.667 95.727 20.684L96.389 20.723C96.429 20.731 96.456 20.756 96.477 20.798 96.524 20.901 96.29 21.03 96.191 22.686Z" stroke="#EB4024" stroke-width="0.5" fill="#FCD4CD"/></g><line x1="82.196" y1="22.516" x2="96.019" y2="22.516" stroke="#F26522" stroke-width="0.7" stroke-miterlimit="10" stroke-dasharray="1 1" fill="none"/><g><rect x="81.946" y="20.976" width="0.5" height="3.25" fill="#F26522"/></g></g><g><g><circle cx="65.758" cy="45.248" r="3.535" stroke="#7C702D" stroke-width="0.3" stroke-dasharray="1.0079 1.0079" fill="none"/></g><circle cx="65.759" cy="45.248" r="1.866" stroke="#7C702D" stroke-width="0.3" fill="#B7C98F"/><g><path d="M62.533 45.767C62.787 45.837 62.797 45.908 63.156 46.085 63.681 46.369 63.34 47.386 62.847 47.399L62.628 47.402C62.759 47.631 62.417 48.423 61.767 48.292 61.837 48.732 61.456 48.99 61.038 48.868 60.675 48.764 60.464 48.721 59.823 48.817 59.028 48.937 58.11 49.152 57.192 48.577 57.112 48.527 57.016 48.573 56.991 48.625 56.94 48.726 56.966 49.031 56.708 49.028L55.759 48.998C55.419 48.987 55.161 48.48 55.218 46.901 55.273 45.257 55.312 44.613 55.993 44.629 56.661 44.645 56.847 44.656 56.847 44.656 57.058 44.669 57.089 44.811 57.118 44.904 57.136 44.959 57.216 44.984 57.27 44.962 57.358 44.927 58.213 44.589 58.946 44.534 59.622 44.484 59.893 44.288 60.346 44.372 60.883 44.472 62.629 44.47 63.151 44.48 63.663 44.489 64.475 44.68 65.565 44.69 66.602 44.699 66.569 45.901 65.637 45.817 64.901 45.751 64.873 45.839 64.619 45.799 64.174 45.731 63.68 45.766 63.332 45.78 63.174 45.787 63.002 45.734 62.533 45.767" stroke="#EB4024" stroke-width="0.5" stroke-miterlimit="10" fill="#FCD4CD"/><path d="M56.582 46.775C56.543 47.431 56.633 48.568 56.668 48.674 56.701 48.773 56.627 48.831 56.48 48.813 56.38 48.802 55.869 48.788 55.869 48.788 55.642 48.782 55.379 48.542 55.433 46.793 55.501 44.984 55.581 44.756 56.117 44.773L56.779 44.812C56.82 44.82 56.847 44.845 56.867 44.887 56.914 44.991 56.68 45.12 56.582 46.775Z" stroke="#EB4024" stroke-width="0.5" fill="#FCD4CD"/></g><line x1="42.587" y1="46.605" x2="56.41" y2="46.605" stroke="#F26522" stroke-width="0.7" stroke-miterlimit="10" stroke-dasharray="1 1" fill="none"/><g><rect x="42.337" y="45.065" width="0.5" height="3.25" fill="#F26522"/></g></g><g><g><circle cx="89.964" cy="72.352" r="3.535" stroke="#7C702D" stroke-width="0.3" stroke-dasharray="1.0079 1.0079" fill="none"/></g><circle cx="89.965" cy="72.352" r="1.866" stroke="#7C702D" stroke-width="0.3" fill="#B7C98F"/><g><path d="M86.74 72.871C86.994 72.94 87.004 73.013 87.363 73.189 87.888 73.473 87.547 74.49 87.054 74.504L86.835 74.507C86.966 74.736 86.624 75.528 85.974 75.396 86.044 75.837 85.663 76.094 85.245 75.973 84.882 75.87 84.671 75.826 84.03 75.923 83.235 76.043 82.317 76.257 81.399 75.683 81.319 75.632 81.223 75.678 81.198 75.73 81.147 75.831 81.173 76.136 80.915 76.134L79.966 76.103C79.626 76.093 79.368 75.586 79.425 74.006 79.48 72.361 79.519 71.719 80.2 71.734 80.868 71.749 81.054 71.761 81.054 71.761 81.265 71.775 81.296 71.916 81.325 72.01 81.343 72.065 81.423 72.09 81.477 72.068 81.565 72.033 82.42 71.694 83.153 71.64 83.829 71.59 84.1 71.394 84.553 71.478 85.09 71.579 86.836 71.576 87.358 71.585 87.87 71.595 88.682 71.786 89.772 71.795 90.809 71.804 90.776 73.006 89.844 72.922 89.108 72.855 89.08 72.943 88.826 72.904 88.381 72.835 87.887 72.871 87.539 72.884 87.38 72.891 87.208 72.838 86.74 72.871" stroke="#EB4024" stroke-width="0.5" stroke-miterlimit="10" fill="#FCD4CD"/><path d="M80.789 73.88C80.75 74.535 80.84 75.673 80.875 75.779 80.908 75.878 80.834 75.937 80.687 75.917 80.587 75.906 80.076 75.893 80.076 75.893 79.849 75.887 79.586 75.647 79.64 73.898 79.708 72.088 79.788 71.86 80.324 71.877L80.986 71.917C81.027 71.924 81.054 71.95 81.074 71.991 81.121 72.096 80.886 72.225 80.789 73.88Z" stroke="#EB4024" stroke-width="0.5" fill="#FCD4CD"/></g><line x1="66.793" y1="73.709" x2="80.617" y2="73.709" stroke="#F26522" stroke-width="0.7" stroke-miterlimit="10" stroke-dasharray="1 1" fill="none"/><g><rect x="66.543" y="72.169" width="0.5" height="3.25" fill="#F26522"/></g></g></svg>