<svg width="171.166" height="160.611" viewBox="0 0 171.166 160.611" xmlns="http://www.w3.org/2000/svg" xmlns:xlink="http://www.w3.org/1999/xlink" id="Layer_1" xml:space="preserve" overflow="hidden"><path d="M150.33 31.646 12.355 43.717 12.355 38.533 150.33 26.462Z" stroke="#262262" stroke-width="1.5" stroke-miterlimit="10" fill="#FFFFFF"/><path d="M150.33 26.017 12.355 38.088 12.355 32.905 150.33 20.833Z" stroke="#262262" stroke-width="1.5" stroke-miterlimit="10" fill="#FFFFFF"/><line x1="12.355" y1="38.405" x2="150.33" y2="26.334" stroke="#262262" stroke-width="1.5" stroke-linecap="round" stroke-miterlimit="10" fill="#FFFFFF"/><path d="M150.33 144.776 12.355 156.847 12.355 44.568 150.33 32.498Z" stroke="#262262" stroke-linecap="round" stroke-miterlimit="10" stroke-dasharray="3 3" fill="#FFFFFF"/><g><path d="M150.359 42.986 126.007 43.595C121.331 43.712 117.268 47.627 116.977 52.295L115.324 78.793" fill="#FFFFFF"/><path d="M150.359 42.986 126.007 43.595C121.331 43.712 117.268 47.627 116.977 52.295L115.324 78.793" stroke="#262262" stroke-width="1.5" stroke-linecap="round" stroke-miterlimit="10" fill="none"/></g><line x1="150.33" y1="43.715" x2="115.354" y2="79.578" stroke="#262262" stroke-width="1.5" stroke-linecap="round" stroke-miterlimit="10" fill="none"/><g><path d="M150.33 26.334C150.33 26.334 150.33 30.069 150.33 34.632 150.33 39.197 150.343 42.945 150.359 42.96 150.375 42.975 146.562 43.083 141.886 43.2L126.035 43.596C121.359 43.713 117.296 47.628 117.005 52.296L115.882 70.305C115.591 74.974 115.365 78.805 115.381 78.821 115.397 78.837 111.597 79.183 106.938 79.591L20.827 87.125C16.168 87.532 12.355 84.039 12.355 79.362L12.355 38.405" fill="#FFFFFF"/><path d="M150.33 26.334C150.33 26.334 150.33 30.069 150.33 34.632 150.33 39.197 150.343 42.945 150.359 42.96 150.375 42.975 146.562 43.083 141.886 43.2L126.035 43.596C121.359 43.713 117.296 47.628 117.005 52.296L115.882 70.305C115.591 74.974 115.365 78.805 115.381 78.821 115.397 78.837 111.597 79.183 106.938 79.591L20.827 87.125C16.168 87.532 12.355 84.039 12.355 79.362L12.355 38.405" stroke="#262262" stroke-width="1.5" stroke-linecap="round" stroke-miterlimit="10" fill="none"/></g><line x1="32.826" y1="42.882" x2="135.193" y2="33.927" stroke="#262262" stroke-linecap="round" stroke-miterlimit="10" stroke-dasharray="3 3" fill="#FFFFFF"/><g><path d="M167.01 12.841C167.176 13.035 167.301 13.183 167.27 13.148 163.095 18.537 158.866 23.778 154.899 29.212 153.19 31.554 151.96 34.258 150.631 36.859 150.039 38.015 149.314 38.945 148.252 39.674 147.359 40.283 146.547 41.006 145.672 41.644 144.906 42.203 144.158 42.823 143.309 43.219 140.87 44.361 138.554 45.629 137.038 47.978 136.884 48.22 136.645 48.407 136.435 48.627 136.155 48.411 135.889 48.252 135.676 48.038 135.18 47.537 134.968 47.057 135.19 46.23 135.765 44.083 137.584 43.088 138.938 41.766 131.989 41.647 125.293 43.84 118.22 44.703 118.36 44.392 118.412 44.278 118.455 44.181 117.248 44.508 117.074 44.452 116.355 43.434 116.962 42.915 117.539 42.39 118.355 42.8 118.304 42.721 118.164 42.498 117.988 42.222 122.354 40.92 126.668 39.631 130.98 38.344 131 38.231 131.019 38.119 131.039 38.006 129.867 37.657 128.715 37.182 127.516 36.987 125.897 36.725 124.245 36.637 122.604 36.55 121.387 36.485 120.573 35.908 119.928 34.776 120.491 34.42 121.014 33.826 121.6 33.76 124.383 33.445 127.182 33.273 130.1 33.04 129.28 32.938 128.534 32.809 127.786 32.755 126.448 32.66 125.108 32.59 123.766 32.55 123.432 32.54 122.883 32.592 122.79 32.787 122.355 33.695 121.883 33.118 121.512 32.842 121.041 32.491 121.217 31.799 121.352 31.38 121.838 29.847 123.202 30.258 124.233 29.849 126.171 29.085 128.147 29.797 130.074 29.448 130.391 29.39 130.72 29.391 131.327 29.34 130.821 28.785 130.531 28.211 130.078 28.021 128.581 27.387 127.026 26.891 125.491 26.343 125.184 26.235 124.802 26.222 124.575 26.025 124.263 25.754 124.063 25.347 123.817 25 124.171 24.851 124.528 24.707 124.883 24.559 127.38 23.5 129.67 24.883 132.056 25.144 133.444 25.295 134.881 25.45 136.246 25.254 138.282 24.962 140.295 24.427 142.281 23.869 143.445 23.538 144.338 22.722 144.962 21.653 147.766 16.854 150.567 12.053 153.374 7.256 153.934 6.298 154.512 5.35 155.139 4.298 156.584 5.475 157.95 6.588 159.315 7.695 161.637 9.581 163.961 11.47 166.294 13.342 166.47 13.482 166.735 13.508 166.961 13.587 166.975 13.365 166.989 13.143 167.01 12.841Z" stroke="#262262" stroke-width="0.5" stroke-miterlimit="10" fill="#FFFFFF"/></g><path d="" stroke="#262262" stroke-width="0.5" stroke-miterlimit="10" fill="#FFFFFF"/><line x1="10.5" y1="45.137" x2="10.5" y2="33.473" stroke="#262262" stroke-width="2" stroke-linecap="round" stroke-miterlimit="10" fill="#FFFFFF"/><path d="" stroke="#262262" stroke-width="3" stroke-linecap="round" stroke-miterlimit="10" fill="#FFFFFF"/><g><line x1="2.517" y1="38.402" x2="8.399" y2="38.402" stroke="#F26522" stroke-width="0.7" stroke-miterlimit="10" stroke-dasharray="1 1" fill="none"/><g><rect x="2.11" y="35.773" width="0.809" height="5.263" fill="#F26522"/></g><g><path d="M9.771 39.926C10.615 39.926 11.296 39.244 11.296 38.403 11.296 37.565 10.614 36.882 9.771 36.882 8.931 36.882 8.251 37.566 8.251 38.403 8.251 39.244 8.931 39.926 9.771 39.926Z" fill="#F26522"/></g></g><g><line x1="12.819" y1="25.274" x2="12.819" y2="31.157" stroke="#F26522" stroke-width="0.7" stroke-miterlimit="10" stroke-dasharray="1 1" fill="none"/><g><rect x="10.187" y="24.868" width="5.262" height="0.809" fill="#F26522"/></g><g><path d="M11.296 32.528C11.296 33.372 11.978 34.053 12.819 34.053 13.657 34.053 14.34 33.371 14.34 32.528 14.34 31.688 13.656 31.008 12.819 31.008 11.978 31.008 11.296 31.688 11.296 32.528Z" fill="#F26522"/></g></g><g><line x1="102.416" y1="16.647" x2="102.416" y2="22.53" stroke="#F26522" stroke-width="0.7" stroke-miterlimit="10" stroke-dasharray="1 1" fill="none"/><g><rect x="99.783" y="16.241" width="5.262" height="0.809" fill="#F26522"/></g><g><path d="M100.893 23.901C100.893 24.745 101.575 25.426 102.416 25.426 103.254 25.426 103.937 24.744 103.937 23.901 103.937 23.061 103.253 22.381 102.416 22.381 101.574 22.381 100.893 23.061 100.893 23.901Z" fill="#F26522"/></g></g><g><g><circle cx="59.542" cy="30.184" r="2.749" stroke="#7C702D" stroke-width="0.3" stroke-dasharray="0.958 0.958" fill="none"/></g><circle cx="59.549" cy="30.181" r="1.813" stroke="#7C702D" stroke-width="0.3" fill="#B7C98F"/><g><path d="M60.128 26.256C60.219 26.563 60.306 26.574 60.529 27.007 60.885 27.639 62.111 27.2 62.117 26.603L62.117 26.338C62.397 26.492 63.35 26.061 63.179 25.273 63.717 25.349 64.019 24.879 63.863 24.376 63.73 23.936 63.674 23.681 63.776 22.901 63.905 21.932 64.148 20.814 63.43 19.71 63.365 19.614 63.421 19.496 63.483 19.464 63.603 19.401 63.975 19.424 63.968 19.111L63.91 17.959C63.888 17.545 63.266 17.244 61.349 17.346 59.352 17.448 58.572 17.509 58.607 18.336 58.639 19.147 58.657 19.372 58.657 19.372 58.678 19.628 58.852 19.663 58.965 19.697 59.032 19.717 59.064 19.812 59.036 19.881 58.997 19.987 58.604 21.035 58.555 21.926 58.509 22.747 58.277 23.082 58.388 23.631 58.52 24.28 58.558 26.403 58.578 27.036 58.6 27.659 58.85 28.64 58.886 29.964 58.918 31.225 60.377 31.157 60.254 30.026 60.159 29.136 60.266 29.1 60.213 28.792 60.119 28.253 60.151 27.652 60.163 27.229 60.166 27.035 60.099 26.826 60.128 26.256" stroke="#EB4024" stroke-width="0.5" stroke-miterlimit="10" fill="#FCD4CD"/><path d="M61.227 19.006C62.021 18.944 63.407 19.029 63.536 19.069 63.656 19.11 63.726 19.017 63.7 18.84 63.685 18.719 63.656 18.097 63.656 18.097 63.644 17.822 63.347 17.507 61.224 17.61 59.029 17.732 58.751 17.834 58.784 18.484L58.846 19.288C58.858 19.338 58.89 19.37 58.94 19.394 59.065 19.446 59.217 19.16 61.227 19.006Z" stroke="#EB4024" stroke-width="0.5" fill="#FCD4CD"/></g><line x1="60.896" y1="11.039" x2="60.91" y2="18.172" stroke="#F26522" stroke-width="0.7" stroke-miterlimit="10" stroke-dasharray="1 1" fill="none"/><g><rect x="60.708" y="9.837" width="0.405" height="2.632" fill="#F26522" transform="matrix(-0.0289 -0.9996 0.9996 -0.0289 51.5242 72.3607)"/></g></g><g><line x1="40.415" y1="49.323" x2="40.415" y2="43.44" stroke="#F26522" stroke-width="0.7" stroke-miterlimit="10" stroke-dasharray="1 1" fill="none"/><g><rect x="37.786" y="48.921" width="5.262" height="0.809" fill="#F26522"/></g><g><path d="M41.938 42.069C41.938 41.225 41.256 40.544 40.415 40.544 39.577 40.544 38.894 41.226 38.894 42.069 38.894 42.909 39.578 43.589 40.415 43.589 41.257 43.589 41.938 42.909 41.938 42.069Z" fill="#F26522"/></g></g><g><g><circle cx="121.272" cy="57.117" r="2.749" stroke="#7C702D" stroke-width="0.3" stroke-dasharray="0.958 0.958" fill="none"/></g><circle cx="121.27" cy="57.11" r="1.813" stroke="#7C702D" stroke-width="0.3" fill="#B7C98F"/><g><path d="M117.345 56.531C117.652 56.44 117.662 56.353 118.096 56.13 118.729 55.774 118.289 54.548 117.692 54.542L117.426 54.542C117.58 54.262 117.149 53.309 116.362 53.48 116.438 52.942 115.967 52.64 115.465 52.796 115.025 52.929 114.771 52.985 113.99 52.883 113.021 52.754 111.903 52.511 110.8 53.229 110.703 53.294 110.585 53.238 110.554 53.176 110.491 53.056 110.514 52.684 110.2 52.691L109.049 52.749C108.636 52.771 108.333 53.393 108.437 55.31 108.539 57.307 108.599 58.087 109.427 58.052 110.238 58.02 110.462 58.002 110.462 58.002 110.718 57.981 110.753 57.807 110.788 57.694 110.808 57.627 110.903 57.595 110.972 57.623 111.077 57.662 112.126 58.055 113.017 58.104 113.837 58.15 114.172 58.382 114.721 58.271 115.37 58.139 117.493 58.101 118.126 58.081 118.748 58.059 119.73 57.809 121.054 57.773 122.314 57.741 122.247 56.282 121.116 56.405 120.226 56.5 120.189 56.393 119.882 56.446 119.344 56.54 118.742 56.508 118.319 56.496 118.123 56.493 117.914 56.56 117.345 56.531" stroke="#EB4024" stroke-width="0.5" stroke-miterlimit="10" fill="#FCD4CD"/><path d="M110.094 55.432C110.032 54.638 110.117 53.252 110.157 53.123 110.198 53.003 110.105 52.933 109.928 52.959 109.807 52.974 109.185 53.003 109.185 53.003 108.911 53.015 108.594 53.312 108.698 55.435 108.821 57.63 108.923 57.908 109.572 57.875L110.376 57.813C110.427 57.801 110.458 57.769 110.481 57.719 110.535 57.593 110.248 57.442 110.094 55.432Z" stroke="#EB4024" stroke-width="0.5" fill="#FCD4CD"/></g><line x1="102.127" y1="55.763" x2="109.261" y2="55.749" stroke="#F26522" stroke-width="0.7" stroke-miterlimit="10" stroke-dasharray="1 1" fill="none"/><g><rect x="102.039" y="54.432" width="0.405" height="2.632" fill="#F26522" transform="matrix(-0.9996 0.0289 -0.0289 -0.9996 206.052 108.519)"/></g></g><g><g><circle cx="77.877" cy="63.311" r="2.749" stroke="#7C702D" stroke-width="0.3" stroke-dasharray="0.958 0.958" fill="none"/></g><circle cx="77.875" cy="63.304" r="1.813" stroke="#7C702D" stroke-width="0.3" fill="#B7C98F"/><g><path d="M73.95 62.725C74.257 62.634 74.267 62.547 74.701 62.324 75.334 61.968 74.894 60.742 74.297 60.736L74.031 60.736C74.185 60.456 73.754 59.503 72.967 59.674 73.043 59.136 72.572 58.834 72.07 58.99 71.63 59.123 71.376 59.179 70.595 59.077 69.626 58.948 68.508 58.705 67.405 59.423 67.308 59.488 67.19 59.432 67.159 59.37 67.096 59.25 67.119 58.878 66.805 58.885L65.654 58.943C65.241 58.965 64.938 59.587 65.042 61.504 65.144 63.501 65.204 64.281 66.032 64.246 66.843 64.214 67.067 64.196 67.067 64.196 67.323 64.175 67.358 64.001 67.393 63.888 67.413 63.821 67.508 63.789 67.577 63.817 67.682 63.856 68.731 64.249 69.622 64.298 70.442 64.344 70.777 64.576 71.326 64.465 71.975 64.333 74.098 64.295 74.731 64.275 75.353 64.253 76.335 64.003 77.659 63.967 78.919 63.935 78.852 62.476 77.721 62.599 76.831 62.694 76.794 62.587 76.487 62.64 75.949 62.734 75.347 62.702 74.924 62.69 74.729 62.687 74.52 62.754 73.95 62.725" stroke="#EB4024" stroke-width="0.5" stroke-miterlimit="10" fill="#FCD4CD"/><path d="M66.699 61.626C66.637 60.832 66.722 59.446 66.762 59.317 66.803 59.197 66.71 59.127 66.533 59.153 66.412 59.168 65.79 59.197 65.79 59.197 65.516 59.209 65.199 59.506 65.303 61.629 65.426 63.824 65.528 64.102 66.177 64.069L66.981 64.007C67.032 63.995 67.063 63.963 67.086 63.913 67.141 63.787 66.854 63.636 66.699 61.626Z" stroke="#EB4024" stroke-width="0.5" fill="#FCD4CD"/></g><line x1="58.732" y1="61.957" x2="65.866" y2="61.942" stroke="#F26522" stroke-width="0.7" stroke-miterlimit="10" stroke-dasharray="1 1" fill="none"/><g><rect x="58.644" y="60.626" width="0.405" height="2.632" fill="#F26522" transform="matrix(-0.9996 0.0289 -0.0289 -0.9996 119.46 122.158)"/></g></g><g><line x1="142.221" y1="100.419" x2="148.104" y2="100.419" stroke="#F26522" stroke-width="0.7" stroke-miterlimit="10" stroke-dasharray="1 1" fill="none"/><g><rect x="141.814" y="97.791" width="0.809" height="5.263" fill="#F26522"/></g><g><path d="M149.475 101.943C150.319 101.943 151 101.261 151 100.42 151 99.582 150.318 98.899 149.475 98.899 148.635 98.899 147.955 99.583 147.955 100.42 147.955 101.261 148.635 101.943 149.475 101.943Z" fill="#F26522"/></g></g><g><g><circle cx="83.392" cy="114.677" r="2.749" stroke="#7C702D" stroke-width="0.3" stroke-dasharray="0.958 0.958" fill="none"/></g><circle cx="83.39" cy="114.669" r="1.813" stroke="#7C702D" stroke-width="0.3" fill="#B7C98F"/><g><path d="M79.465 114.09C79.772 113.999 79.782 113.912 80.216 113.689 80.849 113.333 80.409 112.107 79.812 112.101L79.546 112.101C79.7 111.821 79.269 110.868 78.482 111.039 78.558 110.501 78.087 110.199 77.585 110.355 77.145 110.488 76.891 110.544 76.11 110.442 75.141 110.313 74.023 110.07 72.92 110.788 72.823 110.853 72.705 110.797 72.674 110.735 72.611 110.615 72.634 110.243 72.32 110.25L71.169 110.308C70.756 110.33 70.453 110.952 70.557 112.869 70.659 114.866 70.719 115.646 71.547 115.611 72.358 115.579 72.582 115.561 72.582 115.561 72.838 115.54 72.873 115.366 72.908 115.253 72.928 115.186 73.023 115.154 73.092 115.182 73.197 115.221 74.246 115.614 75.137 115.663 75.957 115.709 76.292 115.941 76.841 115.83 77.49 115.698 79.613 115.66 80.246 115.64 80.868 115.618 81.85 115.368 83.174 115.332 84.434 115.3 84.367 113.841 83.236 113.964 82.346 114.059 82.309 113.952 82.002 114.005 81.464 114.099 80.862 114.067 80.439 114.055 80.243 114.052 80.034 114.12 79.465 114.09" stroke="#EB4024" stroke-width="0.5" stroke-miterlimit="10" fill="#FCD4CD"/><path d="M72.214 112.992C72.152 112.198 72.237 110.812 72.277 110.683 72.318 110.563 72.225 110.493 72.048 110.519 71.927 110.534 71.305 110.563 71.305 110.563 71.031 110.575 70.714 110.872 70.818 112.995 70.941 115.19 71.043 115.468 71.692 115.435L72.496 115.373C72.547 115.361 72.578 115.329 72.601 115.279 72.655 115.153 72.368 115.001 72.214 112.992Z" stroke="#EB4024" stroke-width="0.5" fill="#FCD4CD"/></g><line x1="64.247" y1="113.323" x2="71.381" y2="113.308" stroke="#F26522" stroke-width="0.7" stroke-miterlimit="10" stroke-dasharray="1 1" fill="none"/><g><rect x="64.159" y="111.992" width="0.405" height="2.632" fill="#F26522" transform="matrix(-0.9996 0.0289 -0.0289 -0.9996 131.972 224.709)"/></g></g></svg>