<svg width="125" height="201.833" viewBox="0 0 125 201.833" xmlns="http://www.w3.org/2000/svg" xmlns:xlink="http://www.w3.org/1999/xlink" id="Layer_1" xml:space="preserve" overflow="hidden"><path d="M8.352 23.462C15.938 22.232 28.886 21.452 35.767 21.142L67.046 21.142C73.917 21.452 86.865 22.232 94.451 23.462 98.026 24.042 100.403 24.722 100.403 25.492L100.403 24.722C104.356 26.432 110.723 28.652 111.12 28.782 109.602 27.422 108.5 26.172 107.235 24.552 105.96 22.922 104.491 20.902 102.239 17.992 101.458 16.972 100.741 16.102 100.094 15.342L100.094 15.332C98.045 12.902 96.701 11.712 95.61 10.922 95.253 10.662 94.924 10.452 94.616 10.242 94.616 10.242 84.003 8.552 67.046 8.282L35.767 8.282C18.798 8.552 8.187 10.242 8.187 10.242 7.878 10.452 7.549 10.662 7.191 10.922 6.449 11.459 5.596 12.181 4.479 13.351L8.352 23.462Z" stroke="#262262" stroke-width="1.5" stroke-miterlimit="10" fill="#FFFFFF"/><path d="M7.095 17.199C14.794 15.969 27.936 15.189 34.919 14.879L66.665 14.879C73.639 15.189 86.78 15.969 94.479 17.199 98.108 17.779 100.52 18.459 100.52 19.229L100.52 18.459C104.532 20.169 110.995 22.389 111.397 22.519 109.857 21.159 108.738 19.909 107.454 18.289 106.16 16.659 104.67 14.639 102.384 11.729 101.591 10.709 100.864 9.839 100.208 9.079L100.208 9.069C98.128 6.639 96.765 5.449 95.656 4.659 95.293 4.399 94.96 4.189 94.646 3.979 94.646 3.979 83.875 2.289 66.665 2.019L34.919 2.019C17.697 2.29 6.928 3.979 6.928 3.979 6.615 4.189 6.281 4.399 5.917 4.659 5.163 5.196 4.298 5.918 3.164 7.088L7.095 17.199Z" stroke="#262262" stroke-width="1.5" stroke-miterlimit="10" fill="#FFFFFF"/><path d="M3.066 6.986C6.968 8.403 10.002 8.876 19.314 9.451L39.611 43.105 29.631 54.124 12.833 52.472C12.002 44.282 3.066 6.985 3.066 6.986" stroke="#262262" stroke-width="1.5" stroke-miterlimit="10" fill="#FFFFFF"/><path d="M50.348 197.719C50.348 197.719 48.802 189.826 48.841 179.311L45.854 57.256 12.833 52.471C17.689 76.782 41.336 178.751 50.348 197.719Z" stroke="#262262" stroke-width="1.5" stroke-miterlimit="10" fill="#FFFFFF"/><path d="M51.348 197.719C51.348 197.719 53.713 190.031 58.713 180.781L113.713 71.781 86.863 51.97C79.667 75.693 52.361 176.745 51.348 197.719Z" stroke="#262262" stroke-width="1.5" stroke-miterlimit="10" fill="#FFFFFF"/><path d="M99.733 7.264C102.504 10.355 104.955 12.205 112.891 17.109L114.891 56.359 100.891 61.359 86.863 51.97C90 44.359 99.734 7.263 99.733 7.264" stroke="#262262" stroke-width="1.5" stroke-miterlimit="10" fill="#FFFFFF"/><g><g><path d="M105.485 79.503C105.352 79.488 105.221 79.441 105.106 79.358L94.042 71.44C93.683 71.183 93.601 70.683 93.856 70.324 94.114 69.965 94.612 69.882 94.972 70.139L106.037 78.057C106.396 78.314 106.478 78.814 106.221 79.173 106.048 79.416 105.763 79.533 105.485 79.503Z" stroke="#262262" stroke-width="0.75" stroke-miterlimit="10" fill="#FFFFFF"/></g></g><g><g><path d="M98.208 70.448C97.68 70.448 97.256 70.873 97.256 71.4 97.256 71.612 97.326 71.809 97.445 71.967L99.754 74.274C99.698 74.321 99.659 74.385 99.644 74.455L96.736 73.683 96.5 73.62C96.131 73.573 95.752 73.746 95.555 74.093 95.288 74.55 95.446 75.132 95.903 75.392 96.085 75.494 96.273 75.534 96.469 75.518L96.478 75.518 96.768 75.439 96.786 75.432 96.802 75.423 96.817 75.415 99.646 74.667C99.662 74.738 99.701 74.809 99.756 74.856L97.454 77.156C97.431 77.195 97.407 77.227 97.384 77.265 97.124 77.722 97.281 78.305 97.738 78.565 98.195 78.825 98.777 78.675 99.039 78.218 99.062 78.179 99.078 78.14 99.094 78.1L99.094 78.092 99.164 77.832 99.164 77.808 99.173 77.793 99.938 74.965C99.977 74.974 100.008 74.982 100.048 74.982 100.088 74.982 100.118 74.974 100.157 74.965L100.929 77.864 100.992 78.1C101.008 78.14 101.023 78.179 101.047 78.218 101.316 78.675 101.899 78.825 102.355 78.565 102.811 78.305 102.969 77.722 102.702 77.265 102.679 77.226 102.655 77.195 102.632 77.156L102.544 77.061 100.34 74.856C100.394 74.809 100.435 74.746 100.449 74.675L103.34 75.447 103.585 75.518 103.6 75.518C103.631 75.526 103.671 75.526 103.71 75.526 104.237 75.526 104.663 75.093 104.663 74.565 104.663 74.045 104.237 73.612 103.71 73.612 103.663 73.612 103.622 73.612 103.585 73.62L103.569 73.62 103.551 73.628 103.387 73.675 103.339 73.691 100.448 74.455C100.433 74.385 100.392 74.321 100.339 74.274L102.488 72.124 102.607 72.006C102.859 71.707 102.905 71.274 102.701 70.919 102.44 70.462 101.857 70.305 101.402 70.572 101.213 70.682 101.07 70.841 100.992 71.029L100.992 71.038 100.929 71.274 100.157 74.164C100.118 74.156 100.088 74.148 100.048 74.148 100.008 74.148 99.977 74.156 99.938 74.164L99.15 71.258 99.15 71.226 99.094 71.029C98.941 70.684 98.603 70.448 98.208 70.448Z" stroke="#262262" stroke-width="0.75" stroke-miterlimit="10" fill="#FFFFFF"/></g></g><g><line x1="96.874" y1="50.42" x2="94.241" y2="55.192" stroke="#F26522" stroke-width="0.7" stroke-miterlimit="10" stroke-dasharray="1 1" fill="none"/><g><rect x="96.498" y="47.983" width="0.752" height="4.876" fill="#F26522" transform="matrix(0.4832 -0.8755 0.8755 0.4832 5.9199 110.87)"/></g><g><path d="M92.395 55.622C92.02 56.304 92.266 57.161 92.947 57.538 93.632 57.915 94.487 57.667 94.863 56.984 95.238 56.302 94.994 55.446 94.311 55.069 93.628 54.692 92.771 54.94 92.395 55.622Z" fill="#F26522"/></g></g><g><line x1="113.358" y1="62.939" x2="110.726" y2="67.711" stroke="#F26522" stroke-width="0.7" stroke-miterlimit="10" stroke-dasharray="1 1" fill="none"/><g><rect x="112.982" y="60.502" width="0.752" height="4.875" fill="#F26522" transform="matrix(0.4832 -0.8755 0.8755 0.4832 3.4783 131.772)"/></g><g><path d="M108.879 68.142C108.504 68.824 108.75 69.681 109.431 70.057 110.116 70.434 110.971 70.186 111.347 69.503 111.722 68.821 111.478 67.965 110.795 67.588 110.112 67.212 109.255 67.46 108.879 68.142Z" fill="#F26522"/></g></g><g><line x1="81.113" y1="160.257" x2="71.934" y2="155.485" stroke="#F26522" stroke-width="0.7" stroke-miterlimit="10" stroke-dasharray="1 1" fill="none"/><g><rect x="80.863" y="158.799" width="0.501" height="3.25" fill="#F26522" transform="matrix(0.8719 0.4896 -0.4896 0.8719 88.9329 -19.1702)"/></g><g><circle cx="71.934" cy="155.434" r="0.94" fill="#F26522"/></g></g><g><line x1="58.895" y1="197.783" x2="53.447" y2="197.625" stroke="#F26522" stroke-width="0.7" stroke-miterlimit="10" stroke-dasharray="1 1" fill="none"/><g><rect x="58.519" y="195.345" width="0.75" height="4.876" fill="#F26522" transform="matrix(0.9996 0.0293 -0.0293 0.9996 5.8172 -1.6398)"/></g><g><circle cx="52.179" cy="197.587" r="1.409" fill="#F26522"/></g></g><g><line x1="121.406" y1="91.671" x2="104.821" y2="78.498" stroke="#F26522" stroke-width="0.7" stroke-miterlimit="10" stroke-dasharray="1 1" fill="none"/><g><rect x="121.031" y="89.233" width="0.75" height="4.876" fill="#F26522" transform="matrix(0.783 0.6221 -0.6221 0.783 83.3754 -55.6268)"/></g><g><circle cx="105.621" cy="78.533" r="1.41" fill="#F26522"/></g></g><g><line x1="86.346" y1="88.667" x2="94.799" y2="78.414" stroke="#F26522" stroke-width="0.7" stroke-miterlimit="10" stroke-dasharray="1 1" fill="none"/><g><rect x="85.97" y="86.229" width="0.75" height="4.875" fill="#F26522" transform="matrix(-0.6365 0.7713 -0.7713 -0.6365 209.691 78.512)"/></g><g><path d="M93.988 76.218C94.895 76.361 95.84 76.193 96.706 75.903 96.576 76.809 96.629 77.758 96.914 78.631L96.617 78.993C96.348 78.136 96.22 77.265 96.307 76.389 95.456 76.635 94.556 76.688 93.685 76.586L93.988 76.218Z" fill="#F26522"/><path d="M93.27 77.089C94.178 77.231 95.124 77.063 95.989 76.773 95.86 77.679 95.913 78.628 96.197 79.501L95.899 79.862C95.631 79.005 95.503 78.134 95.588 77.258 94.738 77.503 93.838 77.557 92.968 77.455L93.27 77.089Z" fill="#F26522"/></g></g><line x1="72.648" y1="133.051" x2="80.471" y2="117.948" stroke="#F26522" stroke-width="0.7" stroke-miterlimit="10" stroke-dasharray="1 1" fill="none"/><g><circle cx="82.785" cy="110.117" r="3.534" stroke="#7C702D" stroke-width="0.3" stroke-dasharray="1.0078 1.0078" fill="none"/></g><circle cx="82.785" cy="110.116" r="1.866" stroke="#7C702D" stroke-width="0.3" fill="#B7C98F"/><g><path d="M81.763 113.219C81.943 113.025 82.011 113.05 82.333 112.811 82.826 112.477 83.57 113.248 83.356 113.691L83.259 113.885C83.523 113.876 84.069 114.542 83.653 115.058 84.077 115.199 84.13 115.655 83.829 115.971 83.57 116.247 83.435 116.414 83.225 117.028 82.966 117.79 82.735 118.702 81.801 119.254 81.721 119.301 81.718 119.408 81.752 119.454 81.817 119.546 82.099 119.663 81.979 119.891L81.516 120.721C81.349 121.017 80.782 121.012 79.404 120.237 77.971 119.43 77.418 119.101 77.745 118.504 78.065 117.917 78.162 117.758 78.162 117.758 78.27 117.576 78.411 117.615 78.508 117.631 78.564 117.64 78.622 117.581 78.628 117.522 78.637 117.429 78.731 116.514 79.019 115.839 79.288 115.215 79.238 114.884 79.521 114.52 79.856 114.09 80.658 112.539 80.905 112.08 81.151 111.629 81.693 110.996 82.203 110.033 82.687 109.116 83.741 109.699 83.237 110.487 82.84 111.11 82.906 111.175 82.754 111.382 82.488 111.744 82.293 112.201 82.145 112.517 82.076 112.658 81.95 112.788 81.763 113.219" stroke="#EB4024" stroke-width="0.5" stroke-miterlimit="10" fill="#FCD4CD"/><path d="M79.921 118.967C80.485 119.304 81.537 119.746 81.649 119.765 81.752 119.782 81.769 119.873 81.684 119.995 81.628 120.079 81.38 120.527 81.38 120.527 81.273 120.725 80.937 120.85 79.409 119.996 77.834 119.102 77.667 118.928 77.93 118.46L78.27 117.891C78.293 117.859 78.329 117.846 78.375 117.847 78.49 117.852 78.496 118.119 79.921 118.967Z" stroke="#EB4024" stroke-width="0.5" fill="#FCD4CD"/></g><g><rect x="72.183" y="130.785" width="0.75" height="4.874" fill="#F26522" transform="matrix(-0.4607 0.8876 -0.8876 -0.4607 224.229 130.198)"/></g><g><line x1="39.718" y1="134.242" x2="34.551" y2="118.038" stroke="#F26522" stroke-width="0.7" stroke-miterlimit="10" stroke-dasharray="1 1" fill="none"/><g><circle cx="33.589" cy="109.929" r="3.535" stroke="#7C702D" stroke-width="0.3" stroke-dasharray="1.0078 1.0078" fill="none"/></g><circle cx="33.59" cy="109.928" r="1.866" stroke="#7C702D" stroke-width="0.3" fill="#B7C98F"/><g><path d="M34.074 113.159C33.928 112.937 33.859 112.951 33.582 112.66 33.151 112.247 32.287 112.882 32.424 113.355L32.486 113.563C32.229 113.51 31.578 114.074 31.899 114.653 31.461 114.72 31.332 115.161 31.574 115.523 31.783 115.839 31.887 116.026 31.99 116.666 32.118 117.461 32.193 118.399 33.02 119.1 33.09 119.16 33.076 119.266 33.035 119.306 32.955 119.385 32.658 119.454 32.737 119.698L33.054 120.594C33.168 120.914 33.728 121.005 35.217 120.473 36.765 119.919 37.367 119.688 37.146 119.044 36.928 118.411 36.859 118.238 36.859 118.238 36.784 118.041 36.637 118.055 36.541 118.054 36.484 118.054 36.437 117.986 36.441 117.926 36.448 117.833 36.509 116.915 36.338 116.201 36.179 115.541 36.284 115.223 36.067 114.817 35.807 114.337 35.28 112.672 35.113 112.179 34.946 111.693 34.517 110.978 34.177 109.942 33.855 108.957 32.718 109.353 33.082 110.214 33.367 110.895 33.292 110.949 33.406 111.178 33.608 111.58 33.725 112.064 33.816 112.4 33.86 112.553 33.963 112.702 34.074 113.159" stroke="#EB4024" stroke-width="0.5" stroke-miterlimit="10" fill="#FCD4CD"/><path d="M34.922 119.135C34.308 119.372 33.196 119.631 33.084 119.63 32.98 119.629 32.947 119.716 33.012 119.851 33.052 119.943 33.221 120.426 33.221 120.426 33.296 120.64 33.603 120.819 35.254 120.235 36.957 119.62 37.151 119.475 36.97 118.97L36.73 118.351C36.712 118.316 36.68 118.297 36.633 118.29 36.521 118.276 36.47 118.539 34.922 119.135Z" stroke="#EB4024" stroke-width="0.5" fill="#FCD4CD"/></g><g><rect x="39.402" y="131.989" width="0.75" height="4.875" fill="#F26522" transform="matrix(0.3035 0.9528 -0.9528 0.3035 155.791 55.7277)"/></g></g></svg>