<svg width="279.065" height="203.333" viewBox="0 0 279.065 203.333" xmlns="http://www.w3.org/2000/svg" xmlns:xlink="http://www.w3.org/1999/xlink" id="Layer_1" xml:space="preserve" overflow="hidden"><path d="M120.567 14.926C120.567 14.926 106.662 12.361 100.317 13.306L100.317 13.951 100.317 15.151 100.317 18.301 100.317 19.201 100.317 187.456C100.317 187.456 139.197 188.806 143.787 180.571 142.004 170.546 140.851 138.113 141.133 114.244 141.274 102.26 142.662 92.841 142.73 88.683 142.735 88.385 145.989 104.538 147.838 123.871 150.452 151.203 151.932 184.624 151.932 184.624 151.932 184.624 159.602 185.383 165.946 184.824 168.872 184.566 171.514 184.028 172.992 183.005 172.992 183.005 171.872 142.712 167.954 103.621 164.485 69.031 158.343 35.494 155.891 30 155.891 30 154.58 29.453 152.467 28.564 152.368 28.522 152.268 28.48 152.166 28.438 148.44 26.871 142.366 25.453 136.654 22.98 129.074 19.697 122.06 15.402 121.332 14.701 121.332 14.701 119.352 8.401 111.971 5.701L101.172 5.701" stroke="#262262" stroke-width="1.5" stroke-miterlimit="10" fill="#FFFFFF"/><path d="" stroke="#262262" stroke-width="1.5" stroke-miterlimit="10" fill="#FFFFFF"/><path d="M152.467 28.564C151.416 30.974 147.639 49.279 145.273 65.106 143.397 77.649 142.73 88.683 142.73 88.683" stroke="#262262" stroke-width="1.5" stroke-miterlimit="10" fill="#FFFFFF"/><g><path d="M68.357 44.154 60.798 41.454 61.878 20.259C68.632 16.084 68.028 16.009 72.343 10.944 72.808 10.393 73.228 9.923 73.613 9.513L73.613 9.507C75.227 7.762 76.096 7.201 76.863 6.758 76.863 6.758 83.149 5.844 93.198 5.699" stroke="#262262" stroke-width="1.5" stroke-miterlimit="10" fill="#FFFFFF"/><path d="" stroke="#262262" stroke-width="1.5" stroke-miterlimit="10" fill="#FFFFFF"/><path d="M76.648 38.181 62.148 48.879 91.847 107.739C93.709 113.366 93.308 120.167 93.477 126.003 93.73 134.722 93.626 143.455 93.22 152.168 92.995 156.983 93.066 161.867 91.847 166.568" stroke="#262262" stroke-width="1.5" stroke-miterlimit="10" fill="#FFFFFF"/><path d="M61.879 20.259C60.951 20.908 46.987 26.917 40.534 29.679 38.574 30.518 37.308 31.058 37.308 31.058 35.482 36.376 35.36 40.101 34.607 44.153 33.773 48.654 32.367 53.551 31.369 61.298 30.027 71.693 26.398 86.111 24.348 109.898 22.752 128.427 22.819 152.965 21.108 183.608 28.129 187.388 41.373 184.578 41.373 184.578L46.22 122.319 50.689 88.998C50.689 88.998 46.58 38.262 40.536 29.679" stroke="#262262" stroke-width="1.5" stroke-miterlimit="10" fill="#FFFFFF"/><path d="M51.861 136.062C51.234 159.093 49.998 181.73 49.998 181.73 57.736 189.646 78.078 187.308 78.078 187.308 89.057 187.308 91.848 165.168 91.848 165.168" stroke="#262262" stroke-width="1.5" stroke-miterlimit="10" fill="#FFFFFF"/><path d="" stroke="#262262" stroke-width="1.5" stroke-miterlimit="10" fill="#FFFFFF"/><path d="M52.126 137.587 52.126 124.084C52.126 123.982 52.143 92.932 50.689 88.995" stroke="#262262" stroke-width="1.5" stroke-miterlimit="10" fill="#FFFFFF"/></g><path d="M102.117 5.7 100.317 5.7C100.316 6.451 100.317 13.951 100.317 13.951" stroke="#262262" stroke-width="1.5" stroke-miterlimit="10" fill="#FFFFFF"/><path d="M22.466 183.923 22.466 160.432 20.931 183.923C21.865 184.001 22.466 183.923 22.466 183.923Z" stroke="#262262" stroke-width="1.5" stroke-miterlimit="10" fill="#FFFFFF"/><g><g><g><path d="M26.398 168.361C26.367 168.379 26.33 168.389 26.291 168.389L22.59 168.389C22.469 168.389 22.371 168.292 22.371 168.172 22.371 168.051 22.469 167.954 22.589 167.954L26.291 167.954C26.412 167.954 26.51 168.051 26.51 168.172 26.509 168.253 26.465 168.324 26.398 168.361Z" stroke="#262262" stroke-width="0.5" stroke-miterlimit="10" fill="#FFFFFF"/></g></g><g><ellipse cx="24.377" cy="168.093" rx="1.497" ry="1.53" stroke="#262262" stroke-width="0.5" stroke-miterlimit="10" fill="#FFFFFF"/></g></g><g><g><g><path d="M26.398 171.66C26.367 171.678 26.33 171.688 26.291 171.688L22.59 171.688C22.469 171.688 22.371 171.591 22.371 171.471 22.371 171.35 22.469 171.253 22.589 171.253L26.291 171.252C26.412 171.252 26.51 171.35 26.51 171.47 26.509 171.552 26.465 171.623 26.398 171.66Z" stroke="#262262" stroke-width="0.5" stroke-miterlimit="10" fill="#FFFFFF"/></g></g><g><ellipse cx="24.377" cy="171.392" rx="1.497" ry="1.53" stroke="#262262" stroke-width="0.5" stroke-miterlimit="10" fill="#FFFFFF"/></g></g><g><g><g><path d="M26.398 174.72C26.367 174.738 26.33 174.748 26.291 174.748L22.59 174.748C22.469 174.748 22.371 174.651 22.371 174.531 22.371 174.41 22.469 174.313 22.589 174.313L26.291 174.313C26.412 174.313 26.51 174.41 26.51 174.531 26.509 174.612 26.465 174.683 26.398 174.72Z" stroke="#262262" stroke-width="0.5" stroke-miterlimit="10" fill="#FFFFFF"/></g></g><g><ellipse cx="24.377" cy="174.452" rx="1.497" ry="1.53" stroke="#262262" stroke-width="0.5" stroke-miterlimit="10" fill="#FFFFFF"/></g></g><g><g><g><path d="M26.398 177.78C26.367 177.798 26.33 177.808 26.291 177.808L22.59 177.808C22.469 177.808 22.371 177.711 22.371 177.591 22.371 177.47 22.469 177.373 22.589 177.373L26.291 177.373C26.412 177.373 26.51 177.47 26.51 177.591 26.509 177.672 26.465 177.743 26.398 177.78Z" stroke="#262262" stroke-width="0.5" stroke-miterlimit="10" fill="#FFFFFF"/></g></g><g><ellipse cx="24.377" cy="177.512" rx="1.497" ry="1.53" stroke="#262262" stroke-width="0.5" stroke-miterlimit="10" fill="#FFFFFF"/></g></g><rect x="28.617" y="174.382" width="11.025" height="3.199" stroke="#262262" stroke-width="0.5" stroke-miterlimit="10" fill="#FFFFFF"/><line x1="29.267" y1="175.104" x2="29.267" y2="176.851" stroke="#262262" stroke-width="0.5" stroke-miterlimit="10" fill="#FFFFFF"/><line x1="39.066" y1="175.108" x2="39.066" y2="176.855" stroke="#262262" stroke-width="0.5" stroke-miterlimit="10" fill="#FFFFFF"/><g><line x1="40.493" y1="24.98" x2="40.493" y2="28.613" stroke="#F26522" stroke-width="0.7" stroke-miterlimit="10" stroke-dasharray="1 1" fill="none"/><g><rect x="38.868" y="24.729" width="3.25" height="0.5" fill="#F26522"/></g><g><circle cx="40.493" cy="29.458" r="0.939" fill="#F26522"/></g></g><g><line x1="52.355" y1="62.076" x2="48.723" y2="62.076" stroke="#F26522" stroke-width="0.7" stroke-miterlimit="10" stroke-dasharray="1 1" fill="none"/><g><rect x="52.105" y="60.451" width="0.5" height="3.25" fill="#F26522"/></g><g><circle cx="47.877" cy="62.076" r="0.939" fill="#F26522"/></g></g><g><path d="M35.768 93.028C38.687 93.234 40.889 95.767 40.683 98.687 40.478 101.607 37.943 103.814 35.024 103.608 32.103 103.403 29.902 100.863 30.107 97.943 30.312 95.023 32.847 92.823 35.768 93.028Z" stroke="#7C702D" stroke-width="0.3" stroke-dasharray="0.9783 0.9783" fill="none"/></g><circle cx="35.396" cy="98.317" r="2.799" stroke="#7C702D" stroke-width="0.3" fill="#B7C98F"/><g><path d="M35.832 103.198C35.964 102.826 36.072 102.818 36.374 102.299 36.855 101.543 38.34 102.162 38.309 102.9L38.289 103.227C38.645 103.056 39.795 103.65 39.53 104.61 40.197 104.551 40.541 105.149 40.315 105.76 40.122 106.293 40.034 106.605 40.111 107.573 40.207 108.775 40.433 110.171 39.475 111.484 39.39 111.598 39.451 111.747 39.526 111.79 39.672 111.877 40.13 111.871 40.099 112.257L39.954 113.673C39.901 114.181 39.116 114.514 36.757 114.262 34.304 114.007 33.346 113.881 33.441 112.863 33.535 111.866 33.572 111.589 33.572 111.589 33.613 111.276 33.83 111.243 33.972 111.209 34.055 111.188 34.102 111.072 34.074 110.987 34.031 110.852 33.614 109.536 33.61 108.434 33.607 107.418 33.341 106.992 33.516 106.323 33.722 105.53 33.903 102.916 33.972 102.137 34.039 101.371 34.41 100.176 34.54 98.546 34.662 96.995 36.457 97.172 36.233 98.558 36.056 99.652 36.186 99.703 36.1 100.079 35.951 100.737 35.952 101.48 35.937 102.003 35.93 102.241 35.833 102.494 35.832 103.198" stroke="#EB4024" stroke-width="0.5" stroke-miterlimit="10" fill="#FCD4CD"/><path d="M36.715 112.209C37.692 112.337 39.404 112.321 39.566 112.281 39.717 112.241 39.797 112.358 39.754 112.576 39.727 112.723 39.651 113.488 39.651 113.488 39.619 113.826 39.232 114.195 36.62 113.929 33.922 113.636 33.587 113.492 33.67 112.694L33.799 111.707C33.816 111.646 33.856 111.608 33.921 111.583 34.08 111.525 34.248 111.889 36.715 112.209Z" stroke="#EB4024" stroke-width="0.5" fill="#FCD4CD"/></g><line x1="36.385" y1="121.623" x2="36.963" y2="113.404" stroke="#F26522" stroke-width="0.7" stroke-miterlimit="10" stroke-dasharray="1 1" fill="none"/><g><rect x="36.135" y="120.361" width="0.5" height="3.25" fill="#F26522" transform="matrix(-0.0703 0.9975 -0.9975 -0.0703 160.626 94.2637)"/></g><g><path d="M155.508 96.665C152.612 97.092 150.61 99.785 151.036 102.681 151.462 105.577 154.158 107.585 157.053 107.158 159.95 106.732 161.951 104.032 161.526 101.136 161.099 98.24 158.404 96.238 155.508 96.665Z" stroke="#7C702D" stroke-width="0.3" stroke-dasharray="0.9783 0.9783" fill="none"/></g><circle cx="156.28" cy="101.91" r="2.799" stroke="#7C702D" stroke-width="0.3" fill="#B7C98F"/><g><path d="M156.216 106.81C156.056 106.449 155.947 106.45 155.607 105.955 155.07 105.238 153.637 105.968 153.724 106.701L153.768 107.026C153.4 106.882 152.299 107.562 152.636 108.499 151.966 108.491 151.669 109.113 151.941 109.706 152.173 110.223 152.285 110.527 152.282 111.499 152.278 112.705 152.158 114.113 153.214 115.35 153.307 115.458 153.257 115.61 153.187 115.659 153.048 115.757 152.589 115.785 152.65 116.168L152.902 117.569C152.994 118.071 153.801 118.344 156.135 117.913 158.561 117.473 159.507 117.274 159.335 116.266 159.166 115.279 159.107 115.005 159.107 115.005 159.043 114.695 158.824 114.68 158.678 114.656 158.595 114.642 158.539 114.53 158.561 114.443 158.593 114.305 158.909 112.961 158.83 111.862 158.756 110.849 158.987 110.403 158.763 109.749 158.498 108.974 158.118 106.381 157.991 105.61 157.865 104.852 157.405 103.688 157.151 102.073 156.911 100.536 155.135 100.849 155.463 102.214 155.722 103.291 155.597 103.352 155.711 103.72 155.91 104.365 155.965 105.106 156.02 105.626 156.046 105.863 156.161 106.108 156.216 106.81" stroke="#EB4024" stroke-width="0.5" stroke-miterlimit="10" fill="#FCD4CD"/><path d="M156.02 115.862C155.056 116.064 153.347 116.178 153.184 116.151 153.03 116.122 152.959 116.245 153.018 116.459 153.056 116.604 153.19 117.361 153.19 117.361 153.248 117.695 153.662 118.034 156.246 117.571 158.915 117.073 159.237 116.905 159.094 116.115L158.891 115.14C158.87 115.081 158.828 115.046 158.76 115.025 158.596 114.98 158.455 115.355 156.02 115.862Z" stroke="#EB4024" stroke-width="0.5" fill="#FCD4CD"/></g><line x1="157.688" y1="125.563" x2="156.539" y2="116.831" stroke="#F26522" stroke-width="0.7" stroke-miterlimit="10" stroke-dasharray="1 1" fill="none"/><g><rect x="157.454" y="123.939" width="0.5" height="3.25" fill="#F26522" transform="matrix(0.1465 0.9892 -0.9892 0.1465 258.813 -48.8314)"/></g><g><line x1="31.852" y1="168.093" x2="28.219" y2="168.093" stroke="#F26522" stroke-width="0.7" stroke-miterlimit="10" stroke-dasharray="1 1" fill="none"/><g><rect x="31.602" y="166.468" width="0.5" height="3.25" fill="#F26522"/></g><g><circle cx="27.373" cy="168.093" r="0.939" fill="#F26522"/></g></g><g><line x1="3.682" y1="171.391" x2="23.523" y2="171.391" stroke="#F26522" stroke-width="0.7" stroke-miterlimit="10" stroke-dasharray="1 1" fill="none"/><g><rect x="3.342" y="169.766" width="0.5" height="3.25" fill="#F26522"/></g><g><path d="M23.126 170.043C23.438 170.57 23.924 170.984 24.44 171.307 23.919 171.625 23.453 172.055 23.126 172.571L22.813 172.571C23.14 172.071 23.534 171.634 24.021 171.307 23.534 170.974 23.125 170.535 22.808 170.043L23.126 170.043Z" fill="#F26522"/><path d="M22.373 170.043C22.686 170.57 23.172 170.984 23.688 171.307 23.167 171.625 22.701 172.055 22.373 172.571L22.061 172.571C22.388 172.071 22.782 171.634 23.268 171.307 22.782 170.974 22.372 170.535 22.055 170.043L22.373 170.043Z" fill="#F26522"/></g></g><g><line x1="29.529" y1="198.672" x2="29.529" y2="178.831" stroke="#F26522" stroke-width="0.7" stroke-miterlimit="10" stroke-dasharray="1 1" fill="none"/><g><rect x="27.904" y="198.512" width="3.25" height="0.5" fill="#F26522"/></g><g><path d="M28.181 179.228C28.708 178.916 29.122 178.43 29.445 177.914 29.762 178.435 30.192 178.901 30.71 179.228L30.71 179.541C30.209 179.214 29.772 178.82 29.445 178.333 29.112 178.82 28.673 179.229 28.181 179.546L28.181 179.228Z" fill="#F26522"/><path d="M28.181 179.981C28.708 179.668 29.122 179.182 29.445 178.666 29.762 179.187 30.192 179.653 30.71 179.981L30.71 180.293C30.209 179.966 29.772 179.572 29.445 179.086 29.112 179.572 28.673 179.982 28.181 180.299L28.181 179.981Z" fill="#F26522"/></g></g><g><line x1="59.74" y1="175.978" x2="39.898" y2="175.978" stroke="#F26522" stroke-width="0.7" stroke-miterlimit="10" stroke-dasharray="1 1" fill="none"/><g><rect x="59.58" y="174.353" width="0.5" height="3.25" fill="#F26522"/></g><g><path d="M40.296 177.326C39.984 176.799 39.498 176.385 38.982 176.062 39.503 175.745 39.969 175.315 40.296 174.797L40.609 174.797C40.282 175.298 39.888 175.735 39.401 176.062 39.888 176.395 40.297 176.834 40.614 177.326L40.296 177.326Z" fill="#F26522"/><path d="M41.049 177.326C40.736 176.799 40.25 176.385 39.734 176.062 40.255 175.745 40.721 175.315 41.049 174.797L41.361 174.797C41.034 175.298 40.64 175.735 40.154 176.062 40.64 176.395 41.05 176.834 41.367 177.326L41.049 177.326Z" fill="#F26522"/></g></g><g><line x1="17.248" y1="180.984" x2="20.881" y2="180.984" stroke="#F26522" stroke-width="0.7" stroke-miterlimit="10" stroke-dasharray="1 1" fill="none"/><g><rect x="16.998" y="179.359" width="0.5" height="3.25" fill="#F26522"/></g><g><circle cx="21.727" cy="180.984" r="0.939" fill="#F26522"/></g></g><g><line x1="169.816" y1="77.326" x2="166.184" y2="77.326" stroke="#F26522" stroke-width="0.7" stroke-miterlimit="10" stroke-dasharray="1 1" fill="none"/><g><rect x="169.566" y="75.701" width="0.5" height="3.25" fill="#F26522"/></g><g><circle cx="165.338" cy="77.326" r="0.939" fill="#F26522"/></g></g><g><line x1="141.983" y1="54.761" x2="145.616" y2="54.761" stroke="#F26522" stroke-width="0.7" stroke-miterlimit="10" stroke-dasharray="1 1" fill="none"/><g><rect x="141.733" y="53.136" width="0.5" height="3.25" fill="#F26522"/></g><g><circle cx="146.462" cy="54.761" r="0.939" fill="#F26522"/></g></g><g><line x1="155.582" y1="154.326" x2="151.949" y2="154.326" stroke="#F26522" stroke-width="0.7" stroke-miterlimit="10" stroke-dasharray="1 1" fill="none"/><g><rect x="155.332" y="152.701" width="0.5" height="3.25" fill="#F26522"/></g><g><circle cx="151.104" cy="154.326" r="0.939" fill="#F26522"/></g></g><g><line x1="161.328" y1="189.334" x2="161.328" y2="185.701" stroke="#F26522" stroke-width="0.7" stroke-miterlimit="10" stroke-dasharray="1 1" fill="none"/><g><rect x="159.703" y="189.084" width="3.25" height="0.5" fill="#F26522"/></g><g><circle cx="161.328" cy="184.855" r="0.939" fill="#F26522"/></g></g><g><path d="M274.879 183.303C256.54 183.713 238.236 185.382 219.898 185.794 219.899 177.465 219.898 173.303 219.898 164.975 238.234 164.835 256.544 163.437 274.879 163.295 274.879 171.301 274.879 175.297 274.879 183.303Z" stroke="#262262" stroke-miterlimit="10" fill="#FFFFFF"/><path d="M219.897 185.794C223.668 177.436 225.55 173.244 229.321 164.878" stroke="#262262" stroke-miterlimit="10" fill="#FFFFFF"/></g><g><path d="M237.808 177.677C219.028 176.942 200.392 178.718 181.612 177.984 181.612 172.553 181.614 169.831 181.613 164.401 200.385 165.31 219.037 163.712 237.809 164.623 237.811 169.848 237.808 172.457 237.808 177.677Z" stroke="#262262" stroke-miterlimit="10" fill="#FFFFFF"/></g><line x1="235.976" y1="164.463" x2="235.976" y2="178.213" stroke="#262262" stroke-width="0.5" stroke-miterlimit="10" stroke-dasharray="1 1" fill="#FFFFFF"/><path d="M190.544 162.708C190.92 162.436 191.422 162.3 192.077 162.283 195.817 162.185 199.556 161.903 203.284 161.561 204.031 161.491 204.889 160.997 205.417 160.437 208.474 157.185 211.996 154.61 216.087 152.844 216.935 152.478 217.912 152.299 218.838 152.271 219.397 152.254 220.293 152.563 220.448 152.958 220.615 153.383 220.096 154.078 219.933 154.507 221.197 154.563 222.741 154.534 224.248 154.752 224.702 154.818 225.385 155.575 225.369 155.993 225.352 156.435 224.693 157.095 224.198 157.226 223.083 157.526 221.895 157.559 220.76 158.041 221.66 158.104 222.58 158.071 223.454 158.255 224.415 158.459 225.396 158.752 226.24 159.232 226.636 159.458 227.021 160.308 226.889 160.7 226.725 161.186 226.066 161.701 225.536 161.816 224.839 161.966 224.056 161.664 223.315 161.699 222.16 161.751 221.01 161.924 219.753 162.345 222.271 162.54 223.316 164.152 223.638 166.184 223.931 168.03 223.894 169.935 223.861 171.813 223.854 172.167 223.031 172.867 222.841 172.788 222.326 172.575 221.719 172.1 221.566 171.6 221.202 170.415 221.051 169.162 220.87 167.93 220.713 166.856 220.039 166.57 219.079 166.55 217.232 166.515 215.53 167.718 214.53 169.958" stroke="#262262" stroke-width="0.5" stroke-miterlimit="10" fill="#FFFFFF"/><g><path d="M178.904 171.397C197.804 173.283 216.133 169.827 235.058 170.863 236.148 173.701 236.695 175.128 237.786 178.02 218.876 176.22 200.561 179.76 181.632 178.81 180.541 175.88 179.995 174.399 178.904 171.397Z" stroke="#262262" stroke-miterlimit="10" fill="#FFFFFF"/></g><path d="M214.533 169.958C215.239 170.069 215.942 170.059 216.542 170.303 217.765 170.798 219 171.328 220.083 172.062 220.438 172.303 220.504 173.254 220.374 173.805 220.314 174.056 219.456 174.255 218.966 174.243 216.881 174.19 214.769 174.221 212.721 173.888 210.881 173.589 208.999 173.075 207.346 172.242 206.132 171.628 205.14 171.601 203.95 171.948 200.352 172.993 196.73 173.957 193.146 175.047 191.877 175.432 191.083 175.019 190.552 173.966 188.898 170.684 188.672 167.266 189.812 163.786 189.968 163.308 190.206 162.953 190.543 162.709" stroke="#262262" stroke-width="0.5" stroke-miterlimit="10" fill="#FFFFFF"/><g><g><path d="M217.598 180.155C213.477 189.227 204.487 195.518 194.058 195.518 185.53 195.518 177.962 191.311 173.234 184.816" stroke="#262262" stroke-width="0.5" stroke-miterlimit="10" fill="none"/><g><path d="M216.396 180.685 217.523 180.278 217.929 181.407 218.235 180.756 217.83 179.628 216.702 180.033Z" fill="#262262"/></g></g></g><g><line x1="235.976" y1="161.397" x2="235.976" y2="165.03" stroke="#F26522" stroke-width="0.7" stroke-miterlimit="10" stroke-dasharray="1 1" fill="none"/><g><rect x="234.351" y="161.147" width="3.25" height="0.5" fill="#F26522"/></g><g><circle cx="235.976" cy="165.875" r="0.939" fill="#F26522"/></g></g><g><line x1="240.44" y1="173.025" x2="236.808" y2="173.025" stroke="#F26522" stroke-width="0.7" stroke-miterlimit="10" stroke-dasharray="1 1" fill="none"/><g><rect x="240.19" y="171.4" width="0.5" height="3.25" fill="#F26522"/></g><g><circle cx="235.962" cy="173.025" r="0.939" fill="#F26522"/></g></g><line x1="222.01" y1="190.5" x2="222.01" y2="182.624" stroke="#F26522" stroke-width="0.7" stroke-miterlimit="10" stroke-dasharray="1 1" fill="none"/><g><rect x="220.385" y="190.5" width="3.25" height="0.5" fill="#F26522"/></g><g><circle cx="222.01" cy="181.778" r="0.939" fill="#F26522"/></g></svg>