<svg width="127.334" height="221.125" viewBox="0 0 127.334 221.125" xmlns="http://www.w3.org/2000/svg" xmlns:xlink="http://www.w3.org/1999/xlink" id="Layer_1" xml:space="preserve" overflow="hidden"><path d="M86.384 11.129 86.384 11.123C84.515 8.699 83.509 7.919 82.62 7.304 82.62 7.304 75.347 3.034 63.715 2.831 52.083 3.034 44.807 7.304 44.807 7.304 44.807 7.304 41.02 9.007 39.288 11.596L44.353 15.527C48.416 14.758 76.958 12.044 87.895 15.527 87.793 14.384 86.384 11.129 86.384 11.129Z" stroke="#262262" stroke-width="1.5" stroke-miterlimit="10" fill="#FFFFFF"/><path d="M86.722 19.679C86.722 19.673 86.722 19.666 86.722 19.66 86.722 18.129 70.644 17.202 63.658 16.919L63.594 16.919C58.354 17.132 47.999 17.706 43.151 18.626L40.434 15.06C40.434 15.06 53.418 12.646 63.594 12.181 73.768 12.646 86.752 15.06 86.752 15.06" stroke="#262262" stroke-width="1.5" stroke-miterlimit="10" fill="#FFFFFF"/><path d="" stroke="#21409A" stroke-width="1.5" stroke-miterlimit="10" fill="none"/><path d="M62.045 46.219 70.267 47.936 67.387 124.802 66.574 123.838 62.019 192.975C62.019 192.975 58.762 218.805 45.955 218.805 45.955 218.805 22.223 221.533 13.195 212.297 13.195 212.297 14.636 185.887 15.367 159.018L14.889 144.881 15.677 145.044C15.677 144.925 15.683 144.806 15.683 144.686 15.979 125.578 15.696 108.7 14 104.107L13.994 104.107C13.994 104.107 9.2 44.918 2.149 34.901 7.167 28.542 41.609 14.527 41.609 14.527" stroke="#262262" stroke-width="1.5" stroke-miterlimit="10" fill="#FFFFFF"/><path d="" stroke="#21409A" stroke-width="1.5" stroke-miterlimit="10" fill="none"/><path d="M27.367 93.736C29.047 103.922 27.367 146.4 27.367 146.4" stroke="#262262" stroke-width="1.5" stroke-miterlimit="10" fill="#FFFFFF"/><path d="" stroke="#21409A" stroke-width="1.5" stroke-miterlimit="10" fill="none"/><path d="" stroke="#21409A" stroke-width="1.5" stroke-miterlimit="10" fill="none"/><path d="" stroke="#21409A" stroke-width="1.5" stroke-miterlimit="10" fill="none"/><path d="M14.241 144.881 34.192 147.191 33.352 158.111C32.511 166.931 13.192 158.111 13.192 158.111L14.241 144.881Z" stroke="#262262" stroke-width="1.5" stroke-miterlimit="10" fill="#FFFFFF"/><line x1="13.997" y1="147.951" x2="34.192" y2="150.7" stroke="#262262" stroke-width="1.5" stroke-miterlimit="10" fill="#FFFFFF"/><path d="M60.526 136.643C57.955 163.907 58.387 215.001 79.657 218.664 80.167 218.759 80.69 218.803 81.231 218.803 81.231 218.803 104.963 221.531 113.992 212.295 113.992 212.295 112.55 185.885 111.817 159.016L111.503 144.683 111.509 145.042C111.509 144.923 111.503 144.802 111.503 144.683 111.207 125.575 111.491 108.698 113.186 104.105L113.188 104.108C113.188 104.108 117.982 44.915 125.034 34.902 117.506 31.68 101.411 23.575 100.133 23.912 95.106 25.237 60.805 133.694 60.526 136.643Z" stroke="#262262" stroke-width="1.5" stroke-miterlimit="10" fill="#FFFFFF"/><path d="M99.817 93.736C98.136 103.922 99.817 146.4 99.817 146.4" stroke="#262262" stroke-width="1.5" stroke-miterlimit="10" fill="#FFFFFF"/><path d="M112.941 144.881 92.991 147.191 93.832 158.111C94.673 166.931 113.992 158.111 113.992 158.111L112.941 144.881Z" stroke="#262262" stroke-width="1.5" stroke-miterlimit="10" fill="#FFFFFF"/><path d="M113.186 147.951 92.992 150.701 113.186 147.951Z" stroke="#262262" stroke-width="1.5" stroke-miterlimit="10" fill="#FFFFFF"/><path d="M82.901 44.822C79.088 66.687 75.544 89.37 67.651 110.208 65.153 116.806 62.274 123.382 61.276 130.42 60.998 132.384 61.105 134.761 60.526 136.642 60.526 136.642 62.017 131.799 65.167 125.972L99.817 57.303 92.493 51.899 82.901 44.822Z" stroke="#262262" stroke-width="1.5" stroke-miterlimit="10" fill="#FFFFFF"/><path d="M82.823 45.082 92.493 51.899 92.571 51.79 101.392 48.641 100.131 23.913C92.25 19.043 92.955 18.954 87.922 13.046 87.38 12.403 86.888 11.855 86.442 11.376L86.442 11.371C86.438 11.365 86.448 11.376 86.448 11.383 86.6 11.761 86.706 12.366 86.751 13.172 86.82 14.319 86.788 15.876 86.657 17.772 86.657 17.779 86.657 17.784 86.657 17.791 86.235 23.952 84.841 33.717 82.901 44.825" stroke="#262262" stroke-width="1.5" stroke-miterlimit="10" fill="#FFFFFF"/><g><line x1="18.354" y1="19.621" x2="20.343" y2="22.663" stroke="#F26522" stroke-width="0.7" stroke-miterlimit="10" stroke-dasharray="1 1" fill="none"/><g><rect x="18.106" y="17.996" width="0.499" height="3.25" fill="#F26522" transform="matrix(-0.5465 -0.8374 0.8374 -0.5465 11.9553 45.7158)"/></g><g><circle cx="20.805" cy="23.37" r="0.939" fill="#F26522"/></g></g><g><g><path d="M44.507 67.695C43.485 69.801 40.947 70.679 38.841 69.655 36.736 68.632 35.853 66.093 36.876 63.987 37.9 61.879 40.442 61.003 42.548 62.026 44.653 63.049 45.532 65.586 44.507 67.695Z" stroke="#7C702D" stroke-width="0.3" stroke-dasharray="1.0235 1.0235" fill="none"/></g><circle cx="40.692" cy="65.842" r="2.239" stroke="#7C702D" stroke-width="0.3" fill="#B7C98F"/><g><path d="M36.939 64.71C37.176 64.919 37.149 65.001 37.444 65.38 37.863 65.962 36.962 66.88 36.423 66.636L36.185 66.524C36.206 66.841 35.421 67.517 34.789 67.034 34.635 67.545 34.088 67.624 33.701 67.274 33.363 66.971 33.159 66.813 32.417 66.581 31.496 66.294 30.393 66.044 29.703 64.943 29.643 64.847 29.515 64.846 29.461 64.889 29.353 64.971 29.221 65.313 28.943 65.176L27.934 64.645C27.574 64.456 27.561 63.773 28.451 62.099 29.371 60.353 29.752 59.679 30.478 60.053 31.191 60.42 31.385 60.53 31.385 60.53 31.605 60.654 31.566 60.824 31.548 60.94 31.538 61.007 31.612 61.077 31.683 61.082 31.796 61.09 32.896 61.174 33.715 61.499 34.472 61.799 34.866 61.73 35.312 62.059 35.839 62.449 37.725 63.363 38.283 63.646 38.83 63.925 39.607 64.557 40.779 65.139 41.893 65.692 41.226 66.973 40.266 66.393 39.505 65.935 39.429 66.017 39.175 65.841 38.731 65.534 38.179 65.313 37.796 65.146 37.62 65.067 37.463 64.92 36.939 64.71" stroke="#EB4024" stroke-width="0.5" stroke-miterlimit="10" fill="#FCD4CD"/><path d="M29.987 62.678C29.6 63.366 29.102 64.639 29.083 64.773 29.067 64.897 28.957 64.921 28.809 64.824 28.708 64.76 28.163 64.477 28.163 64.477 27.921 64.351 27.762 63.954 28.739 62.095 29.761 60.178 29.967 59.973 30.537 60.273L31.23 60.663C31.27 60.694 31.286 60.735 31.285 60.79 31.28 60.927 30.96 60.943 29.987 62.678Z" stroke="#EB4024" stroke-width="0.5" fill="#FCD4CD"/></g><line x1="10.735" y1="53.234" x2="28.583" y2="61.905" stroke="#F26522" stroke-width="0.7" stroke-miterlimit="10" stroke-dasharray="1 1" fill="none"/><g><rect x="10.485" y="51.609" width="0.501" height="3.25" fill="#F26522" transform="matrix(-0.8994 -0.437 0.437 -0.8994 -2.8753 105.807)"/></g></g><g><line x1="10.896" y1="117.083" x2="14.528" y2="117.083" stroke="#F26522" stroke-width="0.7" stroke-miterlimit="10" stroke-dasharray="1 1" fill="none"/><g><rect x="10.646" y="115.458" width="0.5" height="3.25" fill="#F26522"/></g><g><circle cx="15.374" cy="117.083" r="0.939" fill="#F26522"/></g></g><g><g></g></g><g><line x1="33.665" y1="121.323" x2="30.032" y2="121.323" stroke="#F26522" stroke-width="0.7" stroke-miterlimit="10" stroke-dasharray="1 1" fill="none"/><g><rect x="33.415" y="119.698" width="0.5" height="3.25" fill="#F26522"/></g><g><circle cx="29.187" cy="121.323" r="0.939" fill="#F26522"/></g></g><g><line x1="54.879" y1="150.7" x2="58.512" y2="150.7" stroke="#F26522" stroke-width="0.7" stroke-miterlimit="10" stroke-dasharray="1 1" fill="none"/><g><rect x="54.629" y="149.075" width="0.5" height="3.25" fill="#F26522"/></g><g><circle cx="59.357" cy="150.7" r="0.939" fill="#F26522"/></g></g><g><line x1="88.558" y1="214.244" x2="88.558" y2="217.876" stroke="#F26522" stroke-width="0.7" stroke-miterlimit="10" stroke-dasharray="1 1" fill="none"/><g><rect x="86.933" y="213.995" width="3.25" height="0.5" fill="#F26522"/></g><g><circle cx="88.558" cy="218.723" r="0.939" fill="#F26522"/></g></g><g><g><g><path d="M70.496 141.444C70.428 141.485 70.346 141.507 70.262 141.506L62.098 141.507C61.832 141.506 61.619 141.29 61.618 141.027 61.618 140.761 61.831 140.547 62.098 140.547L70.262 140.546C70.527 140.546 70.741 140.762 70.741 141.027 70.74 141.207 70.643 141.363 70.496 141.444Z" stroke="#262262" stroke-width="0.5" stroke-miterlimit="10" fill="#FFFFFF"/></g></g><circle cx="66.179" cy="141.026" r="3.781" stroke="#262262" stroke-width="0.5" stroke-miterlimit="10" fill="#FFFFFF"/><circle cx="66.179" cy="141.026" r="3.122" stroke="#262262" stroke-width="0.5" stroke-miterlimit="10" fill="#FFFFFF"/><circle cx="65.553" cy="140.4" r="0.396" stroke="#262262" stroke-width="0.3" stroke-miterlimit="10" fill="#FFFFFF"/><circle cx="66.752" cy="140.4" r="0.397" stroke="#262262" stroke-width="0.3" stroke-miterlimit="10" fill="#FFFFFF"/><circle cx="65.553" cy="141.507" r="0.396" stroke="#262262" stroke-width="0.3" stroke-miterlimit="10" fill="#FFFFFF"/><circle cx="66.752" cy="141.506" r="0.397" stroke="#262262" stroke-width="0.3" stroke-miterlimit="10" fill="#FFFFFF"/><line x1="65.553" y1="140.4" x2="66.752" y2="141.506" stroke="#262262" stroke-width="0.3" stroke-miterlimit="10" fill="#FFFFFF"/><line x1="66.752" y1="140.4" x2="65.553" y2="141.507" stroke="#262262" stroke-width="0.3" stroke-miterlimit="10" fill="#FFFFFF"/></g><g><g><g><path d="M69.87 163.542C69.802 163.581 69.72 163.604 69.636 163.604L61.472 163.604C61.206 163.604 60.993 163.389 60.992 163.124 60.992 162.858 61.205 162.645 61.472 162.644L69.636 162.643C69.901 162.644 70.115 162.859 70.115 163.124 70.114 163.303 70.017 163.459 69.87 163.542Z" stroke="#262262" stroke-width="0.5" stroke-miterlimit="10" fill="#FFFFFF"/></g></g><circle cx="65.553" cy="163.124" r="3.781" stroke="#262262" stroke-width="0.5" stroke-miterlimit="10" fill="#FFFFFF"/><circle cx="65.553" cy="163.124" r="3.122" stroke="#262262" stroke-width="0.5" stroke-miterlimit="10" fill="#FFFFFF"/><circle cx="64.927" cy="162.497" r="0.396" stroke="#262262" stroke-width="0.3" stroke-miterlimit="10" fill="#FFFFFF"/><circle cx="66.126" cy="162.497" r="0.397" stroke="#262262" stroke-width="0.3" stroke-miterlimit="10" fill="#FFFFFF"/><circle cx="64.927" cy="163.604" r="0.396" stroke="#262262" stroke-width="0.3" stroke-miterlimit="10" fill="#FFFFFF"/><circle cx="66.126" cy="163.604" r="0.397" stroke="#262262" stroke-width="0.3" stroke-miterlimit="10" fill="#FFFFFF"/><line x1="64.927" y1="162.497" x2="66.126" y2="163.604" stroke="#262262" stroke-width="0.3" stroke-miterlimit="10" fill="#FFFFFF"/><line x1="66.126" y1="162.497" x2="64.927" y2="163.604" stroke="#262262" stroke-width="0.3" stroke-miterlimit="10" fill="#FFFFFF"/></g><g><line x1="90.093" y1="160.967" x2="70.251" y2="160.967" stroke="#F26522" stroke-width="0.7" stroke-miterlimit="10" stroke-dasharray="1 1" fill="none"/><g><rect x="89.933" y="159.342" width="0.5" height="3.25" fill="#F26522"/></g><g><path d="M70.648 159.619C70.336 160.146 69.85 160.56 69.334 160.883 69.855 161.201 70.321 161.631 70.648 162.147L70.961 162.147C70.634 161.647 70.24 161.21 69.753 160.883 70.24 160.55 70.649 160.111 70.966 159.619L70.648 159.619Z" fill="#F26522"/><path d="M71.401 159.619C71.088 160.146 70.602 160.56 70.086 160.883 70.607 161.201 71.073 161.631 71.401 162.147L71.713 162.147C71.386 161.647 70.992 161.21 70.506 160.883 70.992 160.55 71.402 160.111 71.719 159.619L71.401 159.619Z" fill="#F26522"/></g></g><g><line x1="76.453" y1="140.953" x2="72.82" y2="140.953" stroke="#F26522" stroke-width="0.7" stroke-miterlimit="10" stroke-dasharray="1 1" fill="none"/><g><rect x="76.203" y="139.328" width="0.5" height="3.25" fill="#F26522"/></g><g><circle cx="71.975" cy="140.953" r="0.94" fill="#F26522"/></g></g><path d="M55.397 44.767C50.338 38.153 40.295 17.362 38.96 11.756 39.723 11.642 40.541 12.039 41.398 12.845 48.025 15.951 47.616 16.329 56.63 17.456L68.085 39.406 61.374 45.945 55.397 44.767C55.404 44.792 55.411 44.811 55.417 44.836L62.045 46.219" stroke="#262262" stroke-width="1.5" stroke-miterlimit="10" fill="#FFFFFF"/><g><path d="M31.686 29.082C32.67 31.206 31.747 33.727 29.622 34.711 27.498 35.695 24.974 34.774 23.989 32.649 23.003 30.522 23.931 27.999 26.055 27.014 28.18 26.031 30.7 26.954 31.686 29.082Z" stroke="#7C702D" stroke-width="0.3" stroke-dasharray="1.0235 1.0235" fill="none"/></g><path d="M29.869 29.924C30.389 31.043 29.902 32.374 28.779 32.895 27.657 33.416 26.325 32.926 25.806 31.807 25.285 30.683 25.774 29.353 26.896 28.833 28.021 28.312 29.35 28.801 29.869 29.924Z" stroke="#7C702D" stroke-width="0.3" fill="#B7C98F"/><g><path d="M24.588 33.057C24.901 33.006 24.946 33.078 25.427 33.09 26.143 33.133 26.283 34.412 25.754 34.676L25.516 34.789C25.776 34.973 25.803 36.009 25.029 36.193 25.327 36.636 25.043 37.11 24.526 37.188 24.079 37.258 23.827 37.316 23.178 37.745 22.373 38.277 21.482 38.974 20.192 38.811 20.081 38.796 19.999 38.895 19.998 38.965 19.993 39.101 20.175 39.42 19.894 39.548L18.845 39.993C18.47 40.153 17.933 39.731 17.199 37.983 16.428 36.166 16.146 35.445 16.896 35.119 17.63 34.799 17.839 34.718 17.839 34.718 18.073 34.626 18.181 34.763 18.259 34.851 18.306 34.901 18.405 34.888 18.454 34.836 18.532 34.753 19.292 33.955 20.062 33.525 20.773 33.129 20.969 32.779 21.504 32.642 22.14 32.48 24.041 31.597 24.613 31.345 25.174 31.097 26.156 30.895 27.347 30.355 28.48 29.841 29.05 31.168 27.993 31.545 27.158 31.845 27.173 31.956 26.876 32.041 26.356 32.191 25.837 32.479 25.466 32.67 25.295 32.755 25.082 32.784 24.588 33.057" stroke="#EB4024" stroke-width="0.5" stroke-miterlimit="10" fill="#FCD4CD"/><path d="M18.617 37.157C18.905 37.891 19.577 39.083 19.668 39.182 19.754 39.272 19.703 39.373 19.535 39.427 19.422 39.465 18.857 39.709 18.857 39.709 18.605 39.817 18.197 39.688 17.376 37.756 16.537 35.751 16.509 35.464 17.102 35.211L17.842 34.92C17.891 34.909 17.932 34.922 17.975 34.958 18.078 35.048 17.889 35.307 18.617 37.157Z" stroke="#EB4024" stroke-width="0.5" fill="#FCD4CD"/></g><line x1="8.35" y1="41.826" x2="17.131" y2="37.756" stroke="#F26522" stroke-width="0.7" stroke-miterlimit="10" stroke-dasharray="1 1" fill="none"/><g><rect x="8.099" y="40.201" width="0.5" height="3.25" fill="#F26522" transform="matrix(-0.9073 0.4205 -0.4205 -0.9073 33.5121 76.2633)"/></g><g><g><path d="M14.978 78.987C15.443 76.692 17.68 75.208 19.975 75.674 22.27 76.139 23.76 78.376 23.294 80.671 22.827 82.969 20.585 84.452 18.292 83.987 15.997 83.521 14.513 81.285 14.978 78.987Z" stroke="#7C702D" stroke-width="0.3" stroke-dasharray="1.0235 1.0235" fill="none"/></g><circle cx="19.134" cy="79.828" r="2.238" stroke="#7C702D" stroke-width="0.3" fill="#B7C98F"/><g><path d="M22.897 80.832C22.582 80.856 22.554 80.938 22.09 81.064 21.404 81.277 21.573 82.552 22.151 82.682L22.41 82.736C22.201 82.976 22.421 83.988 23.218 83.983 23.035 84.484 23.424 84.876 23.943 84.829 24.396 84.79 24.655 84.787 25.387 85.048 26.295 85.372 27.327 85.837 28.539 85.37 28.645 85.329 28.748 85.406 28.766 85.473 28.803 85.604 28.703 85.957 29.007 86.014L30.134 86.196C30.534 86.262 30.955 85.724 31.25 83.851 31.565 81.902 31.666 81.135 30.86 80.997 30.068 80.861 29.849 80.833 29.849 80.833 29.599 80.8 29.527 80.958 29.471 81.062 29.438 81.121 29.337 81.132 29.279 81.095 29.183 81.032 28.257 80.439 27.404 80.205 26.619 79.989 26.345 79.698 25.792 79.692 25.138 79.687 23.077 79.282 22.465 79.173 21.861 79.068 20.857 79.104 19.571 78.865 18.349 78.636 18.111 80.061 19.228 80.175 20.11 80.267 20.122 80.378 20.43 80.39 20.972 80.412 21.545 80.567 21.951 80.663 22.139 80.708 22.353 80.685 22.897 80.832" stroke="#EB4024" stroke-width="0.5" stroke-miterlimit="10" fill="#FCD4CD"/><path d="M29.675 83.388C29.569 84.17 29.203 85.488 29.138 85.607 29.075 85.715 29.149 85.799 29.325 85.812 29.445 85.822 30.054 85.924 30.054 85.924 30.32 85.968 30.687 85.747 31.023 83.674 31.36 81.527 31.318 81.24 30.683 81.137L29.894 81.031C29.843 81.031 29.805 81.054 29.775 81.1 29.694 81.212 29.94 81.417 29.675 83.388Z" stroke="#EB4024" stroke-width="0.5" fill="#FCD4CD"/></g><line x1="50.389" y1="87.138" x2="30.942" y2="83.2" stroke="#F26522" stroke-width="0.7" stroke-miterlimit="10" stroke-dasharray="1 1" fill="none"/><g><rect x="50.376" y="85.614" width="0.5" height="3.251" fill="#F26522" transform="matrix(0.98 0.1991 -0.1991 0.98 18.3847 -8.3336)"/></g></g><g><circle cx="43.459" cy="168.797" r="4.241" stroke="#7C702D" stroke-width="0.3" stroke-dasharray="1.0235 1.0235" fill="none"/></g><circle cx="43.46" cy="168.798" r="2.238" stroke="#7C702D" stroke-width="0.3" fill="#B7C98F"/><g><path d="M39.591 169.423C39.897 169.506 39.907 169.592 40.337 169.804 40.971 170.144 40.562 171.364 39.97 171.38L39.706 171.384C39.864 171.659 39.454 172.611 38.674 172.453 38.759 172.98 38.302 173.29 37.802 173.145 37.365 173.02 37.114 172.968 36.343 173.085 35.389 173.23 34.287 173.488 33.186 172.799 33.09 172.739 32.974 172.795 32.945 172.857 32.883 172.979 32.914 173.344 32.604 173.342L31.463 173.306C31.059 173.294 30.748 172.686 30.815 170.791 30.878 168.818 30.925 168.045 31.742 168.063 32.544 168.08 32.767 168.095 32.767 168.095 33.019 168.111 33.059 168.28 33.093 168.392 33.115 168.456 33.21 168.487 33.278 168.461 33.381 168.418 34.406 168.012 35.287 167.945 36.099 167.883 36.422 167.65 36.967 167.75 37.613 167.87 39.708 167.865 40.332 167.876 40.946 167.888 41.924 168.115 43.229 168.126 44.474 168.135 44.436 169.579 43.318 169.478 42.434 169.4 42.402 169.507 42.095 169.459 41.56 169.377 40.967 169.42 40.55 169.438 40.358 169.446 40.153 169.383 39.591 169.423" stroke="#EB4024" stroke-width="0.5" stroke-miterlimit="10" fill="#FCD4CD"/><path d="M32.449 170.639C32.404 171.427 32.512 172.79 32.553 172.92 32.594 173.038 32.506 173.107 32.328 173.086 32.211 173.072 31.595 173.057 31.595 173.057 31.324 173.05 31.006 172.762 31.072 170.663 31.151 168.491 31.248 168.218 31.89 168.238L32.685 168.284C32.735 168.294 32.766 168.324 32.789 168.374 32.845 168.5 32.565 168.654 32.449 170.639Z" stroke="#EB4024" stroke-width="0.5" fill="#FCD4CD"/></g><line x1="17.809" y1="170.571" x2="30.849" y2="170.56" stroke="#F26522" stroke-width="0.7" stroke-miterlimit="10" stroke-dasharray="1 1" fill="none"/><g><rect x="17.558" y="168.952" width="0.501" height="3.25" fill="#F26522"/></g></svg>