<svg width="338.5" height="253.5" viewBox="0 0 338.5 253.5" xmlns="http://www.w3.org/2000/svg" xmlns:xlink="http://www.w3.org/1999/xlink" id="Layer_1" xml:space="preserve" overflow="hidden"><rect x="19.272" y="57.132" width="206.719" height="193.285" stroke="#262262" stroke-miterlimit="10" stroke-dasharray="3 3" fill="#FFFFFF"/><rect x="19.272" y="38.973" width="206.719" height="12.106" stroke="#262262" stroke-width="1.5" stroke-miterlimit="10" fill="#FFFFFF" fill-rule="evenodd" clip-rule="evenodd"/><rect x="19.272" y="51.08" width="206.719" height="12.105" stroke="#262262" stroke-width="1.5" stroke-miterlimit="10" fill="#FFFFFF" fill-rule="evenodd" clip-rule="evenodd"/><path d="M203.652 51.417 122.631 132.438 41.611 51.417Z" stroke="#262262" stroke-width="1.5" stroke-miterlimit="10" fill="#FFFFFF"/><line x1="225.991" y1="38.973" x2="225.991" y2="63.185" stroke="#262262" stroke-width="3" stroke-miterlimit="10" fill="#FFFFFF"/><line x1="19.272" y1="38.973" x2="19.272" y2="63.185" stroke="#262262" stroke-width="3" stroke-miterlimit="10" fill="#FFFFFF"/><g><path d="M119.701 107.846C119.461 107.571 119.32 107.258 119.321 106.925L119.187 75.175C119.181 74.144 120.492 73.326 122.104 73.343 123.722 73.364 125.035 74.214 125.04 75.246L125.177 107C125.183 108.029 123.872 108.849 122.253 108.828 121.162 108.813 120.203 108.419 119.701 107.846Z" stroke="#262262" stroke-width="1.5" stroke-miterlimit="10" fill="#FFFFFF"/></g><circle cx="122.631" cy="91.178" r="15.949" stroke="#262262" stroke-width="1.5" stroke-miterlimit="10" fill="#FFFFFF"/><circle cx="122.628" cy="91.178" r="11.868" stroke="#262262" stroke-width="1.5" stroke-miterlimit="10" fill="#FFFFFF"/><circle cx="120.192" cy="88.894" r="1.771" stroke="#262262" stroke-width="1.5" stroke-miterlimit="10" fill="#FFFFFF"/><path d="M123.294 88.894C123.294 87.915 124.085 87.122 125.069 87.122 126.046 87.122 126.837 87.914 126.837 88.894 126.837 89.873 126.046 90.666 125.069 90.666 124.085 90.666 123.294 89.873 123.294 88.894Z" stroke="#262262" stroke-width="1.5" stroke-miterlimit="10" fill="#FFFFFF"/><circle cx="120.192" cy="93.462" r="1.771" stroke="#262262" stroke-width="1.5" stroke-miterlimit="10" fill="#FFFFFF"/><path d="M123.294 93.462C123.294 92.482 124.085 91.69 125.069 91.69 126.046 91.69 126.837 92.482 126.837 93.462 126.837 94.441 126.046 95.233 125.069 95.233 124.085 95.234 123.294 94.441 123.294 93.462Z" stroke="#262262" stroke-width="1.5" stroke-miterlimit="10" fill="#FFFFFF"/><line x1="125.07" y1="88.894" x2="120.193" y2="93.462" stroke="#262262" stroke-width="1.5" stroke-miterlimit="10" fill="#FFFFFF"/><line x1="120.193" y1="88.894" x2="125.07" y2="93.462" stroke="#262262" stroke-width="1.5" stroke-miterlimit="10" fill="#FFFFFF"/><g><line x1="4.811" y1="51.075" x2="16.576" y2="51.075" stroke="#F26522" stroke-miterlimit="10" stroke-dasharray="1 1" fill="none"/><g><rect x="3.998" y="45.817" width="1.618" height="10.523" fill="#F26522"/></g><g><path d="M19.317 54.122C21.005 54.122 22.369 52.759 22.369 51.076 22.369 49.4 21.006 48.033 19.317 48.033 17.638 48.033 16.28 49.4 16.28 51.076 16.28 52.759 17.638 54.122 19.317 54.122Z" fill="#F26522"/></g></g><g><g><path d="M61.241 49.65C57.446 49.58 54.423 46.455 54.491 42.658 54.557 38.865 57.686 35.838 61.477 35.904 65.274 35.968 68.297 39.107 68.227 42.9 68.163 46.694 65.03 49.713 61.241 49.65Z" stroke="#7C702D" stroke-dasharray="0.9798 0.9798" fill="none"/></g><path d="M61.26 47.303C58.76 47.264 56.76 45.201 56.811 42.698 56.858 40.191 58.92 38.195 61.42 38.24 63.924 38.282 65.924 40.349 65.873 42.855 65.831 45.358 63.764 47.35 61.26 47.303Z" stroke="#7C702D" fill="#B7C98F"/><g><path d="M60.217 34.912C60.035 35.526 59.862 35.549 59.414 36.414 58.701 37.678 56.25 36.801 56.238 35.606L56.238 35.076C55.677 35.383 53.771 34.522 54.115 32.945 53.039 33.095 52.435 32.158 52.748 31.15 53.014 30.269 53.127 29.76 52.922 28.201 52.664 26.263 52.178 24.026 53.613 21.818 53.744 21.626 53.631 21.393 53.508 21.326 53.268 21.201 52.524 21.247 52.537 20.622L52.652 18.318C52.697 17.49 53.939 16.889 57.773 17.092 61.767 17.295 63.328 17.42 63.257 19.072 63.193 20.695 63.157 21.146 63.157 21.146 63.116 21.658 62.766 21.725 62.542 21.795 62.407 21.836 62.345 22.027 62.399 22.162 62.477 22.376 63.262 24.471 63.362 26.251 63.454 27.893 63.919 28.564 63.696 29.662 63.432 30.958 63.356 35.205 63.315 36.471 63.27 37.717 62.77 39.681 62.7 42.326 62.636 44.849 59.718 44.712 59.964 42.451 60.153 40.67 59.941 40.599 60.046 39.982 60.234 38.904 60.169 37.703 60.146 36.857 60.141 36.469 60.276 36.053 60.217 34.912" stroke="#EB4024" stroke-miterlimit="10" fill="#FCD4CD"/><path d="M58.02 20.412C56.432 20.287 53.661 20.458 53.403 20.535 53.163 20.618 53.022 20.432 53.075 20.076 53.104 19.833 53.163 18.592 53.163 18.592 53.186 18.04 53.78 17.412 58.026 17.619 62.417 17.863 62.971 18.065 62.907 19.365L62.784 20.973C62.761 21.072 62.696 21.137 62.596 21.185 62.342 21.291 62.04 20.721 58.02 20.412Z" stroke="#EB4024" fill="#FCD4CD"/></g><line x1="58.682" y1="4.479" x2="58.653" y2="18.744" stroke="#F26522" stroke-miterlimit="10" stroke-dasharray="1 1" fill="none"/><g><rect x="58.247" y="2.073" width="0.811" height="5.264" fill="#F26522" transform="matrix(0.0289 -0.9996 0.9996 0.0289 52.2544 63.1974)"/></g></g><g><line x1="166.528" y1="24.275" x2="166.528" y2="36.04" stroke="#F26522" stroke-miterlimit="10" stroke-dasharray="1 1" fill="none"/><g><rect x="161.262" y="23.463" width="10.523" height="1.618" fill="#F26522"/></g><g><path d="M163.481 38.781C163.481 40.469 164.844 41.832 166.528 41.832 168.204 41.832 169.571 40.469 169.571 38.781 169.571 37.102 168.204 35.744 166.528 35.744 164.844 35.744 163.481 37.103 163.481 38.781Z" fill="#F26522"/></g></g><g><path d="M99.923 88.036C99.853 91.831 96.728 94.854 92.931 94.786 89.138 94.72 86.111 91.591 86.177 87.8 86.241 84.003 89.38 80.979 93.173 81.05 96.966 81.114 99.986 84.247 99.923 88.036Z" stroke="#7C702D" stroke-dasharray="0.9798 0.9798" fill="none"/></g><path d="M97.576 88.016C97.537 90.516 95.474 92.516 92.971 92.465 90.463 92.418 88.467 90.355 88.512 87.855 88.555 85.352 90.621 83.352 93.127 83.402 95.63 83.446 97.623 85.512 97.576 88.016Z" stroke="#7C702D" fill="#B7C98F"/><line x1="4.198" y1="90.609" x2="69.396" y2="90.639" stroke="#F26522" stroke-miterlimit="10" stroke-dasharray="1 1" fill="none"/><g><rect x="3.592" y="87.992" width="0.811" height="5.264" fill="#F26522" transform="matrix(-0.9996 -0.0283 0.0283 -0.9996 5.4287 181.325)"/></g><g><path d="M85.185 89.06C85.798 89.242 85.822 89.415 86.687 89.862 87.951 90.575 87.074 93.027 85.878 93.038L85.349 93.038C85.656 93.599 84.794 95.505 83.218 95.162 83.368 96.238 82.431 96.841 81.423 96.529 80.542 96.263 80.032 96.15 78.474 96.354 76.536 96.613 74.298 97.099 72.091 95.663 71.9 95.532 71.665 95.645 71.599 95.768 71.474 96.009 71.521 96.752 70.896 96.739L68.591 96.624C67.763 96.579 67.161 95.337 67.364 91.503 67.567 87.509 67.692 85.949 69.344 86.019 70.967 86.083 71.418 86.119 71.418 86.119 71.93 86.161 71.996 86.51 72.066 86.734 72.107 86.869 72.298 86.932 72.433 86.877 72.648 86.799 74.742 86.013 76.523 85.914 78.164 85.822 78.836 85.356 79.933 85.58 81.23 85.844 85.476 85.92 86.742 85.961 87.988 86.005 89.953 86.505 92.597 86.576 95.12 86.64 94.984 89.558 92.722 89.311 90.941 89.122 90.87 89.335 90.253 89.229 89.175 89.042 87.974 89.106 87.128 89.13 86.742 89.135 86.326 89 85.185 89.06" stroke="#EB4024" stroke-miterlimit="10" fill="#FCD4CD"/><path d="M70.685 91.256C70.56 92.844 70.732 95.615 70.808 95.873 70.89 96.113 70.704 96.254 70.349 96.201 70.107 96.172 68.865 96.113 68.865 96.113 68.314 96.09 67.685 95.496 67.892 91.25 68.136 86.86 68.337 86.305 69.638 86.369L71.245 86.493C71.345 86.516 71.409 86.581 71.458 86.68 71.564 86.934 70.994 87.237 70.685 91.256Z" stroke="#EB4024" fill="#FCD4CD"/></g><g><path d="M281.736 119.04C281.256 118.49 280.975 117.865 280.977 117.198L280.709 53.699C280.697 51.637 283.318 50.001 286.544 50.035 289.779 50.077 292.404 51.776 292.414 53.841L292.689 117.347C292.701 119.407 290.08 121.046 286.842 121.003 284.658 120.973 282.74 120.187 281.736 119.04Z" stroke="#262262" stroke-width="1.5" stroke-miterlimit="10" fill="#FFFFFF"/></g><path d="M319.497 85.704C319.497 103.319 305.211 117.598 287.597 117.598 269.985 117.598 255.701 103.319 255.701 85.704 255.701 68.089 269.985 53.81 287.597 53.81 305.211 53.81 319.497 68.089 319.497 85.704Z" stroke="#262262" stroke-width="1.5" stroke-miterlimit="10" fill="#FFFFFF"/><path d="M311.328 85.704C311.328 98.813 300.704 109.442 287.597 109.442 274.485 109.442 263.857 98.813 263.857 85.704 263.857 72.595 274.485 61.966 287.597 61.966 300.705 61.966 311.328 72.595 311.328 85.704Z" stroke="#262262" stroke-width="1.5" stroke-miterlimit="10" fill="#FFFFFF"/><path d="M279.178 81.136C279.178 79.177 280.76 77.591 282.72 77.591 284.679 77.591 286.262 79.177 286.262 81.136 286.262 83.095 284.679 84.679 282.72 84.679 280.759 84.679 279.178 83.095 279.178 81.136Z" stroke="#262262" stroke-width="1.5" stroke-miterlimit="10" fill="#FFFFFF"/><path d="M288.923 81.136C288.923 79.177 290.506 77.591 292.474 77.591 294.427 77.591 296.009 79.177 296.009 81.136 296.009 83.095 294.427 84.679 292.474 84.679 290.506 84.679 288.923 83.095 288.923 81.136Z" stroke="#262262" stroke-width="1.5" stroke-miterlimit="10" fill="#FFFFFF"/><path d="M279.178 90.272C279.178 88.313 280.76 86.728 282.72 86.728 284.679 86.728 286.262 88.313 286.262 90.272 286.262 92.23 284.679 93.815 282.72 93.815 280.759 93.815 279.178 92.23 279.178 90.272Z" stroke="#262262" stroke-width="1.5" stroke-miterlimit="10" fill="#FFFFFF"/><path d="M288.923 90.272C288.923 88.313 290.506 86.728 292.474 86.728 294.427 86.728 296.009 88.313 296.009 90.272 296.009 92.23 294.427 93.815 292.474 93.815 290.506 93.815 288.923 92.23 288.923 90.272Z" stroke="#262262" stroke-width="1.5" stroke-miterlimit="10" fill="#FFFFFF"/><line x1="292.475" y1="81.136" x2="282.72" y2="90.272" stroke="#262262" stroke-width="1.5" stroke-miterlimit="10" fill="#FFFFFF"/><line x1="282.72" y1="81.136" x2="292.475" y2="90.272" stroke="#262262" stroke-width="1.5" stroke-miterlimit="10" fill="#FFFFFF"/><g><g><path d="M277.827 119.396C260.369 136.281 236.589 146.672 210.382 146.672 178.375 146.672 149.987 131.172 132.316 107.27" stroke="#262262" stroke-width="1.5" stroke-miterlimit="10" fill="none"/><g><path d="M269.978 118.303 269.984 119.804 277.38 119.763 276.881 127.143 278.379 127.243 278.985 118.254Z" fill="#262262"/></g></g></g><g><line x1="286.267" y1="35.011" x2="286.267" y2="46.775" stroke="#F26522" stroke-miterlimit="10" stroke-dasharray="1 1" fill="none"/><g><rect x="281.001" y="34.197" width="10.523" height="1.618" fill="#F26522"/></g><g><path d="M283.22 49.517C283.22 51.205 284.583 52.568 286.267 52.568 287.943 52.568 289.31 51.205 289.31 49.517 289.31 47.838 287.943 46.48 286.267 46.48 284.583 46.48 283.22 47.838 283.22 49.517Z" fill="#F26522"/></g></g><line x1="332.588" y1="85.52" x2="290.068" y2="85.52" stroke="#F26522" stroke-miterlimit="10" stroke-dasharray="1 1" fill="none"/><g><rect x="332.823" y="80.443" width="1.618" height="10.523" fill="#F26522"/></g><g><path d="M287.392 81.723C285.704 81.723 284.34 83.086 284.34 84.769 284.34 86.445 285.703 87.812 287.392 87.812 289.071 87.812 290.429 86.445 290.429 84.769 290.429 83.086 289.07 81.723 287.392 81.723Z" fill="#F26522"/></g><line x1="334.441" y1="67.5" x2="316.286" y2="67.5" stroke="#F26522" stroke-miterlimit="10" stroke-dasharray="1 1" fill="none"/><g><path d="M316.684 68.85C316.372 68.321 315.886 67.907 315.37 67.585 315.891 67.268 316.357 66.838 316.684 66.321L316.997 66.321C316.67 66.821 316.276 67.258 315.789 67.585 316.276 67.918 316.685 68.357 317.002 68.85L316.684 68.85Z" fill="#F26522"/><path d="M317.437 68.85C317.124 68.321 316.638 67.907 316.122 67.585 316.643 67.268 317.109 66.838 317.437 66.321L317.749 66.321C317.422 66.821 317.028 67.258 316.542 67.585 317.028 67.918 317.438 68.357 317.755 68.85L317.437 68.85Z" fill="#F26522"/></g><g><rect x="333.956" y="64.394" width="0.971" height="6.314" fill="#F26522"/></g><g><g><path d="M129.398 176.434C129.328 180.228 126.203 183.252 122.406 183.184 118.613 183.118 115.586 179.989 115.652 176.197 115.716 172.401 118.855 169.377 122.648 169.447 126.441 169.511 129.461 172.644 129.398 176.434Z" stroke="#7C702D" stroke-dasharray="0.9798 0.9798" fill="none"/></g><path d="M127.051 176.414C127.012 178.914 124.949 180.914 122.446 180.863 119.938 180.817 117.942 178.754 117.987 176.254 118.03 173.75 120.096 171.75 122.602 171.801 125.105 171.843 127.098 173.91 127.051 176.414Z" stroke="#7C702D" fill="#B7C98F"/><g><path d="M114.66 177.457C115.273 177.639 115.297 177.812 116.162 178.26 117.426 178.973 116.549 181.424 115.353 181.436L114.824 181.436C115.131 181.996 114.269 183.903 112.693 183.559 112.843 184.636 111.906 185.239 110.898 184.926 110.017 184.66 109.507 184.547 107.949 184.753 106.011 185.01 103.773 185.497 101.566 184.061 101.375 183.93 101.14 184.043 101.074 184.166 100.949 184.406 100.996 185.151 100.371 185.137L98.066 185.021C97.238 184.977 96.636 183.735 96.839 179.901 97.042 175.906 97.167 174.346 98.819 174.416 100.442 174.48 100.893 174.516 100.893 174.516 101.405 174.557 101.471 174.907 101.541 175.131 101.582 175.266 101.773 175.328 101.908 175.274 102.123 175.196 104.217 174.411 105.998 174.311 107.639 174.22 108.311 173.755 109.408 173.977 110.705 174.241 114.951 174.317 116.217 174.358 117.463 174.403 119.428 174.903 122.072 174.973 124.595 175.038 124.459 177.955 122.197 177.709 120.416 177.519 120.345 177.732 119.728 177.627 118.65 177.439 117.449 177.504 116.603 177.527 116.217 177.533 115.801 177.398 114.66 177.457" stroke="#EB4024" stroke-miterlimit="10" fill="#FCD4CD"/><path d="M100.16 179.654C100.035 181.242 100.207 184.013 100.283 184.271 100.365 184.512 100.179 184.653 99.824 184.6 99.582 184.57 98.34 184.512 98.34 184.512 97.789 184.489 97.16 183.894 97.367 179.649 97.611 175.258 97.812 174.704 99.113 174.769L100.72 174.892C100.82 174.915 100.884 174.979 100.933 175.08 101.039 175.332 100.469 175.635 100.16 179.654Z" stroke="#EB4024" fill="#FCD4CD"/></g><line x1="84.227" y1="178.992" x2="98.492" y2="179.021" stroke="#F26522" stroke-miterlimit="10" stroke-dasharray="1 1" fill="none"/><g><rect x="84.048" y="176.39" width="0.811" height="5.264" fill="#F26522" transform="matrix(-0.9996 -0.0289 0.0289 -0.9996 163.697 360.409)"/></g></g><g><line x1="209.857" y1="221.349" x2="221.622" y2="221.349" stroke="#F26522" stroke-miterlimit="10" stroke-dasharray="1 1" fill="none"/><g><rect x="209.044" y="216.091" width="1.618" height="10.523" fill="#F26522"/></g><g><path d="M224.363 224.396C226.051 224.396 227.415 223.034 227.415 221.35 227.415 219.674 226.052 218.308 224.363 218.308 222.684 218.308 221.326 219.675 221.326 221.35 221.326 223.033 222.685 224.396 224.363 224.396Z" fill="#F26522"/></g></g></svg>