<svg width="100.166" height="233.865" viewBox="0 0 100.166 233.865" xmlns="http://www.w3.org/2000/svg" xmlns:xlink="http://www.w3.org/1999/xlink" id="Layer_1" xml:space="preserve" overflow="hidden"><path d="" stroke="#262262" stroke-width="1.5" stroke-miterlimit="10" fill="#FFFFFF"/><rect x="18.774" y="220.11" width="54.253" height="8.451" stroke="#262262" stroke-width="1.5" stroke-miterlimit="10" fill="#FFFFFF"/><path d="M66.408 224.757 31.718 227.72 31.198 220.491 65.616 218.158Z" stroke="#262262" stroke-width="1.5" stroke-miterlimit="10" fill="#FFFFFF"/><path d="M73.042 219.46 73.027 224.01C73.027 224.01 70.178 225.661 66.005 224.672 64.857 224.4 58.79 220.782 54.241 221.6 49.69 222.416 33.916 227.547 31.177 227.764L31.718 227.72C25.589 228.218 20.738 228.56 19.007 228.56 12.707 228.56 10.841 197.216 9.821 174.349 9.346 163.71 9.68 153.051 9.874 142.408 10.265 120.948 10.888 99.485 11.961 78.05 12.449 68.311 14.192 58.629 15.495 48.939 16.137 44.165 18.497 40.509 22.511 37.55 29.769 32.199 36.691 26.395 43.758 20.786 44.353 20.315 44.982 19.89 45.597 19.442" stroke="#262262" stroke-width="1.5" stroke-miterlimit="10" fill="#FFFFFF" fill-rule="evenodd" clip-rule="evenodd"/><path d="M73.017 219.947C73.017 215.297 73.08 210.893 73.007 206.491 72.538 177.456 72.03 148.421 71.556 119.386 71.351 106.793 71.223 94.198 70.966 81.605 70.949 80.755 70.353 79.625 69.675 79.136 67.13 77.302 65.29 74.965 64.066 72.07 62.099 67.422 61.568 62.501 61.505 57.509 61.357 45.603 63.432 33.985 66.054 22.456 66.474 20.613 66.318 19.588 64.489 18.706 61.402 17.218 58.472 15.392 55.47 13.721 53.995 12.9 52.507 12.108 51.058 11.321 42.126 24.343 31.964 44.458 28.415 63.35 26.96 71.091 26.429 78.877 26.874 86.733 26.948 89.523 26.872 94.854 26.872 94.854 26.733 95.22 26.866 176.887 26.784 217.28" stroke="#262262" stroke-width="1.5" stroke-miterlimit="10" fill="#FFFFFF" fill-rule="evenodd" clip-rule="evenodd"/><path d="M9.774 168.049C9.721 159.5 9.717 150.952 9.874 142.406 10.265 120.946 10.888 99.483 11.961 78.049 12.449 68.31 14.192 58.628 15.495 48.938 16.137 44.164 18.497 40.508 22.511 37.549 29.769 32.198 36.691 26.394 43.758 20.785 44.353 20.314 44.982 19.888 45.597 19.441 33.612 40.798 25.162 62.965 26.86 88.084L26.803 93.926C26.803 94.726 26.803 95.48 26.803 96.234 26.805 136.605 26.788 176.976 26.866 217.348" stroke="#262262" stroke-width="1.5" stroke-miterlimit="10" fill="#FFFFFF" fill-rule="evenodd" clip-rule="evenodd"/><path d="M9.774 168.049C9.721 159.5 9.717 150.952 9.874 142.406 10.265 120.946 10.888 99.483 11.961 78.049 12.449 68.31 14.192 58.628 15.495 48.938 16.137 44.164 18.497 40.508 22.511 37.549 29.769 32.198 36.691 26.394 43.758 20.785 44.353 20.314 44.982 19.888 45.597 19.441 33.612 40.798 25.162 62.965 26.86 88.084L26.803 93.926C26.803 94.726 26.803 95.48 26.803 96.234 26.805 136.605 26.788 176.976 26.866 217.348" stroke="#262262" stroke-width="1.5" stroke-miterlimit="10" fill="#FFFFFF" fill-rule="evenodd" clip-rule="evenodd"/><g><path d="M25.453 227.695 25.675 217.321C25.612 184.03 25.612 150.153 25.613 117.391L25.613 93.926 25.67 88.118C24.192 66.13 30.019 44.768 44.558 18.858" fill="#FFFFFF" fill-rule="evenodd" clip-rule="evenodd"/><g><line x1="25.453" y1="227.695" x2="25.485" y2="226.195" stroke="#262262" stroke-width="0.5" stroke-miterlimit="10" fill="none"/><path d="M25.59 221.28 25.675 217.322C25.612 184.031 25.612 150.154 25.613 117.392L25.613 93.926 25.67 88.118C24.259 67.12 29.509 46.693 42.647 22.33" stroke="#262262" stroke-width="0.5" stroke-miterlimit="10" stroke-dasharray="2.9497 4.9161" fill="none"/><path d="M43.827 20.17C44.068 19.734 44.311 19.296 44.557 18.858" stroke="#262262" stroke-width="0.5" stroke-miterlimit="10" fill="none"/></g></g><path d="M45.597 19.441C33.612 40.798 25.162 62.965 26.86 88.084L26.803 93.926C26.803 94.726 26.803 95.48 26.803 96.234 26.805 136.605 26.788 176.976 26.866 217.348L26.643 227.721" stroke="#262262" stroke-width="1.5" stroke-miterlimit="10" fill="#FFFFFF" fill-rule="evenodd" clip-rule="evenodd"/><path d="M15.474 27.572C19.171 23.642 22.443 19.928 25.972 16.48 29.464 13.069 33.193 9.9 36.868 6.684 37.753 5.911 38.866 5.408 39.819 4.706 41.394 3.544 42.593 3.738 43.924 5.255 45.716 7.297 47.735 9.147 49.725 11.005 50.589 11.809 50.741 12.442 50.071 13.493 48.26 16.335 46.255 18.868 43.429 20.887 38.262 24.579 33.327 28.6 28.35 32.552 27.149 33.506 26.127 33.725 24.764 32.904 21.843 31.143 18.853 29.5 15.474 27.572Z" stroke="#262262" stroke-width="1.5" stroke-miterlimit="10" fill="#FFFFFF" fill-rule="evenodd" clip-rule="evenodd"/><path d="" stroke="#262262" stroke-width="1.5" stroke-miterlimit="10" fill="#FFFFFF" fill-rule="evenodd" clip-rule="evenodd"/><g><path d="M98.659 225.937C98.67 226.098 98.679 226.219 98.677 226.19 94.545 227.366 90.443 228.448 86.402 229.724 84.66 230.276 83.027 231.189 81.381 232.013 80.651 232.379 79.934 232.58 79.123 232.554 78.443 232.531 77.76 232.595 77.078 232.591 76.481 232.589 75.87 232.624 75.291 232.508 73.627 232.177 71.978 231.956 70.332 232.582 70.164 232.647 69.973 232.653 69.783 232.686 69.722 232.473 69.646 232.292 69.619 232.104 69.555 231.665 69.625 231.342 70.047 231.005 71.141 230.13 72.435 230.305 73.615 230.138 70.133 227.484 65.917 226.097 62.005 223.895 62.192 223.79 62.262 223.752 62.319 223.719 61.585 223.433 61.517 223.339 61.533 222.555 62.034 222.519 62.523 222.467 62.783 222.98 62.788 222.92 62.8 222.755 62.813 222.549 65.515 223.518 68.185 224.474 70.855 225.431 70.906 225.381 70.959 225.331 71.011 225.282 70.546 224.667 70.137 223.995 69.603 223.449 68.878 222.712 68.074 222.051 67.272 221.394 66.679 220.907 66.482 220.31 66.578 219.496 66.996 219.525 67.484 219.419 67.805 219.604 69.335 220.483 70.821 221.44 72.387 222.411 72.01 222.054 71.68 221.709 71.32 221.402 70.676 220.855 70.022 220.319 69.356 219.798 69.19 219.669 68.893 219.491 68.773 219.555 68.213 219.853 68.189 219.385 68.104 219.105 67.996 218.751 68.344 218.466 68.569 218.304 69.386 217.707 69.926 218.424 70.602 218.603 71.87 218.939 72.608 220.037 73.715 220.579 73.899 220.668 74.065 220.792 74.393 220.993 74.342 220.522 74.409 220.122 74.251 219.856 73.727 218.975 73.123 218.143 72.548 217.293 72.434 217.124 72.244 216.975 72.202 216.79 72.146 216.536 72.195 216.256 72.201 215.987 72.435 216.044 72.671 216.104 72.908 216.16 74.569 216.555 75.214 218.112 76.328 219.135 76.975 219.73 77.647 220.344 78.413 220.755 79.557 221.367 80.777 221.845 81.994 222.304 82.707 222.572 83.467 222.49 84.182 222.181 87.396 220.791 90.61 219.401 93.825 218.014 94.468 217.736 95.115 217.472 95.825 217.172 96.119 218.309 96.397 219.382 96.676 220.455 97.152 222.278 97.624 224.105 98.111 225.926 98.148 226.062 98.273 226.175 98.358 226.299 98.446 226.19 98.535 226.083 98.659 225.937Z" stroke="#262262" stroke-width="0.7" stroke-miterlimit="10" fill="#FFFFFF"/></g><g><line x1="61.739" y1="8.866" x2="58.608" y2="13.846" stroke="#F26522" stroke-miterlimit="10" stroke-dasharray="1 1" fill="none"/><g><rect x="61.334" y="6.232" width="0.809" height="5.263" fill="#F26522" transform="matrix(0.5314 -0.8471 0.8471 0.5314 21.4248 56.4553)"/></g><g><path d="M56.589 14.195C56.14 14.91 56.354 15.85 57.067 16.299 57.777 16.744 58.718 16.53 59.168 15.817 59.614 15.106 59.397 14.168 58.688 13.722 57.974 13.272 57.036 13.484 56.589 14.195Z" fill="#F26522"/></g></g><g><g><circle cx="55.136" cy="21.578" r="3.437" stroke="#7C702D" stroke-dasharray="0.9798 0.9798" fill="none"/></g><circle cx="55.135" cy="21.587" r="2.266" stroke="#7C702D" stroke-width="0.5" fill="#B7C98F"/><g><path d="M58.521 23.659C58.203 23.621 58.158 23.696 57.671 23.73 56.949 23.808 56.867 25.106 57.414 25.348L57.657 25.453C57.405 25.649 57.424 26.695 58.215 26.849 57.933 27.313 58.244 27.776 58.769 27.831 59.226 27.884 59.482 27.933 60.158 28.336 60.997 28.837 61.927 29.503 63.225 29.281 63.338 29.259 63.424 29.358 63.429 29.427 63.44 29.562 63.272 29.894 63.561 30.012L64.641 30.415C65.03 30.558 65.553 30.107 66.218 28.306 66.915 26.432 67.168 25.692 66.395 25.396 65.637 25.104 65.423 25.031 65.423 25.031 65.18 24.948 65.079 25.096 65.002 25.185 64.957 25.239 64.857 25.229 64.806 25.177 64.724 25.099 63.916 24.324 63.119 23.926 62.383 23.559 62.168 23.213 61.619 23.097 60.971 22.962 59.007 22.156 58.418 21.924 57.837 21.698 56.836 21.539 55.607 21.048 54.436 20.578 53.92 21.944 55.008 22.279 55.862 22.545 55.854 22.657 56.157 22.73 56.688 22.858 57.227 23.126 57.612 23.303 57.791 23.386 58.009 23.406 58.521 23.659" stroke="#EB4024" stroke-miterlimit="10" fill="#FCD4CD"/><path d="M64.743 27.539C64.486 28.292 63.859 29.531 63.772 29.635 63.687 29.729 63.745 29.83 63.918 29.876 64.035 29.911 64.617 30.13 64.617 30.13 64.874 30.228 65.282 30.081 66.027 28.09 66.784 26.026 66.8 25.731 66.191 25.504L65.428 25.241C65.377 25.232 65.335 25.249 65.293 25.285 65.194 25.38 65.397 25.633 64.743 27.539Z" stroke="#EB4024" fill="#FCD4CD"/></g><line x1="72.19" y1="30.389" x2="65.635" y2="27.578" stroke="#F26522" stroke-miterlimit="10" stroke-dasharray="1 1" fill="none"/><g><rect x="71.877" y="29.041" width="0.406" height="2.632" fill="#F26522" transform="matrix(0.9288 0.3706 -0.3706 0.9288 16.3808 -24.5489)"/></g></g><g><g><circle cx="58.545" cy="40.882" r="3.437" stroke="#7C702D" stroke-dasharray="0.9798 0.9798" fill="none"/></g><circle cx="58.544" cy="40.892" r="2.267" stroke="#7C702D" stroke-width="0.5" fill="#B7C98F"/><g><path d="M61.931 42.963C61.613 42.925 61.568 43 61.081 43.034 60.359 43.111 60.277 44.41 60.824 44.653L61.067 44.757C60.815 44.953 60.834 46 61.625 46.154 61.343 46.617 61.654 47.081 62.179 47.136 62.636 47.188 62.892 47.237 63.568 47.64 64.407 48.141 65.337 48.808 66.635 48.586 66.748 48.564 66.834 48.662 66.839 48.731 66.85 48.867 66.682 49.199 66.971 49.316L68.051 49.718C68.44 49.861 68.963 49.411 69.628 47.61 70.325 45.736 70.578 44.995 69.805 44.7 69.047 44.408 68.833 44.335 68.833 44.335 68.59 44.252 68.489 44.399 68.412 44.488 68.367 44.543 68.267 44.532 68.216 44.481 68.134 44.402 67.326 43.627 66.529 43.23 65.793 42.862 65.578 42.517 65.029 42.401 64.381 42.265 62.417 41.459 61.828 41.228 61.247 41.001 60.246 40.842 59.017 40.351 57.846 39.881 57.33 41.248 58.418 41.583 59.272 41.848 59.264 41.96 59.567 42.034 60.098 42.161 60.637 42.429 61.022 42.607 61.2 42.69 61.418 42.71 61.931 42.963" stroke="#EB4024" stroke-miterlimit="10" fill="#FCD4CD"/><path d="M68.152 46.843C67.895 47.596 67.268 48.836 67.181 48.938 67.096 49.032 67.154 49.133 67.327 49.179 67.444 49.215 68.026 49.434 68.026 49.434 68.283 49.531 68.691 49.384 69.436 47.394 70.193 45.329 70.209 45.035 69.6 44.807L68.837 44.545C68.786 44.536 68.744 44.552 68.702 44.589 68.604 44.684 68.807 44.937 68.152 46.843Z" stroke="#EB4024" fill="#FCD4CD"/></g><line x1="75.6" y1="49.693" x2="69.044" y2="46.883" stroke="#F26522" stroke-miterlimit="10" stroke-dasharray="1 1" fill="none"/><g><rect x="75.286" y="48.346" width="0.406" height="2.632" fill="#F26522" transform="matrix(0.9292 0.3695 -0.3695 0.9292 23.6941 -24.38)"/></g></g><g><g><circle cx="50.313" cy="62.649" r="3.437" stroke="#7C702D" stroke-dasharray="0.9798 0.9798" fill="none"/></g><path d="M48.215 61.798C47.738 62.953 48.289 64.279 49.449 64.752 50.609 65.228 51.933 64.675 52.408 63.519 52.885 62.361 52.332 61.033 51.172 60.561 50.013 60.084 48.688 60.639 48.215 61.798Z" stroke="#7C702D" stroke-width="0.5" fill="#B7C98F"/><g><path d="M53.698 64.73C53.38 64.692 53.335 64.767 52.848 64.801 52.126 64.879 52.044 66.177 52.591 66.419L52.834 66.524C52.582 66.719 52.601 67.767 53.392 67.92 53.11 68.384 53.421 68.847 53.946 68.902 54.403 68.955 54.659 69.004 55.335 69.406 56.174 69.908 57.104 70.574 58.402 70.352 58.515 70.33 58.601 70.428 58.606 70.498 58.617 70.633 58.449 70.965 58.738 71.083L59.818 71.486C60.207 71.629 60.73 71.178 61.395 69.378 62.092 67.503 62.345 66.763 61.572 66.467 60.814 66.175 60.6 66.103 60.6 66.103 60.357 66.02 60.256 66.168 60.179 66.257 60.134 66.311 60.034 66.301 59.983 66.249 59.901 66.171 59.093 65.395 58.296 64.998 57.56 64.631 57.345 64.284 56.796 64.169 56.148 64.034 54.184 63.228 53.595 62.996 53.014 62.77 52.013 62.611 50.784 62.12 49.613 61.65 49.097 63.016 50.185 63.352 51.039 63.617 51.031 63.729 51.334 63.802 51.865 63.93 52.404 64.198 52.789 64.375 52.968 64.457 53.186 64.478 53.698 64.73" stroke="#EB4024" stroke-miterlimit="10" fill="#FCD4CD"/><path d="M59.92 68.609C59.663 69.362 59.036 70.602 58.949 70.704 58.864 70.798 58.922 70.9 59.095 70.946 59.212 70.98 59.794 71.199 59.794 71.199 60.051 71.298 60.459 71.15 61.204 69.159 61.961 67.095 61.977 66.8 61.368 66.573L60.605 66.311C60.554 66.302 60.512 66.319 60.47 66.355 60.371 66.45 60.574 66.704 59.92 68.609Z" stroke="#EB4024" fill="#FCD4CD"/></g><line x1="67.367" y1="71.46" x2="60.812" y2="68.649" stroke="#F26522" stroke-miterlimit="10" stroke-dasharray="1 1" fill="none"/><g><rect x="67.054" y="70.112" width="0.406" height="2.632" fill="#F26522" transform="matrix(0.9288 0.3706 -0.3706 0.9288 31.2566 -19.8376)"/></g></g><g><line x1="79.005" y1="99.111" x2="73.122" y2="99.111" stroke="#F26522" stroke-miterlimit="10" stroke-dasharray="1 1" fill="none"/><g><rect x="78.603" y="96.479" width="0.809" height="5.261" fill="#F26522"/></g><g><path d="M71.751 97.588C70.907 97.588 70.226 98.27 70.226 99.111 70.226 99.948 70.908 100.632 71.751 100.632 72.591 100.632 73.271 99.948 73.271 99.111 73.271 98.27 72.591 97.588 71.751 97.588Z" fill="#F26522"/></g></g><g><line x1="4.376" y1="78.7" x2="24.218" y2="78.7" stroke="#F26522" stroke-miterlimit="10" stroke-dasharray="1 1" fill="none"/><g><rect x="3.519" y="76.07" width="0.809" height="5.262" fill="#F26522"/></g><g><circle cx="25.737" cy="78.699" r="1.523" fill="#F26522"/></g></g><g><line x1="5.62" y1="113.449" x2="25.462" y2="113.449" stroke="#F26522" stroke-miterlimit="10" stroke-dasharray="1 1" fill="none"/><g><rect x="4.763" y="110.819" width="0.809" height="5.262" fill="#F26522"/></g><g><path d="M26.981 114.971C27.825 114.971 28.506 114.29 28.506 113.448 28.506 112.611 27.824 111.926 26.981 111.926 26.141 111.926 25.461 112.611 25.461 113.448 25.462 114.29 26.142 114.971 26.981 114.971Z" fill="#F26522"/></g></g><g><circle cx="50.687" cy="129.239" r="3.437" stroke="#7C702D" stroke-dasharray="0.9797 0.9797" fill="none"/></g><path d="M48.424 129.289C48.445 130.539 49.476 131.539 50.727 131.514 51.981 131.491 52.979 130.459 52.957 129.209 52.936 127.957 51.902 126.957 50.649 126.983 49.396 127.004 48.4 128.037 48.424 129.289Z" stroke="#7C702D" stroke-width="0.5" fill="#B7C98F"/><g><path d="M54.62 129.81C54.312 129.901 54.302 129.988 53.869 130.212 53.236 130.568 53.676 131.794 54.273 131.799L54.538 131.799C54.385 132.079 54.815 133.033 55.603 132.861 55.527 133.399 55.997 133.701 56.499 133.545 56.94 133.412 57.194 133.356 57.975 133.459 58.943 133.587 60.062 133.831 61.165 133.113 61.261 133.048 61.379 133.104 61.411 133.166 61.474 133.286 61.451 133.659 61.764 133.652L62.915 133.594C63.329 133.572 63.631 132.95 63.528 131.033 63.426 129.036 63.365 128.256 62.538 128.291 61.727 128.323 61.502 128.34 61.502 128.34 61.246 128.361 61.212 128.536 61.177 128.648 61.157 128.715 61.062 128.747 60.993 128.719 60.887 128.68 59.839 128.288 58.948 128.238 58.128 128.192 57.792 127.96 57.243 128.071 56.595 128.202 54.472 128.24 53.839 128.26 53.216 128.283 52.235 128.533 50.911 128.568 49.65 128.6 49.718 130.059 50.848 129.936 51.739 129.841 51.775 129.948 52.082 129.895 52.621 129.801 53.223 129.834 53.645 129.845 53.842 129.848 54.05 129.781 54.62 129.81" stroke="#EB4024" stroke-miterlimit="10" fill="#FCD4CD"/><path d="M61.87 130.909C61.932 131.703 61.847 133.088 61.808 133.217 61.767 133.337 61.859 133.407 62.037 133.381 62.158 133.367 62.779 133.337 62.779 133.337 63.054 133.325 63.37 133.028 63.266 130.905 63.144 128.71 63.042 128.433 62.392 128.465L61.589 128.527C61.538 128.539 61.507 128.571 61.483 128.621 61.43 128.748 61.716 128.899 61.87 130.909Z" stroke="#EB4024" fill="#FCD4CD"/></g><line x1="77.724" y1="130.571" x2="63.55" y2="130.585" stroke="#F26522" stroke-miterlimit="10" stroke-dasharray="1 1" fill="none"/><g><rect x="77.521" y="129.277" width="0.404" height="2.632" fill="#F26522" transform="matrix(0.9996 -0.0278 0.0278 0.9996 -3.5962 2.2085)"/></g><g><g><circle cx="22.715" cy="54.382" r="3.437" stroke="#7C702D" stroke-dasharray="0.9798 0.9798" fill="none"/></g><path d="M24.978 54.432C24.958 55.682 23.927 56.682 22.675 56.656 21.421 56.633 20.423 55.602 20.446 54.351 20.467 53.1 21.501 52.1 22.754 52.124 24.005 52.146 25.001 53.179 24.978 54.432Z" stroke="#7C702D" stroke-width="0.5" fill="#B7C98F"/><g><path d="M18.782 54.953C19.089 55.044 19.1 55.131 19.533 55.354 20.165 55.71 19.726 56.936 19.129 56.942L18.864 56.942C19.017 57.222 18.587 58.175 17.799 58.004 17.874 58.542 17.405 58.843 16.902 58.687 16.462 58.554 16.207 58.498 15.427 58.6 14.458 58.729 13.339 58.972 12.236 58.254 12.14 58.189 12.023 58.245 11.99 58.307 11.927 58.426 11.951 58.799 11.638 58.792L10.486 58.734C10.072 58.712 9.771 58.09 9.873 56.174 9.975 54.176 10.037 53.396 10.863 53.431 11.675 53.464 11.9 53.481 11.9 53.481 12.156 53.501 12.189 53.675 12.224 53.789 12.245 53.856 12.34 53.887 12.408 53.86 12.515 53.821 13.562 53.428 14.453 53.379 15.273 53.333 15.609 53.101 16.158 53.212 16.806 53.343 18.929 53.382 19.562 53.402 20.185 53.424 21.167 53.674 22.49 53.71 23.752 53.743 23.683 55.201 22.553 55.079 21.662 54.984 21.627 55.091 21.319 55.037 20.78 54.943 20.179 54.975 19.756 54.987 19.561 54.991 19.353 54.923 18.782 54.953" stroke="#EB4024" stroke-miterlimit="10" fill="#FCD4CD"/><path d="M11.532 56.051C11.469 56.845 11.555 58.231 11.594 58.36 11.635 58.48 11.542 58.551 11.365 58.525 11.244 58.509 10.623 58.481 10.623 58.481 10.348 58.469 10.033 58.173 10.137 56.05 10.259 53.855 10.36 53.577 11.01 53.61L11.814 53.671C11.864 53.683 11.896 53.715 11.92 53.765 11.972 53.89 11.687 54.042 11.532 56.051Z" stroke="#EB4024" fill="#FCD4CD"/></g><line x1="3.565" y1="55.72" x2="10.698" y2="55.735" stroke="#F26522" stroke-miterlimit="10" stroke-dasharray="1 1" fill="none"/><g><rect x="3.476" y="54.419" width="0.405" height="2.632" fill="#F26522" transform="matrix(-0.9996 -0.0289 0.0289 -0.9996 5.7449 111.553)"/></g></g><g><line x1="59.397" y1="214.74" x2="59.397" y2="223.243" stroke="#F26522" stroke-miterlimit="10" stroke-dasharray="1 1" fill="none"/><g><rect x="56.767" y="213.93" width="5.262" height="0.809" fill="#F26522"/></g><g><path d="M57.876 224.763C57.876 225.607 58.558 226.289 59.399 226.289 60.237 226.289 60.92 225.607 60.92 224.763 60.92 223.924 60.236 223.243 59.399 223.243 58.558 223.243 57.876 223.923 57.876 224.763Z" fill="#F26522"/></g></g><g><g><circle cx="44.955" cy="219.263" r="3.437" stroke="#7C702D" stroke-dasharray="0.9798 0.9798" fill="none"/></g><path d="M44.904 221.525C43.654 221.505 42.654 220.474 42.68 219.222 42.702 217.968 43.734 216.97 44.985 216.993 46.236 217.014 47.236 218.048 47.212 219.301 47.19 220.553 46.158 221.549 44.904 221.525Z" stroke="#7C702D" stroke-width="0.5" fill="#B7C98F"/><g><path d="M44.384 215.33C44.293 215.637 44.206 215.648 43.983 216.081 43.627 216.713 42.401 216.274 42.395 215.677L42.395 215.412C42.115 215.565 41.162 215.135 41.332 214.347 40.795 214.422 40.494 213.953 40.649 213.45 40.783 213.01 40.838 212.755 40.736 211.975 40.607 211.006 40.364 209.887 41.082 208.784 41.147 208.688 41.091 208.571 41.029 208.538 40.91 208.475 40.537 208.499 40.544 208.186L40.602 207.034C40.624 206.62 41.246 206.319 43.163 206.421 45.161 206.523 45.94 206.585 45.905 207.411 45.872 208.223 45.854 208.448 45.854 208.448 45.834 208.704 45.661 208.737 45.547 208.772 45.48 208.793 45.448 208.888 45.476 208.956 45.515 209.063 45.909 210.11 45.957 211.001 46.002 211.821 46.234 212.157 46.124 212.706 45.992 213.354 45.953 215.477 45.934 216.11 45.912 216.733 45.662 217.715 45.626 219.038 45.594 220.3 44.135 220.231 44.258 219.101 44.352 218.21 44.246 218.175 44.299 217.867 44.393 217.328 44.361 216.727 44.349 216.304 44.346 216.108 44.413 215.9 44.384 215.33" stroke="#EB4024" stroke-miterlimit="10" fill="#FCD4CD"/><path d="M43.285 208.08C42.491 208.017 41.105 208.103 40.976 208.142 40.856 208.183 40.785 208.09 40.812 207.913 40.828 207.792 40.856 207.171 40.856 207.171 40.869 206.896 41.164 206.581 43.287 206.685 45.482 206.807 45.761 206.908 45.728 207.558L45.666 208.362C45.653 208.412 45.622 208.444 45.572 208.468 45.446 208.52 45.295 208.234 43.285 208.08Z" stroke="#EB4024" fill="#FCD4CD"/></g><line x1="43.617" y1="200.113" x2="43.602" y2="207.246" stroke="#F26522" stroke-miterlimit="10" stroke-dasharray="1 1" fill="none"/><g><rect x="43.399" y="198.91" width="0.405" height="2.632" fill="#F26522" transform="matrix(0.0289 -0.9996 0.9996 0.0289 -157.802 238.023)"/></g></g></svg>