<svg width="154" height="258.667" viewBox="0 0 154 258.667" xmlns="http://www.w3.org/2000/svg" xmlns:xlink="http://www.w3.org/1999/xlink" id="Layer_1" xml:space="preserve" overflow="hidden"><pattern x="-1319.67" y="6722" width="72" height="74.8" patternUnits="userSpaceOnUse" viewBox="72.15 -74.8 72 74.8" id="USGS_8_Sewage_Disposal" overflow="visible"><g><path d="M72.15-74.8 144.15-74.8 144.15 0 72.15 0Z" fill="none"/><g><line x1="144.15" y1="-0.85" x2="216.15" y2="-0.85" stroke="#000000" stroke-width="0.3" stroke-linecap="square" fill="none"/><line x1="144.15" y1="-2.55" x2="216.15" y2="-2.55" stroke="#000000" stroke-width="0.3" stroke-linecap="square" fill="none"/><line x1="144.15" y1="-4.25" x2="216.15" y2="-4.25" stroke="#000000" stroke-width="0.3" stroke-linecap="square" fill="none"/><line x1="144.15" y1="-5.95" x2="216.15" y2="-5.95" stroke="#000000" stroke-width="0.3" stroke-linecap="square" fill="none"/><line x1="144.15" y1="-7.65" x2="216.15" y2="-7.65" stroke="#000000" stroke-width="0.3" stroke-linecap="square" fill="none"/><line x1="144.15" y1="-9.35" x2="216.15" y2="-9.35" stroke="#000000" stroke-width="0.3" stroke-linecap="square" fill="none"/><line x1="144.15" y1="-11.05" x2="216.15" y2="-11.05" stroke="#000000" stroke-width="0.3" stroke-linecap="square" fill="none"/><line x1="144.15" y1="-12.75" x2="216.15" y2="-12.75" stroke="#000000" stroke-width="0.3" stroke-linecap="square" fill="none"/><line x1="144.15" y1="-14.45" x2="216.15" y2="-14.45" stroke="#000000" stroke-width="0.3" stroke-linecap="square" fill="none"/><line x1="144.15" y1="-16.15" x2="216.15" y2="-16.15" stroke="#000000" stroke-width="0.3" stroke-linecap="square" fill="none"/><line x1="144.15" y1="-17.85" x2="216.15" y2="-17.85" stroke="#000000" stroke-width="0.3" stroke-linecap="square" fill="none"/><line x1="144.15" y1="-19.55" x2="216.15" y2="-19.55" stroke="#000000" stroke-width="0.3" stroke-linecap="square" fill="none"/><line x1="144.15" y1="-21.25" x2="216.15" y2="-21.25" stroke="#000000" stroke-width="0.3" stroke-linecap="square" fill="none"/><line x1="144.15" y1="-22.949" x2="216.15" y2="-22.949" stroke="#000000" stroke-width="0.3" stroke-linecap="square" fill="none"/><line x1="144.15" y1="-24.649" x2="216.15" y2="-24.649" stroke="#000000" stroke-width="0.3" stroke-linecap="square" fill="none"/><line x1="144.15" y1="-26.349" x2="216.15" y2="-26.349" stroke="#000000" stroke-width="0.3" stroke-linecap="square" fill="none"/><line x1="144.15" y1="-28.049" x2="216.15" y2="-28.049" stroke="#000000" stroke-width="0.3" stroke-linecap="square" fill="none"/><line x1="144.15" y1="-29.749" x2="216.15" y2="-29.749" stroke="#000000" stroke-width="0.3" stroke-linecap="square" fill="none"/><line x1="144.15" y1="-31.449" x2="216.15" y2="-31.449" stroke="#000000" stroke-width="0.3" stroke-linecap="square" fill="none"/><line x1="144.15" y1="-33.149" x2="216.15" y2="-33.149" stroke="#000000" stroke-width="0.3" stroke-linecap="square" fill="none"/><line x1="144.15" y1="-34.849" x2="216.15" y2="-34.849" stroke="#000000" stroke-width="0.3" stroke-linecap="square" fill="none"/><line x1="144.15" y1="-36.549" x2="216.15" y2="-36.549" stroke="#000000" stroke-width="0.3" stroke-linecap="square" fill="none"/><line x1="144.15" y1="-38.249" x2="216.15" y2="-38.249" stroke="#000000" stroke-width="0.3" stroke-linecap="square" fill="none"/><line x1="144.15" y1="-39.949" x2="216.15" y2="-39.949" stroke="#000000" stroke-width="0.3" stroke-linecap="square" fill="none"/><line x1="144.15" y1="-41.649" x2="216.15" y2="-41.649" stroke="#000000" stroke-width="0.3" stroke-linecap="square" fill="none"/><line x1="144.15" y1="-43.349" x2="216.15" y2="-43.349" stroke="#000000" stroke-width="0.3" stroke-linecap="square" fill="none"/><line x1="144.15" y1="-45.049" x2="216.15" y2="-45.049" stroke="#000000" stroke-width="0.3" stroke-linecap="square" fill="none"/><line x1="144.15" y1="-46.749" x2="216.15" y2="-46.749" stroke="#000000" stroke-width="0.3" stroke-linecap="square" fill="none"/><line x1="144.15" y1="-48.449" x2="216.15" y2="-48.449" stroke="#000000" stroke-width="0.3" stroke-linecap="square" fill="none"/><line x1="144.15" y1="-50.149" x2="216.15" y2="-50.149" stroke="#000000" stroke-width="0.3" stroke-linecap="square" fill="none"/><line x1="144.15" y1="-51.849" x2="216.15" y2="-51.849" stroke="#000000" stroke-width="0.3" stroke-linecap="square" fill="none"/><line x1="144.15" y1="-53.549" x2="216.15" y2="-53.549" stroke="#000000" stroke-width="0.3" stroke-linecap="square" fill="none"/><line x1="144.15" y1="-55.249" x2="216.15" y2="-55.249" stroke="#000000" stroke-width="0.3" stroke-linecap="square" fill="none"/><line x1="144.15" y1="-56.949" x2="216.15" y2="-56.949" stroke="#000000" stroke-width="0.3" stroke-linecap="square" fill="none"/><line x1="144.15" y1="-58.649" x2="216.15" y2="-58.649" stroke="#000000" stroke-width="0.3" stroke-linecap="square" fill="none"/><line x1="144.15" y1="-60.349" x2="216.15" y2="-60.349" stroke="#000000" stroke-width="0.3" stroke-linecap="square" fill="none"/><line x1="144.15" y1="-62.049" x2="216.15" y2="-62.049" stroke="#000000" stroke-width="0.3" stroke-linecap="square" fill="none"/><line x1="144.15" y1="-63.749" x2="216.15" y2="-63.749" stroke="#000000" stroke-width="0.3" stroke-linecap="square" fill="none"/><line x1="144.15" y1="-65.449" x2="216.15" y2="-65.449" stroke="#000000" stroke-width="0.3" stroke-linecap="square" fill="none"/><line x1="144.15" y1="-67.149" x2="216.15" y2="-67.149" stroke="#000000" stroke-width="0.3" stroke-linecap="square" fill="none"/><line x1="144.15" y1="-68.849" x2="216.15" y2="-68.849" stroke="#000000" stroke-width="0.3" stroke-linecap="square" fill="none"/><line x1="144.15" y1="-70.549" x2="216.15" y2="-70.549" stroke="#000000" stroke-width="0.3" stroke-linecap="square" fill="none"/><line x1="144.15" y1="-72.249" x2="216.15" y2="-72.249" stroke="#000000" stroke-width="0.3" stroke-linecap="square" fill="none"/><line x1="144.15" y1="-73.949" x2="216.15" y2="-73.949" stroke="#000000" stroke-width="0.3" stroke-linecap="square" fill="none"/></g><g><line x1="72.15" y1="-0.85" x2="144.15" y2="-0.85" stroke="#000000" stroke-width="0.3" stroke-linecap="square" fill="none"/><line x1="72.15" y1="-2.55" x2="144.15" y2="-2.55" stroke="#000000" stroke-width="0.3" stroke-linecap="square" fill="none"/><line x1="72.15" y1="-4.25" x2="144.15" y2="-4.25" stroke="#000000" stroke-width="0.3" stroke-linecap="square" fill="none"/><line x1="72.15" y1="-5.95" x2="144.15" y2="-5.95" stroke="#000000" stroke-width="0.3" stroke-linecap="square" fill="none"/><line x1="72.15" y1="-7.65" x2="144.15" y2="-7.65" stroke="#000000" stroke-width="0.3" stroke-linecap="square" fill="none"/><line x1="72.15" y1="-9.35" x2="144.15" y2="-9.35" stroke="#000000" stroke-width="0.3" stroke-linecap="square" fill="none"/><line x1="72.15" y1="-11.05" x2="144.15" y2="-11.05" stroke="#000000" stroke-width="0.3" stroke-linecap="square" fill="none"/><line x1="72.15" y1="-12.75" x2="144.15" y2="-12.75" stroke="#000000" stroke-width="0.3" stroke-linecap="square" fill="none"/><line x1="72.15" y1="-14.45" x2="144.15" y2="-14.45" stroke="#000000" stroke-width="0.3" stroke-linecap="square" fill="none"/><line x1="72.15" y1="-16.15" x2="144.15" y2="-16.15" stroke="#000000" stroke-width="0.3" stroke-linecap="square" fill="none"/><line x1="72.15" y1="-17.85" x2="144.15" y2="-17.85" stroke="#000000" stroke-width="0.3" stroke-linecap="square" fill="none"/><line x1="72.15" y1="-19.55" x2="144.15" y2="-19.55" stroke="#000000" stroke-width="0.3" stroke-linecap="square" fill="none"/><line x1="72.15" y1="-21.25" x2="144.15" y2="-21.25" stroke="#000000" stroke-width="0.3" stroke-linecap="square" fill="none"/><line x1="72.15" y1="-22.949" x2="144.15" y2="-22.949" stroke="#000000" stroke-width="0.3" stroke-linecap="square" fill="none"/><line x1="72.15" y1="-24.649" x2="144.15" y2="-24.649" stroke="#000000" stroke-width="0.3" stroke-linecap="square" fill="none"/><line x1="72.15" y1="-26.349" x2="144.15" y2="-26.349" stroke="#000000" stroke-width="0.3" stroke-linecap="square" fill="none"/><line x1="72.15" y1="-28.049" x2="144.15" y2="-28.049" stroke="#000000" stroke-width="0.3" stroke-linecap="square" fill="none"/><line x1="72.15" y1="-29.749" x2="144.15" y2="-29.749" stroke="#000000" stroke-width="0.3" stroke-linecap="square" fill="none"/><line x1="72.15" y1="-31.449" x2="144.15" y2="-31.449" stroke="#000000" stroke-width="0.3" stroke-linecap="square" fill="none"/><line x1="72.15" y1="-33.149" x2="144.15" y2="-33.149" stroke="#000000" stroke-width="0.3" stroke-linecap="square" fill="none"/><line x1="72.15" y1="-34.849" x2="144.15" y2="-34.849" stroke="#000000" stroke-width="0.3" stroke-linecap="square" fill="none"/><line x1="72.15" y1="-36.549" x2="144.15" y2="-36.549" stroke="#000000" stroke-width="0.3" stroke-linecap="square" fill="none"/><line x1="72.15" y1="-38.249" x2="144.15" y2="-38.249" stroke="#000000" stroke-width="0.3" stroke-linecap="square" fill="none"/><line x1="72.15" y1="-39.949" x2="144.15" y2="-39.949" stroke="#000000" stroke-width="0.3" stroke-linecap="square" fill="none"/><line x1="72.15" y1="-41.649" x2="144.15" y2="-41.649" stroke="#000000" stroke-width="0.3" stroke-linecap="square" fill="none"/><line x1="72.15" y1="-43.349" x2="144.15" y2="-43.349" stroke="#000000" stroke-width="0.3" stroke-linecap="square" fill="none"/><line x1="72.15" y1="-45.049" x2="144.15" y2="-45.049" stroke="#000000" stroke-width="0.3" stroke-linecap="square" fill="none"/><line x1="72.15" y1="-46.749" x2="144.15" y2="-46.749" stroke="#000000" stroke-width="0.3" stroke-linecap="square" fill="none"/><line x1="72.15" y1="-48.449" x2="144.15" y2="-48.449" stroke="#000000" stroke-width="0.3" stroke-linecap="square" fill="none"/><line x1="72.15" y1="-50.149" x2="144.15" y2="-50.149" stroke="#000000" stroke-width="0.3" stroke-linecap="square" fill="none"/><line x1="72.15" y1="-51.849" x2="144.15" y2="-51.849" stroke="#000000" stroke-width="0.3" stroke-linecap="square" fill="none"/><line x1="72.15" y1="-53.549" x2="144.15" y2="-53.549" stroke="#000000" stroke-width="0.3" stroke-linecap="square" fill="none"/><line x1="72.15" y1="-55.249" x2="144.15" y2="-55.249" stroke="#000000" stroke-width="0.3" stroke-linecap="square" fill="none"/><line x1="72.15" y1="-56.949" x2="144.15" y2="-56.949" stroke="#000000" stroke-width="0.3" stroke-linecap="square" fill="none"/><line x1="72.15" y1="-58.649" x2="144.15" y2="-58.649" stroke="#000000" stroke-width="0.3" stroke-linecap="square" fill="none"/><line x1="72.15" y1="-60.349" x2="144.15" y2="-60.349" stroke="#000000" stroke-width="0.3" stroke-linecap="square" fill="none"/><line x1="72.15" y1="-62.049" x2="144.15" y2="-62.049" stroke="#000000" stroke-width="0.3" stroke-linecap="square" fill="none"/><line x1="72.15" y1="-63.749" x2="144.15" y2="-63.749" stroke="#000000" stroke-width="0.3" stroke-linecap="square" fill="none"/><line x1="72.15" y1="-65.449" x2="144.15" y2="-65.449" stroke="#000000" stroke-width="0.3" stroke-linecap="square" fill="none"/><line x1="72.15" y1="-67.149" x2="144.15" y2="-67.149" stroke="#000000" stroke-width="0.3" stroke-linecap="square" fill="none"/><line x1="72.15" y1="-68.849" x2="144.15" y2="-68.849" stroke="#000000" stroke-width="0.3" stroke-linecap="square" fill="none"/><line x1="72.15" y1="-70.549" x2="144.15" y2="-70.549" stroke="#000000" stroke-width="0.3" stroke-linecap="square" fill="none"/><line x1="72.15" y1="-72.249" x2="144.15" y2="-72.249" stroke="#000000" stroke-width="0.3" stroke-linecap="square" fill="none"/><line x1="72.15" y1="-73.949" x2="144.15" y2="-73.949" stroke="#000000" stroke-width="0.3" stroke-linecap="square" fill="none"/></g><g><line x1="0.15" y1="-0.85" x2="72.15" y2="-0.85" stroke="#000000" stroke-width="0.3" stroke-linecap="square" fill="none"/><line x1="0.15" y1="-2.55" x2="72.15" y2="-2.55" stroke="#000000" stroke-width="0.3" stroke-linecap="square" fill="none"/><line x1="0.15" y1="-4.25" x2="72.15" y2="-4.25" stroke="#000000" stroke-width="0.3" stroke-linecap="square" fill="none"/><line x1="0.15" y1="-5.95" x2="72.15" y2="-5.95" stroke="#000000" stroke-width="0.3" stroke-linecap="square" fill="none"/><line x1="0.15" y1="-7.65" x2="72.15" y2="-7.65" stroke="#000000" stroke-width="0.3" stroke-linecap="square" fill="none"/><line x1="0.15" y1="-9.35" x2="72.15" y2="-9.35" stroke="#000000" stroke-width="0.3" stroke-linecap="square" fill="none"/><line x1="0.15" y1="-11.05" x2="72.15" y2="-11.05" stroke="#000000" stroke-width="0.3" stroke-linecap="square" fill="none"/><line x1="0.15" y1="-12.75" x2="72.15" y2="-12.75" stroke="#000000" stroke-width="0.3" stroke-linecap="square" fill="none"/><line x1="0.15" y1="-14.45" x2="72.15" y2="-14.45" stroke="#000000" stroke-width="0.3" stroke-linecap="square" fill="none"/><line x1="0.15" y1="-16.15" x2="72.15" y2="-16.15" stroke="#000000" stroke-width="0.3" stroke-linecap="square" fill="none"/><line x1="0.15" y1="-17.85" x2="72.15" y2="-17.85" stroke="#000000" stroke-width="0.3" stroke-linecap="square" fill="none"/><line x1="0.15" y1="-19.55" x2="72.15" y2="-19.55" stroke="#000000" stroke-width="0.3" stroke-linecap="square" fill="none"/><line x1="0.15" y1="-21.25" x2="72.15" y2="-21.25" stroke="#000000" stroke-width="0.3" stroke-linecap="square" fill="none"/><line x1="0.15" y1="-22.949" x2="72.15" y2="-22.949" stroke="#000000" stroke-width="0.3" stroke-linecap="square" fill="none"/><line x1="0.15" y1="-24.649" x2="72.15" y2="-24.649" stroke="#000000" stroke-width="0.3" stroke-linecap="square" fill="none"/><line x1="0.15" y1="-26.349" x2="72.15" y2="-26.349" stroke="#000000" stroke-width="0.3" stroke-linecap="square" fill="none"/><line x1="0.15" y1="-28.049" x2="72.15" y2="-28.049" stroke="#000000" stroke-width="0.3" stroke-linecap="square" fill="none"/><line x1="0.15" y1="-29.749" x2="72.15" y2="-29.749" stroke="#000000" stroke-width="0.3" stroke-linecap="square" fill="none"/><line x1="0.15" y1="-31.449" x2="72.15" y2="-31.449" stroke="#000000" stroke-width="0.3" stroke-linecap="square" fill="none"/><line x1="0.15" y1="-33.149" x2="72.15" y2="-33.149" stroke="#000000" stroke-width="0.3" stroke-linecap="square" fill="none"/><line x1="0.15" y1="-34.849" x2="72.15" y2="-34.849" stroke="#000000" stroke-width="0.3" stroke-linecap="square" fill="none"/><line x1="0.15" y1="-36.549" x2="72.15" y2="-36.549" stroke="#000000" stroke-width="0.3" stroke-linecap="square" fill="none"/><line x1="0.15" y1="-38.249" x2="72.15" y2="-38.249" stroke="#000000" stroke-width="0.3" stroke-linecap="square" fill="none"/><line x1="0.15" y1="-39.949" x2="72.15" y2="-39.949" stroke="#000000" stroke-width="0.3" stroke-linecap="square" fill="none"/><line x1="0.15" y1="-41.649" x2="72.15" y2="-41.649" stroke="#000000" stroke-width="0.3" stroke-linecap="square" fill="none"/><line x1="0.15" y1="-43.349" x2="72.15" y2="-43.349" stroke="#000000" stroke-width="0.3" stroke-linecap="square" fill="none"/><line x1="0.15" y1="-45.049" x2="72.15" y2="-45.049" stroke="#000000" stroke-width="0.3" stroke-linecap="square" fill="none"/><line x1="0.15" y1="-46.749" x2="72.15" y2="-46.749" stroke="#000000" stroke-width="0.3" stroke-linecap="square" fill="none"/><line x1="0.15" y1="-48.449" x2="72.15" y2="-48.449" stroke="#000000" stroke-width="0.3" stroke-linecap="square" fill="none"/><line x1="0.15" y1="-50.149" x2="72.15" y2="-50.149" stroke="#000000" stroke-width="0.3" stroke-linecap="square" fill="none"/><line x1="0.15" y1="-51.849" x2="72.15" y2="-51.849" stroke="#000000" stroke-width="0.3" stroke-linecap="square" fill="none"/><line x1="0.15" y1="-53.549" x2="72.15" y2="-53.549" stroke="#000000" stroke-width="0.3" stroke-linecap="square" fill="none"/><line x1="0.15" y1="-55.249" x2="72.15" y2="-55.249" stroke="#000000" stroke-width="0.3" stroke-linecap="square" fill="none"/><line x1="0.15" y1="-56.949" x2="72.15" y2="-56.949" stroke="#000000" stroke-width="0.3" stroke-linecap="square" fill="none"/><line x1="0.15" y1="-58.649" x2="72.15" y2="-58.649" stroke="#000000" stroke-width="0.3" stroke-linecap="square" fill="none"/><line x1="0.15" y1="-60.349" x2="72.15" y2="-60.349" stroke="#000000" stroke-width="0.3" stroke-linecap="square" fill="none"/><line x1="0.15" y1="-62.049" x2="72.15" y2="-62.049" stroke="#000000" stroke-width="0.3" stroke-linecap="square" fill="none"/><line x1="0.15" y1="-63.749" x2="72.15" y2="-63.749" stroke="#000000" stroke-width="0.3" stroke-linecap="square" fill="none"/><line x1="0.15" y1="-65.449" x2="72.15" y2="-65.449" stroke="#000000" stroke-width="0.3" stroke-linecap="square" fill="none"/><line x1="0.15" y1="-67.149" x2="72.15" y2="-67.149" stroke="#000000" stroke-width="0.3" stroke-linecap="square" fill="none"/><line x1="0.15" y1="-68.849" x2="72.15" y2="-68.849" stroke="#000000" stroke-width="0.3" stroke-linecap="square" fill="none"/><line x1="0.15" y1="-70.549" x2="72.15" y2="-70.549" stroke="#000000" stroke-width="0.3" stroke-linecap="square" fill="none"/><line x1="0.15" y1="-72.249" x2="72.15" y2="-72.249" stroke="#000000" stroke-width="0.3" stroke-linecap="square" fill="none"/><line x1="0.15" y1="-73.949" x2="72.15" y2="-73.949" stroke="#000000" stroke-width="0.3" stroke-linecap="square" fill="none"/></g></g></pattern><pattern xlink:href="#USGS_8_Sewage_Disposal" id="SVGID_1_" overflow="hidden" patternTransform="matrix(0.2 0 0 0.2 -4143.16 -11165.3)"></pattern><g><path d="M107.785 64.849C106.941 64.849 106.259 65.531 106.259 66.372 106.259 67.21 106.941 67.893 107.785 67.893 108.624 67.893 109.304 67.209 109.304 66.372 109.303 65.531 108.624 64.849 107.785 64.849Z" fill="#F26522"/></g><g><rect x="148.262" y="31.182" width="0.81" height="5.262" fill="#F26522" transform="matrix(0.9884 -0.152 0.152 0.9884 -3.4118 22.9852)"/></g><path d="M52.573 5.789 87.568 39.056 82.017 252.583C43.209 253.934 11.209 238.454 11.209 238.454 11.209 238.454-2.791 64.574 28.009 41.534 58.809 18.494 56.737 10.723 52.573 5.789Z" stroke="#262262" stroke-width="1.5" stroke-miterlimit="10" fill="#FFFFFF"/><path d="M48.915 179.475C48.915 179.475 56.494 126.917 56.616 117.115 56.979 104.657 57.312 96.448 57.312 96.448 72.428 39.814 87.006 39.412 87.006 39.412 87.006 39.412 95.441 36.35 104.672 56.41 108 62.833 108.187 93 108.187 93" stroke="#262262" stroke-width="1.5" stroke-miterlimit="10" fill="#FFFFFF"/><path d="M107.375 160.146C107.809 135.846 108.053 110.496 108.186 92.167" stroke="#262262" stroke-width="1.5" stroke-miterlimit="10" fill="#FFFFFF"/><path d="M47 118.319 10.254 111.84 10.254 107.466 47 113.945Z" stroke="#262262" stroke-width="1.5" stroke-miterlimit="10" fill="#FFFFFF"/><path d="M47 118.319 10.254 111.84 10.254 107.466 47 113.945Z" stroke="#262262" stroke-width="1.5" stroke-miterlimit="10" fill="#FFFFFF"/><path d="M47 116.132 10.254 109.653 10.254 107.466 47 113.945Z" stroke="#262262" stroke-width="1.5" stroke-miterlimit="10" fill="#FFFFFF"/><path d="M79.988 100.285 126.219 100.285 120.657 115.568 74.426 115.568Z" stroke="#262262" stroke-width="1.5" stroke-miterlimit="10" fill="#FFFFFF"/><g><path d="M89.863 106.068C105.162 105.88 105.175 106.966 120.474 106.779" fill="#FFFFFF"/><path d="M89.863 106.068C105.162 105.88 105.175 106.966 120.474 106.779" stroke="#262262" stroke-miterlimit="10" fill="none"/></g><g><path d="M80.497 100.285C80.497 99.024 90.606 97.617 103.422 97.617 116.238 97.617 126.322 99.024 126.322 100.285 126.322 101.547 116.239 102.468 103.422 102.468 90.605 102.468 80.497 101.547 80.497 100.285Z" fill="#FFFFFF"/><path d="M80.497 100.285C80.497 99.024 90.606 97.617 103.422 97.617 116.238 97.617 126.322 99.024 126.322 100.285 126.322 101.547 116.239 102.468 103.422 102.468 90.605 102.468 80.497 101.547 80.497 100.285Z" stroke="#262262" stroke-width="1.5" stroke-miterlimit="10" fill="none"/></g><g><path d="M79.38 106.258C78.13 109.529 78.46 109.682 76.977 112.854 72.806 120.584 67.297 132.253 61.85 145.693 57.541 156.325 53.204 167.967 48.929 179.417 74.977 186.066 76.163 185.157 102.619 180.38 106.852 168.731 111.586 157.803 115.194 147.524 120.134 133.453 123.643 121.314 125.864 113.758 127.167 109.322 127.97 106.076 127.846 105.134 125.484 104.534 123.572 105.173 119.773 106.61 109.743 110.405 102.339 113.396 99.347 112.57 96.354 111.745 94.721 106.521 90.6 105.715 86.46 105.478 86.438 105.346 82.291 105.394 81.617 105.402 81.679 106.629 81.007 106.684 80.164 106.753 80.213 106.823 79.375 106.939" fill="#FFFFFF"/><path d="M79.38 106.258C78.13 109.529 78.46 109.682 76.977 112.854 72.806 120.584 67.297 132.253 61.85 145.693 57.541 156.325 53.204 167.967 48.929 179.417 74.977 186.066 76.163 185.157 102.619 180.38 106.852 168.731 111.586 157.803 115.194 147.524 120.134 133.453 123.643 121.314 125.864 113.758 127.167 109.322 127.97 106.076 127.846 105.134 125.484 104.534 123.572 105.173 119.773 106.61 109.743 110.405 102.339 113.396 99.347 112.57 96.354 111.745 94.721 106.521 90.6 105.715 86.46 105.478 86.438 105.346 82.291 105.394 81.617 105.402 81.679 106.629 81.007 106.684 80.164 106.753 80.213 106.823 79.375 106.939" stroke="#262262" stroke-width="1.5" stroke-miterlimit="10" fill="none"/></g><path d="M54.345 180.407 83.201 107.858 85.551 102.015" stroke="#262262" stroke-width="1.5" stroke-miterlimit="10" fill="#FFFFFF"/><line x1="55.781" y1="180.598" x2="70.498" y2="143.6" stroke="#262262" stroke-width="0.7" stroke-miterlimit="10" fill="#FFFFFF"/><g><path d="M46.855 90.098C46.722 90.316 46.625 90.48 46.648 90.441 51.607 95.1 56.595 99.604 61.355 104.338 63.406 106.379 65.041 108.852 66.759 111.209 67.519 112.253 68.382 113.059 69.542 113.611 70.517 114.071 71.433 114.658 72.392 115.148 73.236 115.579 74.07 116.074 74.97 116.331 77.55 117.075 80.033 117.963 81.896 120.04 82.082 120.253 82.349 120.402 82.591 120.586 82.831 120.329 83.07 120.13 83.245 119.885 83.655 119.315 83.788 118.809 83.44 118.029 82.538 116.002 80.59 115.307 79.049 114.216 85.879 113.011 92.819 114.125 99.928 113.868 99.74 113.585 99.67 113.479 99.612 113.391 100.854 113.525 101.018 113.441 101.565 112.327 100.887 111.91 100.237 111.482 99.497 112.015 99.532 111.927 99.638 111.686 99.767 111.387 95.261 110.787 90.808 110.192 86.355 109.597 86.32 109.489 86.283 109.382 86.244 109.273 87.346 108.745 88.41 108.098 89.558 107.716 91.115 107.207 92.728 106.859 94.333 106.519 95.522 106.264 96.233 105.567 96.69 104.352 96.081 104.089 95.471 103.585 94.885 103.612 92.092 103.739 89.305 104.005 86.397 104.233 87.184 104.004 87.901 103.759 88.629 103.588 89.936 103.286 91.244 103.008 92.561 102.757 92.887 102.696 93.436 102.661 93.559 102.839 94.129 103.666 94.504 103.024 94.827 102.693 95.235 102.274 94.956 101.617 94.755 101.226 94.038 99.791 92.759 100.41 91.679 100.168 89.652 99.72 87.812 100.729 85.859 100.687 85.537 100.678 85.213 100.731 84.605 100.775 85.019 100.15 85.216 99.539 85.63 99.279 87.009 98.42 88.462 97.687 89.89 96.909 90.175 96.752 90.548 96.68 90.742 96.452 91.006 96.134 91.142 95.702 91.33 95.322 90.957 95.231 90.584 95.145 90.209 95.052 87.582 94.401 85.547 96.123 83.232 96.753 81.886 97.119 80.494 97.497 79.121 97.518 77.064 97.549 75 97.336 72.953 97.096 71.756 96.953 70.746 96.287 69.963 95.332 66.451 91.042 62.94 86.749 59.424 82.46 58.721 81.603 58.002 80.757 57.221 79.82 55.979 81.207 54.809 82.514 53.637 83.821 51.641 86.042 49.651 88.268 47.643 90.478 47.491 90.643 47.233 90.709 47.024 90.823 46.972 90.608 46.925 90.394 46.855 90.098Z" stroke="#262262" stroke-width="0.7" stroke-miterlimit="10" fill="#FFFFFF"/></g><path d="M58.38 209.353 28.983 204.17 28.983 200.671 58.38 205.854Z" stroke="#262262" stroke-width="1.5" stroke-miterlimit="10" fill="#FFFFFF"/><path d="M58.38 207.604 28.983 202.42 28.983 200.671 58.38 205.854Z" stroke="#262262" stroke-width="1.5" stroke-miterlimit="10" fill="#FFFFFF"/><g><line x1="87.571" y1="30.873" x2="87.571" y2="36.755" stroke="#F26522" stroke-miterlimit="10" stroke-dasharray="1 1" fill="none"/><g><rect x="84.938" y="30.466" width="5.262" height="0.809" fill="#F26522"/></g><g><path d="M86.048 38.125C86.048 38.969 86.73 39.651 87.571 39.651 88.409 39.651 89.092 38.969 89.092 38.125 89.092 37.286 88.408 36.606 87.571 36.606 86.729 36.607 86.048 37.286 86.048 38.125Z" fill="#F26522"/></g></g><g><line x1="57.454" y1="68.853" x2="62.552" y2="71.788" stroke="#F26522" stroke-miterlimit="10" stroke-dasharray="1 1" fill="none"/><g><rect x="57.046" y="66.223" width="0.809" height="5.262" fill="#F26522" transform="matrix(-0.8666 -0.4991 0.4991 -0.8666 72.8739 157.191)"/></g><g><path d="M62.979 73.792C63.711 74.213 64.642 73.963 65.062 73.233 65.48 72.507 65.23 71.574 64.499 71.153 63.772 70.734 62.842 70.987 62.424 71.714 62.003 72.444 62.252 73.374 62.979 73.792Z" fill="#F26522"/></g></g><g><g><circle cx="89.161" cy="89.497" r="3.437" stroke="#7C702D" stroke-dasharray="0.9798 0.9798" fill="none"/></g><circle cx="89.151" cy="89.494" r="2.266" stroke="#7C702D" fill="#B7C98F"/><g><path d="M88.59 85.564C88.499 85.871 88.412 85.882 88.189 86.315 87.833 86.947 86.607 86.508 86.601 85.911L86.601 85.646C86.321 85.799 85.368 85.369 85.539 84.581 85.001 84.656 84.699 84.187 84.855 83.684 84.988 83.244 85.044 82.989 84.942 82.209 84.813 81.24 84.57 80.121 85.288 79.018 85.353 78.922 85.297 78.805 85.235 78.772 85.115 78.709 84.743 78.733 84.75 78.42L84.808 77.268C84.83 76.854 85.452 76.553 87.369 76.655 89.366 76.757 90.146 76.819 90.111 77.645 90.079 78.457 90.061 78.682 90.061 78.682 90.04 78.938 89.866 78.971 89.753 79.006 89.686 79.027 89.654 79.122 89.682 79.19 89.721 79.297 90.114 80.344 90.163 81.235 90.209 82.055 90.441 82.391 90.33 82.94 90.198 83.588 90.16 85.711 90.14 86.344 90.118 86.967 89.868 87.949 89.832 89.272 89.8 90.534 88.341 90.465 88.464 89.335 88.559 88.444 88.452 88.409 88.505 88.101 88.599 87.562 88.567 86.961 88.555 86.538 88.552 86.343 88.619 86.135 88.59 85.564" stroke="#EB4024" stroke-miterlimit="10" fill="#FCD4CD"/><path d="M87.491 78.314C86.697 78.251 85.311 78.337 85.182 78.376 85.062 78.417 84.992 78.324 85.018 78.147 85.033 78.026 85.062 77.405 85.062 77.405 85.074 77.13 85.371 76.815 87.494 76.919 89.689 77.041 89.967 77.142 89.934 77.792L89.872 78.596C89.86 78.646 89.828 78.678 89.778 78.702 89.652 78.754 89.501 78.469 87.491 78.314Z" stroke="#EB4024" fill="#FCD4CD"/></g><line x1="87.822" y1="70.348" x2="87.808" y2="77.48" stroke="#F26522" stroke-miterlimit="10" stroke-dasharray="1 1" fill="none"/><g><rect x="87.605" y="69.145" width="0.405" height="2.632" fill="#F26522" transform="matrix(0.0289 -0.9996 0.9996 0.0289 14.8382 156.195)"/></g></g><path d="M107.375 66.372 126.219 58 126.219 41.701 148.667 33.813" stroke="#F26522" stroke-miterlimit="10" stroke-dasharray="1 1" fill="none"/><line x1="106.479" y1="63.783" x2="107.129" y2="69.473" stroke="#262262" stroke-width="1.5" stroke-miterlimit="10" fill="#FFFFFF"/><g><line x1="122.091" y1="153.332" x2="116.501" y2="151.499" stroke="#F26522" stroke-miterlimit="10" stroke-dasharray="1 1" fill="none"/><g><rect x="121.689" y="150.699" width="0.809" height="5.262" fill="#F26522" transform="matrix(0.9502 0.3115 -0.3115 0.9502 53.8398 -30.4045)"/></g><g><path d="M115.674 149.625C114.871 149.362 114.011 149.797 113.749 150.597 113.488 151.393 113.922 152.255 114.725 152.518 115.523 152.78 116.381 152.342 116.642 151.545 116.904 150.745 116.471 149.886 115.674 149.625Z" fill="#F26522"/></g></g><path d="" stroke="#262262" stroke-width="0.7" stroke-miterlimit="10" stroke-dasharray="2 2" fill="#FFFFFF"/><path d="M124.359 105.395C124.359 105.395 101.083 175.312 97.958 180.656" stroke="#262262" stroke-width="0.7" stroke-miterlimit="10" stroke-dasharray="1 1" fill="#FFFFFF"/><path d="M117.926 124.542 121.946 126.015 121.202 128.044 117.181 126.57Z" stroke="#262262" stroke-width="0.7" stroke-miterlimit="10" fill="url(#SVGID_1_)"/><g><line x1="129.308" y1="129.203" x2="123.718" y2="127.371" stroke="#F26522" stroke-miterlimit="10" stroke-dasharray="1 1" fill="none"/><g><rect x="128.906" y="126.571" width="0.809" height="5.262" fill="#F26522" transform="matrix(0.9502 0.3115 -0.3115 0.9502 46.6827 -33.8532)"/></g><g><path d="M122.891 125.496C122.088 125.232 121.228 125.668 120.966 126.468 120.705 127.264 121.139 128.126 121.942 128.389 122.74 128.651 123.598 128.213 123.859 127.417 124.121 126.617 123.688 125.757 122.891 125.496Z" fill="#F26522"/></g></g><g><g><circle cx="109.515" cy="116.031" r="3.437" stroke="#7C702D" stroke-dasharray="0.9798 0.9798" fill="none"/></g><circle cx="109.523" cy="116.037" r="2.266" stroke="#7C702D" fill="#B7C98F"/><g><path d="M108.802 119.94C108.986 119.678 109.072 119.695 109.422 119.357 109.962 118.872 110.984 119.678 110.798 120.246L110.714 120.497C111.028 120.441 111.795 121.153 111.38 121.846 111.914 121.947 112.05 122.487 111.742 122.914 111.475 123.289 111.341 123.513 111.189 124.284 111.002 125.243 110.876 126.382 109.843 127.198 109.75 127.268 109.767 127.397 109.815 127.448 109.909 127.545 110.269 127.642 110.163 127.936L109.741 129.01C109.587 129.395 108.903 129.482 107.118 128.774 105.257 128.041 104.538 127.733 104.835 126.961 105.125 126.202 105.213 125.994 105.213 125.994 105.314 125.758 105.49 125.782 105.608 125.785 105.678 125.787 105.738 125.706 105.734 125.634 105.731 125.52 105.693 124.402 105.93 123.543 106.148 122.751 106.034 122.358 106.316 121.873 106.647 121.301 107.36 119.301 107.582 118.707 107.802 118.124 108.353 117.272 108.807 116.03 109.241 114.844 110.601 115.375 110.124 116.407 109.75 117.22 109.84 117.288 109.691 117.563 109.43 118.044 109.269 118.624 109.146 119.028 109.086 119.215 108.956 119.391 108.802 119.94" stroke="#EB4024" stroke-miterlimit="10" fill="#FCD4CD"/><path d="M107.53 127.162C108.263 127.475 109.604 127.835 109.738 127.84 109.864 127.84 109.902 127.95 109.82 128.11 109.768 128.22 109.542 128.799 109.542 128.799 109.443 129.056 109.062 129.259 107.082 128.484 105.04 127.668 104.81 127.484 105.048 126.878L105.363 126.136C105.389 126.093 105.43 126.073 105.486 126.065 105.622 126.057 105.675 126.375 107.53 127.162Z" stroke="#EB4024" fill="#FCD4CD"/></g><line x1="104.675" y1="134.607" x2="106.965" y2="127.852" stroke="#F26522" stroke-miterlimit="10" stroke-dasharray="1 1" fill="none"/><g><rect x="104.523" y="133.188" width="0.405" height="2.632" fill="#F26522" transform="matrix(-0.3461 0.9382 -0.9382 -0.3461 267.162 82.8027)"/></g></g><g><line x1="74.103" y1="156.536" x2="68.513" y2="154.704" stroke="#F26522" stroke-miterlimit="10" stroke-dasharray="1 1" fill="none"/><g><rect x="73.701" y="153.904" width="0.809" height="5.262" fill="#F26522" transform="matrix(0.9502 0.3115 -0.3115 0.9502 52.4504 -15.296)"/></g><g><path d="M67.686 152.829C66.883 152.565 66.023 153.001 65.761 153.801 65.5 154.597 65.934 155.459 66.737 155.722 67.535 155.984 68.393 155.546 68.654 154.75 68.916 153.95 68.483 153.09 67.686 152.829Z" fill="#F26522"/></g></g><line x1="44.941" y1="136.571" x2="73.287" y2="136.571" stroke="#F26522" stroke-miterlimit="10" stroke-dasharray="1 1" fill="none"/><g><rect x="44.537" y="133.94" width="0.809" height="5.262" fill="#F26522"/></g><g><path d="M71.944 138.092C72.788 138.092 73.47 137.41 73.47 136.569 73.47 135.731 72.788 135.048 71.944 135.048 71.105 135.048 70.425 135.732 70.425 136.569 70.426 137.411 71.105 138.092 71.944 138.092Z" fill="#F26522"/></g><g><circle cx="82.333" cy="168.728" r="3.437" stroke="#7C702D" stroke-dasharray="0.9798 0.9798" fill="none"/></g><path d="M83.102 166.6C84.28 167.017 84.899 168.313 84.476 169.492 84.054 170.673 82.758 171.29 81.58 170.87 80.4 170.45 79.782 169.152 80.206 167.973 80.626 166.792 81.922 166.178 83.102 166.6Z" stroke="#7C702D" fill="#B7C98F"/><line x1="76.219" y1="189.64" x2="79.27" y2="181.379" stroke="#F26522" stroke-miterlimit="10" stroke-dasharray="1 1" fill="none"/><g><path d="M81.62 172.637C81.804 172.376 81.89 172.392 82.24 172.054 82.78 171.569 83.802 172.375 83.616 172.944L83.532 173.195C83.846 173.139 84.613 173.851 84.198 174.543 84.732 174.643 84.868 175.184 84.56 175.612 84.293 175.987 84.159 176.211 84.007 176.982 83.82 177.941 83.694 179.079 82.661 179.897 82.568 179.967 82.585 180.096 82.633 180.147 82.727 180.245 83.087 180.341 82.981 180.635L82.559 181.708C82.405 182.094 81.721 182.181 79.936 181.473 78.075 180.74 77.356 180.432 77.653 179.66 77.943 178.901 78.031 178.693 78.031 178.693 78.132 178.457 78.308 178.481 78.426 178.484 78.496 178.486 78.556 178.405 78.552 178.333 78.549 178.219 78.511 177.102 78.748 176.241 78.966 175.449 78.852 175.056 79.134 174.572 79.465 173.999 80.178 172 80.4 171.406 80.62 170.823 81.171 169.971 81.625 168.729 82.059 167.543 83.419 168.074 82.942 169.106 82.568 169.92 82.658 169.987 82.509 170.263 82.248 170.744 82.087 171.324 81.964 171.728 81.904 171.912 81.774 172.087 81.62 172.637" stroke="#EB4024" stroke-miterlimit="10" fill="#FCD4CD"/><path d="M80.348 179.859C81.081 180.172 82.422 180.532 82.556 180.537 82.682 180.537 82.72 180.647 82.638 180.807 82.586 180.917 82.36 181.496 82.36 181.496 82.261 181.754 81.88 181.957 79.9 181.182 77.858 180.366 77.628 180.182 77.866 179.576L78.181 178.834C78.207 178.79 78.248 178.77 78.304 178.763 78.44 178.753 78.493 179.072 80.348 179.859Z" stroke="#EB4024" fill="#FCD4CD"/></g><g><rect x="76.017" y="188.324" width="0.405" height="2.632" fill="#F26522" transform="matrix(-0.3461 0.9382 -0.9382 -0.3461 280.518 183.765)"/></g><line x1="113.254" y1="93.194" x2="111.159" y2="107.212" stroke="#F26522" stroke-miterlimit="10" stroke-dasharray="1 1" fill="none"/><g><rect x="112.85" y="90.564" width="0.809" height="5.262" fill="#F26522" transform="matrix(0.198 -0.9802 0.9802 0.198 -0.5174 185.757)"/></g><g><path d="M109.636 106.802C109.636 107.646 110.318 108.328 111.159 108.328 111.997 108.328 112.68 107.646 112.68 106.802 112.68 105.963 111.996 105.283 111.159 105.283 110.318 105.283 109.636 105.962 109.636 106.802Z" fill="#F26522"/></g></svg>