<svg width="106.5" height="243.5" viewBox="0 0 106.5 243.5" xmlns="http://www.w3.org/2000/svg" xmlns:xlink="http://www.w3.org/1999/xlink" id="Layer_1" xml:space="preserve" overflow="hidden"><path d="" stroke="#262262" stroke-width="1.5" stroke-miterlimit="10" fill="#FFFFFF"/><rect x="20.811" y="220.667" width="54.254" height="8.451" stroke="#3C2415" stroke-miterlimit="10" fill="#E8E5D1"/><path d="M73.912 224.619 32.168 227.582 31.543 220.354 72.957 218.02Z" stroke="#3C2415" stroke-miterlimit="10" fill="#5C7782"/><path d="M28.704 228.673C30.244 228.558 31.943 228.424 33.754 228.277L33.213 228.321C35.953 228.104 51.727 222.973 56.277 222.157 60.826 221.339 66.892 224.958 68.041 225.229 72.215 226.218 75.064 224.567 75.064 224.567L75.078 220.018 75.053 220.669C75.053 216.015 75.116 211.606 75.043 207.202 74.574 178.143 74.066 149.086 73.592 120.028 73.387 107.425 73.26 94.82 73.002 82.217 72.986 81.367 72.389 80.235 71.711 79.745 69.166 77.91 67.326 75.57 66.102 72.675 64.135 68.023 63.604 63.098 63.541 58.103 63.393 46.188 65.469 34.561 68.09 23.023 68.51 21.178 68.354 20.154 66.526 19.271 63.438 17.781 60.508 15.954 57.506 14.282 56.031 13.461 54.543 12.669 53.094 11.88 44.162 24.911 34 45.042 30.451 63.948 28.996 71.695 28.465 79.488 28.91 87.35 28.984 90.142 28.908 95.478 28.908 95.478 28.769 95.843 28.902 177.576 28.82 217.999L28.704 228.673Z" stroke="#3C2415" stroke-miterlimit="10" fill="#5C7782" fill-rule="evenodd" clip-rule="evenodd"/><path d="M28.213 89.222 28.156 95.063C28.156 95.863 28.156 96.618 28.156 97.371 28.158 137.742 28.142 178.113 28.219 218.485L28.021 229.253C24.347 229.527 21.579 229.698 20.36 229.698 14.061 229.698 12.194 198.354 11.174 175.487L11.127 169.187C11.074 160.638 11.07 152.09 11.227 143.545 11.618 122.086 12.241 100.623 13.315 79.187 13.803 69.448 15.545 59.767 16.848 50.076 17.491 45.302 19.85 41.646 23.864 38.687 31.122 33.336 38.044 27.532 45.112 21.923 45.706 21.452 46.335 21.026 46.95 20.579 37.683 37.093 30.53 54.091 28.547 72.563L28.213 89.222Z" stroke="#3C2415" stroke-miterlimit="10" fill="#E8E5D1" fill-rule="evenodd" clip-rule="evenodd"/><path d="M17.51 28.129C21.207 24.199 24.479 20.485 28.008 17.038 31.5 13.626 35.229 10.458 38.904 7.241 39.789 6.468 40.902 5.965 41.855 5.263 43.431 4.101 44.63 4.295 45.96 5.811 47.753 7.854 49.771 9.703 51.761 11.561 52.626 12.365 52.777 12.998 52.107 14.049 50.296 16.892 48.291 19.425 45.466 21.443 40.298 25.135 35.364 29.157 30.386 33.109 29.185 34.062 28.163 34.281 26.8 33.461 23.879 31.701 20.889 30.058 17.51 28.129Z" stroke="#3C2415" stroke-miterlimit="10" fill="#E8E5D1" fill-rule="evenodd" clip-rule="evenodd"/><path d="" stroke="#262262" stroke-width="1.5" stroke-miterlimit="10" fill="#FFFFFF" fill-rule="evenodd" clip-rule="evenodd"/><g><path d="M101.195 226.495C101.207 226.655 101.215 226.777 101.213 226.748 97.081 227.925 92.978 229.005 88.937 230.282 87.195 230.834 85.562 231.747 83.916 232.571 83.186 232.936 82.469 233.138 81.658 233.111 80.978 233.088 80.295 233.152 79.613 233.149 79.017 233.146 78.406 233.181 77.826 233.066 76.162 232.734 74.513 232.515 72.867 233.141 72.699 233.205 72.508 233.212 72.318 233.245 72.257 233.031 72.181 232.851 72.154 232.663 72.09 232.223 72.16 231.901 72.582 231.563 73.676 230.689 74.971 230.862 76.15 230.696 72.668 228.043 68.453 226.656 64.541 224.453 64.727 224.349 64.797 224.311 64.855 224.276 64.121 223.991 64.052 223.897 64.068 223.114 64.57 223.077 65.058 223.026 65.318 223.539 65.324 223.479 65.336 223.313 65.349 223.107 68.05 224.076 70.72 225.032 73.39 225.99 73.441 225.939 73.494 225.889 73.546 225.84 73.081 225.225 72.673 224.554 72.138 224.006 71.413 223.27 70.609 222.608 69.808 221.952 69.214 221.464 69.017 220.868 69.113 220.053 69.531 220.082 70.019 219.975 70.34 220.16 71.871 221.039 73.356 221.996 74.922 222.967 74.545 222.609 74.215 222.266 73.856 221.958 73.211 221.411 72.557 220.875 71.891 220.354 71.725 220.226 71.428 220.047 71.309 220.111 70.748 220.41 70.725 219.941 70.639 219.662 70.532 219.308 70.879 219.023 71.104 218.86 71.922 218.264 72.461 218.981 73.137 219.16 74.405 219.495 75.143 220.594 76.25 221.136 76.434 221.224 76.6 221.349 76.928 221.55 76.877 221.079 76.944 220.679 76.787 220.413 76.262 219.533 75.658 218.701 75.084 217.85 74.969 217.682 74.779 217.532 74.738 217.347 74.681 217.092 74.73 216.812 74.736 216.544 74.97 216.601 75.207 216.661 75.443 216.717 77.105 217.113 77.75 218.67 78.863 219.692 79.511 220.287 80.183 220.902 80.949 221.312 82.092 221.924 83.312 222.402 84.529 222.861 85.242 223.129 86.002 223.047 86.717 222.738 89.932 221.349 93.145 219.959 96.36 218.571 97.003 218.294 97.651 218.029 98.36 217.73 98.655 218.867 98.932 219.94 99.212 221.013 99.687 222.836 100.16 224.662 100.647 226.483 100.684 226.619 100.809 226.732 100.895 226.856 100.982 226.748 101.072 226.64 101.195 226.495Z" stroke="#392726" stroke-width="0.5" stroke-miterlimit="10" fill="#BBA795"/></g><g><line x1="63.775" y1="9.423" x2="60.645" y2="14.403" stroke="#F26522" stroke-miterlimit="10" stroke-dasharray="1 1" fill="none"/><g><rect x="63.37" y="6.79" width="0.809" height="5.262" fill="#F26522" transform="matrix(0.5311 -0.8473 0.8473 0.5311 21.9224 58.4549)"/></g><g><path d="M58.625 14.752C58.176 15.467 58.391 16.407 59.104 16.856 59.813 17.301 60.754 17.087 61.204 16.374 61.651 15.663 61.433 14.724 60.724 14.278 60.01 13.83 59.072 14.042 58.625 14.752Z" fill="#F26522"/></g></g><g><circle cx="57.173" cy="22.136" r="3.436" stroke="#7C702D" stroke-width="0.5" stroke-dasharray="0.9797 0.9797" fill="none"/></g><circle cx="57.171" cy="22.145" r="2.266" stroke="#7C702D" stroke-width="0.5" fill="#B7C98F"/><g><path d="M60.559 24.217C60.241 24.179 60.196 24.253 59.709 24.288 58.986 24.365 58.904 25.664 59.451 25.906L59.695 26.011C59.443 26.207 59.461 27.253 60.252 27.407 59.971 27.871 60.281 28.334 60.807 28.389 61.264 28.441 61.52 28.491 62.196 28.893 63.034 29.395 63.964 30.061 65.262 29.839 65.375 29.817 65.461 29.915 65.467 29.985 65.477 30.121 65.309 30.453 65.598 30.57L66.678 30.974C67.067 31.116 67.59 30.665 68.256 28.865 68.953 26.991 69.205 26.251 68.432 25.955 67.674 25.663 67.461 25.59 67.461 25.59 67.217 25.508 67.117 25.656 67.039 25.744 66.994 25.798 66.894 25.788 66.844 25.736 66.762 25.658 65.953 24.883 65.156 24.485 64.42 24.118 64.205 23.771 63.656 23.656 63.008 23.521 61.045 22.716 60.455 22.483 59.875 22.258 58.873 22.098 57.644 21.608 56.474 21.137 55.958 22.504 57.046 22.838 57.9 23.104 57.892 23.216 58.194 23.289 58.725 23.417 59.264 23.684 59.649 23.862 59.828 23.943 60.045 23.963 60.559 24.217" stroke="#EB4024" stroke-miterlimit="10" fill="#FCD4CD"/><path d="M66.779 28.096C66.523 28.849 65.896 30.089 65.808 30.191 65.724 30.285 65.781 30.387 65.954 30.432 66.071 30.467 66.653 30.686 66.653 30.686 66.909 30.785 67.317 30.637 68.063 28.646 68.819 26.582 68.836 26.288 68.227 26.06L67.463 25.797C67.412 25.788 67.371 25.805 67.328 25.841 67.23 25.938 67.434 26.19 66.779 28.096Z" stroke="#EB4024" fill="#FCD4CD"/></g><line x1="74.227" y1="30.947" x2="67.672" y2="28.136" stroke="#F26522" stroke-miterlimit="10" stroke-dasharray="1 1" fill="none"/><g><rect x="73.913" y="29.599" width="0.406" height="2.632" fill="#F26522" transform="matrix(0.9288 0.3706 -0.3706 0.9288 16.7324 -25.2637)"/></g><g><circle cx="60.581" cy="41.44" r="3.437" stroke="#7C702D" stroke-width="0.5" stroke-dasharray="0.9798 0.9798" fill="none"/></g><circle cx="60.581" cy="41.449" r="2.266" stroke="#7C702D" stroke-width="0.5" fill="#B7C98F"/><g><path d="M63.967 43.521C63.649 43.482 63.604 43.558 63.117 43.592 62.396 43.669 62.314 44.968 62.861 45.211L63.103 45.315C62.851 45.511 62.871 46.558 63.662 46.713 63.379 47.176 63.691 47.64 64.215 47.694 64.672 47.747 64.928 47.795 65.604 48.199 66.444 48.701 67.374 49.367 68.672 49.146 68.785 49.123 68.871 49.221 68.875 49.29 68.887 49.426 68.719 49.758 69.008 49.876L70.088 50.278C70.477 50.421 71 49.971 71.664 48.17 72.361 46.296 72.615 45.555 71.842 45.261 71.084 44.969 70.869 44.896 70.869 44.896 70.627 44.813 70.525 44.96 70.449 45.049 70.404 45.104 70.304 45.093 70.252 45.042 70.17 44.963 69.363 44.188 68.566 43.791 67.83 43.423 67.615 43.078 67.066 42.963 66.418 42.826 64.453 42.021 63.865 41.79 63.283 41.563 62.283 41.403 61.054 40.912 59.882 40.443 59.366 41.81 60.454 42.143 61.309 42.409 61.3 42.521 61.604 42.595 62.135 42.722 62.674 42.99 63.059 43.168 63.236 43.248 63.455 43.268 63.967 43.521" stroke="#EB4024" stroke-miterlimit="10" fill="#FCD4CD"/><path d="M70.189 47.401C69.931 48.153 69.304 49.394 69.218 49.496 69.132 49.59 69.191 49.691 69.363 49.737 69.48 49.773 70.062 49.991 70.062 49.991 70.32 50.089 70.728 49.94 71.472 47.951 72.23 45.886 72.245 45.591 71.636 45.363L70.874 45.101C70.823 45.092 70.78 45.108 70.739 45.145 70.641 45.241 70.844 45.494 70.189 47.401Z" stroke="#EB4024" fill="#FCD4CD"/></g><line x1="77.637" y1="50.251" x2="71.08" y2="47.44" stroke="#F26522" stroke-miterlimit="10" stroke-dasharray="1 1" fill="none"/><g><rect x="77.324" y="48.904" width="0.405" height="2.632" fill="#F26522" transform="matrix(0.9296 0.3685 -0.3685 0.9296 23.9601 -25.0334)"/></g><g><circle cx="52.349" cy="63.207" r="3.437" stroke="#7C702D" stroke-width="0.5" stroke-dasharray="0.9797 0.9797" fill="none"/></g><path d="M50.252 62.356C49.775 63.511 50.326 64.837 51.486 65.31 52.646 65.786 53.97 65.233 54.445 64.077 54.922 62.918 54.369 61.591 53.209 61.119 52.049 60.642 50.725 61.197 50.252 62.356Z" stroke="#7C702D" stroke-width="0.5" fill="#B7C98F"/><g><path d="M55.734 65.288C55.416 65.25 55.371 65.326 54.884 65.359 54.163 65.436 54.081 66.735 54.628 66.977L54.87 67.082C54.618 67.277 54.638 68.326 55.429 68.478 55.146 68.942 55.458 69.405 55.982 69.46 56.439 69.513 56.695 69.562 57.371 69.964 58.211 70.466 59.141 71.132 60.439 70.91 60.552 70.888 60.638 70.986 60.642 71.056 60.654 71.191 60.486 71.523 60.775 71.641L61.855 72.044C62.244 72.187 62.767 71.736 63.431 69.936 64.128 68.061 64.382 67.321 63.609 67.025 62.851 66.733 62.636 66.661 62.636 66.661 62.394 66.579 62.292 66.726 62.216 66.815 62.171 66.869 62.071 66.859 62.019 66.807 61.937 66.729 61.13 65.953 60.333 65.556 59.597 65.189 59.382 64.842 58.833 64.727 58.185 64.592 56.22 63.787 55.632 63.554 55.05 63.328 54.05 63.169 52.821 62.678 51.649 62.207 51.133 63.574 52.221 63.91 53.076 64.174 53.067 64.286 53.371 64.36 53.902 64.488 54.441 64.756 54.826 64.933 55.004 65.014 55.223 65.036 55.734 65.288" stroke="#EB4024" stroke-miterlimit="10" fill="#FCD4CD"/><path d="M61.957 69.167C61.699 69.92 61.072 71.16 60.986 71.262 60.9 71.356 60.959 71.458 61.131 71.505 61.248 71.538 61.83 71.757 61.83 71.757 62.088 71.856 62.496 71.708 63.24 69.717 63.998 67.653 64.013 67.359 63.404 67.131L62.642 66.869C62.591 66.859 62.548 66.876 62.507 66.912 62.408 67.007 62.611 67.261 61.957 69.167Z" stroke="#EB4024" fill="#FCD4CD"/></g><line x1="69.404" y1="72.018" x2="62.848" y2="69.207" stroke="#F26522" stroke-miterlimit="10" stroke-dasharray="1 1" fill="none"/><g><rect x="69.091" y="70.669" width="0.406" height="2.633" fill="#F26522" transform="matrix(0.9288 0.3706 -0.3706 0.9288 31.6082 -20.5528)"/></g><g><line x1="81.041" y1="99.669" x2="75.158" y2="99.669" stroke="#F26522" stroke-miterlimit="10" stroke-dasharray="1 1" fill="none"/><g><rect x="80.639" y="97.036" width="0.809" height="5.261" fill="#F26522"/></g><g><circle cx="73.787" cy="99.668" r="1.522" fill="#F26522"/></g></g><g><circle cx="52.724" cy="129.797" r="3.437" stroke="#7C702D" stroke-width="0.5" stroke-dasharray="0.9798 0.9798" fill="none"/></g><path d="M50.461 129.846C50.481 131.096 51.512 132.096 52.764 132.071 54.018 132.047 55.016 131.016 54.994 129.766 54.973 128.514 53.939 127.514 52.685 127.54 51.434 127.562 50.438 128.594 50.461 129.846Z" stroke="#7C702D" stroke-width="0.5" fill="#B7C98F"/><g><path d="M56.656 130.368C56.349 130.459 56.338 130.546 55.906 130.77 55.273 131.126 55.713 132.352 56.31 132.356L56.574 132.356C56.422 132.637 56.851 133.59 57.64 133.418 57.564 133.956 58.033 134.258 58.536 134.102 58.977 133.969 59.231 133.913 60.011 134.016 60.98 134.144 62.099 134.388 63.202 133.67 63.298 133.604 63.415 133.661 63.448 133.723 63.511 133.844 63.487 134.216 63.8 134.209L64.952 134.152C65.366 134.13 65.667 133.508 65.565 131.59 65.463 129.594 65.401 128.812 64.575 128.848 63.764 128.88 63.538 128.897 63.538 128.897 63.282 128.918 63.249 129.093 63.214 129.205 63.194 129.273 63.099 129.304 63.03 129.276 62.923 129.237 61.876 128.846 60.985 128.795 60.165 128.749 59.829 128.517 59.28 128.629 58.632 128.76 56.509 128.798 55.876 128.818 55.253 128.841 54.271 129.091 52.948 129.127 51.686 129.159 51.755 130.618 52.885 130.495 53.776 130.4 53.811 130.507 54.119 130.454 54.658 130.36 55.26 130.393 55.682 130.404 55.879 130.406 56.086 130.339 56.656 130.368" stroke="#EB4024" stroke-miterlimit="10" fill="#FCD4CD"/><path d="M63.906 131.467C63.969 132.261 63.883 133.646 63.845 133.774 63.804 133.894 63.896 133.965 64.074 133.939 64.195 133.925 64.816 133.895 64.816 133.895 65.091 133.884 65.406 133.587 65.302 131.464 65.181 129.269 65.079 128.992 64.429 129.024L63.626 129.086C63.575 129.098 63.544 129.13 63.519 129.18 63.467 129.306 63.752 129.457 63.906 131.467Z" stroke="#EB4024" fill="#FCD4CD"/></g><line x1="79.76" y1="131.128" x2="65.586" y2="131.143" stroke="#F26522" stroke-miterlimit="10" stroke-dasharray="1 1" fill="none"/><g><rect x="79.558" y="129.835" width="0.404" height="2.632" fill="#F26522" transform="matrix(0.9996 -0.0278 0.0278 0.9996 -3.6109 2.2653)"/></g><g><circle cx="24.751" cy="54.94" r="3.437" stroke="#7C702D" stroke-width="0.5" stroke-dasharray="0.9798 0.9798" fill="none"/></g><circle cx="24.748" cy="54.949" r="2.266" stroke="#7C702D" stroke-width="0.5" fill="#B7C98F"/><g><path d="M20.818 55.511C21.125 55.602 21.136 55.689 21.57 55.912 22.201 56.268 21.763 57.494 21.166 57.501L20.9 57.501C21.054 57.78 20.623 58.733 19.836 58.562 19.91 59.1 19.441 59.401 18.938 59.245 18.499 59.112 18.243 59.056 17.463 59.158 16.494 59.288 15.375 59.53 14.272 58.812 14.176 58.747 14.059 58.804 14.026 58.866 13.963 58.986 13.987 59.357 13.674 59.351L12.522 59.293C12.108 59.271 11.807 58.649 11.909 56.733 12.011 54.735 12.073 53.955 12.899 53.99 13.712 54.023 13.936 54.04 13.936 54.04 14.192 54.06 14.225 54.235 14.26 54.348 14.281 54.415 14.377 54.446 14.444 54.419 14.551 54.38 15.598 53.987 16.489 53.938 17.309 53.893 17.645 53.66 18.194 53.771 18.842 53.902 20.965 53.941 21.598 53.961 22.221 53.983 23.203 54.233 24.526 54.269 25.788 54.302 25.719 55.76 24.589 55.638 23.698 55.543 23.663 55.649 23.355 55.596 22.816 55.503 22.216 55.534 21.792 55.546 21.598 55.549 21.389 55.481 20.818 55.511" stroke="#EB4024" stroke-miterlimit="10" fill="#FCD4CD"/><path d="M13.568 56.609C13.505 57.403 13.591 58.789 13.631 58.918 13.672 59.038 13.578 59.109 13.401 59.082 13.28 59.066 12.659 59.038 12.659 59.038 12.384 59.025 12.069 58.729 12.173 56.606 12.296 54.411 12.396 54.133 13.046 54.166L13.851 54.228C13.9 54.24 13.933 54.271 13.956 54.322 14.008 54.448 13.723 54.6 13.568 56.609Z" stroke="#EB4024" fill="#FCD4CD"/></g><line x1="5.602" y1="56.277" x2="12.734" y2="56.292" stroke="#F26522" stroke-miterlimit="10" stroke-dasharray="1 1" fill="none"/><g><rect x="5.512" y="54.976" width="0.406" height="2.633" fill="#F26522" transform="matrix(-0.9996 -0.0288 0.0288 -0.9996 9.8042 112.726)"/></g><g><line x1="61.434" y1="215.297" x2="61.434" y2="223.801" stroke="#F26522" stroke-miterlimit="10" stroke-dasharray="1 1" fill="none"/><g><rect x="58.803" y="214.489" width="5.262" height="0.808" fill="#F26522"/></g><g><path d="M59.912 225.321C59.912 226.165 60.594 226.846 61.435 226.846 62.273 226.846 62.956 226.164 62.956 225.321 62.956 224.481 62.272 223.801 61.435 223.801 60.594 223.801 59.912 224.481 59.912 225.321Z" fill="#F26522"/></g></g><g><circle cx="46.991" cy="219.82" r="3.437" stroke="#7C702D" stroke-width="0.5" stroke-dasharray="0.9798 0.9798" fill="none"/></g><path d="M46.941 222.083C45.691 222.064 44.691 221.033 44.716 219.781 44.739 218.526 45.771 217.529 47.021 217.551 48.273 217.573 49.273 218.605 49.248 219.859 49.227 221.11 48.195 222.106 46.941 222.083Z" stroke="#7C702D" stroke-width="0.5" fill="#B7C98F"/><g><path d="M46.42 215.888C46.33 216.195 46.242 216.206 46.02 216.64 45.663 217.271 44.438 216.832 44.432 216.235L44.432 215.97C44.151 216.123 43.198 215.693 43.369 214.906 42.832 214.981 42.531 214.512 42.685 214.008 42.82 213.568 42.874 213.313 42.773 212.534 42.644 211.565 42.4 210.446 43.119 209.342 43.183 209.247 43.127 209.13 43.066 209.096 42.947 209.034 42.574 209.056 42.58 208.744L42.639 207.591C42.66 207.177 43.282 206.877 45.2 206.978 47.198 207.08 47.977 207.142 47.942 207.968 47.909 208.78 47.891 209.005 47.891 209.005 47.871 209.261 47.698 209.295 47.584 209.33 47.516 209.35 47.484 209.445 47.512 209.513 47.551 209.62 47.946 210.667 47.994 211.558 48.039 212.379 48.271 212.714 48.16 213.264 48.029 213.912 47.99 216.035 47.971 216.667 47.948 217.29 47.698 218.272 47.662 219.595 47.631 220.856 46.172 220.788 46.295 219.657 46.389 218.766 46.283 218.731 46.336 218.422 46.43 217.883 46.397 217.283 46.385 216.86 46.383 216.666 46.449 216.458 46.42 215.888" stroke="#EB4024" stroke-miterlimit="10" fill="#FCD4CD"/><path d="M45.322 208.638C44.527 208.576 43.142 208.662 43.013 208.7 42.892 208.742 42.822 208.649 42.849 208.471 42.865 208.35 42.892 207.729 42.892 207.729 42.906 207.454 43.201 207.139 45.324 207.243 47.519 207.365 47.797 207.465 47.765 208.116L47.702 208.92C47.69 208.969 47.659 209.002 47.608 209.026 47.482 209.078 47.332 208.792 45.322 208.638Z" stroke="#EB4024" fill="#FCD4CD"/></g><line x1="45.654" y1="200.67" x2="45.639" y2="207.804" stroke="#F26522" stroke-miterlimit="10" stroke-dasharray="1 1" fill="none"/><g><rect x="45.435" y="199.468" width="0.405" height="2.632" fill="#F26522" transform="matrix(0.0289 -0.9996 0.9996 0.0289 -156.382 240.6)"/></g><g><g><line x1="26.469" y1="229.781" x2="26.501" y2="228.281" stroke="#3C2415" stroke-width="0.5" stroke-miterlimit="10" fill="none"/><path d="M26.605 223.366 26.689 219.407C26.626 186.115 26.626 152.239 26.628 119.477L26.628 96.012 26.685 90.204C25.273 69.207 30.523 48.779 43.661 24.417" stroke="#3C2415" stroke-width="0.5" stroke-miterlimit="10" stroke-dasharray="2.9497 4.9161" fill="none"/><path d="M44.842 22.256C45.083 21.82 45.326 21.383 45.572 20.944" stroke="#3C2415" stroke-width="0.5" stroke-miterlimit="10" fill="none"/></g></g><g><line x1="6.412" y1="79.257" x2="26.254" y2="79.257" stroke="#F26522" stroke-miterlimit="10" stroke-dasharray="1 1" fill="none"/><g><rect x="5.555" y="76.628" width="0.809" height="5.261" fill="#F26522"/></g><g><circle cx="27.773" cy="79.257" r="1.522" fill="#F26522"/></g></g><g><line x1="7.656" y1="114.007" x2="27.498" y2="114.007" stroke="#F26522" stroke-miterlimit="10" stroke-dasharray="1 1" fill="none"/><g><rect x="6.799" y="111.376" width="0.809" height="5.262" fill="#F26522"/></g><g><path d="M29.018 115.529C29.862 115.529 30.543 114.848 30.543 114.006 30.543 113.169 29.861 112.484 29.018 112.484 28.178 112.484 27.498 113.169 27.498 114.006 27.498 114.848 28.178 115.529 29.018 115.529Z" fill="#F26522"/></g></g></svg>