<svg width="160" height="223" viewBox="0 0 160 223" xmlns="http://www.w3.org/2000/svg" xmlns:xlink="http://www.w3.org/1999/xlink" id="Layer_1" xml:space="preserve" overflow="hidden"><pattern x="-2585" y="6791.67" width="72" height="72" patternUnits="userSpaceOnUse" viewBox="51.688 -85.483 72 72" id="Mezzotint_Irregular" overflow="visible"><g><path d="M51.688-85.483 123.688-85.483 123.688-13.483 51.688-13.483Z" fill="none"/><g><path d="M119.938-9.983C122.188-10.483 126.938-9.983 125.938-8.233 124.938-6.483 129.938-1.233 130.438-2.733 130.938-4.233 128.438-7.233 131.188-7.483 133.938-7.733 136.938-4.483 138.688-4.233 140.438-3.983 144.188-5.733 141.938-7.233 139.688-8.733 139.188-11.733 136.438-11.483 133.688-11.233 129.438-11.733 130.438-14.483" stroke="#000000" stroke-width="0.3" fill="none"/><path d="M120.938-12.483C122.688-11.983 126.438-12.233 126.938-10.733 127.438-9.233 129.688-7.983 129.688-9.233 129.688-10.483 127.938-11.983 127.938-11.983 127.938-11.983 123.938-15.483 125.938-15.983" stroke="#000000" stroke-width="0.3" fill="none"/><path d="M122.688-5.233C124.188-3.733 126.188-2.483 128.188-1.483 130.188-0.483 133.188 0.517 133.438-0.733 133.688-1.983 130.688-3.983 132.438-3.983 134.188-3.983 135.688-1.983 138.938-2.233 142.188-2.483 148.188-6.233 146.188-6.983 144.188-7.733 142.438-10.483 140.688-11.483 138.938-12.483 137.938-12.483 136.688-12.483 135.438-12.483 132.688-13.733 134.688-14.483" stroke="#000000" stroke-width="0.3" fill="none"/></g><g><path d="M47.938-9.983C50.188-10.483 54.938-9.983 53.938-8.233 52.938-6.483 57.938-1.233 58.438-2.733 58.938-4.233 56.438-7.233 59.188-7.483 61.938-7.733 64.938-4.483 66.688-4.233 68.438-3.983 72.188-5.733 69.938-7.233 67.688-8.733 67.188-11.733 64.438-11.483 61.688-11.233 57.438-11.733 58.438-14.483" stroke="#000000" stroke-width="0.3" fill="none"/><path d="M75.438-14.483C76.688-13.983 79.688-11.483 78.688-9.733 77.688-7.983 78.188-6.483 79.688-6.233 81.188-5.983 85.938-8.233 85.438-9.483 84.938-10.733 83.688-12.733 85.438-13.983" stroke="#000000" stroke-width="0.3" fill="none"/><path d="M97.438-16.733C99.188-15.733 99.188-14.733 97.938-13.483 96.688-12.233 91.438-12.233 92.188-10.983 92.938-9.733 97.188-6.983 99.938-6.983 102.688-6.983 102.938-10.483 104.688-10.983" stroke="#000000" stroke-width="0.3" fill="none"/><path d="M105.688-12.233C106.438-12.733 106.438-13.233 106.188-15.233" stroke="#000000" stroke-width="0.3" fill="none"/><path d="M107.938-19.233C107.938-17.733 107.563-13.632 107.563-12.358 107.563-10.983 108.063-10.483 108.063-10.483" stroke="#000000" stroke-width="0.3" fill="none"/><path d="M48.938-12.483C50.688-11.983 54.438-12.233 54.938-10.733 55.438-9.233 57.688-7.983 57.688-9.233 57.688-10.483 55.938-11.983 55.938-11.983 55.938-11.983 51.938-15.483 53.938-15.983" stroke="#000000" stroke-width="0.3" fill="none"/><path d="M77.688-15.233C79.438-14.733 81.438-14.233 81.188-12.483 80.938-10.733 81.438-8.483 81.938-9.733 82.438-10.983 81.938-13.733 83.438-14.733" stroke="#000000" stroke-width="0.3" fill="none"/><path d="M100.438-19.983C101.688-17.733 101.938-13.733 100.188-12.483 98.438-11.233 97.188-9.483 98.688-9.733 100.188-9.983 102.688-10.483 103.438-12.733 104.188-14.983 105.688-21.483 104.188-22.233" stroke="#000000" stroke-width="0.3" fill="none"/><path d="M109.688-19.983C108.688-18.483 108.688-15.483 109.938-14.233 111.188-12.983 112.438-13.483 112.688-11.983 112.938-10.483 114.188-8.733 115.188-8.733 116.188-8.733 117.688-10.733 118.438-11.483 119.438-12.483 120.938-12.483 120.938-12.483 122.688-11.983 126.438-12.233 126.938-10.733" stroke="#000000" stroke-width="0.3" fill="none"/><path d="M50.688-5.233C52.188-3.733 54.188-2.483 56.188-1.483 58.188-0.483 61.188 0.517 61.438-0.733 61.688-1.983 58.688-3.983 60.438-3.983 62.188-3.983 63.688-1.983 66.938-2.233 70.188-2.483 76.188-6.233 74.188-6.983 72.188-7.733 70.438-10.483 68.688-11.483 66.938-12.483 65.938-12.483 64.688-12.483 63.438-12.483 60.688-13.733 62.688-14.483" stroke="#000000" stroke-width="0.3" fill="none"/><path d="M73.938-13.983C74.938-11.983 76.188-10.733 76.438-8.983 76.688-7.233 75.938-4.233 78.438-4.233 79.072-4.233 79.754-4.282 80.452-4.389" stroke="#000000" stroke-width="0.3" fill="none"/><path d="M82.5-4.89C83.875-5.359 85.188-6.109 86.188-7.234 88.188-9.484 86.438-9.984 86.688-11.234 86.938-12.484 92.688-15.234 93.688-14.484 94.688-13.734 92.438-14.484 91.438-12.734 90.438-10.984 87.188-6.484 92.438-6.234 97.688-5.984 98.688-4.984 98.938-3.984 99.188-2.984 103.938-3.234 103.938-4.484 103.938-5.734 105.438-10.484 105.938-9.234 106.438-7.984 107.938-5.734 110.938-4.234" stroke="#000000" stroke-width="0.3" fill="none"/><path d="M112.938-14.733C114.188-13.483 114.438-10.983 115.688-11.733 116.938-12.483 118.438-13.983 119.188-14.483" stroke="#000000" stroke-width="0.3" fill="none"/></g><g><path d="M37.688-19.983C36.688-18.483 36.688-15.483 37.938-14.233 39.188-12.983 40.438-13.483 40.688-11.983 40.938-10.483 42.188-8.733 43.188-8.733 44.188-8.733 45.688-10.733 46.438-11.483 47.438-12.483 48.938-12.483 48.938-12.483 50.688-11.983 54.438-12.233 54.938-10.733" stroke="#000000" stroke-width="0.3" fill="none"/></g><g><path d="M118.438-16.733C122.301-19.173 124.47-23.754 128.938-25.233 128.787-24.179 128.834-22.934 129.554-22.385 130.732-21.485 131.97-21.76 133.438-22.233 134.407-25.439 136.528-29.528 140.415-28.635 141.806-28.316 141.735-26.647 142.56-25.859 143.414-25.043 144.792-24.186 145.827-24.895 147.016-25.711 148.2-26.102 149.461-26.687 150.189-27.025 149.659-27.992 150.433-28.253 152.313-28.89 152.607-26.893 153.94-26.232 153.834-24.374 153.911-22.559 154.452-20.735 155.146-18.399 157.826-19.113 159.44-20.232 159.126-20.493 160.065-21.982 159.94-23.607 160.453-27.265 158.219-30.517 162.038-31.974 165.757-33.392 169.906-32.366 173.912-32.927 175.067-33.089 176.359-33.305 177.346-33.89 178.705-34.699 179.904-35.799 181.441-36.232 181.64-35.448 182.819-36.033 182.9-35.227 183.12-33.05 184.554-31.557 185.655-29.873 185.849-29.575 186.169-28.808 186.829-28.496 187.701-28.083 187.569-26.389 187.941-25.232" stroke="#000000" stroke-width="0.3" fill="none"/><path d="M121.063-23.108C122.571-23.85 124.193-24.335 125.563-25.358 125.65-26.217 126.388-26.748 126.589-27.601 126.636-27.8 126.97-27.857 126.985-27.892 127.691-29.457 129.271-30.27 130.809-29.602 131.183-29.44 130.986-28.731 131.562-28.858 131.562-28.607 131.644-28.253 131.52-28.168 130.268-27.308 130.177-25.814 130.45-24.641 130.639-23.826 131.573-23.088 132.562-23.859 132.332-26.691 133.615-29.11 135.892-30.748 137.094-31.611 138.615-31.444 140.062-31.359 139.992-30.802 140.431-31.265 140.562-31.109" stroke="#000000" stroke-width="0.3" fill="none"/><path d="M121.438-26.733C123.188-26.983 125.188-29.233 126.688-30.733 128.188-32.233 129.688-33.233 131.188-32.983 132.688-32.733 132.188-29.733 134.438-32.733 136.688-35.733 138.188-34.733 139.688-34.483 141.188-34.233 144.688-32.483 145.938-33.983 147.188-35.483 143.938-39.983 146.188-40.233 148.438-40.483 149.438-36.983 151.438-35.733 153.438-34.483 154.438-32.983 155.688-34.983 156.938-36.983 158.938-38.733 161.188-37.983 163.438-37.233 164.188-37.233 166.188-37.233" stroke="#000000" stroke-width="0.3" fill="none"/><path d="M140.945-43.604C139.98-43.543 139.04-43.484 138.188-43.484 134.688-43.484 134.188-40.984 136.688-40.484 139.188-39.984 141.188-37.984 143.188-36.484 145.188-34.984 141.688-35.484 139.688-36.484 137.688-37.484 136.688-36.484 134.188-34.484 131.688-32.484 132.688-34.984 131.188-35.484 129.688-35.984 128.188-34.984 126.688-33.484 125.188-31.984 123.188-32.984 119.188-33.984" stroke="#000000" stroke-width="0.3" fill="none"/><path d="M120.438-37.233C121.938-36.483 123.688-34.983 125.688-35.983 127.688-36.983 128.938-38.483 130.188-37.983 131.438-37.483 132.688-35.733 134.188-36.733 135.688-37.733 137.438-37.483 135.688-39.233 133.938-40.983 130.438-42.233 131.688-43.233 132.938-44.233 135.438-46.483 138.188-46.483 140.938-46.483 153.188-48.733 152.688-46.233 152.188-43.733 150.938-37.983 152.688-38.983 154.438-39.983 155.938-41.733 157.438-41.733 158.938-41.733 160.188-41.983 160.688-44.483 161.188-46.983 163.688-48.233 164.688-47.233 165.688-46.233 167.188-44.983 166.938-46.733 166.688-48.483 167.438-51.233 170.938-50.983 171.419-50.949 172.009-50.905 172.677-50.85" stroke="#000000" stroke-width="0.3" fill="none"/><path d="M120.938-16.233C121.938-17.483 123.688-19.233 125.438-20.983 127.188-22.733 128.188-22.233 128.438-20.733 128.688-19.233 129.188-18.233 130.688-18.483 132.188-18.733 136.188-21.483 136.688-23.733 137.188-25.983 138.438-27.483 139.688-26.483 140.938-25.483 141.688-22.483 143.938-22.483 146.188-22.483 151.438-27.233 151.688-25.483 151.938-23.733 151.188-21.483 151.938-18.983 152.688-16.483 154.438-16.483 156.938-17.483 159.438-18.483 161.438-19.483 161.688-20.983" stroke="#000000" stroke-width="0.3" fill="none"/><path d="M119.938-81.983C122.188-82.483 126.938-81.983 125.938-80.233 124.938-78.483 129.938-73.233 130.438-74.733 130.938-76.233 128.438-79.233 131.188-79.483 133.938-79.733 136.938-76.483 138.688-76.233 140.438-75.983 144.188-77.733 141.938-79.233 139.688-80.733 139.188-83.733 136.438-83.483 133.688-83.233 129.438-83.733 130.438-86.483" stroke="#000000" stroke-width="0.3" fill="none"/><path d="M122.188-40.733C123.938-39.733 124.188-38.733 126.188-39.483 128.188-40.233 128.688-40.483 128.688-40.483 130.688-39.483 132.188-38.983 131.938-39.983 131.08-43.414 126.165-42.997 126.938-44.233 128.188-46.233 132.188-46.483 133.688-48.483 135.188-50.483 133.188-52.233 135.438-53.233 137.688-54.233 140.938-52.233 141.688-50.983 142.438-49.733 146.188-48.733 149.188-49.483 152.188-50.233 156.438-51.483 155.938-48.983 155.438-46.483 154.688-43.233 156.188-44.483 157.688-45.733 161.438-52.983 163.688-52.733 165.938-52.483 166.938-52.733 169.938-52.983 172.938-53.233 179.438-52.483 179.188-54.983 178.938-57.483 174.438-63.233 178.188-63.233 179.892-63.233 181.803-62.665 183.428-61.716" stroke="#000000" stroke-width="0.3" fill="none"/><path d="M120.938-84.483C122.688-83.983 126.438-84.233 126.938-82.733 127.438-81.233 129.688-79.983 129.688-81.233 129.688-82.483 127.938-83.983 127.938-83.983 127.938-83.983 123.938-87.483 125.938-87.983" stroke="#000000" stroke-width="0.3" fill="none"/><path d="M121.188-49.483C122.438-48.983 124.438-47.233 125.188-48.233 125.938-49.233 117.188-51.233 124.688-52.983 132.188-54.733 130.938-53.983 131.938-56.483 132.938-58.983 125.438-59.733 127.438-60.983 129.438-62.233 136.769-63.942 139.188-62.733 142.188-61.233 140.688-58.983 140.938-58.233 141.188-57.483 139.938-53.483 143.438-52.233 146.938-50.983 148.438-49.733 151.438-51.483 154.438-53.233 158.438-54.733 158.438-53.483 158.438-52.233 158.188-51.483 160.938-53.233 163.688-54.983 168.188-56.483 170.688-56.233 173.188-55.983 175.688-56.733 174.688-58.483 173.688-60.233 170.938-61.233 169.688-63.233 168.438-65.233 170.438-66.483 172.938-66.733 175.438-66.983 184.938-65.983 186.688-64.483 188.438-62.983 188.938-58.983 188.938-56.483 188.938-53.983 187.938-53.233 190.688-51.233" stroke="#000000" stroke-width="0.3" fill="none"/><path d="M121.438-55.483C123.688-54.983 125.688-55.483 126.688-55.983 127.688-56.483 124.188-58.983 121.938-59.733" stroke="#000000" stroke-width="0.3" fill="none"/><path d="M121.938-64.733C125.688-65.233 129.188-66.233 131.688-65.733 134.188-65.233 139.438-66.233 141.438-62.733" stroke="#000000" stroke-width="0.3" fill="none"/><path d="M122.188-68.733C125.688-68.233 132.938-66.733 134.688-66.733 135.242-66.733 136.472-66.733 137.935-66.677" stroke="#000000" stroke-width="0.3" fill="none"/><path d="M122.688-77.233C124.188-75.733 126.188-74.483 128.188-73.483 130.188-72.483 133.188-71.483 133.438-72.733 133.688-73.983 130.688-75.983 132.438-75.983 134.188-75.983 135.688-73.983 138.938-74.233 142.188-74.483 148.188-78.233 146.188-78.983 144.188-79.733 142.438-82.483 140.688-83.483 138.938-84.483 137.938-84.483 136.688-84.483 135.438-84.483 132.688-85.733 134.688-86.483" stroke="#000000" stroke-width="0.3" fill="none"/><path d="M122.188-71.233C123.938-70.733 132.438-68.483 136.438-68.733 140.438-68.983 147.188-69.233 148.188-68.483 149.188-67.733 148.438-66.483 148.688-65.233 148.938-63.983 149.688-62.983 150.938-64.233 152.188-65.483 154.688-66.233 155.938-65.733 157.188-65.233 159.438-64.483 159.188-65.733 158.938-66.983 156.438-68.983 157.688-71.233 158.938-73.483 164.688-77.733 164.188-75.483 163.688-73.233 162.938-70.233 164.688-70.983 166.438-71.733 169.688-72.983 172.688-72.483" stroke="#000000" stroke-width="0.3" fill="none"/><path d="M122.438-73.983C125.438-72.483 131.938-69.983 138.438-70.233 144.938-70.483 144.688-71.983 143.188-71.983 141.688-71.983 143.438-74.483 145.438-74.483 147.438-74.483 149.938-72.983 150.188-71.233 150.438-69.483 151.188-68.233 152.438-68.483 153.688-68.733 153.438-69.483 155.188-72.483 156.938-75.483 157.688-75.483 159.188-77.233 160.688-78.983 160.688-77.233 161.438-76.983 162.188-76.733 167.688-77.733 167.688-76.483 167.688-75.233 163.938-73.483 165.688-73.483 167.438-73.483 175.438-74.983 177.188-74.233" stroke="#000000" stroke-width="0.3" fill="none"/></g><g><path d="M46.438-16.733C50.301-19.173 52.47-23.754 56.938-25.233 56.787-24.179 56.834-22.934 57.554-22.385 58.732-21.485 59.97-21.76 61.438-22.233 62.407-25.439 64.528-29.528 68.415-28.635 69.806-28.316 69.735-26.647 70.56-25.859 71.414-25.043 72.792-24.186 73.827-24.895 75.016-25.711 76.2-26.102 77.461-26.687 78.189-27.025 77.659-27.992 78.433-28.253 80.313-28.89 80.607-26.893 81.94-26.232 81.834-24.374 81.911-22.559 82.452-20.735 83.146-18.399 85.826-19.113 87.44-20.232 87.126-20.493 88.065-21.982 87.94-23.607 88.453-27.265 86.219-30.517 90.038-31.974 93.757-33.392 97.906-32.366 101.912-32.927 103.067-33.089 104.359-33.305 105.346-33.89 106.705-34.699 107.904-35.799 109.441-36.232 109.64-35.448 110.819-36.033 110.9-35.227 111.12-33.05 112.554-31.557 113.655-29.873 113.849-29.575 114.169-28.808 114.829-28.496 115.701-28.083 115.569-26.389 115.941-25.232" stroke="#000000" stroke-width="0.3" fill="none"/><path d="M128.938-25.233C124.47-23.754 122.301-19.173 118.438-16.733 116.922-15.775 115.814-15.619 114.504-15.976 113.271-16.314 114.106-18.048 113.957-19.235 113.774-20.704 115.527-20.111 116.132-21.117 116.735-22.123 116.938-22.608 116.688-23.858" stroke="#000000" stroke-width="0.3" fill="none"/><path d="M49.063-23.108C50.571-23.85 52.193-24.335 53.563-25.358 53.65-26.217 54.388-26.748 54.589-27.601 54.636-27.8 54.97-27.857 54.985-27.892 55.691-29.457 57.271-30.27 58.809-29.602 59.183-29.44 58.986-28.731 59.562-28.858 59.562-28.607 59.644-28.253 59.52-28.168 58.268-27.308 58.177-25.814 58.45-24.641 58.639-23.826 59.573-23.088 60.562-23.859 60.332-26.691 61.615-29.11 63.892-30.748 65.094-31.611 66.615-31.444 68.062-31.359 67.992-30.802 68.431-31.265 68.562-31.109" stroke="#000000" stroke-width="0.3" fill="none"/><path d="M121.063-23.108C122.571-23.85 124.193-24.335 125.563-25.358" stroke="#000000" stroke-width="0.3" fill="none"/><path d="M120.063-21.608C119.218-21.153 118.992-20.162 118.47-19.423 118.359-19.265 118.015-19.238 118.063-18.858 117.528-18.98 117.088-18.445 116.569-18.628 116.235-18.746 116.173-19.149 116.355-19.312 116.713-19.636 116.617-20.205 116.837-20.258 117.566-20.44 117.104-21.4 117.813-21.359 118.176-22.844 118.313-24.39 117.93-25.824 117.429-27.7 116.302-29.313 115.563-31.109" stroke="#000000" stroke-width="0.3" fill="none"/><path d="M114.688-32.483C112.938-34.733 111.688-35.983 111.438-37.233 111.188-38.483 110.938-39.483 109.688-39.483 108.438-39.483 107.438-37.983 105.438-36.983 103.438-35.983 96.188-34.733 94.188-34.983 92.188-35.233 88.188-35.983 87.188-35.233 86.188-34.483 85.438-30.983 85.438-28.983 85.438-26.983 85.688-24.233 85.438-23.233 85.188-22.233 83.688-20.483 83.438-23.733 83.188-26.983 82.938-28.483 81.188-30.233 79.438-31.983 76.438-32.983 76.188-31.733 75.938-30.483 76.938-29.483 76.438-28.983 75.938-28.483 74.188-27.733 73.188-27.983 72.188-28.233 71.688-28.983 70.938-29.483" stroke="#000000" stroke-width="0.3" fill="none"/><path d="M49.438-26.733C51.188-26.983 53.188-29.233 54.688-30.733 56.188-32.233 57.688-33.233 59.188-32.983 60.688-32.733 60.188-29.733 62.438-32.733 64.688-35.733 66.188-34.733 67.688-34.483 69.188-34.233 72.688-32.483 73.938-33.983 75.188-35.483 71.938-39.983 74.188-40.233 76.438-40.483 77.438-36.983 79.438-35.733 81.438-34.483 82.438-32.983 83.688-34.983 84.938-36.983 86.938-38.733 89.188-37.983 91.438-37.233 92.188-37.233 94.188-37.233" stroke="#000000" stroke-width="0.3" fill="none"/><path d="M97.438-37.483C98.938-37.733 103.688-38.483 104.938-39.733 106.188-40.983 103.188-44.733 104.688-45.233 106.188-45.733 110.188-44.983 111.688-43.733 113.188-42.483 114.438-38.733 114.938-36.483 115.438-34.233 118.688-31.733 119.188-29.983 119.688-28.233 119.188-25.483 119.688-24.983 120.188-24.483 120.688-26.483 121.438-26.733 123.115-27.293 125.188-29.233 126.688-30.733" stroke="#000000" stroke-width="0.3" fill="none"/><path d="M126.688-33.483C125.188-31.983 123.188-32.983 119.188-33.983 119.188-33.983 116.938-34.983 116.688-40.483 116.438-45.983 112.938-47.233 110.438-47.983 107.938-48.733 97.688-49.983 96.938-48.483 96.188-46.983 100.688-44.983 101.438-43.483 102.188-41.983 101.188-39.733 99.438-39.983 97.688-40.233 97.688-42.733 96.188-43.483 94.688-44.233 90.688-44.483 90.438-42.233 90.188-39.983 86.188-39.983 86.188-39.983 83.688-40.483 83.188-35.983 81.188-35.983 79.188-35.983 78.688-40.483 76.688-42.483 75.688-43.483 73.938-43.733 72-43.733" stroke="#000000" stroke-width="0.3" fill="none"/><path d="M68.945-43.604C67.98-43.543 67.04-43.484 66.188-43.484 62.688-43.484 62.188-40.984 64.688-40.484 67.188-39.984 69.188-37.984 71.188-36.484 73.188-34.984 69.688-35.484 67.688-36.484 65.688-37.484 64.688-36.484 62.188-34.484 59.688-32.484 60.688-34.984 59.188-35.484 57.688-35.984 56.188-34.984 54.688-33.484 53.188-31.984 51.188-32.984 47.188-33.984" stroke="#000000" stroke-width="0.3" fill="none"/><path d="M48.438-37.233C49.938-36.483 51.688-34.983 53.688-35.983 55.688-36.983 56.938-38.483 58.188-37.983 59.438-37.483 60.688-35.733 62.188-36.733 63.688-37.733 65.438-37.483 63.688-39.233 61.938-40.983 58.438-42.233 59.688-43.233 60.938-44.233 63.438-46.483 66.188-46.483 68.938-46.483 81.188-48.733 80.688-46.233 80.188-43.733 78.938-37.983 80.688-38.983 82.438-39.983 83.938-41.733 85.438-41.733 86.938-41.733 88.188-41.983 88.688-44.483 89.188-46.983 91.688-48.233 92.688-47.233 93.688-46.233 95.188-44.983 94.938-46.733 94.688-48.483 95.438-51.233 98.938-50.983 99.419-50.949 100.009-50.905 100.677-50.85" stroke="#000000" stroke-width="0.3" fill="none"/><path d="M102.683-50.672C106.865-50.268 112.413-49.522 114.439-48.234 117.189-46.484 118.939-42.234 119.189-39.734" stroke="#000000" stroke-width="0.3" fill="none"/><path d="M120.438-37.233C121.938-36.483 123.688-34.983 125.688-35.983" stroke="#000000" stroke-width="0.3" fill="none"/><path d="M64.438-11.483C61.688-11.233 57.438-11.733 58.438-14.483 59.438-17.233 65.938-18.983 66.688-20.483 67.438-21.983 69.438-22.233 70.438-20.233 71.438-18.233 74.188-14.983 75.438-14.483 76.688-13.983 79.688-11.483 78.688-9.733" stroke="#000000" stroke-width="0.3" fill="none"/><path d="M85.438-9.483C84.938-10.733 83.688-12.733 85.438-13.983 87.188-15.233 95.688-17.733 97.438-16.733 99.188-15.733 99.188-14.733 97.938-13.483 96.688-12.233 91.438-12.233 92.188-10.983" stroke="#000000" stroke-width="0.3" fill="none"/><path d="M48.938-16.233C49.938-17.483 51.688-19.233 53.438-20.983 55.188-22.733 56.188-22.233 56.438-20.733 56.688-19.233 57.188-18.233 58.688-18.483 60.188-18.733 64.188-21.483 64.688-23.733 65.188-25.983 66.438-27.483 67.688-26.483 68.938-25.483 69.688-22.483 71.938-22.483 74.188-22.483 79.438-27.233 79.688-25.483 79.938-23.733 79.188-21.483 79.938-18.983 80.688-16.483 82.438-16.483 84.938-17.483 87.438-18.483 89.438-19.483 89.688-20.983" stroke="#000000" stroke-width="0.3" fill="none"/><path d="M120.938-16.233C121.938-17.483 123.688-19.233 125.438-20.983" stroke="#000000" stroke-width="0.3" fill="none"/><path d="M55.938-11.983C55.938-11.983 51.938-15.483 53.938-15.983 55.938-16.483 57.938-15.983 59.938-17.233 61.938-18.483 65.188-20.483 65.938-21.983 66.688-23.483 67.688-24.483 68.438-23.483 69.188-22.483 70.438-21.483 72.188-20.983 73.938-20.483 75.188-21.983 75.938-20.233 76.688-18.483 75.938-15.733 77.688-15.233 79.438-14.733 81.438-14.233 81.188-12.483" stroke="#000000" stroke-width="0.3" fill="none"/><path d="M81.938-9.733C82.438-10.983 81.938-13.733 83.438-14.733 84.938-15.733 89.688-17.483 90.438-18.733 91.129-19.885 94.369-20.612 96.439-20.719" stroke="#000000" stroke-width="0.3" fill="none"/><path d="M98.188-20.733C98.418-20.557 100.125-20.545 100.438-19.983 101.688-17.733 101.938-13.733 100.188-12.483" stroke="#000000" stroke-width="0.3" fill="none"/><path d="M103.438-12.733C104.188-14.983 105.688-21.483 104.188-22.233 102.688-22.983 99.438-23.733 101.438-25.733 103.438-27.733 107.188-29.483 108.188-28.983 109.188-28.483 112.688-25.483 111.938-23.733 111.188-21.983 110.688-21.483 109.688-19.983 108.688-18.483 108.688-15.483 109.938-14.233 111.188-12.983 112.438-13.483 112.688-11.983" stroke="#000000" stroke-width="0.3" fill="none"/><path d="M89.938-22.733C89.938-23.983 89.438-25.233 90.188-27.233 90.938-29.233 92.938-30.233 93.188-28.733 93.438-27.233 91.688-23.983 93.188-23.733 94.688-23.483 95.688-23.233 96.438-24.733 97.188-26.233 95.188-27.983 96.438-28.983 97.688-29.983 102.688-31.733 104.188-31.233 105.688-30.733 106.938-31.483 107.938-31.733" stroke="#000000" stroke-width="0.3" fill="none"/><path d="M109.688-31.733C110.688-31.983 111.938-30.233 112.188-28.733 112.438-27.233 114.438-25.983 114.688-24.983 114.938-23.983 112.438-19.983 111.938-18.733 111.438-17.483 111.688-15.983 112.938-14.733 114.188-13.483 114.438-10.983 115.688-11.733 116.938-12.483 118.438-13.983 119.188-14.483" stroke="#000000" stroke-width="0.3" fill="none"/><path d="M105.688-12.233C106.438-12.733 106.438-13.233 106.188-15.233 105.938-17.233 106.938-21.983 106.188-22.983 105.438-23.983 104.688-25.983 106.188-25.483 107.012-25.209 108.702-25.569 108.938-24.108 109.13-22.911 107.938-19.909 107.938-19.233 107.938-17.733 107.563-13.632 107.563-12.358" stroke="#000000" stroke-width="0.3" fill="none"/><path d="M47.938-81.983C50.188-82.483 54.938-81.983 53.938-80.233 52.938-78.483 57.938-73.233 58.438-74.733 58.938-76.233 56.438-79.233 59.188-79.483 61.938-79.733 64.938-76.483 66.688-76.233 68.438-75.983 72.188-77.733 69.938-79.233 67.688-80.733 67.188-83.733 64.438-83.483 61.688-83.233 57.438-83.733 58.438-86.483" stroke="#000000" stroke-width="0.3" fill="none"/><path d="M75.438-86.483C76.688-85.983 79.688-83.483 78.688-81.733 77.688-79.983 78.188-78.483 79.688-78.233 81.188-77.983 85.938-80.233 85.438-81.483 84.938-82.733 83.688-84.733 85.438-85.983" stroke="#000000" stroke-width="0.3" fill="none"/><path d="M97.438-88.733C99.188-87.733 99.188-86.733 97.938-85.483 96.688-84.233 91.438-84.233 92.188-82.983 92.938-81.733 97.188-78.983 99.938-78.983 102.688-78.983 102.938-82.483 104.688-82.983" stroke="#000000" stroke-width="0.3" fill="none"/><path d="M105.688-84.233C106.438-84.733 106.438-85.233 106.188-87.233" stroke="#000000" stroke-width="0.3" fill="none"/><path d="M107.938-91.233C107.938-89.733 107.563-85.632 107.563-84.358 107.563-82.983 108.063-82.483 108.063-82.483" stroke="#000000" stroke-width="0.3" fill="none"/><path d="M50.188-40.733C51.938-39.733 52.188-38.733 54.188-39.483 56.188-40.233 56.688-40.483 56.688-40.483 58.688-39.483 60.188-38.983 59.938-39.983 59.08-43.414 54.165-42.997 54.938-44.233 56.188-46.233 60.188-46.483 61.688-48.483 63.188-50.483 61.188-52.233 63.438-53.233 65.688-54.233 68.938-52.233 69.688-50.983 70.438-49.733 74.188-48.733 77.188-49.483 80.188-50.233 84.438-51.483 83.938-48.983 83.438-46.483 82.688-43.233 84.188-44.483 85.688-45.733 89.438-52.983 91.688-52.733 93.938-52.483 94.938-52.733 97.938-52.983 100.938-53.233 107.438-52.483 107.188-54.983 106.938-57.483 102.438-63.233 106.188-63.233 107.892-63.233 109.803-62.665 111.428-61.716" stroke="#000000" stroke-width="0.3" fill="none"/><path d="M114.099-59.437C114.673-58.687 115.064-57.859 115.189-56.984 115.689-53.484 115.439-51.234 117.439-49.984" stroke="#000000" stroke-width="0.3" fill="none"/><path d="M122.188-40.733C123.938-39.733 124.188-38.733 126.188-39.483" stroke="#000000" stroke-width="0.3" fill="none"/><path d="M118.688-49.233C119.688-48.233 120.688-46.233 120.688-45.233 120.688-44.233 120.188-42.983 120.938-41.983" stroke="#000000" stroke-width="0.3" fill="none"/><path d="M48.938-84.483C50.688-83.983 54.438-84.233 54.938-82.733 55.438-81.233 57.688-79.983 57.688-81.233 57.688-82.483 55.938-83.983 55.938-83.983 55.938-83.983 51.938-87.483 53.938-87.983" stroke="#000000" stroke-width="0.3" fill="none"/><path d="M77.688-87.233C79.438-86.733 81.438-86.233 81.188-84.483 80.938-82.733 81.438-80.483 81.938-81.733 82.438-82.983 81.938-85.733 83.438-86.733" stroke="#000000" stroke-width="0.3" fill="none"/><path d="M100.438-91.983C101.688-89.733 101.938-85.733 100.188-84.483 98.438-83.233 97.188-81.483 98.688-81.733 100.188-81.983 102.688-82.483 103.438-84.733 104.188-86.983 105.688-93.483 104.188-94.233" stroke="#000000" stroke-width="0.3" fill="none"/><path d="M109.688-91.983C108.688-90.483 108.688-87.483 109.938-86.233 111.188-84.983 112.438-85.483 112.688-83.983 112.938-82.483 114.188-80.733 115.188-80.733 116.188-80.733 117.688-82.733 118.438-83.483 119.438-84.483 120.938-84.483 120.938-84.483 122.688-83.983 126.438-84.233 126.938-82.733" stroke="#000000" stroke-width="0.3" fill="none"/><path d="M49.188-49.483C50.438-48.983 52.438-47.233 53.188-48.233 53.938-49.233 45.188-51.233 52.688-52.983 60.188-54.733 58.938-53.983 59.938-56.483 60.938-58.983 53.438-59.733 55.438-60.983 57.438-62.233 64.769-63.942 67.188-62.733 70.188-61.233 68.688-58.983 68.938-58.233 69.188-57.483 67.938-53.483 71.438-52.233 74.938-50.983 76.438-49.733 79.438-51.483 82.438-53.233 86.438-54.733 86.438-53.483 86.438-52.233 86.188-51.483 88.938-53.233 91.688-54.983 96.188-56.483 98.688-56.233 101.188-55.983 103.688-56.733 102.688-58.483 101.688-60.233 98.938-61.233 97.688-63.233 96.438-65.233 98.438-66.483 100.938-66.733 103.438-66.983 112.938-65.983 114.688-64.483 116.438-62.983 116.938-58.983 116.938-56.483 116.938-53.983 115.938-53.233 118.688-51.233" stroke="#000000" stroke-width="0.3" fill="none"/><path d="M121.188-49.483C122.438-48.983 124.438-47.233 125.188-48.233 125.938-49.233 117.188-51.233 124.688-52.983" stroke="#000000" stroke-width="0.3" fill="none"/><path d="M49.438-55.483C51.688-54.983 53.688-55.483 54.688-55.983 55.688-56.483 52.188-58.983 49.938-59.733" stroke="#000000" stroke-width="0.3" fill="none"/><path d="M49.938-64.733C53.688-65.233 57.188-66.233 59.688-65.733 62.188-65.233 67.438-66.233 69.438-62.733" stroke="#000000" stroke-width="0.3" fill="none"/><path d="M121.438-55.483C123.688-54.983 125.688-55.483 126.688-55.983 127.688-56.483 124.188-58.983 121.938-59.733 119.688-60.483 118.188-64.233 121.938-64.733 125.688-65.233 129.188-66.233 131.688-65.733" stroke="#000000" stroke-width="0.3" fill="none"/><path d="M120.188-55.733C118.938-56.483 118.188-57.983 118.188-59.733 118.188-61.483 116.188-67.233 113.188-67.483 110.188-67.733 92.938-69.483 92.438-67.233 91.938-64.983 95.688-62.733 96.438-61.733 97.188-60.733 96.938-58.483 95.688-58.233 94.438-57.983 91.688-57.233 91.938-58.733 92.188-60.233 90.938-61.983 89.438-60.233 88.688-59.358 86.781-58.733 85.688-57.983" stroke="#000000" stroke-width="0.3" fill="none"/><path d="M83.938-56.733C82.188-54.983 79.188-53.733 77.188-53.733 75.188-53.733 70.938-54.233 71.188-56.483 71.438-58.733 71.438-59.733 70.938-60.733" stroke="#000000" stroke-width="0.3" fill="none"/><path d="M50.188-68.733C53.688-68.233 60.938-66.733 62.688-66.733 63.242-66.733 64.472-66.733 65.935-66.677" stroke="#000000" stroke-width="0.3" fill="none"/><path d="M69.925-66.378C71.925-66.129 73.673-65.705 74.189-64.983 75.439-63.233 73.939-60.233 73.439-58.733 72.939-57.233 72.439-55.983 73.939-55.983 75.439-55.983 80.689-55.733 79.939-57.233 79.189-58.733 76.689-59.483 77.439-60.983 78.189-62.483 84.439-63.483 85.689-63.233 86.939-62.983 89.439-61.983 90.439-62.983 91.439-63.983 89.689-64.483 90.189-66.483" stroke="#000000" stroke-width="0.3" fill="none"/><path d="M122.188-68.733C125.688-68.233 132.938-66.733 134.688-66.733" stroke="#000000" stroke-width="0.3" fill="none"/><path d="M91.188-67.983C93.188-68.983 94.438-70.233 98.938-69.983 103.438-69.733 116.438-68.733 116.938-67.733 117.438-66.733 118.938-65.983 119.438-67.233 119.938-68.483 120.688-68.733 120.688-68.733" stroke="#000000" stroke-width="0.3" fill="none"/><path d="M50.688-77.233C52.188-75.733 54.188-74.483 56.188-73.483 58.188-72.483 61.188-71.483 61.438-72.733 61.688-73.983 58.688-75.983 60.438-75.983 62.188-75.983 63.688-73.983 66.938-74.233 70.188-74.483 76.188-78.233 74.188-78.983 72.188-79.733 70.438-82.483 68.688-83.483 66.938-84.483 65.938-84.483 64.688-84.483 63.438-84.483 60.688-85.733 62.688-86.483" stroke="#000000" stroke-width="0.3" fill="none"/><path d="M73.938-85.983C74.938-83.983 76.188-82.733 76.438-80.983 76.688-79.233 75.938-76.233 78.438-76.233 79.072-76.233 79.754-76.282 80.452-76.389" stroke="#000000" stroke-width="0.3" fill="none"/><path d="M82.5-76.89C83.875-77.359 85.188-78.109 86.188-79.234 88.188-81.484 86.438-81.984 86.688-83.234 86.938-84.484 92.688-87.234 93.688-86.484 94.688-85.734 92.438-86.484 91.438-84.734 90.438-82.984 87.188-78.484 92.438-78.234 97.688-77.984 98.688-76.984 98.938-75.984 99.188-74.984 103.938-75.234 103.938-76.484 103.938-77.734 105.438-82.484 105.938-81.234 106.438-79.984 107.938-77.734 110.938-76.234" stroke="#000000" stroke-width="0.3" fill="none"/><path d="M122.688-77.233C124.188-75.733 126.188-74.483 128.188-73.483" stroke="#000000" stroke-width="0.3" fill="none"/><path d="M119.938-81.983C122.188-82.483 126.938-81.983 125.938-80.233" stroke="#000000" stroke-width="0.3" fill="none"/><path d="M109.688-81.483C110.438-80.483 112.938-79.233 113.688-78.233 114.438-77.233 115.938-75.733 116.688-77.483 117.438-79.233 116.438-80.983 118.188-81.483" stroke="#000000" stroke-width="0.3" fill="none"/><path d="M121.938-77.983C120.438-79.483 118.688-80.233 118.688-79.233 118.688-78.233 121.438-77.483 120.438-75.983 119.438-74.483 115.438-73.483 113.938-74.233 112.438-74.983 112.188-75.483 112.188-75.483" stroke="#000000" stroke-width="0.3" fill="none"/><path d="M50.188-71.233C51.938-70.733 60.438-68.483 64.438-68.733 68.438-68.983 75.188-69.233 76.188-68.483 77.188-67.733 76.438-66.483 76.688-65.233 76.938-63.983 77.688-62.983 78.938-64.233 80.188-65.483 82.688-66.233 83.938-65.733 85.188-65.233 87.438-64.483 87.188-65.733 86.938-66.983 84.438-68.983 85.688-71.233 86.938-73.483 92.688-77.733 92.188-75.483 91.688-73.233 90.938-70.233 92.688-70.983 94.438-71.733 97.688-72.983 100.688-72.483" stroke="#000000" stroke-width="0.3" fill="none"/><path d="M122.188-71.233C123.938-70.733 132.438-68.483 136.438-68.733" stroke="#000000" stroke-width="0.3" fill="none"/><path d="M120.438-71.483C118.938-71.983 116.828-71.68 117.188-70.483 117.938-67.983 113.938-70.733 111.188-71.233 108.438-71.733 105.188-71.983 104.188-71.983" stroke="#000000" stroke-width="0.3" fill="none"/><path d="M50.438-73.983C53.438-72.483 59.938-69.983 66.438-70.233 72.938-70.483 72.688-71.983 71.188-71.983 69.688-71.983 71.438-74.483 73.438-74.483 75.438-74.483 77.938-72.983 78.188-71.233 78.438-69.483 79.188-68.233 80.438-68.483 81.688-68.733 81.438-69.483 83.188-72.483 84.938-75.483 85.688-75.483 87.188-77.233 88.688-78.983 88.688-77.233 89.438-76.983 90.188-76.733 95.688-77.733 95.688-76.483 95.688-75.233 91.938-73.483 93.688-73.483 95.438-73.483 103.438-74.983 105.188-74.233" stroke="#000000" stroke-width="0.3" fill="none"/><path d="M122.438-73.983C125.438-72.483 131.938-69.983 138.438-70.233" stroke="#000000" stroke-width="0.3" fill="none"/><path d="M121.938-74.233C119.938-75.108 117.688-71.983 114.938-72.483 112.188-72.983 110.188-73.483 108.688-73.733 107.188-73.983 106.438-73.983 106.438-73.983" stroke="#000000" stroke-width="0.3" fill="none"/><path d="M64.688-12.483C63.438-12.483 60.688-13.733 62.688-14.483 65.438-16.483 72.188-16.733 73.938-13.983 74.938-11.983 76.188-10.733 76.438-8.983" stroke="#000000" stroke-width="0.3" fill="none"/><path d="M86.688-11.233C86.938-12.483 92.688-15.233 93.688-14.483 94.688-13.733 92.438-14.483 91.438-12.733" stroke="#000000" stroke-width="0.3" fill="none"/><path d="M112.938-86.733C114.188-85.483 114.438-82.983 115.688-83.733 116.938-84.483 118.438-85.983 119.188-86.483" stroke="#000000" stroke-width="0.3" fill="none"/></g><g><path d="M56.938-25.233C52.47-23.754 50.301-19.173 46.438-16.733 44.922-15.775 43.814-15.619 42.504-15.976 41.271-16.314 42.106-18.048 41.957-19.235 41.774-20.704 43.527-20.111 44.132-21.117 44.735-22.123 44.938-22.608 44.688-23.858" stroke="#000000" stroke-width="0.3" fill="none"/><path d="M49.063-23.108C50.571-23.85 52.193-24.335 53.563-25.358" stroke="#000000" stroke-width="0.3" fill="none"/><path d="M25.438-37.483C26.938-37.733 31.688-38.483 32.938-39.733 34.188-40.983 31.188-44.733 32.688-45.233 34.188-45.733 38.188-44.983 39.688-43.733 41.188-42.483 42.438-38.733 42.938-36.483 43.438-34.233 46.688-31.733 47.188-29.983 47.688-28.233 47.188-25.483 47.688-24.983 48.188-24.483 48.688-26.483 49.438-26.733 51.115-27.293 53.188-29.233 54.688-30.733" stroke="#000000" stroke-width="0.3" fill="none"/><path d="M54.688-33.483C53.188-31.983 51.188-32.983 47.188-33.983 47.188-33.983 44.938-34.983 44.688-40.483 44.438-45.983 40.938-47.233 38.438-47.983 35.938-48.733 25.688-49.983 24.938-48.483 24.188-46.983 28.688-44.983 29.438-43.483 30.188-41.983 29.188-39.733 27.438-39.983 25.688-40.233 25.688-42.733 24.188-43.483 22.688-44.233 18.688-44.483 18.438-42.233 18.188-39.983 14.188-39.983 14.188-39.983 11.688-40.483 11.188-35.983 9.188-35.983 7.188-35.983 6.688-40.483 4.688-42.483 3.688-43.483 1.938-43.733 2.66454e-15-43.733" stroke="#000000" stroke-width="0.3" fill="none"/><path d="M48.438-37.233C49.938-36.483 51.688-34.983 53.688-35.983" stroke="#000000" stroke-width="0.3" fill="none"/><path d="M48.938-16.233C49.938-17.483 51.688-19.233 53.438-20.983" stroke="#000000" stroke-width="0.3" fill="none"/><path d="M50.188-40.733C51.938-39.733 52.188-38.733 54.188-39.483" stroke="#000000" stroke-width="0.3" fill="none"/><path d="M37.688-91.983C36.688-90.483 36.688-87.483 37.938-86.233 39.188-84.983 40.438-85.483 40.688-83.983 40.938-82.483 42.188-80.733 43.188-80.733 44.188-80.733 45.688-82.733 46.438-83.483 47.438-84.483 48.938-84.483 48.938-84.483 50.688-83.983 54.438-84.233 54.938-82.733" stroke="#000000" stroke-width="0.3" fill="none"/><path d="M49.188-49.483C50.438-48.983 52.438-47.233 53.188-48.233 53.938-49.233 45.188-51.233 52.688-52.983" stroke="#000000" stroke-width="0.3" fill="none"/><path d="M49.438-55.483C51.688-54.983 53.688-55.483 54.688-55.983 55.688-56.483 52.188-58.983 49.938-59.733 47.688-60.483 46.188-64.233 49.938-64.733 53.688-65.233 57.188-66.233 59.688-65.733" stroke="#000000" stroke-width="0.3" fill="none"/><path d="M50.188-68.733C53.688-68.233 60.938-66.733 62.688-66.733" stroke="#000000" stroke-width="0.3" fill="none"/><path d="M50.688-77.233C52.188-75.733 54.188-74.483 56.188-73.483" stroke="#000000" stroke-width="0.3" fill="none"/><path d="M47.938-81.983C50.188-82.483 54.938-81.983 53.938-80.233" stroke="#000000" stroke-width="0.3" fill="none"/><path d="M50.188-71.233C51.938-70.733 60.438-68.483 64.438-68.733" stroke="#000000" stroke-width="0.3" fill="none"/><path d="M50.438-73.983C53.438-72.483 59.938-69.983 66.438-70.233" stroke="#000000" stroke-width="0.3" fill="none"/></g><g><path d="M64.438-83.483C61.688-83.233 57.438-83.733 58.438-86.483 59.438-89.233 65.938-90.983 66.688-92.483 67.438-93.983 69.438-94.233 70.438-92.233 71.438-90.233 74.188-86.983 75.438-86.483 76.688-85.983 79.688-83.483 78.688-81.733" stroke="#000000" stroke-width="0.3" fill="none"/><path d="M85.438-81.483C84.938-82.733 83.688-84.733 85.438-85.983 87.188-87.233 95.688-89.733 97.438-88.733 99.188-87.733 99.188-86.733 97.938-85.483 96.688-84.233 91.438-84.233 92.188-82.983" stroke="#000000" stroke-width="0.3" fill="none"/><path d="M55.938-83.983C55.938-83.983 51.938-87.483 53.938-87.983 55.938-88.483 57.938-87.983 59.938-89.233 61.938-90.483 65.188-92.483 65.938-93.983 66.688-95.483 67.688-96.483 68.438-95.483 69.188-94.483 70.438-93.483 72.188-92.983 73.938-92.483 75.188-93.983 75.938-92.233 76.688-90.483 75.938-87.733 77.688-87.233 79.438-86.733 81.438-86.233 81.188-84.483" stroke="#000000" stroke-width="0.3" fill="none"/><path d="M81.938-81.733C82.438-82.983 81.938-85.733 83.438-86.733 84.938-87.733 89.688-89.483 90.438-90.733 91.129-91.885 94.369-92.612 96.439-92.719" stroke="#000000" stroke-width="0.3" fill="none"/><path d="M98.188-92.733C98.418-92.557 100.125-92.545 100.438-91.983 101.688-89.733 101.938-85.733 100.188-84.483" stroke="#000000" stroke-width="0.3" fill="none"/><path d="M103.438-84.733C104.188-86.983 105.688-93.483 104.188-94.233 102.688-94.983 99.438-95.733 101.438-97.733 103.438-99.733 107.188-101.483 108.188-100.983 109.188-100.483 112.688-97.483 111.938-95.733 111.188-93.983 110.688-93.483 109.688-91.983 108.688-90.483 108.688-87.483 109.938-86.233 111.188-84.983 112.438-85.483 112.688-83.983" stroke="#000000" stroke-width="0.3" fill="none"/><path d="M109.688-103.733C110.688-103.983 111.938-102.233 112.188-100.733 112.438-99.233 114.438-97.983 114.688-96.983 114.938-95.983 112.438-91.983 111.938-90.733 111.438-89.483 111.688-87.983 112.938-86.733 114.188-85.483 114.438-82.983 115.688-83.733 116.938-84.483 118.438-85.983 119.188-86.483" stroke="#000000" stroke-width="0.3" fill="none"/><path d="M105.688-84.233C106.438-84.733 106.438-85.233 106.188-87.233 105.938-89.233 106.938-93.983 106.188-94.983 105.438-95.983 104.688-97.983 106.188-97.483 107.012-97.209 108.702-97.569 108.938-96.108 109.13-94.911 107.938-91.909 107.938-91.233 107.938-89.733 107.563-85.632 107.563-84.358" stroke="#000000" stroke-width="0.3" fill="none"/><path d="M64.688-84.483C63.438-84.483 60.688-85.733 62.688-86.483 65.438-88.483 72.188-88.733 73.938-85.983 74.938-83.983 76.188-82.733 76.438-80.983" stroke="#000000" stroke-width="0.3" fill="none"/><path d="M86.688-83.233C86.938-84.483 92.688-87.233 93.688-86.483 94.688-85.733 92.438-86.483 91.438-84.733" stroke="#000000" stroke-width="0.3" fill="none"/></g></g></pattern><rect x="42.68" y="213.436" width="87.796" height="6.342" stroke="#262262" stroke-width="1.5" stroke-miterlimit="10" fill="#FFFFFF" fill-rule="evenodd" clip-rule="evenodd"/><rect x="93.281" y="208.879" width="27.416" height="7.728" stroke="#262262" stroke-miterlimit="10" fill="#FFFFFF" fill-rule="evenodd" clip-rule="evenodd"/><path d="" stroke="#262262" stroke-width="1.5" stroke-miterlimit="10" fill="#FFFFFF" fill-rule="evenodd" clip-rule="evenodd"/><path d="M86.789 216.255C86.789 216.255 60.427 216.213 48.596 216.18L42.823 219.543 42.823 218.328 42.526 213.723C40.37 195.41 36.504 79.741 38.721 74.976 48.402 69.8 38.697 38.396 36.94 31.273 36.94 31.273 50.783 21.068 58.282 16.356 64.001 20.332 98.521 26.046 114.595 16.356 122.093 21.068 135.937 31.273 135.937 31.273 134.179 38.397 124.474 69.8 134.155 74.976 136.562 80.151 131.797 216.12 129.836 216.155 129.234 216.165 124.666 219.027 119.125 216.193 116.149 209.694 98.885 215.664 96.551 216.237 90.687 217.677 86.086 216.255 86.086 216.255" stroke="#262262" stroke-width="1.5" stroke-miterlimit="10" fill="#FFFFFF" fill-rule="evenodd" clip-rule="evenodd"/><path d="" stroke="#262262" stroke-width="1.5" stroke-miterlimit="10" fill="#FFFFFF" fill-rule="evenodd" clip-rule="evenodd"/><path d="M17.191 171.172C16.734 147.213 16.222 123.255 15.822 99.296 15.681 90.842 15.801 82.384 15.801 73.506 25.28 80.735 34.072 78.99 42.506 71.323 42.123 104.278 41.874 137.143 43.152 169.99" stroke="#262262" stroke-width="1.5" stroke-miterlimit="10" fill="#FFFFFF" fill-rule="evenodd" clip-rule="evenodd"/><path d="M44.931 173.623C45.483 160.212 46.295 146.804 47.457 133.394 43.811 133.394 40.378 133.357 36.948 133.403 31.047 133.482 25.147 133.658 19.245 133.69 17.632 133.698 17.162 134.219 17.141 135.664 16.958 147.91 16.721 160.155 16.477 172.399L44.931 173.623Z" stroke="#262262" stroke-width="1.5" stroke-miterlimit="10" fill="#FFFFFF" fill-rule="evenodd" clip-rule="evenodd"/><rect x="127.573" y="213.201" width="27.716" height="6.342" stroke="#262262" stroke-width="1.5" stroke-miterlimit="10" fill="#FFFFFF" fill-rule="evenodd" clip-rule="evenodd"/><path d="M46.053 132.969C45.559 135.769 43.342 170.494 43.575 173.198" stroke="#262262" stroke-width="0.5" stroke-miterlimit="10" stroke-dasharray="1 1" fill="#FFFFFF" fill-rule="evenodd" clip-rule="evenodd"/><path d="M157.23 75.147C147.75 82.593 138.959 80.795 130.525 72.899 131.056 120.204 131.332 167.328 127.573 214.473 130.9 214.473 134.033 214.51 137.162 214.464 142.547 214.386 147.93 214.21 153.313 214.179 154.785 214.17 155.214 213.655 155.234 212.217 155.398 200.055 155.615 187.891 155.839 175.728 156.295 151.055 156.807 126.382 157.206 101.706 157.35 93 157.23 84.29 157.23 75.147Z" stroke="#262262" stroke-width="1.5" stroke-miterlimit="10" fill="#FFFFFF" fill-rule="evenodd" clip-rule="evenodd"/><path d="M130.322 173.623C131.197 176.544 128.048 219.31 128.048 219.31" stroke="#262262" stroke-width="0.5" stroke-miterlimit="10" stroke-dasharray="1 1" fill="#FFFFFF" fill-rule="evenodd" clip-rule="evenodd"/><line x1="45.152" y1="173.623" x2="48.596" y2="216.18" stroke="#262262" stroke-width="1.5" stroke-miterlimit="10" fill="#FFFFFF" fill-rule="evenodd" clip-rule="evenodd"/><path d="M86.084 219.778 86.084 216.255 86.084 21.673" stroke="#262262" stroke-width="1.5" stroke-miterlimit="10" fill="#FFFFFF" fill-rule="evenodd" clip-rule="evenodd"/><path d="" stroke="#262262" stroke-width="1.5" stroke-miterlimit="10" fill="#FFFFFF" fill-rule="evenodd" clip-rule="evenodd"/><g><path d="M143.178 205.372C143.238 205.521 143.281 205.636 143.27 205.609 139.664 207.941 136.055 210.174 132.564 212.576 131.059 213.612 129.764 214.963 128.431 216.233 127.838 216.796 127.213 217.198 126.429 217.41 125.772 217.585 125.139 217.847 124.486 218.042 123.914 218.215 123.34 218.428 122.752 218.486 121.064 218.656 119.423 218.926 118.031 220.006 117.889 220.118 117.708 220.179 117.538 220.266 117.416 220.079 117.292 219.93 117.21 219.758 117.02 219.357 116.993 219.027 117.297 218.582 118.088 217.426 119.375 217.214 120.456 216.709 116.351 215.188 111.913 215.096 107.528 214.132 107.676 213.977 107.732 213.92 107.778 213.871 106.993 213.813 106.901 213.744 106.686 212.989 107.155 212.807 107.608 212.615 108.005 213.03 107.992 212.972 107.955 212.81 107.908 212.61 110.775 212.746 113.607 212.881 116.44 213.015 116.475 212.952 116.51 212.89 116.544 212.827 115.921 212.374 115.334 211.851 114.663 211.485 113.755 210.992 112.792 210.595 111.834 210.201 111.124 209.907 110.761 209.394 110.614 208.588 111.022 208.493 111.458 208.249 111.819 208.333 113.54 208.726 115.239 209.208 117.021 209.678 116.555 209.447 116.139 209.215 115.706 209.026 114.931 208.69 114.147 208.369 113.358 208.065 113.163 207.991 112.827 207.907 112.729 208.003 112.282 208.452 112.122 208.011 111.958 207.77 111.752 207.463 112 207.088 112.167 206.868 112.775 206.057 113.502 206.586 114.2 206.559 115.512 206.51 116.537 207.344 117.755 207.539 117.956 207.571 118.151 207.641 118.524 207.737 118.339 207.3 118.286 206.9 118.057 206.692 117.299 206.002 116.477 205.383 115.678 204.737 115.52 204.61 115.294 204.521 115.201 204.356 115.072 204.13 115.038 203.847 114.965 203.59 115.205 203.575 115.448 203.563 115.691 203.549 117.396 203.44 118.467 204.741 119.833 205.395 120.626 205.773 121.448 206.166 122.3 206.333 123.571 206.584 124.88 206.686 126.178 206.769 126.939 206.816 127.64 206.517 128.234 206.012 130.902 203.743 133.57 201.474 136.238 199.209 136.771 198.755 137.312 198.313 137.905 197.818 138.517 198.819 139.097 199.765 139.677 200.709 140.665 202.314 141.652 203.922 142.648 205.522 142.722 205.642 142.876 205.712 142.994 205.807 143.049 205.675 143.104 205.547 143.178 205.372Z" stroke="#262262" stroke-width="0.7" stroke-miterlimit="10" fill="#FFFFFF"/></g><path d="M134.381 75.914C106.92 59.597 129.875 35.855 135.934 31.252 134.178 38.346 124.473 69.626 134.154 74.781L134.381 75.914Z" stroke="#262262" stroke-width="0.7" stroke-miterlimit="10" fill="url(#Mezzotint_Irregular)" fill-rule="evenodd" clip-rule="evenodd"/><path d="M86 21.673C84.775 24.439 83.249 27.371 83.779 42.036 84.308 56.701 84.248 44.853 86 74.642L86 77.909" stroke="#262262" stroke-width="1.5" stroke-miterlimit="10" fill="#FFFFFF" fill-rule="evenodd" clip-rule="evenodd"/><g><path d="M121.963 28.419C121.975 28.579 121.984 28.701 121.982 28.672 117.85 29.849 113.747 30.929 109.707 32.206 107.964 32.756 106.332 33.671 104.686 34.494 103.954 34.859 103.239 35.061 102.428 35.035 101.747 35.011 101.065 35.075 100.383 35.072 99.785 35.07 99.174 35.105 98.595 34.989 96.93 34.658 95.282 34.438 93.637 35.064 93.467 35.128 93.277 35.134 93.088 35.168 93.025 34.954 92.95 34.774 92.923 34.585 92.86 34.146 92.93 33.823 93.352 33.486 94.446 32.612 95.739 32.785 96.92 32.619 93.438 29.966 89.221 28.579 85.309 26.377 85.496 26.272 85.565 26.233 85.623 26.199 84.89 25.914 84.822 25.82 84.838 25.037 85.338 24.999 85.827 24.948 86.088 25.461 86.093 25.401 86.104 25.236 86.117 25.031 88.82 26 91.49 26.956 94.159 27.912 94.211 27.863 94.263 27.813 94.314 27.763 93.849 27.148 93.441 26.477 92.906 25.93 92.183 25.193 91.378 24.532 90.577 23.876 89.984 23.387 89.787 22.791 89.883 21.977 90.301 22.006 90.788 21.9 91.11 22.085 92.639 22.964 94.125 23.921 95.692 24.892 95.313 24.535 94.984 24.191 94.625 23.884 93.981 23.336 93.327 22.801 92.661 22.279 92.495 22.15 92.198 21.971 92.077 22.036 91.518 22.334 91.494 21.865 91.407 21.587 91.3 21.233 91.648 20.947 91.872 20.785 92.69 20.188 93.23 20.906 93.906 21.082 95.175 21.418 95.913 22.518 97.02 23.06 97.203 23.148 97.37 23.272 97.696 23.474 97.647 23.002 97.714 22.603 97.555 22.337 97.032 21.457 96.428 20.625 95.852 19.774 95.737 19.605 95.548 19.455 95.506 19.27 95.449 19.016 95.5 18.735 95.505 18.467 95.739 18.524 95.975 18.584 96.211 18.641 97.873 19.036 98.518 20.591 99.632 21.616 100.279 22.211 100.951 22.825 101.717 23.235 102.861 23.848 104.08 24.326 105.297 24.785 106.012 25.052 106.77 24.971 107.485 24.662 110.7 23.272 113.915 21.882 117.129 20.495 117.772 20.217 118.419 19.952 119.129 19.653 119.423 20.79 119.7 21.863 119.98 22.935 120.456 24.759 120.929 26.584 121.414 28.406 121.451 28.542 121.578 28.655 121.662 28.779 121.75 28.672 121.84 28.565 121.963 28.419Z" stroke="#262262" stroke-width="0.7" stroke-miterlimit="10" fill="#FFFFFF"/></g><g><g><g><circle cx="72.872" cy="26.733" r="4.243" stroke="#7C702D" stroke-width="0.3" stroke-dasharray="1.0235 1.0235" fill="none"/></g><circle cx="72.881" cy="26.731" r="2.799" stroke="#7C702D" stroke-width="0.3" fill="#B7C98F"/><g><path d="M73.656 21.892C73.762 22.272 73.87 22.288 74.135 22.827 74.562 23.615 76.085 23.099 76.107 22.362L76.111 22.033C76.454 22.229 77.64 21.717 77.444 20.741 78.105 20.846 78.49 20.273 78.306 19.648 78.152 19.102 78.085 18.786 78.23 17.825 78.409 16.632 78.732 15.255 77.867 13.878 77.791 13.759 77.863 13.614 77.939 13.575 78.089 13.499 78.548 13.538 78.543 13.152L78.497 11.728C78.479 11.218 77.72 10.832 75.349 10.919 72.884 11.002 71.919 11.062 71.943 12.085 71.967 13.086 71.986 13.365 71.986 13.365 72.004 13.681 72.218 13.727 72.359 13.773 72.439 13.798 72.478 13.917 72.445 14.001 72.392 14.132 71.884 15.417 71.804 16.516 71.73 17.529 71.437 17.937 71.564 18.616 71.712 19.421 71.713 22.04 71.728 22.822 71.743 23.591 72.029 24.809 72.045 26.444 72.06 28 73.862 27.947 73.735 26.549 73.635 25.446 73.766 25.404 73.708 25.023 73.604 24.356 73.657 23.615 73.68 23.092 73.687 22.853 73.608 22.594 73.656 21.892" stroke="#EB4024" stroke-width="0.5" stroke-miterlimit="10" fill="#FCD4CD"/><path d="M75.163 12.965C76.145 12.905 77.854 13.039 78.011 13.09 78.16 13.142 78.247 13.029 78.22 12.811 78.204 12.662 78.181 11.893 78.181 11.893 78.173 11.553 77.814 11.157 75.189 11.242 72.476 11.346 72.132 11.467 72.16 12.269L72.221 13.263C72.233 13.324 72.27 13.365 72.333 13.394 72.486 13.464 72.681 13.113 75.163 12.965Z" stroke="#EB4024" stroke-width="0.5" fill="#FCD4CD"/></g><line x1="74.92" y1="3.123" x2="74.79" y2="11.93" stroke="#F26522" stroke-width="0.7" stroke-miterlimit="10" stroke-dasharray="1 1" fill="none"/></g><g><rect x="73.296" y="2.873" width="3.25" height="0.5" fill="#F26522"/></g></g><g><g><g><path d="M56.624 30.372C58.276 28.714 58.278 26.029 56.62 24.374 54.962 22.719 52.275 22.719 50.622 24.374 48.965 26.031 48.972 28.721 50.626 30.376 52.283 32.031 54.968 32.027 56.624 30.372Z" stroke="#7C702D" stroke-width="0.3" stroke-dasharray="1.0234 1.0234" fill="none"/></g><circle cx="53.628" cy="27.365" r="2.799" stroke="#7C702D" stroke-width="0.3" fill="#B7C98F"/><g><path d="M50.754 23.395C51.099 23.589 51.185 23.523 51.753 23.718 52.612 23.973 53.325 22.531 52.818 21.995L52.589 21.76C52.97 21.656 53.447 20.455 52.618 19.904 53.159 19.51 53.026 18.834 52.454 18.521 51.96 18.244 51.688 18.067 51.112 17.286 50.395 16.316 49.649 15.114 48.064 14.752 47.925 14.722 47.874 14.568 47.901 14.487 47.954 14.327 48.305 14.03 48.029 13.76L46.989 12.786C46.617 12.438 45.807 12.702 44.192 14.44 42.507 16.242 41.868 16.966 42.606 17.672 43.332 18.363 43.542 18.547 43.542 18.547 43.778 18.758 43.964 18.639 44.095 18.571 44.17 18.532 44.282 18.589 44.317 18.671 44.373 18.801 44.921 20.068 45.642 20.902 46.306 21.671 46.388 22.166 46.956 22.557 47.631 23.021 49.483 24.872 50.047 25.415 50.601 25.948 51.665 26.607 52.833 27.752 53.942 28.841 55.181 27.53 54.103 26.631 53.253 25.923 53.316 25.799 53.005 25.572 52.46 25.174 51.973 24.613 51.619 24.227 51.454 24.053 51.216 23.925 50.754 23.395" stroke="#EB4024" stroke-width="0.5" stroke-miterlimit="10" fill="#FCD4CD"/><path d="M45.507 16.017C46.159 15.28 47.462 14.166 47.609 14.092 47.752 14.023 47.733 13.882 47.56 13.746 47.443 13.652 46.882 13.125 46.882 13.125 46.636 12.89 46.103 12.864 44.306 14.78 42.462 16.773 42.304 17.101 42.89 17.648L43.636 18.308C43.688 18.343 43.741 18.346 43.808 18.322 43.967 18.262 43.856 17.877 45.507 16.017Z" stroke="#EB4024" stroke-width="0.5" fill="#FCD4CD"/></g><line x1="38.376" y1="9.229" x2="44.511" y2="15.549" stroke="#F26522" stroke-width="0.7" stroke-miterlimit="10" stroke-dasharray="1 1" fill="none"/></g><g><rect x="38.126" y="7.604" width="0.501" height="3.25" fill="#F26522" transform="matrix(-0.7076 -0.7066 0.7066 -0.7076 59.01 42.8769)"/></g></g><g><g><g><path d="M50.992 49.853C50.988 52.193 49.091 54.094 46.748 54.091 44.406 54.088 42.506 52.189 42.507 49.849 42.507 47.506 44.413 45.609 46.754 45.608 49.096 45.61 50.992 47.511 50.992 49.853Z" stroke="#7C702D" stroke-width="0.3" stroke-dasharray="1.0235 1.0235" fill="none"/></g><circle cx="46.747" cy="49.861" r="2.799" stroke="#7C702D" stroke-width="0.3" fill="#B7C98F"/><g><path d="M41.908 50.635C42.289 50.742 42.303 50.849 42.843 51.113 43.631 51.541 43.115 53.064 42.377 53.085L42.049 53.089C42.244 53.431 41.734 54.618 40.758 54.422 40.862 55.083 40.289 55.467 39.664 55.284 39.117 55.131 38.801 55.064 37.841 55.208 36.649 55.387 35.272 55.709 33.895 54.845 33.776 54.768 33.629 54.841 33.592 54.917 33.516 55.067 33.555 55.526 33.168 55.522L31.744 55.476C31.234 55.459 30.848 54.699 30.935 52.328 31.019 49.863 31.078 48.898 32.099 48.921 33.101 48.945 33.379 48.963 33.379 48.963 33.696 48.981 33.742 49.196 33.788 49.337 33.813 49.418 33.933 49.456 34.015 49.423 34.146 49.37 35.431 48.862 36.531 48.782 37.544 48.708 37.952 48.415 38.631 48.542 39.436 48.69 42.055 48.691 42.836 48.706 43.606 48.721 44.824 49.007 46.459 49.024 48.014 49.038 47.963 50.841 46.564 50.714 45.462 50.614 45.419 50.745 45.039 50.687 44.372 50.583 43.631 50.635 43.107 50.658 42.868 50.665 42.609 50.587 41.908 50.635" stroke="#EB4024" stroke-width="0.5" stroke-miterlimit="10" fill="#FCD4CD"/><path d="M32.98 52.142C32.92 53.125 33.054 54.833 33.105 54.989 33.158 55.139 33.044 55.226 32.826 55.199 32.677 55.183 31.908 55.159 31.908 55.159 31.568 55.152 31.172 54.792 31.257 52.167 31.361 49.455 31.483 49.11 32.283 49.138L33.277 49.199C33.339 49.211 33.379 49.247 33.408 49.311 33.479 49.466 33.129 49.66 32.98 52.142Z" stroke="#EB4024" stroke-width="0.5" fill="#FCD4CD"/></g><line x1="23.139" y1="51.899" x2="31.945" y2="51.769" stroke="#F26522" stroke-width="0.7" stroke-miterlimit="10" stroke-dasharray="1 1" fill="none"/></g><g><rect x="22.888" y="50.274" width="0.502" height="3.251" fill="#F26522"/></g></g><g><g><g><path d="M30.603 96.633C30.48 98.969 28.488 100.77 26.149 100.648 23.81 100.526 22.008 98.531 22.129 96.194 22.249 93.855 24.25 92.057 26.587 92.176 28.926 92.298 30.724 94.293 30.603 96.633Z" stroke="#7C702D" stroke-width="0.3" stroke-dasharray="1.0235 1.0235" fill="none"/></g><circle cx="26.363" cy="96.423" r="2.8" stroke="#7C702D" stroke-width="0.3" fill="#B7C98F"/><g><path d="M21.49 96.949C21.866 97.075 21.874 97.183 22.4 97.474 23.165 97.941 22.572 99.436 21.834 99.419L21.506 99.406C21.683 99.759 21.112 100.917 20.149 100.672 20.218 101.337 19.628 101.692 19.012 101.477 18.475 101.296 18.161 101.212 17.197 101.307 15.996 101.426 14.604 101.678 13.273 100.743 13.158 100.662 13.008 100.726 12.967 100.8 12.883 100.946 12.899 101.407 12.512 101.383L11.094 101.263C10.585 101.221 10.238 100.441 10.448 98.078 10.657 95.62 10.764 94.66 11.784 94.735 12.783 94.81 13.06 94.843 13.06 94.843 13.375 94.876 13.411 95.094 13.45 95.237 13.471 95.318 13.588 95.362 13.672 95.333 13.805 95.288 15.115 94.846 16.217 94.822 17.232 94.8 17.655 94.529 18.326 94.69 19.122 94.879 21.738 95.014 22.517 95.068 23.285 95.122 24.488 95.47 26.119 95.571 27.671 95.664 27.528 97.463 26.138 97.264 25.043 97.107 24.994 97.236 24.617 97.158 23.955 97.02 23.213 97.035 22.689 97.031 22.447 97.029 22.194 96.938 21.49 96.949" stroke="#EB4024" stroke-width="0.5" stroke-miterlimit="10" fill="#FCD4CD"/><path d="M12.498 97.997C12.389 98.976 12.435 100.688 12.477 100.848 12.523 100.999 12.405 101.08 12.188 101.041 12.04 101.019 11.273 100.957 11.273 100.957 10.934 100.931 10.557 100.551 10.776 97.934 11.019 95.23 11.157 94.894 11.955 94.962L12.945 95.074C13.007 95.088 13.045 95.127 13.071 95.192 13.134 95.351 12.772 95.525 12.498 97.997Z" stroke="#EB4024" stroke-width="0.5" fill="#FCD4CD"/></g><line x1="2.682" y1="97.252" x2="11.483" y2="97.572" stroke="#F26522" stroke-width="0.7" stroke-miterlimit="10" stroke-dasharray="1 1" fill="none"/></g><g><rect x="2.43" y="95.627" width="0.502" height="3.251" fill="#F26522" transform="matrix(-0.9986 -0.0535 0.0535 -0.9986 0.1526 194.509)"/></g></g><g><line x1="50.239" y1="118.224" x2="44.356" y2="118.224" stroke="#F26522" stroke-width="0.7" stroke-miterlimit="10" stroke-dasharray="1 1" fill="none"/><g><rect x="49.837" y="115.591" width="0.809" height="5.262" fill="#F26522"/></g><g><path d="M42.985 116.702C42.141 116.702 41.46 117.383 41.46 118.224 41.46 119.062 42.142 119.745 42.985 119.745 43.825 119.745 44.505 119.062 44.505 118.224 44.505 117.383 43.825 116.702 42.985 116.702Z" fill="#F26522"/></g></g><g><line x1="51.061" y1="155.002" x2="45.178" y2="155.002" stroke="#F26522" stroke-width="0.7" stroke-miterlimit="10" stroke-dasharray="1 1" fill="none"/><g><rect x="50.658" y="152.368" width="0.809" height="5.262" fill="#F26522"/></g><g><path d="M43.807 153.479C42.963 153.479 42.282 154.16 42.282 155.001 42.282 155.839 42.964 156.522 43.807 156.522 44.647 156.522 45.327 155.839 45.327 155.001 45.326 154.161 44.646 153.479 43.807 153.479Z" fill="#F26522"/></g></g><g><line x1="36.048" y1="177.647" x2="41.211" y2="174.829" stroke="#F26522" stroke-width="0.7" stroke-miterlimit="10" stroke-dasharray="1 1" fill="none"/><g><rect x="35.643" y="175.019" width="0.808" height="5.263" fill="#F26522" transform="matrix(-0.8774 0.4798 -0.4798 -0.8774 152.908 316.224)"/></g><g><path d="M43.145 175.509C43.885 175.105 44.157 174.18 43.754 173.442 43.352 172.706 42.427 172.434 41.686 172.838 40.949 173.24 40.68 174.165 41.082 174.901 41.484 175.638 42.407 175.911 43.145 175.509Z" fill="#F26522"/></g></g><line x1="36.048" y1="203.771" x2="46.502" y2="203.771" stroke="#F26522" stroke-width="0.7" stroke-miterlimit="10" stroke-dasharray="1 1" fill="none"/><g><rect x="35.643" y="201.141" width="0.809" height="5.262" fill="#F26522"/></g><g><path d="M47.873 205.292C48.717 205.292 49.398 204.611 49.398 203.77 49.398 202.932 48.716 202.249 47.873 202.249 47.033 202.249 46.353 202.932 46.353 203.77 46.354 204.611 47.033 205.292 47.873 205.292Z" fill="#F26522"/></g><g><g><g><path d="M65.471 67.653C67.807 67.776 69.609 69.768 69.487 72.107 69.365 74.446 67.37 76.248 65.033 76.127 62.694 76.007 60.896 74.006 61.015 71.669 61.137 69.33 63.132 67.532 65.471 67.653Z" stroke="#7C702D" stroke-width="0.3" stroke-dasharray="1.0235 1.0235" fill="none"/></g><circle cx="65.261" cy="71.893" r="2.8" stroke="#7C702D" stroke-width="0.3" fill="#B7C98F"/><g><path d="M65.787 76.765C65.913 76.389 66.02 76.381 66.312 75.855 66.779 75.09 68.274 75.683 68.257 76.421L68.244 76.749C68.597 76.572 69.755 77.143 69.51 78.106 70.175 78.037 70.53 78.627 70.315 79.243 70.134 79.78 70.05 80.094 70.145 81.058 70.264 82.259 70.516 83.651 69.581 84.982 69.5 85.097 69.564 85.247 69.639 85.288 69.785 85.372 70.245 85.356 70.222 85.743L70.102 87.161C70.06 87.67 69.28 88.017 66.917 87.807 64.459 87.598 63.499 87.491 63.574 86.471 63.648 85.472 63.682 85.195 63.682 85.195 63.715 84.88 63.933 84.844 64.076 84.805 64.157 84.784 64.202 84.667 64.173 84.583 64.127 84.45 63.686 83.14 63.662 82.038 63.64 81.023 63.368 80.6 63.529 79.929 63.719 79.133 63.853 76.517 63.908 75.738 63.962 74.97 64.31 73.767 64.411 72.136 64.505 70.584 66.304 70.727 66.104 72.117 65.947 73.212 66.076 73.261 65.999 73.638 65.861 74.3 65.876 75.042 65.872 75.566 65.867 75.808 65.775 76.061 65.787 76.765" stroke="#EB4024" stroke-width="0.5" stroke-miterlimit="10" fill="#FCD4CD"/><path d="M66.835 85.757C67.814 85.866 69.526 85.82 69.687 85.778 69.838 85.732 69.919 85.85 69.88 86.067 69.858 86.215 69.795 86.982 69.795 86.982 69.77 87.321 69.39 87.698 66.773 87.479 64.069 87.236 63.733 87.098 63.8 86.3L63.912 85.31C63.926 85.248 63.965 85.21 64.03 85.184 64.189 85.122 64.363 85.483 66.835 85.757Z" stroke="#EB4024" stroke-width="0.5" fill="#FCD4CD"/></g><line x1="66.091" y1="95.574" x2="66.41" y2="86.772" stroke="#F26522" stroke-width="0.7" stroke-miterlimit="10" stroke-dasharray="1 1" fill="none"/></g><g><rect x="65.839" y="93.949" width="0.502" height="3.251" fill="#F26522" transform="matrix(-0.0545 0.9985 -0.9985 -0.0545 165.124 34.7909)"/></g></g><g><g><g><path d="M77.479 39.412C77.483 41.752 79.38 43.653 81.723 43.65 84.065 43.647 85.965 41.748 85.964 39.408 85.964 37.065 84.058 35.168 81.717 35.167 79.375 35.169 77.479 37.07 77.479 39.412Z" stroke="#7C702D" stroke-width="0.3" stroke-dasharray="1.0235 1.0235" fill="none"/></g><circle cx="81.724" cy="39.419" r="2.799" stroke="#7C702D" stroke-width="0.3" fill="#B7C98F"/><g><path d="M86.563 40.194C86.182 40.301 86.168 40.408 85.628 40.672 84.84 41.1 85.356 42.623 86.094 42.644L86.422 42.648C86.227 42.99 86.737 44.177 87.713 43.981 87.609 44.642 88.182 45.026 88.807 44.843 89.354 44.69 89.67 44.623 90.63 44.767 91.822 44.946 93.199 45.268 94.576 44.404 94.695 44.327 94.842 44.4 94.879 44.476 94.955 44.626 94.916 45.085 95.303 45.081L96.727 45.035C97.237 45.018 97.623 44.258 97.536 41.887 97.452 39.422 97.393 38.457 96.372 38.48 95.37 38.504 95.092 38.522 95.092 38.522 94.775 38.54 94.729 38.755 94.683 38.896 94.658 38.977 94.538 39.015 94.456 38.982 94.325 38.929 93.04 38.421 91.94 38.341 90.927 38.267 90.519 37.974 89.84 38.101 89.035 38.249 86.416 38.25 85.635 38.265 84.865 38.28 83.647 38.566 82.012 38.583 80.457 38.597 80.508 40.4 81.907 40.273 83.009 40.173 83.052 40.304 83.432 40.246 84.099 40.142 84.84 40.194 85.364 40.217 85.603 40.224 85.861 40.146 86.563 40.194" stroke="#EB4024" stroke-width="0.5" stroke-miterlimit="10" fill="#FCD4CD"/><path d="M95.49 41.701C95.55 42.684 95.416 44.392 95.365 44.548 95.312 44.698 95.426 44.785 95.644 44.758 95.793 44.742 96.562 44.718 96.562 44.718 96.902 44.711 97.298 44.351 97.213 41.726 97.109 39.014 96.987 38.669 96.187 38.697L95.193 38.758C95.131 38.77 95.091 38.806 95.062 38.87 94.991 39.025 95.342 39.219 95.49 41.701Z" stroke="#EB4024" stroke-width="0.5" fill="#FCD4CD"/></g><line x1="105.332" y1="41.458" x2="96.525" y2="41.328" stroke="#F26522" stroke-width="0.7" stroke-miterlimit="10" stroke-dasharray="1 1" fill="none"/></g><g><rect x="105.081" y="39.833" width="0.502" height="3.251" fill="#F26522"/></g></g><g><line x1="94.484" y1="117.835" x2="88.602" y2="117.835" stroke="#F26522" stroke-width="0.7" stroke-miterlimit="10" stroke-dasharray="1 1" fill="none"/><g><rect x="94.082" y="115.202" width="0.809" height="5.262" fill="#F26522"/></g><g><path d="M87.23 116.313C86.386 116.313 85.705 116.994 85.705 117.835 85.705 118.673 86.387 119.356 87.23 119.356 88.07 119.356 88.75 118.673 88.75 117.835 88.75 116.994 88.07 116.313 87.23 116.313Z" fill="#F26522"/></g></g><g><g><g><path d="M65.917 214.883C63.581 214.76 61.779 212.768 61.901 210.429 62.023 208.09 64.018 206.288 66.355 206.409 68.694 206.529 70.492 208.53 70.373 210.867 70.251 213.206 68.256 215.004 65.917 214.883Z" stroke="#7C702D" stroke-width="0.3" stroke-dasharray="1.0235 1.0235" fill="none"/></g><circle cx="66.126" cy="210.643" r="2.8" stroke="#7C702D" stroke-width="0.3" fill="#B7C98F"/><g><path d="M65.601 205.771C65.475 206.147 65.368 206.155 65.076 206.681 64.609 207.446 63.114 206.853 63.131 206.115L63.144 205.787C62.791 205.964 61.633 205.393 61.878 204.43 61.213 204.499 60.858 203.909 61.073 203.293 61.254 202.756 61.338 202.442 61.243 201.478 61.124 200.277 60.872 198.885 61.807 197.554 61.888 197.439 61.824 197.289 61.749 197.248 61.603 197.164 61.143 197.18 61.166 196.793L61.286 195.375C61.328 194.866 62.108 194.519 64.471 194.729 66.929 194.938 67.889 195.045 67.814 196.065 67.74 197.064 67.706 197.341 67.706 197.341 67.673 197.656 67.455 197.692 67.312 197.731 67.231 197.752 67.186 197.869 67.215 197.953 67.261 198.086 67.702 199.396 67.726 200.498 67.748 201.513 68.02 201.936 67.859 202.607 67.669 203.403 67.535 206.019 67.48 206.798 67.426 207.566 67.078 208.769 66.977 210.4 66.883 211.952 65.084 211.809 65.284 210.419 65.441 209.324 65.312 209.275 65.389 208.898 65.527 208.236 65.512 207.494 65.516 206.97 65.521 206.728 65.612 206.475 65.601 205.771" stroke="#EB4024" stroke-width="0.5" stroke-miterlimit="10" fill="#FCD4CD"/><path d="M64.553 196.778C63.574 196.669 61.862 196.715 61.701 196.757 61.55 196.803 61.469 196.685 61.508 196.468 61.53 196.32 61.593 195.553 61.593 195.553 61.618 195.214 61.998 194.837 64.615 195.056 67.319 195.299 67.655 195.437 67.588 196.235L67.476 197.225C67.462 197.287 67.423 197.325 67.358 197.351 67.198 197.414 67.024 197.053 64.553 196.778Z" stroke="#EB4024" stroke-width="0.5" fill="#FCD4CD"/></g><line x1="65.297" y1="186.962" x2="64.978" y2="195.764" stroke="#F26522" stroke-width="0.7" stroke-miterlimit="10" stroke-dasharray="1 1" fill="none"/></g><g><rect x="65.047" y="185.336" width="0.502" height="3.251" fill="#F26522" transform="matrix(0.0545 -0.9985 0.9985 0.0545 -124.945 241.972)"/></g></g><line x1="105.607" y1="205.999" x2="105.607" y2="214.944" stroke="#F26522" stroke-width="0.7" stroke-miterlimit="10" stroke-dasharray="1 1" fill="none"/><g><rect x="102.975" y="205.595" width="5.262" height="0.809" fill="#F26522"/></g><g><circle cx="105.607" cy="216.316" r="1.521" fill="#F26522"/></g><g><g><g><path d="M121.883 51.948C121.887 54.288 123.784 56.189 126.127 56.186 128.469 56.183 130.369 54.284 130.368 51.944 130.368 49.601 128.462 47.704 126.121 47.703 123.779 47.705 121.883 49.606 121.883 51.948Z" stroke="#7C702D" stroke-width="0.3" stroke-dasharray="1.0235 1.0235" fill="none"/></g><circle cx="126.128" cy="51.956" r="2.799" stroke="#7C702D" stroke-width="0.3" fill="#B7C98F"/><g><path d="M130.967 52.73C130.586 52.837 130.572 52.944 130.032 53.208 129.244 53.636 129.76 55.159 130.498 55.18L130.826 55.184C130.631 55.526 131.141 56.713 132.117 56.517 132.013 57.178 132.586 57.562 133.211 57.379 133.758 57.226 134.074 57.159 135.034 57.303 136.226 57.482 137.603 57.804 138.98 56.94 139.099 56.863 139.246 56.936 139.283 57.012 139.359 57.162 139.32 57.621 139.707 57.617L141.131 57.571C141.641 57.554 142.027 56.794 141.94 54.423 141.856 51.958 141.797 50.993 140.776 51.016 139.774 51.04 139.496 51.058 139.496 51.058 139.179 51.076 139.133 51.291 139.087 51.432 139.062 51.513 138.942 51.551 138.86 51.518 138.729 51.465 137.444 50.957 136.344 50.877 135.331 50.803 134.923 50.51 134.244 50.637 133.439 50.785 130.82 50.786 130.039 50.801 129.269 50.816 128.051 51.102 126.416 51.119 124.861 51.133 124.912 52.936 126.311 52.809 127.413 52.709 127.456 52.84 127.836 52.782 128.503 52.678 129.244 52.73 129.768 52.753 130.007 52.76 130.266 52.682 130.967 52.73" stroke="#EB4024" stroke-width="0.5" stroke-miterlimit="10" fill="#FCD4CD"/><path d="M139.895 54.237C139.955 55.22 139.821 56.928 139.77 57.084 139.717 57.234 139.831 57.321 140.049 57.294 140.198 57.278 140.967 57.254 140.967 57.254 141.307 57.247 141.703 56.887 141.618 54.262 141.514 51.55 141.392 51.205 140.592 51.233L139.598 51.294C139.536 51.306 139.496 51.342 139.467 51.406 139.396 51.561 139.746 51.755 139.895 54.237Z" stroke="#EB4024" stroke-width="0.5" fill="#FCD4CD"/></g><line x1="149.736" y1="53.994" x2="140.93" y2="53.863" stroke="#F26522" stroke-width="0.7" stroke-miterlimit="10" stroke-dasharray="1 1" fill="none"/></g><g><rect x="149.485" y="52.369" width="0.502" height="3.251" fill="#F26522"/></g></g><g><line x1="116.239" y1="64.685" x2="122.122" y2="64.685" stroke="#F26522" stroke-width="0.7" stroke-miterlimit="10" stroke-dasharray="1 1" fill="none"/><g><rect x="115.833" y="62.056" width="0.809" height="5.262" fill="#F26522"/></g><g><path d="M123.493 66.207C124.337 66.207 125.018 65.526 125.018 64.685 125.018 63.847 124.336 63.164 123.493 63.164 122.653 63.164 121.973 63.847 121.973 64.685 121.974 65.526 122.653 66.207 123.493 66.207Z" fill="#F26522"/></g></g></svg>