<svg width="152.5" height="254.5" viewBox="0 0 152.5 254.5" xmlns="http://www.w3.org/2000/svg" xmlns:xlink="http://www.w3.org/1999/xlink" id="Layer_1" xml:space="preserve" overflow="hidden"><pattern x="-1877" y="2640.5" width="72" height="74.8" patternUnits="userSpaceOnUse" viewBox="72.15 -74.8 72 74.8" id="USGS_8_Sewage_Disposal" overflow="visible"><g><path d="M72.15-74.8 144.15-74.8 144.15 0 72.15 0Z" fill="none"/><g><line x1="144.15" y1="-0.85" x2="216.15" y2="-0.85" stroke="#000000" stroke-width="0.3" stroke-linecap="square" fill="none"/><line x1="144.15" y1="-2.55" x2="216.15" y2="-2.55" stroke="#000000" stroke-width="0.3" stroke-linecap="square" fill="none"/><line x1="144.15" y1="-4.25" x2="216.15" y2="-4.25" stroke="#000000" stroke-width="0.3" stroke-linecap="square" fill="none"/><line x1="144.15" y1="-5.95" x2="216.15" y2="-5.95" stroke="#000000" stroke-width="0.3" stroke-linecap="square" fill="none"/><line x1="144.15" y1="-7.65" x2="216.15" y2="-7.65" stroke="#000000" stroke-width="0.3" stroke-linecap="square" fill="none"/><line x1="144.15" y1="-9.35" x2="216.15" y2="-9.35" stroke="#000000" stroke-width="0.3" stroke-linecap="square" fill="none"/><line x1="144.15" y1="-11.05" x2="216.15" y2="-11.05" stroke="#000000" stroke-width="0.3" stroke-linecap="square" fill="none"/><line x1="144.15" y1="-12.75" x2="216.15" y2="-12.75" stroke="#000000" stroke-width="0.3" stroke-linecap="square" fill="none"/><line x1="144.15" y1="-14.45" x2="216.15" y2="-14.45" stroke="#000000" stroke-width="0.3" stroke-linecap="square" fill="none"/><line x1="144.15" y1="-16.15" x2="216.15" y2="-16.15" stroke="#000000" stroke-width="0.3" stroke-linecap="square" fill="none"/><line x1="144.15" y1="-17.85" x2="216.15" y2="-17.85" stroke="#000000" stroke-width="0.3" stroke-linecap="square" fill="none"/><line x1="144.15" y1="-19.55" x2="216.15" y2="-19.55" stroke="#000000" stroke-width="0.3" stroke-linecap="square" fill="none"/><line x1="144.15" y1="-21.25" x2="216.15" y2="-21.25" stroke="#000000" stroke-width="0.3" stroke-linecap="square" fill="none"/><line x1="144.15" y1="-22.949" x2="216.15" y2="-22.949" stroke="#000000" stroke-width="0.3" stroke-linecap="square" fill="none"/><line x1="144.15" y1="-24.649" x2="216.15" y2="-24.649" stroke="#000000" stroke-width="0.3" stroke-linecap="square" fill="none"/><line x1="144.15" y1="-26.349" x2="216.15" y2="-26.349" stroke="#000000" stroke-width="0.3" stroke-linecap="square" fill="none"/><line x1="144.15" y1="-28.049" x2="216.15" y2="-28.049" stroke="#000000" stroke-width="0.3" stroke-linecap="square" fill="none"/><line x1="144.15" y1="-29.749" x2="216.15" y2="-29.749" stroke="#000000" stroke-width="0.3" stroke-linecap="square" fill="none"/><line x1="144.15" y1="-31.449" x2="216.15" y2="-31.449" stroke="#000000" stroke-width="0.3" stroke-linecap="square" fill="none"/><line x1="144.15" y1="-33.149" x2="216.15" y2="-33.149" stroke="#000000" stroke-width="0.3" stroke-linecap="square" fill="none"/><line x1="144.15" y1="-34.849" x2="216.15" y2="-34.849" stroke="#000000" stroke-width="0.3" stroke-linecap="square" fill="none"/><line x1="144.15" y1="-36.549" x2="216.15" y2="-36.549" stroke="#000000" stroke-width="0.3" stroke-linecap="square" fill="none"/><line x1="144.15" y1="-38.249" x2="216.15" y2="-38.249" stroke="#000000" stroke-width="0.3" stroke-linecap="square" fill="none"/><line x1="144.15" y1="-39.949" x2="216.15" y2="-39.949" stroke="#000000" stroke-width="0.3" stroke-linecap="square" fill="none"/><line x1="144.15" y1="-41.649" x2="216.15" y2="-41.649" stroke="#000000" stroke-width="0.3" stroke-linecap="square" fill="none"/><line x1="144.15" y1="-43.349" x2="216.15" y2="-43.349" stroke="#000000" stroke-width="0.3" stroke-linecap="square" fill="none"/><line x1="144.15" y1="-45.049" x2="216.15" y2="-45.049" stroke="#000000" stroke-width="0.3" stroke-linecap="square" fill="none"/><line x1="144.15" y1="-46.749" x2="216.15" y2="-46.749" stroke="#000000" stroke-width="0.3" stroke-linecap="square" fill="none"/><line x1="144.15" y1="-48.449" x2="216.15" y2="-48.449" stroke="#000000" stroke-width="0.3" stroke-linecap="square" fill="none"/><line x1="144.15" y1="-50.149" x2="216.15" y2="-50.149" stroke="#000000" stroke-width="0.3" stroke-linecap="square" fill="none"/><line x1="144.15" y1="-51.849" x2="216.15" y2="-51.849" stroke="#000000" stroke-width="0.3" stroke-linecap="square" fill="none"/><line x1="144.15" y1="-53.549" x2="216.15" y2="-53.549" stroke="#000000" stroke-width="0.3" stroke-linecap="square" fill="none"/><line x1="144.15" y1="-55.249" x2="216.15" y2="-55.249" stroke="#000000" stroke-width="0.3" stroke-linecap="square" fill="none"/><line x1="144.15" y1="-56.949" x2="216.15" y2="-56.949" stroke="#000000" stroke-width="0.3" stroke-linecap="square" fill="none"/><line x1="144.15" y1="-58.649" x2="216.15" y2="-58.649" stroke="#000000" stroke-width="0.3" stroke-linecap="square" fill="none"/><line x1="144.15" y1="-60.349" x2="216.15" y2="-60.349" stroke="#000000" stroke-width="0.3" stroke-linecap="square" fill="none"/><line x1="144.15" y1="-62.049" x2="216.15" y2="-62.049" stroke="#000000" stroke-width="0.3" stroke-linecap="square" fill="none"/><line x1="144.15" y1="-63.749" x2="216.15" y2="-63.749" stroke="#000000" stroke-width="0.3" stroke-linecap="square" fill="none"/><line x1="144.15" y1="-65.449" x2="216.15" y2="-65.449" stroke="#000000" stroke-width="0.3" stroke-linecap="square" fill="none"/><line x1="144.15" y1="-67.149" x2="216.15" y2="-67.149" stroke="#000000" stroke-width="0.3" stroke-linecap="square" fill="none"/><line x1="144.15" y1="-68.849" x2="216.15" y2="-68.849" stroke="#000000" stroke-width="0.3" stroke-linecap="square" fill="none"/><line x1="144.15" y1="-70.549" x2="216.15" y2="-70.549" stroke="#000000" stroke-width="0.3" stroke-linecap="square" fill="none"/><line x1="144.15" y1="-72.249" x2="216.15" y2="-72.249" stroke="#000000" stroke-width="0.3" stroke-linecap="square" fill="none"/><line x1="144.15" y1="-73.949" x2="216.15" y2="-73.949" stroke="#000000" stroke-width="0.3" stroke-linecap="square" fill="none"/></g><g><line x1="72.15" y1="-0.85" x2="144.15" y2="-0.85" stroke="#000000" stroke-width="0.3" stroke-linecap="square" fill="none"/><line x1="72.15" y1="-2.55" x2="144.15" y2="-2.55" stroke="#000000" stroke-width="0.3" stroke-linecap="square" fill="none"/><line x1="72.15" y1="-4.25" x2="144.15" y2="-4.25" stroke="#000000" stroke-width="0.3" stroke-linecap="square" fill="none"/><line x1="72.15" y1="-5.95" x2="144.15" y2="-5.95" stroke="#000000" stroke-width="0.3" stroke-linecap="square" fill="none"/><line x1="72.15" y1="-7.65" x2="144.15" y2="-7.65" stroke="#000000" stroke-width="0.3" stroke-linecap="square" fill="none"/><line x1="72.15" y1="-9.35" x2="144.15" y2="-9.35" stroke="#000000" stroke-width="0.3" stroke-linecap="square" fill="none"/><line x1="72.15" y1="-11.05" x2="144.15" y2="-11.05" stroke="#000000" stroke-width="0.3" stroke-linecap="square" fill="none"/><line x1="72.15" y1="-12.75" x2="144.15" y2="-12.75" stroke="#000000" stroke-width="0.3" stroke-linecap="square" fill="none"/><line x1="72.15" y1="-14.45" x2="144.15" y2="-14.45" stroke="#000000" stroke-width="0.3" stroke-linecap="square" fill="none"/><line x1="72.15" y1="-16.15" x2="144.15" y2="-16.15" stroke="#000000" stroke-width="0.3" stroke-linecap="square" fill="none"/><line x1="72.15" y1="-17.85" x2="144.15" y2="-17.85" stroke="#000000" stroke-width="0.3" stroke-linecap="square" fill="none"/><line x1="72.15" y1="-19.55" x2="144.15" y2="-19.55" stroke="#000000" stroke-width="0.3" stroke-linecap="square" fill="none"/><line x1="72.15" y1="-21.25" x2="144.15" y2="-21.25" stroke="#000000" stroke-width="0.3" stroke-linecap="square" fill="none"/><line x1="72.15" y1="-22.949" x2="144.15" y2="-22.949" stroke="#000000" stroke-width="0.3" stroke-linecap="square" fill="none"/><line x1="72.15" y1="-24.649" x2="144.15" y2="-24.649" stroke="#000000" stroke-width="0.3" stroke-linecap="square" fill="none"/><line x1="72.15" y1="-26.349" x2="144.15" y2="-26.349" stroke="#000000" stroke-width="0.3" stroke-linecap="square" fill="none"/><line x1="72.15" y1="-28.049" x2="144.15" y2="-28.049" stroke="#000000" stroke-width="0.3" stroke-linecap="square" fill="none"/><line x1="72.15" y1="-29.749" x2="144.15" y2="-29.749" stroke="#000000" stroke-width="0.3" stroke-linecap="square" fill="none"/><line x1="72.15" y1="-31.449" x2="144.15" y2="-31.449" stroke="#000000" stroke-width="0.3" stroke-linecap="square" fill="none"/><line x1="72.15" y1="-33.149" x2="144.15" y2="-33.149" stroke="#000000" stroke-width="0.3" stroke-linecap="square" fill="none"/><line x1="72.15" y1="-34.849" x2="144.15" y2="-34.849" stroke="#000000" stroke-width="0.3" stroke-linecap="square" fill="none"/><line x1="72.15" y1="-36.549" x2="144.15" y2="-36.549" stroke="#000000" stroke-width="0.3" stroke-linecap="square" fill="none"/><line x1="72.15" y1="-38.249" x2="144.15" y2="-38.249" stroke="#000000" stroke-width="0.3" stroke-linecap="square" fill="none"/><line x1="72.15" y1="-39.949" x2="144.15" y2="-39.949" stroke="#000000" stroke-width="0.3" stroke-linecap="square" fill="none"/><line x1="72.15" y1="-41.649" x2="144.15" y2="-41.649" stroke="#000000" stroke-width="0.3" stroke-linecap="square" fill="none"/><line x1="72.15" y1="-43.349" x2="144.15" y2="-43.349" stroke="#000000" stroke-width="0.3" stroke-linecap="square" fill="none"/><line x1="72.15" y1="-45.049" x2="144.15" y2="-45.049" stroke="#000000" stroke-width="0.3" stroke-linecap="square" fill="none"/><line x1="72.15" y1="-46.749" x2="144.15" y2="-46.749" stroke="#000000" stroke-width="0.3" stroke-linecap="square" fill="none"/><line x1="72.15" y1="-48.449" x2="144.15" y2="-48.449" stroke="#000000" stroke-width="0.3" stroke-linecap="square" fill="none"/><line x1="72.15" y1="-50.149" x2="144.15" y2="-50.149" stroke="#000000" stroke-width="0.3" stroke-linecap="square" fill="none"/><line x1="72.15" y1="-51.849" x2="144.15" y2="-51.849" stroke="#000000" stroke-width="0.3" stroke-linecap="square" fill="none"/><line x1="72.15" y1="-53.549" x2="144.15" y2="-53.549" stroke="#000000" stroke-width="0.3" stroke-linecap="square" fill="none"/><line x1="72.15" y1="-55.249" x2="144.15" y2="-55.249" stroke="#000000" stroke-width="0.3" stroke-linecap="square" fill="none"/><line x1="72.15" y1="-56.949" x2="144.15" y2="-56.949" stroke="#000000" stroke-width="0.3" stroke-linecap="square" fill="none"/><line x1="72.15" y1="-58.649" x2="144.15" y2="-58.649" stroke="#000000" stroke-width="0.3" stroke-linecap="square" fill="none"/><line x1="72.15" y1="-60.349" x2="144.15" y2="-60.349" stroke="#000000" stroke-width="0.3" stroke-linecap="square" fill="none"/><line x1="72.15" y1="-62.049" x2="144.15" y2="-62.049" stroke="#000000" stroke-width="0.3" stroke-linecap="square" fill="none"/><line x1="72.15" y1="-63.749" x2="144.15" y2="-63.749" stroke="#000000" stroke-width="0.3" stroke-linecap="square" fill="none"/><line x1="72.15" y1="-65.449" x2="144.15" y2="-65.449" stroke="#000000" stroke-width="0.3" stroke-linecap="square" fill="none"/><line x1="72.15" y1="-67.149" x2="144.15" y2="-67.149" stroke="#000000" stroke-width="0.3" stroke-linecap="square" fill="none"/><line x1="72.15" y1="-68.849" x2="144.15" y2="-68.849" stroke="#000000" stroke-width="0.3" stroke-linecap="square" fill="none"/><line x1="72.15" y1="-70.549" x2="144.15" y2="-70.549" stroke="#000000" stroke-width="0.3" stroke-linecap="square" fill="none"/><line x1="72.15" y1="-72.249" x2="144.15" y2="-72.249" stroke="#000000" stroke-width="0.3" stroke-linecap="square" fill="none"/><line x1="72.15" y1="-73.949" x2="144.15" y2="-73.949" stroke="#000000" stroke-width="0.3" stroke-linecap="square" fill="none"/></g><g><line x1="0.15" y1="-0.85" x2="72.15" y2="-0.85" stroke="#000000" stroke-width="0.3" stroke-linecap="square" fill="none"/><line x1="0.15" y1="-2.55" x2="72.15" y2="-2.55" stroke="#000000" stroke-width="0.3" stroke-linecap="square" fill="none"/><line x1="0.15" y1="-4.25" x2="72.15" y2="-4.25" stroke="#000000" stroke-width="0.3" stroke-linecap="square" fill="none"/><line x1="0.15" y1="-5.95" x2="72.15" y2="-5.95" stroke="#000000" stroke-width="0.3" stroke-linecap="square" fill="none"/><line x1="0.15" y1="-7.65" x2="72.15" y2="-7.65" stroke="#000000" stroke-width="0.3" stroke-linecap="square" fill="none"/><line x1="0.15" y1="-9.35" x2="72.15" y2="-9.35" stroke="#000000" stroke-width="0.3" stroke-linecap="square" fill="none"/><line x1="0.15" y1="-11.05" x2="72.15" y2="-11.05" stroke="#000000" stroke-width="0.3" stroke-linecap="square" fill="none"/><line x1="0.15" y1="-12.75" x2="72.15" y2="-12.75" stroke="#000000" stroke-width="0.3" stroke-linecap="square" fill="none"/><line x1="0.15" y1="-14.45" x2="72.15" y2="-14.45" stroke="#000000" stroke-width="0.3" stroke-linecap="square" fill="none"/><line x1="0.15" y1="-16.15" x2="72.15" y2="-16.15" stroke="#000000" stroke-width="0.3" stroke-linecap="square" fill="none"/><line x1="0.15" y1="-17.85" x2="72.15" y2="-17.85" stroke="#000000" stroke-width="0.3" stroke-linecap="square" fill="none"/><line x1="0.15" y1="-19.55" x2="72.15" y2="-19.55" stroke="#000000" stroke-width="0.3" stroke-linecap="square" fill="none"/><line x1="0.15" y1="-21.25" x2="72.15" y2="-21.25" stroke="#000000" stroke-width="0.3" stroke-linecap="square" fill="none"/><line x1="0.15" y1="-22.949" x2="72.15" y2="-22.949" stroke="#000000" stroke-width="0.3" stroke-linecap="square" fill="none"/><line x1="0.15" y1="-24.649" x2="72.15" y2="-24.649" stroke="#000000" stroke-width="0.3" stroke-linecap="square" fill="none"/><line x1="0.15" y1="-26.349" x2="72.15" y2="-26.349" stroke="#000000" stroke-width="0.3" stroke-linecap="square" fill="none"/><line x1="0.15" y1="-28.049" x2="72.15" y2="-28.049" stroke="#000000" stroke-width="0.3" stroke-linecap="square" fill="none"/><line x1="0.15" y1="-29.749" x2="72.15" y2="-29.749" stroke="#000000" stroke-width="0.3" stroke-linecap="square" fill="none"/><line x1="0.15" y1="-31.449" x2="72.15" y2="-31.449" stroke="#000000" stroke-width="0.3" stroke-linecap="square" fill="none"/><line x1="0.15" y1="-33.149" x2="72.15" y2="-33.149" stroke="#000000" stroke-width="0.3" stroke-linecap="square" fill="none"/><line x1="0.15" y1="-34.849" x2="72.15" y2="-34.849" stroke="#000000" stroke-width="0.3" stroke-linecap="square" fill="none"/><line x1="0.15" y1="-36.549" x2="72.15" y2="-36.549" stroke="#000000" stroke-width="0.3" stroke-linecap="square" fill="none"/><line x1="0.15" y1="-38.249" x2="72.15" y2="-38.249" stroke="#000000" stroke-width="0.3" stroke-linecap="square" fill="none"/><line x1="0.15" y1="-39.949" x2="72.15" y2="-39.949" stroke="#000000" stroke-width="0.3" stroke-linecap="square" fill="none"/><line x1="0.15" y1="-41.649" x2="72.15" y2="-41.649" stroke="#000000" stroke-width="0.3" stroke-linecap="square" fill="none"/><line x1="0.15" y1="-43.349" x2="72.15" y2="-43.349" stroke="#000000" stroke-width="0.3" stroke-linecap="square" fill="none"/><line x1="0.15" y1="-45.049" x2="72.15" y2="-45.049" stroke="#000000" stroke-width="0.3" stroke-linecap="square" fill="none"/><line x1="0.15" y1="-46.749" x2="72.15" y2="-46.749" stroke="#000000" stroke-width="0.3" stroke-linecap="square" fill="none"/><line x1="0.15" y1="-48.449" x2="72.15" y2="-48.449" stroke="#000000" stroke-width="0.3" stroke-linecap="square" fill="none"/><line x1="0.15" y1="-50.149" x2="72.15" y2="-50.149" stroke="#000000" stroke-width="0.3" stroke-linecap="square" fill="none"/><line x1="0.15" y1="-51.849" x2="72.15" y2="-51.849" stroke="#000000" stroke-width="0.3" stroke-linecap="square" fill="none"/><line x1="0.15" y1="-53.549" x2="72.15" y2="-53.549" stroke="#000000" stroke-width="0.3" stroke-linecap="square" fill="none"/><line x1="0.15" y1="-55.249" x2="72.15" y2="-55.249" stroke="#000000" stroke-width="0.3" stroke-linecap="square" fill="none"/><line x1="0.15" y1="-56.949" x2="72.15" y2="-56.949" stroke="#000000" stroke-width="0.3" stroke-linecap="square" fill="none"/><line x1="0.15" y1="-58.649" x2="72.15" y2="-58.649" stroke="#000000" stroke-width="0.3" stroke-linecap="square" fill="none"/><line x1="0.15" y1="-60.349" x2="72.15" y2="-60.349" stroke="#000000" stroke-width="0.3" stroke-linecap="square" fill="none"/><line x1="0.15" y1="-62.049" x2="72.15" y2="-62.049" stroke="#000000" stroke-width="0.3" stroke-linecap="square" fill="none"/><line x1="0.15" y1="-63.749" x2="72.15" y2="-63.749" stroke="#000000" stroke-width="0.3" stroke-linecap="square" fill="none"/><line x1="0.15" y1="-65.449" x2="72.15" y2="-65.449" stroke="#000000" stroke-width="0.3" stroke-linecap="square" fill="none"/><line x1="0.15" y1="-67.149" x2="72.15" y2="-67.149" stroke="#000000" stroke-width="0.3" stroke-linecap="square" fill="none"/><line x1="0.15" y1="-68.849" x2="72.15" y2="-68.849" stroke="#000000" stroke-width="0.3" stroke-linecap="square" fill="none"/><line x1="0.15" y1="-70.549" x2="72.15" y2="-70.549" stroke="#000000" stroke-width="0.3" stroke-linecap="square" fill="none"/><line x1="0.15" y1="-72.249" x2="72.15" y2="-72.249" stroke="#000000" stroke-width="0.3" stroke-linecap="square" fill="none"/><line x1="0.15" y1="-73.949" x2="72.15" y2="-73.949" stroke="#000000" stroke-width="0.3" stroke-linecap="square" fill="none"/></g></g></pattern><pattern xlink:href="#USGS_8_Sewage_Disposal" id="SVGID_6_" overflow="hidden" patternTransform="matrix(0.2 0 0 0.2 -3673.59 -7893.5)"></pattern><g><path d="M106.953 62.403C106.108 62.403 105.427 63.084 105.427 63.926 105.427 64.763 106.109 65.447 106.953 65.447 107.792 65.447 108.471 64.764 108.471 63.926 108.471 63.084 107.792 62.403 106.953 62.403Z" fill="#F26522"/></g><g><rect x="147.431" y="28.737" width="0.809" height="5.262" fill="#F26522" transform="matrix(0.9885 -0.1515 0.1515 0.9885 -3.0455 22.7542)"/></g><path d="M51.74 3.343 86.735 36.61 81.184 250.137C42.376 251.489 10.376 236.009 10.376 236.009 10.376 236.009-3.624 62.129 27.176 39.09 57.977 16.048 55.904 8.277 51.74 3.343Z" stroke="#3C2415" stroke-miterlimit="10" fill="#5C7782"/><path d="M48.082 177.029C48.082 177.029 55.661 124.47 55.783 114.668 56.146 102.21 56.478 94.001 56.478 94.001 71.595 37.367 86.172 36.965 86.172 36.965 86.172 36.965 94.607 33.903 103.837 53.963 107.167 60.387 107.354 90.553 107.354 90.553L107.504 105.881" stroke="#3C2415" stroke-miterlimit="10" fill="#A3BFD9"/><path d="M46.168 115.873 9.422 109.394 9.422 105.02 46.168 111.499Z" stroke="#262262" stroke-width="1.5" stroke-miterlimit="10" fill="#FFFFFF"/><path d="M46.168 115.873 9.422 109.394 9.422 105.02 46.168 111.499Z" stroke="#3C2415" stroke-linecap="round" stroke-miterlimit="10" fill="#4899C3"/><path d="M46.168 113.686 9.422 107.207 9.422 105.02 46.168 111.499Z" stroke="#3C2415" stroke-linecap="round" stroke-miterlimit="10" fill="#4899C3"/><path d="M79.156 97.839 125.387 97.839 119.825 113.122 73.594 113.122Z" stroke="#3C2415" stroke-miterlimit="10" fill="#E8E5D1"/><path d="M119.639 104.025 89.04 104.399 90.586 113.02 118.464 111.323 118.464 109.353 119.639 104.025" stroke="#3C2415" stroke-miterlimit="10" fill="#A3BFD9"/><g><path d="M79.664 97.839C79.664 96.578 89.773 95.171 102.59 95.171 115.407 95.171 125.488 96.578 125.488 97.839 125.488 99.101 115.406 100.022 102.59 100.022 89.774 100.022 79.664 99.101 79.664 97.839Z" fill="#E8E5D1"/><path d="M79.664 97.839C79.664 96.578 89.773 95.171 102.59 95.171 115.407 95.171 125.488 96.578 125.488 97.839 125.488 99.101 115.406 100.022 102.59 100.022 89.774 100.022 79.664 99.101 79.664 97.839Z" stroke="#3C2415" stroke-miterlimit="10" fill="none"/></g><g><path d="M78.549 103.813C77.299 107.083 77.628 107.236 76.146 110.408 71.974 118.137 66.465 129.807 61.018 143.247 56.708 153.879 52.372 165.522 48.097 176.972 74.145 183.621 75.331 182.712 101.786 177.934 106.019 166.285 110.753 155.357 114.362 145.079 119.302 131.008 122.812 118.868 125.032 111.313 126.335 106.876 127.138 103.63 127.013 102.69 124.652 102.089 122.74 102.728 118.941 104.166 108.911 107.96 101.506 110.951 98.514 110.126 95.522 109.301 93.889 104.078 89.768 103.271 85.628 103.035 85.606 102.902 81.459 102.951 80.784 102.958 80.847 104.184 80.174 104.24 79.331 104.309 79.38 104.379 78.543 104.496" fill="#A3BFD9"/><path d="M78.549 103.813C77.299 107.083 77.628 107.236 76.146 110.408 71.974 118.137 66.465 129.807 61.018 143.247 56.708 153.879 52.372 165.522 48.097 176.972 74.145 183.621 75.331 182.712 101.786 177.934 106.019 166.285 110.753 155.357 114.362 145.079 119.302 131.008 122.812 118.868 125.032 111.313 126.335 106.876 127.138 103.63 127.013 102.69 124.652 102.089 122.74 102.728 118.941 104.166 108.911 107.96 101.506 110.951 98.514 110.126 95.522 109.301 93.889 104.078 89.768 103.271 85.628 103.035 85.606 102.902 81.459 102.951 80.784 102.958 80.847 104.184 80.174 104.24 79.331 104.309 79.38 104.379 78.543 104.496" stroke="#3C2415" stroke-miterlimit="10" fill="none"/></g><path d="M53.513 177.96 82.369 105.412 84.719 99.568" stroke="#3C2415" stroke-miterlimit="10" fill="#A3BFD9"/><line x1="54.949" y1="178.152" x2="69.666" y2="141.153" stroke="#3C2415" stroke-width="0.7" stroke-miterlimit="10" fill="#FFFFFF"/><g><path d="M46.023 87.651C45.89 87.869 45.793 88.033 45.816 87.994 50.775 92.653 55.763 97.157 60.523 101.891 62.574 103.932 64.209 106.404 65.927 108.761 66.687 109.805 67.55 110.611 68.71 111.163 69.685 111.623 70.601 112.21 71.56 112.701 72.404 113.132 73.238 113.626 74.138 113.883 76.718 114.628 79.201 115.515 81.064 117.592 81.25 117.805 81.517 117.955 81.759 118.138 81.999 117.882 82.238 117.682 82.413 117.437 82.823 116.867 82.956 116.362 82.608 115.581 81.706 113.554 79.758 112.859 78.217 111.767 85.047 110.563 91.987 111.676 99.096 111.419 98.908 111.136 98.838 111.029 98.78 110.941 100.022 111.075 100.186 110.991 100.733 109.877 100.055 109.46 99.405 109.032 98.665 109.565 98.7 109.476 98.806 109.237 98.935 108.937 94.429 108.337 89.976 107.742 85.523 107.147 85.488 107.04 85.451 106.932 85.412 106.823 86.514 106.294 87.578 105.648 88.726 105.266 90.283 104.757 91.896 104.41 93.501 104.069 94.69 103.814 95.401 103.117 95.858 101.902 95.249 101.639 94.639 101.135 94.053 101.162 91.26 101.289 88.473 101.555 85.565 101.783 86.352 101.553 87.069 101.309 87.797 101.138 89.104 100.836 90.412 100.558 91.729 100.307 92.055 100.246 92.604 100.211 92.727 100.389 93.297 101.216 93.672 100.573 93.995 100.243 94.403 99.824 94.124 99.168 93.923 98.776 93.206 97.341 91.927 97.96 90.847 97.718 88.82 97.27 86.98 98.279 85.027 98.237 84.705 98.23 84.381 98.282 83.773 98.326 84.187 97.701 84.384 97.09 84.798 96.831 86.177 95.971 87.63 95.238 89.058 94.461 89.343 94.305 89.716 94.232 89.91 94.003 90.174 93.685 90.31 93.253 90.498 92.873 90.125 92.782 89.752 92.696 89.377 92.603 86.75 91.953 84.715 93.674 82.4 94.305 81.054 94.67 79.662 95.048 78.289 95.069 76.232 95.1 74.168 94.887 72.121 94.647 70.924 94.504 69.914 93.839 69.131 92.883 65.619 88.593 62.108 84.3 58.592 80.012 57.889 79.154 57.17 78.309 56.389 77.372 55.147 78.759 53.977 80.066 52.805 81.374 50.809 83.594 48.819 85.82 46.811 88.03 46.659 88.195 46.401 88.262 46.192 88.376 46.141 88.162 46.094 87.947 46.023 87.651Z" stroke="#392726" stroke-width="0.5" stroke-miterlimit="10" fill="#BBA795"/></g><path d="M57.548 206.906 28.15 201.724 28.15 198.225 57.548 203.408Z" stroke="#3C2415" stroke-linecap="round" stroke-miterlimit="10" fill="#4899C3"/><path d="M57.548 205.158 28.15 199.974 28.15 198.225 57.548 203.408Z" stroke="#3C2415" stroke-linecap="round" stroke-miterlimit="10" fill="#4899C3"/><g><line x1="86.739" y1="28.427" x2="86.739" y2="34.309" stroke="#F26522" stroke-miterlimit="10" stroke-dasharray="1 1" fill="none"/><g><rect x="84.106" y="28.02" width="5.262" height="0.809" fill="#F26522"/></g><g><path d="M85.216 35.68C85.216 36.524 85.898 37.205 86.739 37.205 87.577 37.205 88.26 36.523 88.26 35.68 88.26 34.84 87.576 34.161 86.739 34.161 85.897 34.161 85.216 34.84 85.216 35.68Z" fill="#F26522"/></g></g><g><line x1="56.622" y1="66.406" x2="61.72" y2="69.342" stroke="#F26522" stroke-miterlimit="10" stroke-dasharray="1 1" fill="none"/><g><rect x="56.214" y="63.776" width="0.809" height="5.262" fill="#F26522" transform="matrix(-0.8666 -0.4991 0.4991 -0.8666 72.5413 152.21)"/></g><g><path d="M62.146 71.346C62.878 71.768 63.81 71.517 64.23 70.788 64.648 70.062 64.398 69.129 63.666 68.708 62.939 68.289 62.01 68.542 61.592 69.268 61.172 69.998 61.42 70.927 62.146 71.346Z" fill="#F26522"/></g></g><g><circle cx="88.329" cy="87.051" r="3.437" stroke="#7C702D" stroke-width="0.5" stroke-dasharray="0.9798 0.9798" fill="none"/></g><circle cx="88.319" cy="87.048" r="2.267" stroke="#7C702D" stroke-width="0.5" fill="#B7C98F"/><g><path d="M87.758 83.118C87.667 83.425 87.58 83.436 87.357 83.869 87.001 84.501 85.775 84.062 85.769 83.465L85.769 83.2C85.489 83.354 84.536 82.923 84.707 82.135 84.169 82.21 83.867 81.741 84.023 81.237 84.156 80.797 84.212 80.542 84.11 79.762 83.981 78.794 83.738 77.675 84.456 76.571 84.521 76.476 84.465 76.359 84.403 76.325 84.283 76.262 83.911 76.285 83.918 75.973L83.976 74.82C83.998 74.406 84.62 74.105 86.537 74.207 88.534 74.309 89.314 74.371 89.279 75.197 89.247 76.009 89.229 76.234 89.229 76.234 89.208 76.49 89.034 76.524 88.921 76.559 88.854 76.579 88.822 76.675 88.85 76.743 88.889 76.85 89.282 77.897 89.331 78.787 89.377 79.608 89.609 79.943 89.498 80.493 89.366 81.141 89.328 83.264 89.308 83.897 89.286 84.52 89.036 85.502 89 86.825 88.968 88.086 87.509 88.018 87.632 86.887 87.727 85.997 87.62 85.962 87.673 85.653 87.767 85.114 87.735 84.513 87.723 84.091 87.72 83.896 87.787 83.688 87.758 83.118" stroke="#EB4024" stroke-miterlimit="10" fill="#FCD4CD"/><path d="M86.659 75.868C85.865 75.805 84.479 75.892 84.35 75.929 84.23 75.97 84.16 75.878 84.186 75.7 84.201 75.58 84.23 74.958 84.23 74.958 84.242 74.682 84.539 74.368 86.662 74.471 88.857 74.594 89.135 74.695 89.102 75.344L89.04 76.148C89.028 76.198 88.996 76.23 88.946 76.254 88.82 76.308 88.669 76.022 86.659 75.868Z" stroke="#EB4024" fill="#FCD4CD"/></g><line x1="86.99" y1="67.901" x2="86.976" y2="75.034" stroke="#F26522" stroke-miterlimit="10" stroke-dasharray="1 1" fill="none"/><g><rect x="86.773" y="66.699" width="0.405" height="2.632" fill="#F26522" transform="matrix(0.0289 -0.9996 0.9996 0.0289 16.4752 152.988)"/></g><path d="M106.543 63.925 125.387 55.554 125.387 39.255 147.834 31.368" stroke="#F26522" stroke-miterlimit="10" stroke-dasharray="1 1" fill="none"/><g><line x1="121.259" y1="150.885" x2="115.67" y2="149.052" stroke="#F26522" stroke-miterlimit="10" stroke-dasharray="1 1" fill="none"/><g><rect x="120.857" y="148.254" width="0.809" height="5.261" fill="#F26522" transform="matrix(0.9504 0.311 -0.311 0.9504 52.9326 -30.2278)"/></g><g><path d="M114.842 147.178C114.039 146.915 113.18 147.35 112.917 148.15 112.656 148.947 113.09 149.808 113.893 150.071 114.692 150.333 115.549 149.894 115.811 149.098 116.072 148.299 115.639 147.439 114.842 147.178Z" fill="#F26522"/></g></g><path d="" stroke="#262262" stroke-width="0.7" stroke-miterlimit="10" stroke-dasharray="2 2" fill="#FFFFFF"/><path d="M123.527 102.948C123.527 102.948 100.251 172.865 97.126 178.21" stroke="#3C2415" stroke-width="0.7" stroke-miterlimit="10" stroke-dasharray="1 1" fill="none"/><path d="M117.094 122.096 121.113 123.569 120.369 125.598 116.349 124.125Z" stroke="#3C2415" stroke-width="0.7" stroke-miterlimit="10" fill="url(#SVGID_6_)"/><g><line x1="128.476" y1="126.757" x2="122.887" y2="124.925" stroke="#F26522" stroke-miterlimit="10" stroke-dasharray="1 1" fill="none"/><g><rect x="128.074" y="124.125" width="0.809" height="5.262" fill="#F26522" transform="matrix(0.9502 0.3115 -0.3115 0.9502 45.8792 -33.7158)"/></g><g><path d="M122.059 123.05C121.256 122.786 120.397 123.221 120.134 124.023 119.873 124.818 120.307 125.68 121.11 125.943 121.909 126.205 122.766 125.767 123.028 124.97 123.289 124.171 122.855 123.311 122.059 123.05Z" fill="#F26522"/></g></g><g><path d="M109.836 110.346C111.623 110.985 112.557 112.948 111.919 114.737 111.283 116.523 109.316 117.459 107.531 116.823 105.742 116.186 104.81 114.218 105.448 112.431 106.084 110.645 108.05 109.713 109.836 110.346Z" stroke="#7C702D" stroke-width="0.5" stroke-dasharray="0.9798 0.9798" fill="none"/></g><circle cx="108.69" cy="113.591" r="2.266" stroke="#7C702D" stroke-width="0.5" fill="#B7C98F"/><g><path d="M107.97 117.494C108.155 117.233 108.241 117.249 108.59 116.911 109.129 116.426 110.151 117.233 109.966 117.8L109.881 118.051C110.195 117.996 110.962 118.707 110.547 119.399 111.081 119.5 111.218 120.04 110.909 120.467 110.642 120.842 110.508 121.066 110.356 121.837 110.169 122.796 110.043 123.935 109.01 124.752 108.917 124.822 108.934 124.951 108.982 125.002 109.076 125.1 109.436 125.196 109.33 125.49L108.908 126.564C108.754 126.949 108.07 127.036 106.285 126.328 104.425 125.596 103.705 125.288 104.002 124.516 104.292 123.757 104.381 123.549 104.381 123.549 104.482 123.312 104.658 123.337 104.776 123.339 104.846 123.341 104.907 123.26 104.902 123.188 104.899 123.073 104.861 121.956 105.098 121.096 105.317 120.304 105.202 119.912 105.484 119.427 105.815 118.855 106.528 116.855 106.751 116.262 106.971 115.678 107.521 114.826 107.976 113.585 108.41 112.399 109.771 112.93 109.292 113.962 108.919 114.775 109.009 114.843 108.86 115.118 108.598 115.6 108.438 116.18 108.314 116.584 108.254 116.769 108.124 116.944 107.97 117.494" stroke="#EB4024" stroke-miterlimit="10" fill="#FCD4CD"/><path d="M106.698 124.716C107.431 125.029 108.771 125.389 108.906 125.394 109.033 125.394 109.07 125.505 108.988 125.665 108.935 125.775 108.71 126.355 108.71 126.355 108.611 126.611 108.23 126.815 106.25 126.039 104.209 125.223 103.979 125.04 104.216 124.433L104.531 123.691C104.556 123.648 104.597 123.627 104.653 123.62 104.79 123.611 104.843 123.928 106.698 124.716Z" stroke="#EB4024" fill="#FCD4CD"/></g><line x1="103.844" y1="132.161" x2="106.133" y2="125.405" stroke="#F26522" stroke-miterlimit="10" stroke-dasharray="1 1" fill="none"/><g><rect x="103.691" y="130.742" width="0.405" height="2.632" fill="#F26522" transform="matrix(-0.3476 0.9377 -0.9377 -0.3476 263.828 80.5383)"/></g><g><line x1="73.271" y1="154.09" x2="67.682" y2="152.257" stroke="#F26522" stroke-miterlimit="10" stroke-dasharray="1 1" fill="none"/><g><rect x="72.869" y="151.458" width="0.809" height="5.262" fill="#F26522" transform="matrix(0.9502 0.3115 -0.3115 0.9502 51.647 -15.1585)"/></g><g><path d="M66.854 150.383C66.051 150.12 65.192 150.554 64.929 151.354 64.668 152.15 65.102 153.012 65.905 153.275 66.704 153.538 67.561 153.1 67.823 152.303 68.084 151.503 67.65 150.644 66.854 150.383Z" fill="#F26522"/></g></g><line x1="44.109" y1="134.125" x2="72.455" y2="134.125" stroke="#F26522" stroke-miterlimit="10" stroke-dasharray="1 1" fill="none"/><g><rect x="43.705" y="131.494" width="0.809" height="5.262" fill="#F26522"/></g><g><path d="M71.112 135.646C71.957 135.646 72.638 134.964 72.638 134.122 72.638 133.284 71.956 132.601 71.112 132.601 70.273 132.601 69.593 133.284 69.593 134.122 69.594 134.964 70.273 135.646 71.112 135.646Z" fill="#F26522"/></g><g><circle cx="81.501" cy="166.282" r="3.436" stroke="#7C702D" stroke-width="0.5" stroke-dasharray="0.9797 0.9797" fill="none"/></g><path d="M82.27 164.153C83.448 164.571 84.067 165.866 83.644 167.045 83.221 168.226 81.926 168.843 80.748 168.423 79.568 168.003 78.95 166.705 79.374 165.526 79.794 164.345 81.09 163.731 82.27 164.153Z" stroke="#7C702D" stroke-width="0.5" fill="#B7C98F"/><line x1="75.387" y1="187.194" x2="78.438" y2="178.933" stroke="#F26522" stroke-miterlimit="10" stroke-dasharray="1 1" fill="none"/><g><path d="M80.787 170.191C80.972 169.929 81.058 169.947 81.407 169.608 81.947 169.123 82.969 169.929 82.783 170.498L82.699 170.749C83.013 170.694 83.779 171.405 83.365 172.097 83.898 172.197 84.035 172.738 83.726 173.166 83.46 173.541 83.326 173.765 83.173 174.535 82.986 175.495 82.86 176.633 81.827 177.451 81.735 177.52 81.751 177.65 81.8 177.701 81.894 177.798 82.253 177.895 82.148 178.189L81.726 179.262C81.572 179.648 80.888 179.735 79.103 179.027 77.242 178.294 76.523 177.986 76.82 177.214 77.109 176.454 77.198 176.246 77.198 176.246 77.299 176.01 77.475 176.035 77.594 176.037 77.664 176.039 77.724 175.959 77.719 175.886 77.717 175.771 77.678 174.654 77.916 173.794 78.134 173.002 78.02 172.61 78.301 172.126 78.633 171.553 79.346 169.553 79.568 168.96 79.788 168.377 80.339 167.525 80.794 166.283 81.228 165.097 82.588 165.628 82.11 166.66 81.736 167.474 81.826 167.542 81.677 167.817 81.416 168.298 81.255 168.878 81.131 169.282 81.072 169.466 80.941 169.642 80.787 170.191" stroke="#EB4024" stroke-miterlimit="10" fill="#FCD4CD"/><path d="M79.516 177.413C80.249 177.726 81.59 178.086 81.725 178.091 81.851 178.091 81.889 178.2 81.807 178.36 81.754 178.47 81.528 179.049 81.528 179.049 81.429 179.307 81.048 179.51 79.069 178.735 77.027 177.919 76.797 177.735 77.034 177.129L77.349 176.387C77.375 176.344 77.416 176.323 77.471 176.317 77.607 176.307 77.66 176.626 79.516 177.413Z" stroke="#EB4024" fill="#FCD4CD"/></g><g><rect x="75.185" y="185.878" width="0.405" height="2.632" fill="#F26522" transform="matrix(-0.3446 0.9387 -0.9387 -0.3446 277.094 180.941)"/></g><line x1="112.422" y1="90.748" x2="110.326" y2="104.766" stroke="#F26522" stroke-miterlimit="10" stroke-dasharray="1 1" fill="none"/><g><rect x="112.018" y="88.117" width="0.809" height="5.262" fill="#F26522" transform="matrix(0.1979 -0.9802 0.9802 0.1979 1.2244 182.993)"/></g><g><path d="M108.805 104.355C108.805 105.199 109.487 105.881 110.328 105.881 111.166 105.881 111.849 105.199 111.849 104.355 111.849 103.516 111.165 102.836 110.328 102.836 109.486 102.837 108.805 103.516 108.805 104.355Z" fill="#F26522"/></g></svg>