<svg width="170" height="226.846" viewBox="0 0 170 226.846" xmlns="http://www.w3.org/2000/svg" xmlns:xlink="http://www.w3.org/1999/xlink" id="Layer_1" xml:space="preserve" overflow="hidden"><pattern x="-2045.5" y="2637" width="72" height="72" patternUnits="userSpaceOnUse" viewBox="51.688 -85.483 72 72" id="Mezzotint_Irregular" overflow="visible"><g><path d="M51.688-85.483 123.688-85.483 123.688-13.483 51.688-13.483Z" fill="none"/><g><path d="M119.938-9.983C122.188-10.483 126.938-9.983 125.938-8.233 124.938-6.483 129.938-1.233 130.438-2.733 130.938-4.233 128.438-7.233 131.188-7.483 133.938-7.733 136.938-4.483 138.688-4.233 140.438-3.983 144.188-5.733 141.938-7.233 139.688-8.733 139.188-11.733 136.438-11.483 133.688-11.233 129.438-11.733 130.438-14.483" stroke="#000000" stroke-width="0.3" fill="none"/><path d="M120.938-12.483C122.688-11.983 126.438-12.233 126.938-10.733 127.438-9.233 129.688-7.983 129.688-9.233 129.688-10.483 127.938-11.983 127.938-11.983 127.938-11.983 123.938-15.483 125.938-15.983" stroke="#000000" stroke-width="0.3" fill="none"/><path d="M122.688-5.233C124.188-3.733 126.188-2.483 128.188-1.483 130.188-0.483 133.188 0.517 133.438-0.733 133.688-1.983 130.688-3.983 132.438-3.983 134.188-3.983 135.688-1.983 138.938-2.233 142.188-2.483 148.188-6.233 146.188-6.983 144.188-7.733 142.438-10.483 140.688-11.483 138.938-12.483 137.938-12.483 136.688-12.483 135.438-12.483 132.688-13.733 134.688-14.483" stroke="#000000" stroke-width="0.3" fill="none"/></g><g><path d="M47.938-9.983C50.188-10.483 54.938-9.983 53.938-8.233 52.938-6.483 57.938-1.233 58.438-2.733 58.938-4.233 56.438-7.233 59.188-7.483 61.938-7.733 64.938-4.483 66.688-4.233 68.438-3.983 72.188-5.733 69.938-7.233 67.688-8.733 67.188-11.733 64.438-11.483 61.688-11.233 57.438-11.733 58.438-14.483" stroke="#000000" stroke-width="0.3" fill="none"/><path d="M75.438-14.483C76.688-13.983 79.688-11.483 78.688-9.733 77.688-7.983 78.188-6.483 79.688-6.233 81.188-5.983 85.938-8.233 85.438-9.483 84.938-10.733 83.688-12.733 85.438-13.983" stroke="#000000" stroke-width="0.3" fill="none"/><path d="M97.438-16.733C99.188-15.733 99.188-14.733 97.938-13.483 96.688-12.233 91.438-12.233 92.188-10.983 92.938-9.733 97.188-6.983 99.938-6.983 102.688-6.983 102.938-10.483 104.688-10.983" stroke="#000000" stroke-width="0.3" fill="none"/><path d="M105.688-12.233C106.438-12.733 106.438-13.233 106.188-15.233" stroke="#000000" stroke-width="0.3" fill="none"/><path d="M107.938-19.233C107.938-17.733 107.563-13.632 107.563-12.358 107.563-10.983 108.063-10.483 108.063-10.483" stroke="#000000" stroke-width="0.3" fill="none"/><path d="M48.938-12.483C50.688-11.983 54.438-12.233 54.938-10.733 55.438-9.233 57.688-7.983 57.688-9.233 57.688-10.483 55.938-11.983 55.938-11.983 55.938-11.983 51.938-15.483 53.938-15.983" stroke="#000000" stroke-width="0.3" fill="none"/><path d="M77.688-15.233C79.438-14.733 81.438-14.233 81.188-12.483 80.938-10.733 81.438-8.483 81.938-9.733 82.438-10.983 81.938-13.733 83.438-14.733" stroke="#000000" stroke-width="0.3" fill="none"/><path d="M100.438-19.983C101.688-17.733 101.938-13.733 100.188-12.483 98.438-11.233 97.188-9.483 98.688-9.733 100.188-9.983 102.688-10.483 103.438-12.733 104.188-14.983 105.688-21.483 104.188-22.233" stroke="#000000" stroke-width="0.3" fill="none"/><path d="M109.688-19.983C108.688-18.483 108.688-15.483 109.938-14.233 111.188-12.983 112.438-13.483 112.688-11.983 112.938-10.483 114.188-8.733 115.188-8.733 116.188-8.733 117.688-10.733 118.438-11.483 119.438-12.483 120.938-12.483 120.938-12.483 122.688-11.983 126.438-12.233 126.938-10.733" stroke="#000000" stroke-width="0.3" fill="none"/><path d="M50.688-5.233C52.188-3.733 54.188-2.483 56.188-1.483 58.188-0.483 61.188 0.517 61.438-0.733 61.688-1.983 58.688-3.983 60.438-3.983 62.188-3.983 63.688-1.983 66.938-2.233 70.188-2.483 76.188-6.233 74.188-6.983 72.188-7.733 70.438-10.483 68.688-11.483 66.938-12.483 65.938-12.483 64.688-12.483 63.438-12.483 60.688-13.733 62.688-14.483" stroke="#000000" stroke-width="0.3" fill="none"/><path d="M73.938-13.983C74.938-11.983 76.188-10.733 76.438-8.983 76.688-7.233 75.938-4.233 78.438-4.233 79.072-4.233 79.754-4.282 80.452-4.389" stroke="#000000" stroke-width="0.3" fill="none"/><path d="M82.5-4.89C83.875-5.359 85.188-6.109 86.188-7.234 88.188-9.484 86.438-9.984 86.688-11.234 86.938-12.484 92.688-15.234 93.688-14.484 94.688-13.734 92.438-14.484 91.438-12.734 90.438-10.984 87.188-6.484 92.438-6.234 97.688-5.984 98.688-4.984 98.938-3.984 99.188-2.984 103.938-3.234 103.938-4.484 103.938-5.734 105.438-10.484 105.938-9.234 106.438-7.984 107.938-5.734 110.938-4.234" stroke="#000000" stroke-width="0.3" fill="none"/><path d="M112.938-14.733C114.188-13.483 114.438-10.983 115.688-11.733 116.938-12.483 118.438-13.983 119.188-14.483" stroke="#000000" stroke-width="0.3" fill="none"/></g><g><path d="M37.688-19.983C36.688-18.483 36.688-15.483 37.938-14.233 39.188-12.983 40.438-13.483 40.688-11.983 40.938-10.483 42.188-8.733 43.188-8.733 44.188-8.733 45.688-10.733 46.438-11.483 47.438-12.483 48.938-12.483 48.938-12.483 50.688-11.983 54.438-12.233 54.938-10.733" stroke="#000000" stroke-width="0.3" fill="none"/></g><g><path d="M118.438-16.733C122.301-19.173 124.47-23.754 128.938-25.233 128.787-24.179 128.834-22.934 129.554-22.385 130.732-21.485 131.97-21.76 133.438-22.233 134.407-25.439 136.528-29.528 140.415-28.635 141.806-28.316 141.735-26.647 142.56-25.859 143.414-25.043 144.792-24.186 145.827-24.895 147.016-25.711 148.2-26.102 149.461-26.687 150.189-27.025 149.659-27.992 150.433-28.253 152.313-28.89 152.607-26.893 153.94-26.232 153.834-24.374 153.911-22.559 154.452-20.735 155.146-18.399 157.826-19.113 159.44-20.232 159.126-20.493 160.065-21.982 159.94-23.607 160.453-27.265 158.219-30.517 162.038-31.974 165.757-33.392 169.906-32.366 173.912-32.927 175.067-33.089 176.359-33.305 177.346-33.89 178.705-34.699 179.904-35.799 181.441-36.232 181.64-35.448 182.819-36.033 182.9-35.227 183.12-33.05 184.554-31.557 185.655-29.873 185.849-29.575 186.169-28.808 186.829-28.496 187.701-28.083 187.569-26.389 187.941-25.232" stroke="#000000" stroke-width="0.3" fill="none"/><path d="M121.063-23.108C122.571-23.85 124.193-24.335 125.563-25.358 125.65-26.217 126.388-26.748 126.589-27.601 126.636-27.8 126.97-27.857 126.985-27.892 127.691-29.457 129.271-30.27 130.809-29.602 131.183-29.44 130.986-28.731 131.562-28.858 131.562-28.607 131.644-28.253 131.52-28.168 130.268-27.308 130.177-25.814 130.45-24.641 130.639-23.826 131.573-23.088 132.562-23.859 132.332-26.691 133.615-29.11 135.892-30.748 137.094-31.611 138.615-31.444 140.062-31.359 139.992-30.802 140.431-31.265 140.562-31.109" stroke="#000000" stroke-width="0.3" fill="none"/><path d="M121.438-26.733C123.188-26.983 125.188-29.233 126.688-30.733 128.188-32.233 129.688-33.233 131.188-32.983 132.688-32.733 132.188-29.733 134.438-32.733 136.688-35.733 138.188-34.733 139.688-34.483 141.188-34.233 144.688-32.483 145.938-33.983 147.188-35.483 143.938-39.983 146.188-40.233 148.438-40.483 149.438-36.983 151.438-35.733 153.438-34.483 154.438-32.983 155.688-34.983 156.938-36.983 158.938-38.733 161.188-37.983 163.438-37.233 164.188-37.233 166.188-37.233" stroke="#000000" stroke-width="0.3" fill="none"/><path d="M140.945-43.604C139.98-43.543 139.04-43.484 138.188-43.484 134.688-43.484 134.188-40.984 136.688-40.484 139.188-39.984 141.188-37.984 143.188-36.484 145.188-34.984 141.688-35.484 139.688-36.484 137.688-37.484 136.688-36.484 134.188-34.484 131.688-32.484 132.688-34.984 131.188-35.484 129.688-35.984 128.188-34.984 126.688-33.484 125.188-31.984 123.188-32.984 119.188-33.984" stroke="#000000" stroke-width="0.3" fill="none"/><path d="M120.438-37.233C121.938-36.483 123.688-34.983 125.688-35.983 127.688-36.983 128.938-38.483 130.188-37.983 131.438-37.483 132.688-35.733 134.188-36.733 135.688-37.733 137.438-37.483 135.688-39.233 133.938-40.983 130.438-42.233 131.688-43.233 132.938-44.233 135.438-46.483 138.188-46.483 140.938-46.483 153.188-48.733 152.688-46.233 152.188-43.733 150.938-37.983 152.688-38.983 154.438-39.983 155.938-41.733 157.438-41.733 158.938-41.733 160.188-41.983 160.688-44.483 161.188-46.983 163.688-48.233 164.688-47.233 165.688-46.233 167.188-44.983 166.938-46.733 166.688-48.483 167.438-51.233 170.938-50.983 171.419-50.949 172.009-50.905 172.677-50.85" stroke="#000000" stroke-width="0.3" fill="none"/><path d="M120.938-16.233C121.938-17.483 123.688-19.233 125.438-20.983 127.188-22.733 128.188-22.233 128.438-20.733 128.688-19.233 129.188-18.233 130.688-18.483 132.188-18.733 136.188-21.483 136.688-23.733 137.188-25.983 138.438-27.483 139.688-26.483 140.938-25.483 141.688-22.483 143.938-22.483 146.188-22.483 151.438-27.233 151.688-25.483 151.938-23.733 151.188-21.483 151.938-18.983 152.688-16.483 154.438-16.483 156.938-17.483 159.438-18.483 161.438-19.483 161.688-20.983" stroke="#000000" stroke-width="0.3" fill="none"/><path d="M119.938-81.983C122.188-82.483 126.938-81.983 125.938-80.233 124.938-78.483 129.938-73.233 130.438-74.733 130.938-76.233 128.438-79.233 131.188-79.483 133.938-79.733 136.938-76.483 138.688-76.233 140.438-75.983 144.188-77.733 141.938-79.233 139.688-80.733 139.188-83.733 136.438-83.483 133.688-83.233 129.438-83.733 130.438-86.483" stroke="#000000" stroke-width="0.3" fill="none"/><path d="M122.188-40.733C123.938-39.733 124.188-38.733 126.188-39.483 128.188-40.233 128.688-40.483 128.688-40.483 130.688-39.483 132.188-38.983 131.938-39.983 131.08-43.414 126.165-42.997 126.938-44.233 128.188-46.233 132.188-46.483 133.688-48.483 135.188-50.483 133.188-52.233 135.438-53.233 137.688-54.233 140.938-52.233 141.688-50.983 142.438-49.733 146.188-48.733 149.188-49.483 152.188-50.233 156.438-51.483 155.938-48.983 155.438-46.483 154.688-43.233 156.188-44.483 157.688-45.733 161.438-52.983 163.688-52.733 165.938-52.483 166.938-52.733 169.938-52.983 172.938-53.233 179.438-52.483 179.188-54.983 178.938-57.483 174.438-63.233 178.188-63.233 179.892-63.233 181.803-62.665 183.428-61.716" stroke="#000000" stroke-width="0.3" fill="none"/><path d="M120.938-84.483C122.688-83.983 126.438-84.233 126.938-82.733 127.438-81.233 129.688-79.983 129.688-81.233 129.688-82.483 127.938-83.983 127.938-83.983 127.938-83.983 123.938-87.483 125.938-87.983" stroke="#000000" stroke-width="0.3" fill="none"/><path d="M121.188-49.483C122.438-48.983 124.438-47.233 125.188-48.233 125.938-49.233 117.188-51.233 124.688-52.983 132.188-54.733 130.938-53.983 131.938-56.483 132.938-58.983 125.438-59.733 127.438-60.983 129.438-62.233 136.769-63.942 139.188-62.733 142.188-61.233 140.688-58.983 140.938-58.233 141.188-57.483 139.938-53.483 143.438-52.233 146.938-50.983 148.438-49.733 151.438-51.483 154.438-53.233 158.438-54.733 158.438-53.483 158.438-52.233 158.188-51.483 160.938-53.233 163.688-54.983 168.188-56.483 170.688-56.233 173.188-55.983 175.688-56.733 174.688-58.483 173.688-60.233 170.938-61.233 169.688-63.233 168.438-65.233 170.438-66.483 172.938-66.733 175.438-66.983 184.938-65.983 186.688-64.483 188.438-62.983 188.938-58.983 188.938-56.483 188.938-53.983 187.938-53.233 190.688-51.233" stroke="#000000" stroke-width="0.3" fill="none"/><path d="M121.438-55.483C123.688-54.983 125.688-55.483 126.688-55.983 127.688-56.483 124.188-58.983 121.938-59.733" stroke="#000000" stroke-width="0.3" fill="none"/><path d="M121.938-64.733C125.688-65.233 129.188-66.233 131.688-65.733 134.188-65.233 139.438-66.233 141.438-62.733" stroke="#000000" stroke-width="0.3" fill="none"/><path d="M122.188-68.733C125.688-68.233 132.938-66.733 134.688-66.733 135.242-66.733 136.472-66.733 137.935-66.677" stroke="#000000" stroke-width="0.3" fill="none"/><path d="M122.688-77.233C124.188-75.733 126.188-74.483 128.188-73.483 130.188-72.483 133.188-71.483 133.438-72.733 133.688-73.983 130.688-75.983 132.438-75.983 134.188-75.983 135.688-73.983 138.938-74.233 142.188-74.483 148.188-78.233 146.188-78.983 144.188-79.733 142.438-82.483 140.688-83.483 138.938-84.483 137.938-84.483 136.688-84.483 135.438-84.483 132.688-85.733 134.688-86.483" stroke="#000000" stroke-width="0.3" fill="none"/><path d="M122.188-71.233C123.938-70.733 132.438-68.483 136.438-68.733 140.438-68.983 147.188-69.233 148.188-68.483 149.188-67.733 148.438-66.483 148.688-65.233 148.938-63.983 149.688-62.983 150.938-64.233 152.188-65.483 154.688-66.233 155.938-65.733 157.188-65.233 159.438-64.483 159.188-65.733 158.938-66.983 156.438-68.983 157.688-71.233 158.938-73.483 164.688-77.733 164.188-75.483 163.688-73.233 162.938-70.233 164.688-70.983 166.438-71.733 169.688-72.983 172.688-72.483" stroke="#000000" stroke-width="0.3" fill="none"/><path d="M122.438-73.983C125.438-72.483 131.938-69.983 138.438-70.233 144.938-70.483 144.688-71.983 143.188-71.983 141.688-71.983 143.438-74.483 145.438-74.483 147.438-74.483 149.938-72.983 150.188-71.233 150.438-69.483 151.188-68.233 152.438-68.483 153.688-68.733 153.438-69.483 155.188-72.483 156.938-75.483 157.688-75.483 159.188-77.233 160.688-78.983 160.688-77.233 161.438-76.983 162.188-76.733 167.688-77.733 167.688-76.483 167.688-75.233 163.938-73.483 165.688-73.483 167.438-73.483 175.438-74.983 177.188-74.233" stroke="#000000" stroke-width="0.3" fill="none"/></g><g><path d="M46.438-16.733C50.301-19.173 52.47-23.754 56.938-25.233 56.787-24.179 56.834-22.934 57.554-22.385 58.732-21.485 59.97-21.76 61.438-22.233 62.407-25.439 64.528-29.528 68.415-28.635 69.806-28.316 69.735-26.647 70.56-25.859 71.414-25.043 72.792-24.186 73.827-24.895 75.016-25.711 76.2-26.102 77.461-26.687 78.189-27.025 77.659-27.992 78.433-28.253 80.313-28.89 80.607-26.893 81.94-26.232 81.834-24.374 81.911-22.559 82.452-20.735 83.146-18.399 85.826-19.113 87.44-20.232 87.126-20.493 88.065-21.982 87.94-23.607 88.453-27.265 86.219-30.517 90.038-31.974 93.757-33.392 97.906-32.366 101.912-32.927 103.067-33.089 104.359-33.305 105.346-33.89 106.705-34.699 107.904-35.799 109.441-36.232 109.64-35.448 110.819-36.033 110.9-35.227 111.12-33.05 112.554-31.557 113.655-29.873 113.849-29.575 114.169-28.808 114.829-28.496 115.701-28.083 115.569-26.389 115.941-25.232" stroke="#000000" stroke-width="0.3" fill="none"/><path d="M128.938-25.233C124.47-23.754 122.301-19.173 118.438-16.733 116.922-15.775 115.814-15.619 114.504-15.976 113.271-16.314 114.106-18.048 113.957-19.235 113.774-20.704 115.527-20.111 116.132-21.117 116.735-22.123 116.938-22.608 116.688-23.858" stroke="#000000" stroke-width="0.3" fill="none"/><path d="M49.063-23.108C50.571-23.85 52.193-24.335 53.563-25.358 53.65-26.217 54.388-26.748 54.589-27.601 54.636-27.8 54.97-27.857 54.985-27.892 55.691-29.457 57.271-30.27 58.809-29.602 59.183-29.44 58.986-28.731 59.562-28.858 59.562-28.607 59.644-28.253 59.52-28.168 58.268-27.308 58.177-25.814 58.45-24.641 58.639-23.826 59.573-23.088 60.562-23.859 60.332-26.691 61.615-29.11 63.892-30.748 65.094-31.611 66.615-31.444 68.062-31.359 67.992-30.802 68.431-31.265 68.562-31.109" stroke="#000000" stroke-width="0.3" fill="none"/><path d="M121.063-23.108C122.571-23.85 124.193-24.335 125.563-25.358" stroke="#000000" stroke-width="0.3" fill="none"/><path d="M120.063-21.608C119.218-21.153 118.992-20.162 118.47-19.423 118.359-19.265 118.015-19.238 118.063-18.858 117.528-18.98 117.088-18.445 116.569-18.628 116.235-18.746 116.173-19.149 116.355-19.312 116.713-19.636 116.617-20.205 116.837-20.258 117.566-20.44 117.104-21.4 117.813-21.359 118.176-22.844 118.313-24.39 117.93-25.824 117.429-27.7 116.302-29.313 115.563-31.109" stroke="#000000" stroke-width="0.3" fill="none"/><path d="M114.688-32.483C112.938-34.733 111.688-35.983 111.438-37.233 111.188-38.483 110.938-39.483 109.688-39.483 108.438-39.483 107.438-37.983 105.438-36.983 103.438-35.983 96.188-34.733 94.188-34.983 92.188-35.233 88.188-35.983 87.188-35.233 86.188-34.483 85.438-30.983 85.438-28.983 85.438-26.983 85.688-24.233 85.438-23.233 85.188-22.233 83.688-20.483 83.438-23.733 83.188-26.983 82.938-28.483 81.188-30.233 79.438-31.983 76.438-32.983 76.188-31.733 75.938-30.483 76.938-29.483 76.438-28.983 75.938-28.483 74.188-27.733 73.188-27.983 72.188-28.233 71.688-28.983 70.938-29.483" stroke="#000000" stroke-width="0.3" fill="none"/><path d="M49.438-26.733C51.188-26.983 53.188-29.233 54.688-30.733 56.188-32.233 57.688-33.233 59.188-32.983 60.688-32.733 60.188-29.733 62.438-32.733 64.688-35.733 66.188-34.733 67.688-34.483 69.188-34.233 72.688-32.483 73.938-33.983 75.188-35.483 71.938-39.983 74.188-40.233 76.438-40.483 77.438-36.983 79.438-35.733 81.438-34.483 82.438-32.983 83.688-34.983 84.938-36.983 86.938-38.733 89.188-37.983 91.438-37.233 92.188-37.233 94.188-37.233" stroke="#000000" stroke-width="0.3" fill="none"/><path d="M97.438-37.483C98.938-37.733 103.688-38.483 104.938-39.733 106.188-40.983 103.188-44.733 104.688-45.233 106.188-45.733 110.188-44.983 111.688-43.733 113.188-42.483 114.438-38.733 114.938-36.483 115.438-34.233 118.688-31.733 119.188-29.983 119.688-28.233 119.188-25.483 119.688-24.983 120.188-24.483 120.688-26.483 121.438-26.733 123.115-27.293 125.188-29.233 126.688-30.733" stroke="#000000" stroke-width="0.3" fill="none"/><path d="M126.688-33.483C125.188-31.983 123.188-32.983 119.188-33.983 119.188-33.983 116.938-34.983 116.688-40.483 116.438-45.983 112.938-47.233 110.438-47.983 107.938-48.733 97.688-49.983 96.938-48.483 96.188-46.983 100.688-44.983 101.438-43.483 102.188-41.983 101.188-39.733 99.438-39.983 97.688-40.233 97.688-42.733 96.188-43.483 94.688-44.233 90.688-44.483 90.438-42.233 90.188-39.983 86.188-39.983 86.188-39.983 83.688-40.483 83.188-35.983 81.188-35.983 79.188-35.983 78.688-40.483 76.688-42.483 75.688-43.483 73.938-43.733 72-43.733" stroke="#000000" stroke-width="0.3" fill="none"/><path d="M68.945-43.604C67.98-43.543 67.04-43.484 66.188-43.484 62.688-43.484 62.188-40.984 64.688-40.484 67.188-39.984 69.188-37.984 71.188-36.484 73.188-34.984 69.688-35.484 67.688-36.484 65.688-37.484 64.688-36.484 62.188-34.484 59.688-32.484 60.688-34.984 59.188-35.484 57.688-35.984 56.188-34.984 54.688-33.484 53.188-31.984 51.188-32.984 47.188-33.984" stroke="#000000" stroke-width="0.3" fill="none"/><path d="M48.438-37.233C49.938-36.483 51.688-34.983 53.688-35.983 55.688-36.983 56.938-38.483 58.188-37.983 59.438-37.483 60.688-35.733 62.188-36.733 63.688-37.733 65.438-37.483 63.688-39.233 61.938-40.983 58.438-42.233 59.688-43.233 60.938-44.233 63.438-46.483 66.188-46.483 68.938-46.483 81.188-48.733 80.688-46.233 80.188-43.733 78.938-37.983 80.688-38.983 82.438-39.983 83.938-41.733 85.438-41.733 86.938-41.733 88.188-41.983 88.688-44.483 89.188-46.983 91.688-48.233 92.688-47.233 93.688-46.233 95.188-44.983 94.938-46.733 94.688-48.483 95.438-51.233 98.938-50.983 99.419-50.949 100.009-50.905 100.677-50.85" stroke="#000000" stroke-width="0.3" fill="none"/><path d="M102.683-50.672C106.865-50.268 112.413-49.522 114.439-48.234 117.189-46.484 118.939-42.234 119.189-39.734" stroke="#000000" stroke-width="0.3" fill="none"/><path d="M120.438-37.233C121.938-36.483 123.688-34.983 125.688-35.983" stroke="#000000" stroke-width="0.3" fill="none"/><path d="M64.438-11.483C61.688-11.233 57.438-11.733 58.438-14.483 59.438-17.233 65.938-18.983 66.688-20.483 67.438-21.983 69.438-22.233 70.438-20.233 71.438-18.233 74.188-14.983 75.438-14.483 76.688-13.983 79.688-11.483 78.688-9.733" stroke="#000000" stroke-width="0.3" fill="none"/><path d="M85.438-9.483C84.938-10.733 83.688-12.733 85.438-13.983 87.188-15.233 95.688-17.733 97.438-16.733 99.188-15.733 99.188-14.733 97.938-13.483 96.688-12.233 91.438-12.233 92.188-10.983" stroke="#000000" stroke-width="0.3" fill="none"/><path d="M48.938-16.233C49.938-17.483 51.688-19.233 53.438-20.983 55.188-22.733 56.188-22.233 56.438-20.733 56.688-19.233 57.188-18.233 58.688-18.483 60.188-18.733 64.188-21.483 64.688-23.733 65.188-25.983 66.438-27.483 67.688-26.483 68.938-25.483 69.688-22.483 71.938-22.483 74.188-22.483 79.438-27.233 79.688-25.483 79.938-23.733 79.188-21.483 79.938-18.983 80.688-16.483 82.438-16.483 84.938-17.483 87.438-18.483 89.438-19.483 89.688-20.983" stroke="#000000" stroke-width="0.3" fill="none"/><path d="M120.938-16.233C121.938-17.483 123.688-19.233 125.438-20.983" stroke="#000000" stroke-width="0.3" fill="none"/><path d="M55.938-11.983C55.938-11.983 51.938-15.483 53.938-15.983 55.938-16.483 57.938-15.983 59.938-17.233 61.938-18.483 65.188-20.483 65.938-21.983 66.688-23.483 67.688-24.483 68.438-23.483 69.188-22.483 70.438-21.483 72.188-20.983 73.938-20.483 75.188-21.983 75.938-20.233 76.688-18.483 75.938-15.733 77.688-15.233 79.438-14.733 81.438-14.233 81.188-12.483" stroke="#000000" stroke-width="0.3" fill="none"/><path d="M81.938-9.733C82.438-10.983 81.938-13.733 83.438-14.733 84.938-15.733 89.688-17.483 90.438-18.733 91.129-19.885 94.369-20.612 96.439-20.719" stroke="#000000" stroke-width="0.3" fill="none"/><path d="M98.188-20.733C98.418-20.557 100.125-20.545 100.438-19.983 101.688-17.733 101.938-13.733 100.188-12.483" stroke="#000000" stroke-width="0.3" fill="none"/><path d="M103.438-12.733C104.188-14.983 105.688-21.483 104.188-22.233 102.688-22.983 99.438-23.733 101.438-25.733 103.438-27.733 107.188-29.483 108.188-28.983 109.188-28.483 112.688-25.483 111.938-23.733 111.188-21.983 110.688-21.483 109.688-19.983 108.688-18.483 108.688-15.483 109.938-14.233 111.188-12.983 112.438-13.483 112.688-11.983" stroke="#000000" stroke-width="0.3" fill="none"/><path d="M89.938-22.733C89.938-23.983 89.438-25.233 90.188-27.233 90.938-29.233 92.938-30.233 93.188-28.733 93.438-27.233 91.688-23.983 93.188-23.733 94.688-23.483 95.688-23.233 96.438-24.733 97.188-26.233 95.188-27.983 96.438-28.983 97.688-29.983 102.688-31.733 104.188-31.233 105.688-30.733 106.938-31.483 107.938-31.733" stroke="#000000" stroke-width="0.3" fill="none"/><path d="M109.688-31.733C110.688-31.983 111.938-30.233 112.188-28.733 112.438-27.233 114.438-25.983 114.688-24.983 114.938-23.983 112.438-19.983 111.938-18.733 111.438-17.483 111.688-15.983 112.938-14.733 114.188-13.483 114.438-10.983 115.688-11.733 116.938-12.483 118.438-13.983 119.188-14.483" stroke="#000000" stroke-width="0.3" fill="none"/><path d="M105.688-12.233C106.438-12.733 106.438-13.233 106.188-15.233 105.938-17.233 106.938-21.983 106.188-22.983 105.438-23.983 104.688-25.983 106.188-25.483 107.012-25.209 108.702-25.569 108.938-24.108 109.13-22.911 107.938-19.909 107.938-19.233 107.938-17.733 107.563-13.632 107.563-12.358" stroke="#000000" stroke-width="0.3" fill="none"/><path d="M47.938-81.983C50.188-82.483 54.938-81.983 53.938-80.233 52.938-78.483 57.938-73.233 58.438-74.733 58.938-76.233 56.438-79.233 59.188-79.483 61.938-79.733 64.938-76.483 66.688-76.233 68.438-75.983 72.188-77.733 69.938-79.233 67.688-80.733 67.188-83.733 64.438-83.483 61.688-83.233 57.438-83.733 58.438-86.483" stroke="#000000" stroke-width="0.3" fill="none"/><path d="M75.438-86.483C76.688-85.983 79.688-83.483 78.688-81.733 77.688-79.983 78.188-78.483 79.688-78.233 81.188-77.983 85.938-80.233 85.438-81.483 84.938-82.733 83.688-84.733 85.438-85.983" stroke="#000000" stroke-width="0.3" fill="none"/><path d="M97.438-88.733C99.188-87.733 99.188-86.733 97.938-85.483 96.688-84.233 91.438-84.233 92.188-82.983 92.938-81.733 97.188-78.983 99.938-78.983 102.688-78.983 102.938-82.483 104.688-82.983" stroke="#000000" stroke-width="0.3" fill="none"/><path d="M105.688-84.233C106.438-84.733 106.438-85.233 106.188-87.233" stroke="#000000" stroke-width="0.3" fill="none"/><path d="M107.938-91.233C107.938-89.733 107.563-85.632 107.563-84.358 107.563-82.983 108.063-82.483 108.063-82.483" stroke="#000000" stroke-width="0.3" fill="none"/><path d="M50.188-40.733C51.938-39.733 52.188-38.733 54.188-39.483 56.188-40.233 56.688-40.483 56.688-40.483 58.688-39.483 60.188-38.983 59.938-39.983 59.08-43.414 54.165-42.997 54.938-44.233 56.188-46.233 60.188-46.483 61.688-48.483 63.188-50.483 61.188-52.233 63.438-53.233 65.688-54.233 68.938-52.233 69.688-50.983 70.438-49.733 74.188-48.733 77.188-49.483 80.188-50.233 84.438-51.483 83.938-48.983 83.438-46.483 82.688-43.233 84.188-44.483 85.688-45.733 89.438-52.983 91.688-52.733 93.938-52.483 94.938-52.733 97.938-52.983 100.938-53.233 107.438-52.483 107.188-54.983 106.938-57.483 102.438-63.233 106.188-63.233 107.892-63.233 109.803-62.665 111.428-61.716" stroke="#000000" stroke-width="0.3" fill="none"/><path d="M114.099-59.437C114.673-58.687 115.064-57.859 115.189-56.984 115.689-53.484 115.439-51.234 117.439-49.984" stroke="#000000" stroke-width="0.3" fill="none"/><path d="M122.188-40.733C123.938-39.733 124.188-38.733 126.188-39.483" stroke="#000000" stroke-width="0.3" fill="none"/><path d="M118.688-49.233C119.688-48.233 120.688-46.233 120.688-45.233 120.688-44.233 120.188-42.983 120.938-41.983" stroke="#000000" stroke-width="0.3" fill="none"/><path d="M48.938-84.483C50.688-83.983 54.438-84.233 54.938-82.733 55.438-81.233 57.688-79.983 57.688-81.233 57.688-82.483 55.938-83.983 55.938-83.983 55.938-83.983 51.938-87.483 53.938-87.983" stroke="#000000" stroke-width="0.3" fill="none"/><path d="M77.688-87.233C79.438-86.733 81.438-86.233 81.188-84.483 80.938-82.733 81.438-80.483 81.938-81.733 82.438-82.983 81.938-85.733 83.438-86.733" stroke="#000000" stroke-width="0.3" fill="none"/><path d="M100.438-91.983C101.688-89.733 101.938-85.733 100.188-84.483 98.438-83.233 97.188-81.483 98.688-81.733 100.188-81.983 102.688-82.483 103.438-84.733 104.188-86.983 105.688-93.483 104.188-94.233" stroke="#000000" stroke-width="0.3" fill="none"/><path d="M109.688-91.983C108.688-90.483 108.688-87.483 109.938-86.233 111.188-84.983 112.438-85.483 112.688-83.983 112.938-82.483 114.188-80.733 115.188-80.733 116.188-80.733 117.688-82.733 118.438-83.483 119.438-84.483 120.938-84.483 120.938-84.483 122.688-83.983 126.438-84.233 126.938-82.733" stroke="#000000" stroke-width="0.3" fill="none"/><path d="M49.188-49.483C50.438-48.983 52.438-47.233 53.188-48.233 53.938-49.233 45.188-51.233 52.688-52.983 60.188-54.733 58.938-53.983 59.938-56.483 60.938-58.983 53.438-59.733 55.438-60.983 57.438-62.233 64.769-63.942 67.188-62.733 70.188-61.233 68.688-58.983 68.938-58.233 69.188-57.483 67.938-53.483 71.438-52.233 74.938-50.983 76.438-49.733 79.438-51.483 82.438-53.233 86.438-54.733 86.438-53.483 86.438-52.233 86.188-51.483 88.938-53.233 91.688-54.983 96.188-56.483 98.688-56.233 101.188-55.983 103.688-56.733 102.688-58.483 101.688-60.233 98.938-61.233 97.688-63.233 96.438-65.233 98.438-66.483 100.938-66.733 103.438-66.983 112.938-65.983 114.688-64.483 116.438-62.983 116.938-58.983 116.938-56.483 116.938-53.983 115.938-53.233 118.688-51.233" stroke="#000000" stroke-width="0.3" fill="none"/><path d="M121.188-49.483C122.438-48.983 124.438-47.233 125.188-48.233 125.938-49.233 117.188-51.233 124.688-52.983" stroke="#000000" stroke-width="0.3" fill="none"/><path d="M49.438-55.483C51.688-54.983 53.688-55.483 54.688-55.983 55.688-56.483 52.188-58.983 49.938-59.733" stroke="#000000" stroke-width="0.3" fill="none"/><path d="M49.938-64.733C53.688-65.233 57.188-66.233 59.688-65.733 62.188-65.233 67.438-66.233 69.438-62.733" stroke="#000000" stroke-width="0.3" fill="none"/><path d="M121.438-55.483C123.688-54.983 125.688-55.483 126.688-55.983 127.688-56.483 124.188-58.983 121.938-59.733 119.688-60.483 118.188-64.233 121.938-64.733 125.688-65.233 129.188-66.233 131.688-65.733" stroke="#000000" stroke-width="0.3" fill="none"/><path d="M120.188-55.733C118.938-56.483 118.188-57.983 118.188-59.733 118.188-61.483 116.188-67.233 113.188-67.483 110.188-67.733 92.938-69.483 92.438-67.233 91.938-64.983 95.688-62.733 96.438-61.733 97.188-60.733 96.938-58.483 95.688-58.233 94.438-57.983 91.688-57.233 91.938-58.733 92.188-60.233 90.938-61.983 89.438-60.233 88.688-59.358 86.781-58.733 85.688-57.983" stroke="#000000" stroke-width="0.3" fill="none"/><path d="M83.938-56.733C82.188-54.983 79.188-53.733 77.188-53.733 75.188-53.733 70.938-54.233 71.188-56.483 71.438-58.733 71.438-59.733 70.938-60.733" stroke="#000000" stroke-width="0.3" fill="none"/><path d="M50.188-68.733C53.688-68.233 60.938-66.733 62.688-66.733 63.242-66.733 64.472-66.733 65.935-66.677" stroke="#000000" stroke-width="0.3" fill="none"/><path d="M69.925-66.378C71.925-66.129 73.673-65.705 74.189-64.983 75.439-63.233 73.939-60.233 73.439-58.733 72.939-57.233 72.439-55.983 73.939-55.983 75.439-55.983 80.689-55.733 79.939-57.233 79.189-58.733 76.689-59.483 77.439-60.983 78.189-62.483 84.439-63.483 85.689-63.233 86.939-62.983 89.439-61.983 90.439-62.983 91.439-63.983 89.689-64.483 90.189-66.483" stroke="#000000" stroke-width="0.3" fill="none"/><path d="M122.188-68.733C125.688-68.233 132.938-66.733 134.688-66.733" stroke="#000000" stroke-width="0.3" fill="none"/><path d="M91.188-67.983C93.188-68.983 94.438-70.233 98.938-69.983 103.438-69.733 116.438-68.733 116.938-67.733 117.438-66.733 118.938-65.983 119.438-67.233 119.938-68.483 120.688-68.733 120.688-68.733" stroke="#000000" stroke-width="0.3" fill="none"/><path d="M50.688-77.233C52.188-75.733 54.188-74.483 56.188-73.483 58.188-72.483 61.188-71.483 61.438-72.733 61.688-73.983 58.688-75.983 60.438-75.983 62.188-75.983 63.688-73.983 66.938-74.233 70.188-74.483 76.188-78.233 74.188-78.983 72.188-79.733 70.438-82.483 68.688-83.483 66.938-84.483 65.938-84.483 64.688-84.483 63.438-84.483 60.688-85.733 62.688-86.483" stroke="#000000" stroke-width="0.3" fill="none"/><path d="M73.938-85.983C74.938-83.983 76.188-82.733 76.438-80.983 76.688-79.233 75.938-76.233 78.438-76.233 79.072-76.233 79.754-76.282 80.452-76.389" stroke="#000000" stroke-width="0.3" fill="none"/><path d="M82.5-76.89C83.875-77.359 85.188-78.109 86.188-79.234 88.188-81.484 86.438-81.984 86.688-83.234 86.938-84.484 92.688-87.234 93.688-86.484 94.688-85.734 92.438-86.484 91.438-84.734 90.438-82.984 87.188-78.484 92.438-78.234 97.688-77.984 98.688-76.984 98.938-75.984 99.188-74.984 103.938-75.234 103.938-76.484 103.938-77.734 105.438-82.484 105.938-81.234 106.438-79.984 107.938-77.734 110.938-76.234" stroke="#000000" stroke-width="0.3" fill="none"/><path d="M122.688-77.233C124.188-75.733 126.188-74.483 128.188-73.483" stroke="#000000" stroke-width="0.3" fill="none"/><path d="M119.938-81.983C122.188-82.483 126.938-81.983 125.938-80.233" stroke="#000000" stroke-width="0.3" fill="none"/><path d="M109.688-81.483C110.438-80.483 112.938-79.233 113.688-78.233 114.438-77.233 115.938-75.733 116.688-77.483 117.438-79.233 116.438-80.983 118.188-81.483" stroke="#000000" stroke-width="0.3" fill="none"/><path d="M121.938-77.983C120.438-79.483 118.688-80.233 118.688-79.233 118.688-78.233 121.438-77.483 120.438-75.983 119.438-74.483 115.438-73.483 113.938-74.233 112.438-74.983 112.188-75.483 112.188-75.483" stroke="#000000" stroke-width="0.3" fill="none"/><path d="M50.188-71.233C51.938-70.733 60.438-68.483 64.438-68.733 68.438-68.983 75.188-69.233 76.188-68.483 77.188-67.733 76.438-66.483 76.688-65.233 76.938-63.983 77.688-62.983 78.938-64.233 80.188-65.483 82.688-66.233 83.938-65.733 85.188-65.233 87.438-64.483 87.188-65.733 86.938-66.983 84.438-68.983 85.688-71.233 86.938-73.483 92.688-77.733 92.188-75.483 91.688-73.233 90.938-70.233 92.688-70.983 94.438-71.733 97.688-72.983 100.688-72.483" stroke="#000000" stroke-width="0.3" fill="none"/><path d="M122.188-71.233C123.938-70.733 132.438-68.483 136.438-68.733" stroke="#000000" stroke-width="0.3" fill="none"/><path d="M120.438-71.483C118.938-71.983 116.828-71.68 117.188-70.483 117.938-67.983 113.938-70.733 111.188-71.233 108.438-71.733 105.188-71.983 104.188-71.983" stroke="#000000" stroke-width="0.3" fill="none"/><path d="M50.438-73.983C53.438-72.483 59.938-69.983 66.438-70.233 72.938-70.483 72.688-71.983 71.188-71.983 69.688-71.983 71.438-74.483 73.438-74.483 75.438-74.483 77.938-72.983 78.188-71.233 78.438-69.483 79.188-68.233 80.438-68.483 81.688-68.733 81.438-69.483 83.188-72.483 84.938-75.483 85.688-75.483 87.188-77.233 88.688-78.983 88.688-77.233 89.438-76.983 90.188-76.733 95.688-77.733 95.688-76.483 95.688-75.233 91.938-73.483 93.688-73.483 95.438-73.483 103.438-74.983 105.188-74.233" stroke="#000000" stroke-width="0.3" fill="none"/><path d="M122.438-73.983C125.438-72.483 131.938-69.983 138.438-70.233" stroke="#000000" stroke-width="0.3" fill="none"/><path d="M121.938-74.233C119.938-75.108 117.688-71.983 114.938-72.483 112.188-72.983 110.188-73.483 108.688-73.733 107.188-73.983 106.438-73.983 106.438-73.983" stroke="#000000" stroke-width="0.3" fill="none"/><path d="M64.688-12.483C63.438-12.483 60.688-13.733 62.688-14.483 65.438-16.483 72.188-16.733 73.938-13.983 74.938-11.983 76.188-10.733 76.438-8.983" stroke="#000000" stroke-width="0.3" fill="none"/><path d="M86.688-11.233C86.938-12.483 92.688-15.233 93.688-14.483 94.688-13.733 92.438-14.483 91.438-12.733" stroke="#000000" stroke-width="0.3" fill="none"/><path d="M112.938-86.733C114.188-85.483 114.438-82.983 115.688-83.733 116.938-84.483 118.438-85.983 119.188-86.483" stroke="#000000" stroke-width="0.3" fill="none"/></g><g><path d="M56.938-25.233C52.47-23.754 50.301-19.173 46.438-16.733 44.922-15.775 43.814-15.619 42.504-15.976 41.271-16.314 42.106-18.048 41.957-19.235 41.774-20.704 43.527-20.111 44.132-21.117 44.735-22.123 44.938-22.608 44.688-23.858" stroke="#000000" stroke-width="0.3" fill="none"/><path d="M49.063-23.108C50.571-23.85 52.193-24.335 53.563-25.358" stroke="#000000" stroke-width="0.3" fill="none"/><path d="M25.438-37.483C26.938-37.733 31.688-38.483 32.938-39.733 34.188-40.983 31.188-44.733 32.688-45.233 34.188-45.733 38.188-44.983 39.688-43.733 41.188-42.483 42.438-38.733 42.938-36.483 43.438-34.233 46.688-31.733 47.188-29.983 47.688-28.233 47.188-25.483 47.688-24.983 48.188-24.483 48.688-26.483 49.438-26.733 51.115-27.293 53.188-29.233 54.688-30.733" stroke="#000000" stroke-width="0.3" fill="none"/><path d="M54.688-33.483C53.188-31.983 51.188-32.983 47.188-33.983 47.188-33.983 44.938-34.983 44.688-40.483 44.438-45.983 40.938-47.233 38.438-47.983 35.938-48.733 25.688-49.983 24.938-48.483 24.188-46.983 28.688-44.983 29.438-43.483 30.188-41.983 29.188-39.733 27.438-39.983 25.688-40.233 25.688-42.733 24.188-43.483 22.688-44.233 18.688-44.483 18.438-42.233 18.188-39.983 14.188-39.983 14.188-39.983 11.688-40.483 11.188-35.983 9.188-35.983 7.188-35.983 6.688-40.483 4.688-42.483 3.688-43.483 1.938-43.733 2.66454e-15-43.733" stroke="#000000" stroke-width="0.3" fill="none"/><path d="M48.438-37.233C49.938-36.483 51.688-34.983 53.688-35.983" stroke="#000000" stroke-width="0.3" fill="none"/><path d="M48.938-16.233C49.938-17.483 51.688-19.233 53.438-20.983" stroke="#000000" stroke-width="0.3" fill="none"/><path d="M50.188-40.733C51.938-39.733 52.188-38.733 54.188-39.483" stroke="#000000" stroke-width="0.3" fill="none"/><path d="M37.688-91.983C36.688-90.483 36.688-87.483 37.938-86.233 39.188-84.983 40.438-85.483 40.688-83.983 40.938-82.483 42.188-80.733 43.188-80.733 44.188-80.733 45.688-82.733 46.438-83.483 47.438-84.483 48.938-84.483 48.938-84.483 50.688-83.983 54.438-84.233 54.938-82.733" stroke="#000000" stroke-width="0.3" fill="none"/><path d="M49.188-49.483C50.438-48.983 52.438-47.233 53.188-48.233 53.938-49.233 45.188-51.233 52.688-52.983" stroke="#000000" stroke-width="0.3" fill="none"/><path d="M49.438-55.483C51.688-54.983 53.688-55.483 54.688-55.983 55.688-56.483 52.188-58.983 49.938-59.733 47.688-60.483 46.188-64.233 49.938-64.733 53.688-65.233 57.188-66.233 59.688-65.733" stroke="#000000" stroke-width="0.3" fill="none"/><path d="M50.188-68.733C53.688-68.233 60.938-66.733 62.688-66.733" stroke="#000000" stroke-width="0.3" fill="none"/><path d="M50.688-77.233C52.188-75.733 54.188-74.483 56.188-73.483" stroke="#000000" stroke-width="0.3" fill="none"/><path d="M47.938-81.983C50.188-82.483 54.938-81.983 53.938-80.233" stroke="#000000" stroke-width="0.3" fill="none"/><path d="M50.188-71.233C51.938-70.733 60.438-68.483 64.438-68.733" stroke="#000000" stroke-width="0.3" fill="none"/><path d="M50.438-73.983C53.438-72.483 59.938-69.983 66.438-70.233" stroke="#000000" stroke-width="0.3" fill="none"/></g><g><path d="M64.438-83.483C61.688-83.233 57.438-83.733 58.438-86.483 59.438-89.233 65.938-90.983 66.688-92.483 67.438-93.983 69.438-94.233 70.438-92.233 71.438-90.233 74.188-86.983 75.438-86.483 76.688-85.983 79.688-83.483 78.688-81.733" stroke="#000000" stroke-width="0.3" fill="none"/><path d="M85.438-81.483C84.938-82.733 83.688-84.733 85.438-85.983 87.188-87.233 95.688-89.733 97.438-88.733 99.188-87.733 99.188-86.733 97.938-85.483 96.688-84.233 91.438-84.233 92.188-82.983" stroke="#000000" stroke-width="0.3" fill="none"/><path d="M55.938-83.983C55.938-83.983 51.938-87.483 53.938-87.983 55.938-88.483 57.938-87.983 59.938-89.233 61.938-90.483 65.188-92.483 65.938-93.983 66.688-95.483 67.688-96.483 68.438-95.483 69.188-94.483 70.438-93.483 72.188-92.983 73.938-92.483 75.188-93.983 75.938-92.233 76.688-90.483 75.938-87.733 77.688-87.233 79.438-86.733 81.438-86.233 81.188-84.483" stroke="#000000" stroke-width="0.3" fill="none"/><path d="M81.938-81.733C82.438-82.983 81.938-85.733 83.438-86.733 84.938-87.733 89.688-89.483 90.438-90.733 91.129-91.885 94.369-92.612 96.439-92.719" stroke="#000000" stroke-width="0.3" fill="none"/><path d="M98.188-92.733C98.418-92.557 100.125-92.545 100.438-91.983 101.688-89.733 101.938-85.733 100.188-84.483" stroke="#000000" stroke-width="0.3" fill="none"/><path d="M103.438-84.733C104.188-86.983 105.688-93.483 104.188-94.233 102.688-94.983 99.438-95.733 101.438-97.733 103.438-99.733 107.188-101.483 108.188-100.983 109.188-100.483 112.688-97.483 111.938-95.733 111.188-93.983 110.688-93.483 109.688-91.983 108.688-90.483 108.688-87.483 109.938-86.233 111.188-84.983 112.438-85.483 112.688-83.983" stroke="#000000" stroke-width="0.3" fill="none"/><path d="M109.688-103.733C110.688-103.983 111.938-102.233 112.188-100.733 112.438-99.233 114.438-97.983 114.688-96.983 114.938-95.983 112.438-91.983 111.938-90.733 111.438-89.483 111.688-87.983 112.938-86.733 114.188-85.483 114.438-82.983 115.688-83.733 116.938-84.483 118.438-85.983 119.188-86.483" stroke="#000000" stroke-width="0.3" fill="none"/><path d="M105.688-84.233C106.438-84.733 106.438-85.233 106.188-87.233 105.938-89.233 106.938-93.983 106.188-94.983 105.438-95.983 104.688-97.983 106.188-97.483 107.012-97.209 108.702-97.569 108.938-96.108 109.13-94.911 107.938-91.909 107.938-91.233 107.938-89.733 107.563-85.632 107.563-84.358" stroke="#000000" stroke-width="0.3" fill="none"/><path d="M64.688-84.483C63.438-84.483 60.688-85.733 62.688-86.483 65.438-88.483 72.188-88.733 73.938-85.983 74.938-83.983 76.188-82.733 76.438-80.983" stroke="#000000" stroke-width="0.3" fill="none"/><path d="M86.688-83.233C86.938-84.483 92.688-87.233 93.688-86.483 94.688-85.733 92.438-86.483 91.438-84.733" stroke="#000000" stroke-width="0.3" fill="none"/></g></g></pattern><path d="M137.382 78.753C109.921 62.436 132.876 38.694 138.935 34.091 137.179 41.185 127.474 72.465 137.155 77.62L137.382 78.753Z" stroke="#262262" stroke-width="0.7" stroke-miterlimit="10" fill="#4899C3" fill-rule="evenodd" clip-rule="evenodd"/><rect x="45.681" y="216.275" width="87.796" height="6.342" stroke="#3C2415" stroke-miterlimit="10" fill="#E8E5D1" fill-rule="evenodd" clip-rule="evenodd"/><rect x="96.282" y="211.719" width="27.416" height="7.727" stroke="#3C2415" stroke-width="0.7" stroke-miterlimit="10" fill="#5C7782" fill-rule="evenodd" clip-rule="evenodd"/><path d="" stroke="#262262" stroke-width="1.5" stroke-miterlimit="10" fill="#FFFFFF" fill-rule="evenodd" clip-rule="evenodd"/><path d="M89.79 219.094C89.79 219.094 63.428 219.052 51.597 219.018L45.824 222.382 45.824 221.166 45.527 216.561C43.372 198.248 39.506 82.58 41.722 77.815 51.403 72.639 41.698 41.235 39.941 34.112 39.941 34.112 53.784 23.907 61.283 19.195 67.002 23.171 101.522 28.886 117.596 19.195 125.094 23.907 138.938 34.112 138.938 34.112 137.18 41.236 127.475 72.639 137.156 77.815 139.563 82.991 134.798 218.959 132.837 218.994 132.235 219.004 127.667 221.867 122.126 219.032 119.15 212.533 101.886 218.503 99.552 219.077 93.688 220.516 89.087 219.094 89.087 219.094" stroke="#3C2415" stroke-miterlimit="10" fill="#5C7782" fill-rule="evenodd" clip-rule="evenodd"/><path d="" stroke="#262262" stroke-width="1.5" stroke-miterlimit="10" fill="#FFFFFF" fill-rule="evenodd" clip-rule="evenodd"/><path d="M20.192 174.012C19.735 150.052 19.223 126.095 18.823 102.136 18.682 93.682 18.802 85.223 18.802 76.346 28.281 83.575 37.073 81.83 45.507 74.163 45.124 107.119 44.875 139.983 46.153 172.83" stroke="#3C2415" stroke-miterlimit="10" fill="#5C7782" fill-rule="evenodd" clip-rule="evenodd"/><path d="M47.932 176.462C48.484 163.052 49.296 149.643 50.458 136.233 46.812 136.233 43.379 136.196 39.949 136.242 34.048 136.321 28.148 136.497 22.246 136.529 20.633 136.537 20.163 137.058 20.142 138.503 19.959 150.749 19.722 162.994 19.478 175.238L47.932 176.462Z" stroke="#3C2415" stroke-miterlimit="10" fill="#5C7782" fill-rule="evenodd" clip-rule="evenodd"/><rect x="130.574" y="216.041" width="27.716" height="6.342" stroke="#3C2415" stroke-miterlimit="10" fill="#E8E5D1" fill-rule="evenodd" clip-rule="evenodd"/><path d="M49.054 135.809C48.56 138.609 46.343 173.334 46.576 176.038" stroke="#3C2415" stroke-width="0.5" stroke-miterlimit="10" stroke-dasharray="1 1" fill="none" fill-rule="evenodd" clip-rule="evenodd"/><path d="M160.231 77.987C150.751 85.433 141.96 83.635 133.526 75.739 134.057 123.044 134.333 170.168 130.574 217.313 133.901 217.313 137.034 217.35 140.163 217.304 145.548 217.226 150.931 217.051 156.314 217.018 157.786 217.01 158.215 216.494 158.235 215.057 158.399 202.894 158.616 190.731 158.84 178.568 159.296 153.894 159.808 129.222 160.207 104.546 160.351 95.839 160.231 87.129 160.231 77.987Z" stroke="#3C2415" stroke-miterlimit="10" fill="#5C7782" fill-rule="evenodd" clip-rule="evenodd"/><path d="M133.323 176.462C134.198 179.383 131.049 222.149 131.049 222.149" stroke="#3C2415" stroke-width="0.5" stroke-miterlimit="10" stroke-dasharray="1 1" fill="none" fill-rule="evenodd" clip-rule="evenodd"/><line x1="48.153" y1="176.462" x2="51.597" y2="219.019" stroke="#3C2415" stroke-miterlimit="10" fill="#FFFFFF" fill-rule="evenodd" clip-rule="evenodd"/><path d="M89.085 222.617 89.085 219.094 89.085 24.512" stroke="#3C2415" stroke-miterlimit="10" fill="#FFFFFF" fill-rule="evenodd" clip-rule="evenodd"/><path d="" stroke="#262262" stroke-width="1.5" stroke-miterlimit="10" fill="#FFFFFF" fill-rule="evenodd" clip-rule="evenodd"/><g><path d="M146.179 208.211C146.239 208.36 146.282 208.474 146.271 208.448 142.665 210.78 139.056 213.013 135.565 215.415 134.06 216.451 132.765 217.802 131.432 219.072 130.839 219.635 130.214 220.036 129.43 220.249 128.773 220.424 128.14 220.686 127.487 220.88 126.915 221.053 126.341 221.266 125.753 221.324 124.065 221.494 122.424 221.764 121.032 222.844 120.89 222.957 120.709 223.017 120.539 223.104 120.417 222.918 120.293 222.768 120.211 222.596 120.021 222.195 119.994 221.865 120.298 221.42 121.089 220.264 122.376 220.052 123.457 219.547 119.352 218.026 114.914 217.934 110.529 216.97 110.677 216.815 110.733 216.758 110.779 216.709 109.994 216.651 109.902 216.581 109.687 215.826 110.156 215.644 110.609 215.452 111.006 215.867 110.993 215.809 110.956 215.647 110.909 215.448 113.776 215.584 116.608 215.719 119.441 215.852 119.476 215.789 119.511 215.727 119.545 215.664 118.922 215.211 118.335 214.688 117.664 214.322 116.756 213.829 115.793 213.432 114.835 213.038 114.125 212.744 113.762 212.231 113.615 211.426 114.023 211.331 114.459 211.087 114.82 211.17 116.541 211.563 118.24 212.045 120.022 212.515 119.556 212.285 119.14 212.052 118.707 211.864 117.932 211.527 117.148 211.207 116.359 210.902 116.164 210.828 115.828 210.744 115.73 210.84 115.283 211.289 115.123 210.848 114.959 210.607 114.753 210.3 115.001 209.924 115.168 209.704 115.776 208.893 116.503 209.422 117.201 209.395 118.513 209.346 119.538 210.18 120.756 210.375 120.957 210.407 121.152 210.477 121.525 210.572 121.34 210.135 121.287 209.735 121.058 209.527 120.3 208.837 119.478 208.218 118.679 207.572 118.521 207.445 118.295 207.356 118.202 207.191 118.073 206.965 118.039 206.682 117.966 206.425 118.206 206.409 118.449 206.398 118.692 206.383 120.397 206.274 121.468 207.575 122.834 208.229 123.627 208.607 124.449 209 125.301 209.167 126.572 209.418 127.881 209.52 129.179 209.603 129.94 209.65 130.641 209.35 131.235 208.846 133.903 206.577 136.571 204.308 139.239 202.043 139.772 201.589 140.313 201.147 140.906 200.652 141.518 201.653 142.098 202.599 142.678 203.543 143.666 205.148 144.653 206.756 145.649 208.356 145.723 208.475 145.877 208.546 145.995 208.641 146.05 208.515 146.104 208.386 146.179 208.211Z" stroke="#392726" stroke-width="0.5" stroke-miterlimit="10" fill="#BBA795"/></g><g><pattern xlink:href="#Mezzotint_Irregular" id="SVGID_6_" overflow="hidden" patternTransform="translate(-33.0098 53.4482)"></pattern><path d="M136.871 78.696C109.41 62.379 132.365 38.637 138.424 34.034 136.668 41.128 126.963 72.408 136.644 77.563L136.871 78.696Z" stroke="#3C2415" stroke-miterlimit="10" fill="#A3BFD9" fill-rule="evenodd" clip-rule="evenodd"/><path d="M136.871 78.696C109.41 62.379 132.365 38.637 138.424 34.034 136.668 41.128 126.963 72.408 136.644 77.563L136.871 78.696Z" stroke="#3C2415" stroke-width="0.7" stroke-miterlimit="10" fill="url(#SVGID_6_)" fill-rule="evenodd" clip-rule="evenodd"/></g><path d="M89.001 24.512C87.776 27.277 86.25 30.211 86.78 44.876 87.309 59.541 87.249 47.692 89.001 77.482L89.001 80.749" stroke="#3C2415" stroke-miterlimit="10" fill="#5C7782" fill-rule="evenodd" clip-rule="evenodd"/><g><path d="M124.964 31.259C124.976 31.419 124.985 31.541 124.983 31.512 120.851 32.689 116.748 33.769 112.708 35.046 110.965 35.596 109.333 36.511 107.687 37.334 106.955 37.7 106.24 37.9 105.429 37.875 104.748 37.851 104.066 37.916 103.384 37.912 102.786 37.91 102.175 37.945 101.596 37.829 99.931 37.497 98.283 37.277 96.638 37.903 96.468 37.968 96.278 37.973 96.089 38.007 96.026 37.793 95.951 37.613 95.924 37.425 95.861 36.986 95.931 36.663 96.353 36.326 97.447 35.451 98.74 35.625 99.921 35.459 96.439 32.805 92.222 31.419 88.31 29.217 88.497 29.111 88.566 29.072 88.624 29.039 87.891 28.754 87.823 28.66 87.839 27.876 88.339 27.838 88.828 27.787 89.089 28.3 89.094 28.239 89.105 28.075 89.118 27.869 91.821 28.838 94.491 29.794 97.16 30.751 97.212 30.701 97.264 30.651 97.315 30.601 96.85 29.987 96.442 29.315 95.907 28.768 95.184 28.032 94.379 27.37 93.578 26.714 92.985 26.225 92.788 25.629 92.884 24.815 93.302 24.844 93.789 24.737 94.111 24.923 95.64 25.802 97.126 26.759 98.693 27.731 98.314 27.373 97.985 27.029 97.626 26.723 96.982 26.175 96.328 25.64 95.662 25.119 95.496 24.989 95.199 24.811 95.078 24.876 94.519 25.173 94.495 24.705 94.408 24.426 94.301 24.072 94.649 23.786 94.873 23.625 95.691 23.028 96.231 23.746 96.907 23.921 98.176 24.258 98.914 25.357 100.021 25.9 100.204 25.989 100.371 26.112 100.697 26.314 100.648 25.842 100.715 25.443 100.556 25.177 100.033 24.296 99.429 23.464 98.853 22.614 98.738 22.445 98.549 22.296 98.507 22.11 98.45 21.857 98.501 21.575 98.506 21.307 98.74 21.363 98.976 21.423 99.212 21.481 100.874 21.876 101.519 23.432 102.633 24.456 103.28 25.051 103.952 25.665 104.718 26.075 105.862 26.687 107.081 27.166 108.298 27.626 109.013 27.893 109.771 27.812 110.486 27.502 113.701 26.112 116.916 24.722 120.13 23.335 120.773 23.058 121.42 22.792 122.13 22.493 122.424 23.63 122.701 24.703 122.981 25.776 123.457 27.6 123.93 29.425 124.415 31.247 124.452 31.383 124.579 31.496 124.663 31.62 124.751 31.512 124.841 31.404 124.964 31.259Z" stroke="#392726" stroke-width="0.5" stroke-miterlimit="10" fill="#BBA795"/></g><g><g><g><circle cx="75.873" cy="29.573" r="4.243" stroke="#7C702D" stroke-width="0.3" stroke-dasharray="1.0235 1.0235" fill="none"/></g><circle cx="75.882" cy="29.571" r="2.799" stroke="#7C702D" stroke-width="0.3" fill="#B7C98F"/><g><path d="M76.657 24.731C76.763 25.111 76.871 25.127 77.136 25.667 77.563 26.454 79.086 25.939 79.108 25.201L79.112 24.872C79.455 25.068 80.641 24.557 80.445 23.58 81.106 23.685 81.491 23.113 81.307 22.487 81.153 21.941 81.086 21.624 81.231 20.664 81.41 19.471 81.733 18.094 80.868 16.718 80.792 16.598 80.864 16.453 80.94 16.414 81.09 16.338 81.549 16.377 81.544 15.991L81.498 14.568C81.48 14.058 80.721 13.671 78.35 13.758 75.885 13.841 74.92 13.901 74.944 14.924 74.968 15.924 74.987 16.204 74.987 16.204 75.005 16.52 75.219 16.566 75.36 16.612 75.44 16.638 75.479 16.756 75.446 16.84 75.393 16.971 74.885 18.256 74.805 19.355 74.731 20.368 74.438 20.775 74.565 21.455 74.713 22.26 74.714 24.879 74.729 25.662 74.744 26.43 75.03 27.648 75.046 29.284 75.061 30.839 76.863 30.787 76.736 29.39 76.636 28.287 76.767 28.244 76.709 27.864 76.605 27.197 76.658 26.456 76.681 25.933 76.688 25.692 76.609 25.434 76.657 24.731" stroke="#EB4024" stroke-width="0.5" stroke-miterlimit="10" fill="#FCD4CD"/><path d="M78.164 15.804C79.146 15.744 80.855 15.878 81.012 15.929 81.161 15.981 81.248 15.869 81.221 15.65 81.205 15.5 81.182 14.732 81.182 14.732 81.174 14.391 80.815 13.995 78.19 14.081 75.477 14.185 75.133 14.306 75.161 15.108L75.222 16.102C75.234 16.163 75.271 16.204 75.334 16.232 75.487 16.304 75.682 15.953 78.164 15.804Z" stroke="#EB4024" stroke-width="0.5" fill="#FCD4CD"/></g><line x1="77.921" y1="5.962" x2="77.791" y2="14.769" stroke="#F26522" stroke-width="0.7" stroke-miterlimit="10" stroke-dasharray="1 1" fill="none"/></g><g><rect x="76.297" y="5.712" width="3.25" height="0.5" fill="#F26522"/></g></g><g><g><g><path d="M59.625 33.211C61.277 31.553 61.279 28.868 59.621 27.213 57.963 25.558 55.276 25.558 53.623 27.213 51.966 28.87 51.973 31.56 53.627 33.215 55.284 34.87 57.969 34.867 59.625 33.211Z" stroke="#7C702D" stroke-width="0.3" stroke-dasharray="1.0235 1.0235" fill="none"/></g><circle cx="56.629" cy="30.204" r="2.799" stroke="#7C702D" stroke-width="0.3" fill="#B7C98F"/><g><path d="M53.755 26.234C54.1 26.428 54.186 26.362 54.754 26.557 55.613 26.812 56.326 25.37 55.819 24.833L55.59 24.598C55.971 24.495 56.448 23.293 55.619 22.743 56.16 22.349 56.027 21.672 55.455 21.36 54.961 21.083 54.689 20.906 54.113 20.124 53.396 19.154 52.65 17.952 51.065 17.59 50.926 17.56 50.875 17.406 50.902 17.325 50.955 17.165 51.306 16.868 51.03 16.597L49.99 15.623C49.618 15.275 48.808 15.539 47.193 17.277 45.508 19.079 44.869 19.803 45.607 20.51 46.333 21.2 46.543 21.385 46.543 21.385 46.779 21.596 46.965 21.476 47.096 21.409 47.171 21.371 47.283 21.428 47.318 21.509 47.374 21.639 47.922 22.906 48.643 23.74 49.307 24.509 49.389 25.004 49.957 25.395 50.632 25.859 52.484 27.71 53.048 28.252 53.602 28.786 54.666 29.445 55.834 30.589 56.943 31.678 58.182 30.367 57.104 29.468 56.254 28.76 56.317 28.637 56.006 28.409 55.461 28.011 54.974 27.451 54.62 27.064 54.455 26.893 54.217 26.766 53.755 26.234" stroke="#EB4024" stroke-width="0.5" stroke-miterlimit="10" fill="#FCD4CD"/><path d="M48.508 18.856C49.16 18.119 50.463 17.005 50.61 16.931 50.753 16.862 50.734 16.72 50.561 16.585 50.444 16.491 49.883 15.963 49.883 15.963 49.637 15.727 49.104 15.702 47.307 17.618 45.463 19.611 45.305 19.939 45.891 20.486L46.637 21.146C46.689 21.181 46.742 21.184 46.809 21.16 46.968 21.102 46.857 20.717 48.508 18.856Z" stroke="#EB4024" stroke-width="0.5" fill="#FCD4CD"/></g><line x1="41.377" y1="12.068" x2="47.512" y2="18.389" stroke="#F26522" stroke-width="0.7" stroke-miterlimit="10" stroke-dasharray="1 1" fill="none"/></g><g><rect x="41.127" y="10.443" width="0.501" height="3.25" fill="#F26522" transform="matrix(-0.7071 -0.7071 0.7071 -0.7071 62.1021 49.8602)"/></g></g><g><g><g><path d="M53.993 52.692C53.989 55.033 52.092 56.933 49.749 56.93 47.407 56.927 45.507 55.029 45.508 52.69 45.508 50.346 47.414 48.449 49.755 48.447 52.097 48.45 53.993 50.351 53.993 52.692Z" stroke="#7C702D" stroke-width="0.3" stroke-dasharray="1.0235 1.0235" fill="none"/></g><circle cx="49.748" cy="52.7" r="2.799" stroke="#7C702D" stroke-width="0.3" fill="#B7C98F"/><g><path d="M44.909 53.475C45.29 53.582 45.304 53.689 45.844 53.953 46.632 54.381 46.116 55.904 45.378 55.926L45.05 55.93C45.245 56.272 44.735 57.46 43.759 57.263 43.863 57.924 43.29 58.308 42.665 58.125 42.118 57.971 41.802 57.904 40.842 58.049 39.65 58.228 38.273 58.55 36.896 57.686 36.777 57.609 36.63 57.681 36.593 57.757 36.517 57.908 36.556 58.368 36.169 58.362L34.745 58.316C34.235 58.299 33.849 57.54 33.936 55.169 34.02 52.703 34.079 51.738 35.1 51.762 36.102 51.786 36.38 51.804 36.38 51.804 36.697 51.822 36.743 52.037 36.789 52.178 36.814 52.258 36.934 52.297 37.016 52.263 37.147 52.21 38.432 51.702 39.532 51.622 40.545 51.549 40.953 51.256 41.632 51.381 42.437 51.53 45.056 51.53 45.837 51.546 46.607 51.561 47.825 51.848 49.46 51.864 51.015 51.878 50.964 53.681 49.565 53.554 48.463 53.454 48.42 53.586 48.04 53.527 47.373 53.423 46.632 53.476 46.108 53.498 45.869 53.504 45.61 53.427 44.909 53.475" stroke="#EB4024" stroke-width="0.5" stroke-miterlimit="10" fill="#FCD4CD"/><path d="M35.981 54.981C35.921 55.964 36.055 57.672 36.106 57.829 36.159 57.978 36.045 58.066 35.827 58.039 35.678 58.023 34.909 57.999 34.909 57.999 34.569 57.992 34.173 57.632 34.258 55.006 34.362 52.294 34.484 51.95 35.284 51.977L36.278 52.039C36.34 52.05 36.38 52.087 36.409 52.15 36.48 52.305 36.13 52.5 35.981 54.981Z" stroke="#EB4024" stroke-width="0.5" fill="#FCD4CD"/></g><line x1="26.14" y1="54.739" x2="34.946" y2="54.608" stroke="#F26522" stroke-width="0.7" stroke-miterlimit="10" stroke-dasharray="1 1" fill="none"/></g><g><rect x="25.889" y="53.114" width="0.502" height="3.251" fill="#F26522"/></g></g><g><g><g><path d="M33.604 99.473C33.481 101.809 31.489 103.61 29.15 103.488 26.811 103.365 25.009 101.371 25.13 99.035 25.25 96.694 27.251 94.896 29.588 95.015 31.927 95.139 33.725 97.133 33.604 99.473Z" stroke="#7C702D" stroke-width="0.3" stroke-dasharray="1.0235 1.0235" fill="none"/></g><circle cx="29.364" cy="99.263" r="2.8" stroke="#7C702D" stroke-width="0.3" fill="#B7C98F"/><g><path d="M24.491 99.789C24.867 99.914 24.875 100.022 25.401 100.313 26.166 100.78 25.573 102.275 24.835 102.258L24.507 102.245C24.684 102.599 24.113 103.756 23.15 103.511 23.219 104.176 22.629 104.531 22.013 104.315 21.476 104.135 21.162 104.051 20.198 104.146 18.997 104.265 17.605 104.517 16.274 103.582 16.159 103.501 16.009 103.564 15.968 103.639 15.884 103.786 15.9 104.246 15.513 104.222L14.095 104.102C13.586 104.06 13.239 103.28 13.449 100.917 13.658 98.459 13.765 97.499 14.785 97.574 15.784 97.648 16.061 97.682 16.061 97.682 16.376 97.715 16.412 97.934 16.451 98.077 16.472 98.157 16.589 98.202 16.673 98.172 16.806 98.127 18.116 97.685 19.218 97.661 20.233 97.639 20.656 97.369 21.327 97.529 22.123 97.718 24.739 97.854 25.518 97.907 26.286 97.96 27.489 98.309 29.12 98.41 30.672 98.503 30.529 100.302 29.139 100.103 28.044 99.946 27.995 100.076 27.618 99.997 26.956 99.859 26.214 99.874 25.69 99.87 25.448 99.869 25.195 99.776 24.491 99.789" stroke="#EB4024" stroke-width="0.5" stroke-miterlimit="10" fill="#FCD4CD"/><path d="M15.499 100.836C15.39 101.815 15.436 103.527 15.478 103.687 15.524 103.838 15.406 103.919 15.189 103.88 15.041 103.858 14.274 103.796 14.274 103.796 13.935 103.771 13.558 103.39 13.777 100.773 14.02 98.069 14.158 97.733 14.956 97.801L15.946 97.913C16.008 97.928 16.046 97.966 16.072 98.032 16.135 98.191 15.773 98.364 15.499 100.836Z" stroke="#EB4024" stroke-width="0.5" fill="#FCD4CD"/></g><line x1="5.683" y1="100.092" x2="14.484" y2="100.411" stroke="#F26522" stroke-width="0.7" stroke-miterlimit="10" stroke-dasharray="1 1" fill="none"/></g><g><rect x="5.431" y="98.466" width="0.502" height="3.251" fill="#F26522" transform="matrix(-0.9987 -0.0516 0.0516 -0.9987 6.1931 200.344)"/></g></g><g><line x1="53.24" y1="121.063" x2="47.357" y2="121.063" stroke="#F26522" stroke-width="0.7" stroke-miterlimit="10" stroke-dasharray="1 1" fill="none"/><g><rect x="52.838" y="118.431" width="0.809" height="5.262" fill="#F26522"/></g><g><path d="M45.986 119.541C45.142 119.541 44.461 120.223 44.461 121.063 44.461 121.902 45.143 122.584 45.986 122.584 46.826 122.584 47.506 121.902 47.506 121.063 47.506 120.223 46.826 119.541 45.986 119.541Z" fill="#F26522"/></g></g><g><line x1="54.062" y1="157.841" x2="48.179" y2="157.841" stroke="#F26522" stroke-width="0.7" stroke-miterlimit="10" stroke-dasharray="1 1" fill="none"/><g><rect x="53.659" y="155.208" width="0.809" height="5.262" fill="#F26522"/></g><g><path d="M46.808 156.318C45.964 156.318 45.283 157 45.283 157.841 45.283 158.679 45.965 159.362 46.808 159.362 47.648 159.362 48.328 158.679 48.328 157.841 48.327 157 47.647 156.318 46.808 156.318Z" fill="#F26522"/></g></g><g><line x1="39.049" y1="180.486" x2="44.212" y2="177.668" stroke="#F26522" stroke-width="0.7" stroke-miterlimit="10" stroke-dasharray="1 1" fill="none"/><g><rect x="38.644" y="177.858" width="0.808" height="5.263" fill="#F26522" transform="matrix(-0.8774 0.4798 -0.4798 -0.8774 159.904 320.115)"/></g><g><path d="M46.146 178.349C46.886 177.944 47.158 177.02 46.755 176.281 46.353 175.546 45.428 175.273 44.687 175.677 43.95 176.079 43.681 177.004 44.083 177.74 44.485 178.478 45.408 178.752 46.146 178.349Z" fill="#F26522"/></g></g><line x1="39.049" y1="206.61" x2="49.503" y2="206.61" stroke="#F26522" stroke-width="0.7" stroke-miterlimit="10" stroke-dasharray="1 1" fill="none"/><g><rect x="38.644" y="203.98" width="0.809" height="5.263" fill="#F26522"/></g><g><path d="M50.874 208.132C51.718 208.132 52.399 207.451 52.399 206.61 52.399 205.772 51.717 205.089 50.874 205.089 50.034 205.089 49.354 205.772 49.354 206.61 49.354 207.451 50.034 208.132 50.874 208.132Z" fill="#F26522"/></g><g><g><g><path d="M68.472 70.492C70.808 70.616 72.61 72.607 72.488 74.946 72.366 77.285 70.371 79.087 68.034 78.966 65.695 78.846 63.897 76.845 64.016 74.508 64.138 72.17 66.133 70.372 68.472 70.492Z" stroke="#7C702D" stroke-width="0.3" stroke-dasharray="1.0235 1.0235" fill="none"/></g><circle cx="68.262" cy="74.732" r="2.8" stroke="#7C702D" stroke-width="0.3" fill="#B7C98F"/><g><path d="M68.788 79.604C68.914 79.228 69.021 79.221 69.313 78.694 69.78 77.93 71.275 78.523 71.258 79.261L71.245 79.588C71.598 79.412 72.756 79.983 72.511 80.945 73.176 80.877 73.531 81.467 73.316 82.082 73.135 82.62 73.051 82.933 73.146 83.898 73.265 85.098 73.517 86.49 72.582 87.821 72.501 87.936 72.565 88.086 72.64 88.127 72.786 88.211 73.246 88.195 73.223 88.582L73.103 90.001C73.061 90.51 72.281 90.856 69.918 90.647 67.46 90.439 66.5 90.331 66.575 89.311 66.649 88.312 66.683 88.035 66.683 88.035 66.716 87.72 66.934 87.685 67.077 87.645 67.158 87.624 67.203 87.507 67.174 87.423 67.128 87.29 66.687 85.98 66.663 84.878 66.641 83.863 66.369 83.44 66.53 82.769 66.72 81.973 66.854 79.356 66.909 78.577 66.963 77.81 67.311 76.606 67.412 74.975 67.506 73.424 69.305 73.566 69.105 74.956 68.948 76.051 69.077 76.1 69 76.477 68.862 77.14 68.877 77.881 68.873 78.405 68.868 78.647 68.776 78.9 68.788 79.604" stroke="#EB4024" stroke-width="0.5" stroke-miterlimit="10" fill="#FCD4CD"/><path d="M69.836 88.597C70.815 88.706 72.527 88.661 72.688 88.619 72.839 88.572 72.92 88.691 72.881 88.908 72.859 89.055 72.796 89.822 72.796 89.822 72.771 90.161 72.391 90.538 69.774 90.319 67.07 90.077 66.734 89.939 66.801 89.14L66.913 88.15C66.927 88.088 66.966 88.05 67.031 88.024 67.19 87.961 67.364 88.322 69.836 88.597Z" stroke="#EB4024" stroke-width="0.5" fill="#FCD4CD"/></g><line x1="69.092" y1="98.413" x2="69.411" y2="89.611" stroke="#F26522" stroke-width="0.7" stroke-miterlimit="10" stroke-dasharray="1 1" fill="none"/></g><g><rect x="68.84" y="96.788" width="0.503" height="3.251" fill="#F26522" transform="matrix(-0.0544 0.9985 -0.9985 -0.0544 171.118 34.7782)"/></g></g><g><g><g><path d="M80.479 42.252C80.483 44.592 82.38 46.492 84.723 46.49 87.065 46.487 88.965 44.587 88.964 42.248 88.964 39.905 87.058 38.007 84.717 38.006 82.376 38.009 80.479 39.91 80.479 42.252Z" stroke="#7C702D" stroke-width="0.3" stroke-dasharray="1.0235 1.0235" fill="none"/></g><circle cx="84.725" cy="42.259" r="2.799" stroke="#7C702D" stroke-width="0.3" fill="#B7C98F"/><g><path d="M89.563 43.034C89.182 43.141 89.168 43.247 88.628 43.512 87.84 43.94 88.356 45.463 89.094 45.484L89.422 45.489C89.227 45.832 89.737 47.019 90.713 46.822 90.609 47.483 91.182 47.867 91.807 47.684 92.354 47.531 92.67 47.463 93.63 47.608 94.822 47.787 96.199 48.109 97.576 47.246 97.695 47.169 97.842 47.241 97.879 47.317 97.955 47.466 97.916 47.926 98.303 47.921L99.727 47.876C100.237 47.859 100.623 47.099 100.536 44.729 100.452 42.263 100.393 41.298 99.372 41.321 98.37 41.345 98.092 41.363 98.092 41.363 97.775 41.382 97.729 41.597 97.683 41.738 97.658 41.819 97.538 41.857 97.456 41.825 97.325 41.771 96.04 41.263 94.94 41.183 93.927 41.109 93.519 40.817 92.84 40.943 92.035 41.091 89.416 41.091 88.635 41.108 87.865 41.122 86.647 41.409 85.012 41.425 83.457 41.439 83.508 43.242 84.907 43.115 86.009 43.015 86.052 43.146 86.432 43.088 87.099 42.985 87.84 43.036 88.364 43.06 88.604 43.063 88.862 42.986 89.563 43.034" stroke="#EB4024" stroke-width="0.5" stroke-miterlimit="10" fill="#FCD4CD"/><path d="M98.491 44.541C98.551 45.524 98.417 47.233 98.366 47.388 98.313 47.538 98.427 47.625 98.645 47.598 98.794 47.582 99.563 47.558 99.563 47.558 99.903 47.551 100.299 47.191 100.214 44.565 100.11 41.852 99.988 41.509 99.188 41.536L98.194 41.598C98.132 41.609 98.092 41.644 98.063 41.71 97.992 41.864 98.343 42.059 98.491 44.541Z" stroke="#EB4024" stroke-width="0.5" fill="#FCD4CD"/></g><line x1="108.333" y1="44.297" x2="99.526" y2="44.167" stroke="#F26522" stroke-width="0.7" stroke-miterlimit="10" stroke-dasharray="1 1" fill="none"/></g><g><rect x="108.082" y="42.673" width="0.502" height="3.251" fill="#F26522"/></g></g><g><line x1="97.485" y1="120.675" x2="91.603" y2="120.675" stroke="#F26522" stroke-width="0.7" stroke-miterlimit="10" stroke-dasharray="1 1" fill="none"/><g><rect x="97.083" y="118.042" width="0.809" height="5.262" fill="#F26522"/></g><g><path d="M90.231 119.152C89.387 119.152 88.706 119.834 88.706 120.674 88.706 121.512 89.388 122.195 90.231 122.195 91.071 122.195 91.751 121.512 91.751 120.674 91.751 119.834 91.071 119.152 90.231 119.152Z" fill="#F26522"/></g></g><g><g><g><path d="M68.918 217.723C66.582 217.6 64.78 215.608 64.902 213.269 65.024 210.93 67.019 209.128 69.356 209.249 71.695 209.369 73.493 211.371 73.374 213.707 73.252 216.045 71.257 217.844 68.918 217.723Z" stroke="#7C702D" stroke-width="0.3" stroke-dasharray="1.0235 1.0235" fill="none"/></g><circle cx="69.127" cy="213.482" r="2.8" stroke="#7C702D" stroke-width="0.3" fill="#B7C98F"/><g><path d="M68.602 208.61C68.476 208.985 68.369 208.994 68.077 209.52 67.61 210.285 66.115 209.691 66.132 208.954L66.145 208.626C65.792 208.802 64.634 208.232 64.879 207.269 64.214 207.338 63.859 206.747 64.074 206.132 64.255 205.595 64.339 205.281 64.244 204.317 64.125 203.115 63.873 201.724 64.808 200.394 64.889 200.277 64.825 200.128 64.75 200.088 64.604 200.004 64.144 200.019 64.167 199.632L64.287 198.214C64.329 197.705 65.109 197.358 67.472 197.567 69.93 197.777 70.89 197.884 70.815 198.903 70.741 199.903 70.707 200.18 70.707 200.18 70.674 200.495 70.456 200.531 70.313 200.569 70.232 200.591 70.187 200.708 70.216 200.792 70.262 200.924 70.703 202.234 70.727 203.336 70.749 204.351 71.021 204.774 70.86 205.445 70.67 206.242 70.536 208.858 70.481 209.637 70.427 210.405 70.079 211.608 69.978 213.239 69.884 214.791 68.085 214.649 68.285 213.258 68.442 212.164 68.313 212.114 68.39 211.736 68.528 211.074 68.513 210.333 68.517 209.809 68.521 209.566 68.613 209.314 68.602 208.61" stroke="#EB4024" stroke-width="0.5" stroke-miterlimit="10" fill="#FCD4CD"/><path d="M67.554 199.619C66.575 199.509 64.863 199.554 64.702 199.596 64.551 199.642 64.47 199.524 64.509 199.307 64.531 199.159 64.594 198.393 64.594 198.393 64.619 198.053 64.999 197.676 67.616 197.894 70.32 198.138 70.656 198.276 70.589 199.074L70.477 200.064C70.463 200.126 70.424 200.164 70.359 200.19 70.199 200.253 70.025 199.894 67.554 199.619Z" stroke="#EB4024" stroke-width="0.5" fill="#FCD4CD"/></g><line x1="68.298" y1="189.801" x2="67.979" y2="198.603" stroke="#F26522" stroke-width="0.7" stroke-miterlimit="10" stroke-dasharray="1 1" fill="none"/></g><g><rect x="68.047" y="188.176" width="0.503" height="3.251" fill="#F26522" transform="matrix(0.0544 -0.9985 0.9985 0.0544 -124.937 247.675)"/></g></g><line x1="108.608" y1="208.837" x2="108.608" y2="217.783" stroke="#F26522" stroke-width="0.7" stroke-miterlimit="10" stroke-dasharray="1 1" fill="none"/><g><rect x="105.976" y="208.434" width="5.262" height="0.809" fill="#F26522"/></g><g><circle cx="108.608" cy="219.156" r="1.521" fill="#F26522"/></g><g><g><g><path d="M124.884 54.788C124.888 57.128 126.785 59.028 129.128 59.026 131.47 59.024 133.37 57.125 133.369 54.784 133.369 52.442 131.463 50.544 129.122 50.543 126.78 50.544 124.884 52.445 124.884 54.788Z" stroke="#7C702D" stroke-width="0.3" stroke-dasharray="1.0235 1.0235" fill="none"/></g><circle cx="129.129" cy="54.795" r="2.799" stroke="#7C702D" stroke-width="0.3" fill="#B7C98F"/><g><path d="M133.968 55.569C133.587 55.676 133.573 55.783 133.033 56.047 132.245 56.475 132.761 57.999 133.499 58.019L133.827 58.024C133.632 58.367 134.142 59.553 135.118 59.356 135.014 60.018 135.587 60.401 136.212 60.218 136.759 60.066 137.075 59.998 138.035 60.143 139.227 60.322 140.604 60.644 141.981 59.779 142.1 59.703 142.247 59.775 142.284 59.851 142.36 60.001 142.321 60.461 142.708 60.456L144.132 60.41C144.642 60.393 145.028 59.633 144.941 57.262 144.857 54.796 144.798 53.832 143.777 53.855 142.775 53.879 142.497 53.897 142.497 53.897 142.18 53.916 142.134 54.13 142.088 54.271 142.063 54.352 141.943 54.39 141.861 54.357 141.73 54.304 140.445 53.796 139.345 53.717 138.332 53.643 137.924 53.35 137.245 53.476 136.44 53.624 133.821 53.625 133.04 53.64 132.27 53.655 131.052 53.941 129.417 53.958 127.862 53.972 127.913 55.774 129.312 55.649 130.414 55.547 130.457 55.679 130.837 55.621 131.504 55.517 132.245 55.568 132.769 55.592 133.008 55.6 133.267 55.522 133.968 55.569" stroke="#EB4024" stroke-width="0.5" stroke-miterlimit="10" fill="#FCD4CD"/><path d="M142.896 57.077C142.956 58.059 142.822 59.767 142.771 59.923 142.718 60.073 142.832 60.16 143.05 60.133 143.199 60.118 143.968 60.093 143.968 60.093 144.308 60.086 144.704 59.727 144.619 57.101 144.515 54.389 144.393 54.044 143.593 54.072L142.599 54.133C142.537 54.144 142.497 54.181 142.468 54.245 142.396 54.399 142.747 54.594 142.896 57.077Z" stroke="#EB4024" stroke-width="0.5" fill="#FCD4CD"/></g><line x1="152.737" y1="56.834" x2="143.931" y2="56.703" stroke="#F26522" stroke-width="0.7" stroke-miterlimit="10" stroke-dasharray="1 1" fill="none"/></g><g><rect x="152.486" y="55.209" width="0.502" height="3.25" fill="#F26522"/></g></g><g><line x1="118.24" y1="67.524" x2="124.123" y2="67.524" stroke="#F26522" stroke-width="0.7" stroke-miterlimit="10" stroke-dasharray="1 1" fill="none"/><g><rect x="117.834" y="64.895" width="0.809" height="5.263" fill="#F26522"/></g><g><circle cx="125.494" cy="67.525" r="1.522" fill="#F26522"/></g></g></svg>